# Tiled2Unity generated file. Do not modify by hand.
# Wavefront file for 'escenaNorte_2_mesh_0184.obj'

# Vertices (Count = 128)
v 0 -3 0
v -1 -3 0
v -1 -2 0
v 0 -2 0
v -1 -3 0
v -2 -3 0
v -2 -2 0
v -1 -2 0
v -2 -3 0
v -3 -3 0
v -3 -2 0
v -2 -2 0
v -3 -3 0
v -4 -3 0
v -4 -2 0
v -3 -2 0
v -2 -4 0
v -3 -4 0
v -3 -3 0
v -2 -3 0
v -3 -4 0
v -4 -4 0
v -4 -3 0
v -3 -3 0
v -2 -5 0
v -3 -5 0
v -3 -4 0
v -2 -4 0
v -3 -5 0
v -4 -5 0
v -4 -4 0
v -3 -4 0
v -2 -6 0
v -3 -6 0
v -3 -5 0
v -2 -5 0
v -3 -6 0
v -4 -6 0
v -4 -5 0
v -3 -5 0
v -2 -7 0
v -3 -7 0
v -3 -6 0
v -2 -6 0
v -3 -7 0
v -4 -7 0
v -4 -6 0
v -3 -6 0
v -2 -8 0
v -3 -8 0
v -3 -7 0
v -2 -7 0
v -3 -8 0
v -4 -8 0
v -4 -7 0
v -3 -7 0
v -2 -9 0
v -3 -9 0
v -3 -8 0
v -2 -8 0
v -3 -9 0
v -4 -9 0
v -4 -8 0
v -3 -8 0
v -2 -10 0
v -3 -10 0
v -3 -9 0
v -2 -9 0
v -3 -10 0
v -4 -10 0
v -4 -9 0
v -3 -9 0
v -2 -11 0
v -3 -11 0
v -3 -10 0
v -2 -10 0
v -3 -11 0
v -4 -11 0
v -4 -10 0
v -3 -10 0
v -2 -12 0
v -3 -12 0
v -3 -11 0
v -2 -11 0
v -3 -12 0
v -4 -12 0
v -4 -11 0
v -3 -11 0
v -2 -13 0
v -3 -13 0
v -3 -12 0
v -2 -12 0
v -3 -13 0
v -4 -13 0
v -4 -12 0
v -3 -12 0
v -2 -14 0
v -3 -14 0
v -3 -13 0
v -2 -13 0
v -3 -14 0
v -4 -14 0
v -4 -13 0
v -3 -13 0
v -2 -15 0
v -3 -15 0
v -3 -14 0
v -2 -14 0
v -3 -15 0
v -4 -15 0
v -4 -14 0
v -3 -14 0
v 0 -16 0
v -1 -16 0
v -1 -15 0
v 0 -15 0
v -1 -16 0
v -2 -16 0
v -2 -15 0
v -1 -15 0
v -2 -16 0
v -3 -16 0
v -3 -15 0
v -2 -15 0
v -3 -16 0
v -4 -16 0
v -4 -15 0
v -3 -15 0

# Texture cooridinates (Count = 22)
vt 0.5742188 0.3984375
vt 0.6015625 0.3984375
vt 0.6015625 0.4257813
vt 0.5742188 0.4257813
vt 0.6289063 0.3984375
vt 0.6289063 0.4257813
vt 0.65625 0.3984375
vt 0.65625 0.4257813
vt 0.6835938 0.3984375
vt 0.6835938 0.4257813
vt 0.6289063 0.3710938
vt 0.65625 0.3710938
vt 0.6835938 0.3710938
vt 0.6289063 0.3164063
vt 0.65625 0.3164063
vt 0.65625 0.34375
vt 0.6289063 0.34375
vt 0.6835938 0.3164063
vt 0.6835938 0.34375
vt 0.6289063 0.2890625
vt 0.65625 0.2890625
vt 0.6835938 0.2890625

# Normal
vn 0 0 -1

# Mesh description
g escenaNorte_2_mesh_0184

# Faces
f 1/1/1 2/2/1 3/3/1 4/4/1
f 5/2/1 6/5/1 7/6/1 8/3/1
f 9/5/1 10/7/1 11/8/1 12/6/1
f 13/7/1 14/9/1 15/10/1 16/8/1
f 17/11/1 18/12/1 19/7/1 20/5/1
f 21/12/1 22/13/1 23/9/1 24/7/1
f 25/14/1 26/15/1 27/16/1 28/17/1
f 29/15/1 30/18/1 31/19/1 32/16/1
f 33/11/1 34/12/1 35/7/1 36/5/1
f 37/12/1 38/13/1 39/9/1 40/7/1
f 41/14/1 42/15/1 43/16/1 44/17/1
f 45/15/1 46/18/1 47/19/1 48/16/1
f 49/11/1 50/12/1 51/7/1 52/5/1
f 53/12/1 54/13/1 55/9/1 56/7/1
f 57/14/1 58/15/1 59/16/1 60/17/1
f 61/15/1 62/18/1 63/19/1 64/16/1
f 65/11/1 66/12/1 67/7/1 68/5/1
f 69/12/1 70/13/1 71/9/1 72/7/1
f 73/14/1 74/15/1 75/16/1 76/17/1
f 77/15/1 78/18/1 79/19/1 80/16/1
f 81/11/1 82/12/1 83/7/1 84/5/1
f 85/12/1 86/13/1 87/9/1 88/7/1
f 89/14/1 90/15/1 91/16/1 92/17/1
f 93/15/1 94/18/1 95/19/1 96/16/1
f 97/11/1 98/12/1 99/7/1 100/5/1
f 101/12/1 102/13/1 103/9/1 104/7/1
f 105/14/1 106/15/1 107/16/1 108/17/1
f 109/15/1 110/18/1 111/19/1 112/16/1
f 113/20/1 114/21/1 115/15/1 116/14/1
f 117/20/1 118/21/1 119/15/1 120/14/1
f 121/20/1 122/21/1 123/15/1 124/14/1
f 125/21/1 126/22/1 127/18/1 128/15/1

