# Tiled2Unity generated file. Do not modify by hand.
# Wavefront file for 'escenaNorte_2_mesh_0095.obj'

# Vertices (Count = 128)
v -13 -1 0
v -14 -1 0
v -14 0 0
v -13 0 0
v -14 -1 0
v -15 -1 0
v -15 0 0
v -14 0 0
v -13 -2 0
v -14 -2 0
v -14 -1 0
v -13 -1 0
v -14 -2 0
v -15 -2 0
v -15 -1 0
v -14 -1 0
v -13 -3 0
v -14 -3 0
v -14 -2 0
v -13 -2 0
v -14 -3 0
v -15 -3 0
v -15 -2 0
v -14 -2 0
v -13 -4 0
v -14 -4 0
v -14 -3 0
v -13 -3 0
v -14 -4 0
v -15 -4 0
v -15 -3 0
v -14 -3 0
v -13 -5 0
v -14 -5 0
v -14 -4 0
v -13 -4 0
v -14 -5 0
v -15 -5 0
v -15 -4 0
v -14 -4 0
v -13 -6 0
v -14 -6 0
v -14 -5 0
v -13 -5 0
v -14 -6 0
v -15 -6 0
v -15 -5 0
v -14 -5 0
v -13 -7 0
v -14 -7 0
v -14 -6 0
v -13 -6 0
v -14 -7 0
v -15 -7 0
v -15 -6 0
v -14 -6 0
v -13 -8 0
v -14 -8 0
v -14 -7 0
v -13 -7 0
v -14 -8 0
v -15 -8 0
v -15 -7 0
v -14 -7 0
v -13 -9 0
v -14 -9 0
v -14 -8 0
v -13 -8 0
v -14 -9 0
v -15 -9 0
v -15 -8 0
v -14 -8 0
v -13 -10 0
v -14 -10 0
v -14 -9 0
v -13 -9 0
v -14 -10 0
v -15 -10 0
v -15 -9 0
v -14 -9 0
v -13 -11 0
v -14 -11 0
v -14 -10 0
v -13 -10 0
v -14 -11 0
v -15 -11 0
v -15 -10 0
v -14 -10 0
v -13 -12 0
v -14 -12 0
v -14 -11 0
v -13 -11 0
v -14 -12 0
v -15 -12 0
v -15 -11 0
v -14 -11 0
v -13 -13 0
v -14 -13 0
v -14 -12 0
v -13 -12 0
v -14 -13 0
v -15 -13 0
v -15 -12 0
v -14 -12 0
v -13 -14 0
v -14 -14 0
v -14 -13 0
v -13 -13 0
v -14 -14 0
v -15 -14 0
v -15 -13 0
v -14 -13 0
v -13 -15 0
v -14 -15 0
v -14 -14 0
v -13 -14 0
v -14 -15 0
v -15 -15 0
v -15 -14 0
v -14 -14 0
v -13 -16 0
v -14 -16 0
v -14 -15 0
v -13 -15 0
v -14 -16 0
v -15 -16 0
v -15 -15 0
v -14 -15 0

# Texture cooridinates (Count = 16)
vt 0.65625 0.671875
vt 0.984375 0.671875
vt 0.984375 1
vt 0.65625 1
vt 0.328125 0.015625
vt 0.65625 0.015625
vt 0.65625 0.34375
vt 0.328125 0.34375
vt 0.328125 0.671875
vt 0.328125 1
vt 0.984375 0.34375
vt 0 0.34375
vt 0 0.671875
vt 0 1
vt 0 0.015625
vt 0.984375 0.015625

# Normal
vn 0 0 -1

# Mesh description
g escenaNorte_2_mesh_0095

# Faces
f 1/1/1 2/2/1 3/3/1 4/4/1
f 5/5/1 6/6/1 7/7/1 8/8/1
f 9/9/1 10/1/1 11/4/1 12/10/1
f 13/5/1 14/6/1 15/7/1 16/8/1
f 17/9/1 18/1/1 19/4/1 20/10/1
f 21/7/1 22/11/1 23/2/1 24/1/1
f 25/9/1 26/1/1 27/4/1 28/10/1
f 29/8/1 30/7/1 31/1/1 32/9/1
f 33/7/1 34/11/1 35/2/1 36/1/1
f 37/12/1 38/8/1 39/9/1 40/13/1
f 41/13/1 42/9/1 43/10/1 44/14/1
f 45/8/1 46/7/1 47/1/1 48/9/1
f 49/1/1 50/2/1 51/3/1 52/4/1
f 53/13/1 54/9/1 55/10/1 56/14/1
f 57/5/1 58/6/1 59/7/1 60/8/1
f 61/15/1 62/5/1 63/8/1 64/12/1
f 65/8/1 66/7/1 67/1/1 68/9/1
f 69/13/1 70/9/1 71/10/1 72/14/1
f 73/9/1 74/1/1 75/4/1 76/10/1
f 77/5/1 78/6/1 79/7/1 80/8/1
f 81/9/1 82/1/1 83/4/1 84/10/1
f 85/6/1 86/16/1 87/11/1 88/7/1
f 89/15/1 90/5/1 91/8/1 92/12/1
f 93/1/1 94/2/1 95/3/1 96/4/1
f 97/9/1 98/1/1 99/4/1 100/10/1
f 101/12/1 102/8/1 103/9/1 104/13/1
f 105/8/1 106/7/1 107/1/1 108/9/1
f 109/9/1 110/1/1 111/4/1 112/10/1
f 113/6/1 114/16/1 115/11/1 116/7/1
f 117/12/1 118/8/1 119/9/1 120/13/1
f 121/6/1 122/16/1 123/11/1 124/7/1
f 125/8/1 126/7/1 127/1/1 128/9/1

