# Tiled2Unity generated file. Do not modify by hand.
# Wavefront file for 'escenaNorte_2_mesh_0187.obj'

# Vertices (Count = 192)
v -2 -4 0
v -3 -4 0
v -3 -3 0
v -2 -3 0
v -3 -4 0
v -4 -4 0
v -4 -3 0
v -3 -3 0
v -4 -4 0
v -5 -4 0
v -5 -3 0
v -4 -3 0
v -5 -4 0
v -6 -4 0
v -6 -3 0
v -5 -3 0
v -6 -4 0
v -7 -4 0
v -7 -3 0
v -6 -3 0
v -7 -4 0
v -8 -4 0
v -8 -3 0
v -7 -3 0
v -2 -5 0
v -3 -5 0
v -3 -4 0
v -2 -4 0
v -3 -5 0
v -4 -5 0
v -4 -4 0
v -3 -4 0
v -4 -5 0
v -5 -5 0
v -5 -4 0
v -4 -4 0
v -7 -5 0
v -8 -5 0
v -8 -4 0
v -7 -4 0
v -2 -6 0
v -3 -6 0
v -3 -5 0
v -2 -5 0
v -3 -6 0
v -4 -6 0
v -4 -5 0
v -3 -5 0
v -4 -6 0
v -5 -6 0
v -5 -5 0
v -4 -5 0
v -7 -6 0
v -8 -6 0
v -8 -5 0
v -7 -5 0
v -2 -7 0
v -3 -7 0
v -3 -6 0
v -2 -6 0
v -3 -7 0
v -4 -7 0
v -4 -6 0
v -3 -6 0
v -4 -7 0
v -5 -7 0
v -5 -6 0
v -4 -6 0
v -7 -7 0
v -8 -7 0
v -8 -6 0
v -7 -6 0
v -4 -8 0
v -5 -8 0
v -5 -7 0
v -4 -7 0
v -7 -8 0
v -8 -8 0
v -8 -7 0
v -7 -7 0
v -4 -9 0
v -5 -9 0
v -5 -8 0
v -4 -8 0
v -5 -9 0
v -6 -9 0
v -6 -8 0
v -5 -8 0
v -6 -9 0
v -7 -9 0
v -7 -8 0
v -6 -8 0
v -7 -9 0
v -8 -9 0
v -8 -8 0
v -7 -8 0
v -4 -10 0
v -5 -10 0
v -5 -9 0
v -4 -9 0
v -5 -10 0
v -6 -10 0
v -6 -9 0
v -5 -9 0
v -6 -10 0
v -7 -10 0
v -7 -9 0
v -6 -9 0
v -7 -10 0
v -8 -10 0
v -8 -9 0
v -7 -9 0
v -4 -11 0
v -5 -11 0
v -5 -10 0
v -4 -10 0
v -5 -11 0
v -6 -11 0
v -6 -10 0
v -5 -10 0
v -6 -11 0
v -7 -11 0
v -7 -10 0
v -6 -10 0
v -7 -11 0
v -8 -11 0
v -8 -10 0
v -7 -10 0
v -2 -12 0
v -3 -12 0
v -3 -11 0
v -2 -11 0
v -3 -12 0
v -4 -12 0
v -4 -11 0
v -3 -11 0
v -4 -12 0
v -5 -12 0
v -5 -11 0
v -4 -11 0
v -5 -12 0
v -6 -12 0
v -6 -11 0
v -5 -11 0
v -6 -12 0
v -7 -12 0
v -7 -11 0
v -6 -11 0
v -7 -12 0
v -8 -12 0
v -8 -11 0
v -7 -11 0
v -2 -13 0
v -3 -13 0
v -3 -12 0
v -2 -12 0
v -3 -13 0
v -4 -13 0
v -4 -12 0
v -3 -12 0
v -4 -13 0
v -5 -13 0
v -5 -12 0
v -4 -12 0
v -5 -13 0
v -6 -13 0
v -6 -12 0
v -5 -12 0
v -6 -13 0
v -7 -13 0
v -7 -12 0
v -6 -12 0
v -7 -13 0
v -8 -13 0
v -8 -12 0
v -7 -12 0
v -14 -14 0
v -15 -14 0
v -15 -13 0
v -14 -13 0
v -15 -14 0
v -16 -14 0
v -16 -13 0
v -15 -13 0
v -14 -15 0
v -15 -15 0
v -15 -14 0
v -14 -14 0
v -15 -15 0
v -16 -15 0
v -16 -14 0
v -15 -14 0

# Texture cooridinates (Count = 26)
vt 0.765625 0.9179688
vt 0.7929688 0.9179688
vt 0.7929688 0.9453125
vt 0.765625 0.9453125
vt 0.765625 0.890625
vt 0.7929688 0.890625
vt 0.7929688 0.9726563
vt 0.765625 0.9726563
vt 0.5742188 0.1523438
vt 0.6015625 0.1523438
vt 0.6015625 0.1796875
vt 0.5742188 0.1796875
vt 0.6289063 0.1523438
vt 0.6289063 0.1796875
vt 0.5742188 0.125
vt 0.6015625 0.125
vt 0.6289063 0.125
vt 0.3828125 0.34375
vt 0.4101563 0.34375
vt 0.4101563 0.3710938
vt 0.3828125 0.3710938
vt 0.4375 0.34375
vt 0.4375 0.3710938
vt 0.3828125 0.3164063
vt 0.4101563 0.3164063
vt 0.4375 0.3164063

# Normal
vn 0 0 -1

# Mesh description
g escenaNorte_2_mesh_0187

# Faces
f 1/1/1 2/2/1 3/3/1 4/4/1
f 5/1/1 6/2/1 7/3/1 8/4/1
f 9/1/1 10/2/1 11/3/1 12/4/1
f 13/1/1 14/2/1 15/3/1 16/4/1
f 17/1/1 18/2/1 19/3/1 20/4/1
f 21/1/1 22/2/1 23/3/1 24/4/1
f 25/5/1 26/6/1 27/2/1 28/1/1
f 29/4/1 30/3/1 31/7/1 32/8/1
f 33/4/1 34/3/1 35/7/1 36/8/1
f 37/5/1 38/6/1 39/2/1 40/1/1
f 41/1/1 42/2/1 43/3/1 44/4/1
f 45/1/1 46/2/1 47/3/1 48/4/1
f 49/1/1 50/2/1 51/3/1 52/4/1
f 53/4/1 54/3/1 55/7/1 56/8/1
f 57/5/1 58/6/1 59/2/1 60/1/1
f 61/5/1 62/6/1 63/2/1 64/1/1
f 65/5/1 66/6/1 67/2/1 68/1/1
f 69/1/1 70/2/1 71/3/1 72/4/1
f 73/4/1 74/3/1 75/7/1 76/8/1
f 77/5/1 78/6/1 79/2/1 80/1/1
f 81/1/1 82/2/1 83/3/1 84/4/1
f 85/1/1 86/2/1 87/3/1 88/4/1
f 89/9/1 90/10/1 91/11/1 92/12/1
f 93/10/1 94/13/1 95/14/1 96/11/1
f 97/5/1 98/6/1 99/2/1 100/1/1
f 101/5/1 102/6/1 103/2/1 104/1/1
f 105/15/1 106/16/1 107/10/1 108/9/1
f 109/16/1 110/17/1 111/13/1 112/10/1
f 113/4/1 114/3/1 115/7/1 116/8/1
f 117/4/1 118/3/1 119/7/1 120/8/1
f 121/4/1 122/3/1 123/7/1 124/8/1
f 125/5/1 126/6/1 127/2/1 128/1/1
f 129/1/1 130/2/1 131/3/1 132/4/1
f 133/1/1 134/2/1 135/3/1 136/4/1
f 137/1/1 138/2/1 139/3/1 140/4/1
f 141/1/1 142/2/1 143/3/1 144/4/1
f 145/1/1 146/2/1 147/3/1 148/4/1
f 149/1/1 150/2/1 151/3/1 152/4/1
f 153/5/1 154/6/1 155/2/1 156/1/1
f 157/5/1 158/6/1 159/2/1 160/1/1
f 161/5/1 162/6/1 163/2/1 164/1/1
f 165/5/1 166/6/1 167/2/1 168/1/1
f 169/5/1 170/6/1 171/2/1 172/1/1
f 173/5/1 174/6/1 175/2/1 176/1/1
f 177/18/1 178/19/1 179/20/1 180/21/1
f 181/19/1 182/22/1 183/23/1 184/20/1
f 185/24/1 186/25/1 187/19/1 188/18/1
f 189/25/1 190/26/1 191/22/1 192/19/1

