# Tiled2Unity generated file. Do not modify by hand.
# Wavefront file for 'escenaNorte_2_mesh_0176.obj'

# Vertices (Count = 140)
v -4 -4 0
v -5 -4 0
v -5 -3 0
v -4 -3 0
v -5 -4 0
v -6 -4 0
v -6 -3 0
v -5 -3 0
v -6 -4 0
v -7 -4 0
v -7 -3 0
v -6 -3 0
v -7 -4 0
v -8 -4 0
v -8 -3 0
v -7 -3 0
v -8 -4 0
v -9 -4 0
v -9 -3 0
v -8 -3 0
v -9 -4 0
v -10 -4 0
v -10 -3 0
v -9 -3 0
v -10 -4 0
v -11 -4 0
v -11 -3 0
v -10 -3 0
v -11 -4 0
v -12 -4 0
v -12 -3 0
v -11 -3 0
v -15 -4 0
v -16 -4 0
v -16 -3 0
v -15 -3 0
v -4 -5 0
v -5 -5 0
v -5 -4 0
v -4 -4 0
v -5 -5 0
v -6 -5 0
v -6 -4 0
v -5 -4 0
v -6 -5 0
v -7 -5 0
v -7 -4 0
v -6 -4 0
v -7 -5 0
v -8 -5 0
v -8 -4 0
v -7 -4 0
v -8 -5 0
v -9 -5 0
v -9 -4 0
v -8 -4 0
v -9 -5 0
v -10 -5 0
v -10 -4 0
v -9 -4 0
v -10 -5 0
v -11 -5 0
v -11 -4 0
v -10 -4 0
v -11 -5 0
v -12 -5 0
v -12 -4 0
v -11 -4 0
v -15 -5 0
v -16 -5 0
v -16 -4 0
v -15 -4 0
v -4 -6 0
v -5 -6 0
v -5 -5 0
v -4 -5 0
v -5 -6 0
v -6 -6 0
v -6 -5 0
v -5 -5 0
v -6 -6 0
v -7 -6 0
v -7 -5 0
v -6 -5 0
v -7 -6 0
v -8 -6 0
v -8 -5 0
v -7 -5 0
v -8 -6 0
v -9 -6 0
v -9 -5 0
v -8 -5 0
v -9 -6 0
v -10 -6 0
v -10 -5 0
v -9 -5 0
v -10 -6 0
v -11 -6 0
v -11 -5 0
v -10 -5 0
v -11 -6 0
v -12 -6 0
v -12 -5 0
v -11 -5 0
v -4 -7 0
v -5 -7 0
v -5 -6 0
v -4 -6 0
v -5 -7 0
v -6 -7 0
v -6 -6 0
v -5 -6 0
v -6 -7 0
v -7 -7 0
v -7 -6 0
v -6 -6 0
v -7 -7 0
v -8 -7 0
v -8 -6 0
v -7 -6 0
v -8 -7 0
v -9 -7 0
v -9 -6 0
v -8 -6 0
v -9 -7 0
v -10 -7 0
v -10 -6 0
v -9 -6 0
v -10 -7 0
v -11 -7 0
v -11 -6 0
v -10 -6 0
v -11 -7 0
v -12 -7 0
v -12 -6 0
v -11 -6 0
v -15 -9 0
v -16 -9 0
v -16 -8 0
v -15 -8 0

# Texture cooridinates (Count = 35)
vt 0.7109375 0.890625
vt 0.7382813 0.890625
vt 0.7382813 0.9179688
vt 0.7109375 0.9179688
vt 0.765625 0.9179688
vt 0.765625 0.9453125
vt 0.7382813 0.9453125
vt 0.7929688 0.9179688
vt 0.7929688 0.9453125
vt 0.8203125 0.9179688
vt 0.8203125 0.9453125
vt 0.8476563 0.9179688
vt 0.8476563 0.9453125
vt 0.6835938 0.78125
vt 0.7109375 0.78125
vt 0.7109375 0.8085938
vt 0.6835938 0.8085938
vt 0.765625 0.890625
vt 0.7929688 0.890625
vt 0.8203125 0.890625
vt 0.8476563 0.890625
vt 0.6835938 0.7539063
vt 0.7109375 0.7539063
vt 0.7109375 0.8632813
vt 0.7382813 0.8632813
vt 0.765625 0.8632813
vt 0.7929688 0.8632813
vt 0.8203125 0.8632813
vt 0.8476563 0.8632813
vt 0.7109375 0.8359375
vt 0.7382813 0.8359375
vt 0.765625 0.8359375
vt 0.7929688 0.8359375
vt 0.8203125 0.8359375
vt 0.8476563 0.8359375

# Normal
vn 0 0 -1

# Mesh description
g escenaNorte_2_mesh_0176

# Faces
f 1/1/1 2/2/1 3/3/1 4/4/1
f 5/3/1 6/5/1 7/6/1 8/7/1
f 9/5/1 10/8/1 11/9/1 12/6/1
f 13/5/1 14/8/1 15/9/1 16/6/1
f 17/5/1 18/8/1 19/9/1 20/6/1
f 21/5/1 22/8/1 23/9/1 24/6/1
f 25/8/1 26/10/1 27/11/1 28/9/1
f 29/10/1 30/12/1 31/13/1 32/11/1
f 33/14/1 34/15/1 35/16/1 36/17/1
f 37/1/1 38/2/1 39/3/1 40/4/1
f 41/2/1 42/18/1 43/5/1 44/3/1
f 45/18/1 46/19/1 47/8/1 48/5/1
f 49/18/1 50/19/1 51/8/1 52/5/1
f 53/18/1 54/19/1 55/8/1 56/5/1
f 57/18/1 58/19/1 59/8/1 60/5/1
f 61/19/1 62/20/1 63/10/1 64/8/1
f 65/20/1 66/21/1 67/12/1 68/10/1
f 69/22/1 70/23/1 71/15/1 72/14/1
f 73/24/1 74/25/1 75/2/1 76/1/1
f 77/25/1 78/26/1 79/18/1 80/2/1
f 81/26/1 82/27/1 83/19/1 84/18/1
f 85/26/1 86/27/1 87/19/1 88/18/1
f 89/26/1 90/27/1 91/19/1 92/18/1
f 93/26/1 94/27/1 95/19/1 96/18/1
f 97/27/1 98/28/1 99/20/1 100/19/1
f 101/28/1 102/29/1 103/21/1 104/20/1
f 105/30/1 106/31/1 107/25/1 108/24/1
f 109/31/1 110/32/1 111/26/1 112/25/1
f 113/32/1 114/33/1 115/27/1 116/26/1
f 117/32/1 118/33/1 119/27/1 120/26/1
f 121/32/1 122/33/1 123/27/1 124/26/1
f 125/32/1 126/33/1 127/27/1 128/26/1
f 129/33/1 130/34/1 131/28/1 132/27/1
f 133/34/1 134/35/1 135/29/1 136/28/1
f 137/25/1 138/26/1 139/18/1 140/2/1

