# Tiled2Unity generated file. Do not modify by hand.
# Wavefront file for 'escenaNorte_2_mesh_0186.obj'

# Vertices (Count = 320)
v -2 -3 0
v -3 -3 0
v -3 -2 0
v -2 -2 0
v -3 -3 0
v -4 -3 0
v -4 -2 0
v -3 -2 0
v -4 -3 0
v -5 -3 0
v -5 -2 0
v -4 -2 0
v -5 -3 0
v -6 -3 0
v -6 -2 0
v -5 -2 0
v -6 -3 0
v -7 -3 0
v -7 -2 0
v -6 -2 0
v -7 -3 0
v -8 -3 0
v -8 -2 0
v -7 -2 0
v -8 -3 0
v -9 -3 0
v -9 -2 0
v -8 -2 0
v -9 -3 0
v -10 -3 0
v -10 -2 0
v -9 -2 0
v -14 -3 0
v -15 -3 0
v -15 -2 0
v -14 -2 0
v -15 -3 0
v -16 -3 0
v -16 -2 0
v -15 -2 0
v -8 -4 0
v -9 -4 0
v -9 -3 0
v -8 -3 0
v -9 -4 0
v -10 -4 0
v -10 -3 0
v -9 -3 0
v -14 -4 0
v -15 -4 0
v -15 -3 0
v -14 -3 0
v -15 -4 0
v -16 -4 0
v -16 -3 0
v -15 -3 0
v -5 -5 0
v -6 -5 0
v -6 -4 0
v -5 -4 0
v -6 -5 0
v -7 -5 0
v -7 -4 0
v -6 -4 0
v -8 -5 0
v -9 -5 0
v -9 -4 0
v -8 -4 0
v -9 -5 0
v -10 -5 0
v -10 -4 0
v -9 -4 0
v -5 -6 0
v -6 -6 0
v -6 -5 0
v -5 -5 0
v -6 -6 0
v -7 -6 0
v -7 -5 0
v -6 -5 0
v -8 -6 0
v -9 -6 0
v -9 -5 0
v -8 -5 0
v -9 -6 0
v -10 -6 0
v -10 -5 0
v -9 -5 0
v -5 -7 0
v -6 -7 0
v -6 -6 0
v -5 -6 0
v -6 -7 0
v -7 -7 0
v -7 -6 0
v -6 -6 0
v -8 -7 0
v -9 -7 0
v -9 -6 0
v -8 -6 0
v -9 -7 0
v -10 -7 0
v -10 -6 0
v -9 -6 0
v -14 -7 0
v -15 -7 0
v -15 -6 0
v -14 -6 0
v -15 -7 0
v -16 -7 0
v -16 -6 0
v -15 -6 0
v -2 -8 0
v -3 -8 0
v -3 -7 0
v -2 -7 0
v -3 -8 0
v -4 -8 0
v -4 -7 0
v -3 -7 0
v -5 -8 0
v -6 -8 0
v -6 -7 0
v -5 -7 0
v -6 -8 0
v -7 -8 0
v -7 -7 0
v -6 -7 0
v -8 -8 0
v -9 -8 0
v -9 -7 0
v -8 -7 0
v -9 -8 0
v -10 -8 0
v -10 -7 0
v -9 -7 0
v -14 -8 0
v -15 -8 0
v -15 -7 0
v -14 -7 0
v -15 -8 0
v -16 -8 0
v -16 -7 0
v -15 -7 0
v -2 -9 0
v -3 -9 0
v -3 -8 0
v -2 -8 0
v -3 -9 0
v -4 -9 0
v -4 -8 0
v -3 -8 0
v -8 -9 0
v -9 -9 0
v -9 -8 0
v -8 -8 0
v -9 -9 0
v -10 -9 0
v -10 -8 0
v -9 -8 0
v -14 -9 0
v -15 -9 0
v -15 -8 0
v -14 -8 0
v -15 -9 0
v -16 -9 0
v -16 -8 0
v -15 -8 0
v -2 -10 0
v -3 -10 0
v -3 -9 0
v -2 -9 0
v -3 -10 0
v -4 -10 0
v -4 -9 0
v -3 -9 0
v -8 -10 0
v -9 -10 0
v -9 -9 0
v -8 -9 0
v -9 -10 0
v -10 -10 0
v -10 -9 0
v -9 -9 0
v -14 -10 0
v -15 -10 0
v -15 -9 0
v -14 -9 0
v -15 -10 0
v -16 -10 0
v -16 -9 0
v -15 -9 0
v -2 -11 0
v -3 -11 0
v -3 -10 0
v -2 -10 0
v -3 -11 0
v -4 -11 0
v -4 -10 0
v -3 -10 0
v -8 -11 0
v -9 -11 0
v -9 -10 0
v -8 -10 0
v -9 -11 0
v -10 -11 0
v -10 -10 0
v -9 -10 0
v -14 -11 0
v -15 -11 0
v -15 -10 0
v -14 -10 0
v -15 -11 0
v -16 -11 0
v -16 -10 0
v -15 -10 0
v -8 -12 0
v -9 -12 0
v -9 -11 0
v -8 -11 0
v -9 -12 0
v -10 -12 0
v -10 -11 0
v -9 -11 0
v -14 -12 0
v -15 -12 0
v -15 -11 0
v -14 -11 0
v -15 -12 0
v -16 -12 0
v -16 -11 0
v -15 -11 0
v -8 -13 0
v -9 -13 0
v -9 -12 0
v -8 -12 0
v -9 -13 0
v -10 -13 0
v -10 -12 0
v -9 -12 0
v -14 -13 0
v -15 -13 0
v -15 -12 0
v -14 -12 0
v -15 -13 0
v -16 -13 0
v -16 -12 0
v -15 -12 0
v -2 -14 0
v -3 -14 0
v -3 -13 0
v -2 -13 0
v -3 -14 0
v -4 -14 0
v -4 -13 0
v -3 -13 0
v -4 -14 0
v -5 -14 0
v -5 -13 0
v -4 -13 0
v -8 -14 0
v -9 -14 0
v -9 -13 0
v -8 -13 0
v -9 -14 0
v -10 -14 0
v -10 -13 0
v -9 -13 0
v -2 -15 0
v -3 -15 0
v -3 -14 0
v -2 -14 0
v -3 -15 0
v -4 -15 0
v -4 -14 0
v -3 -14 0
v -4 -15 0
v -5 -15 0
v -5 -14 0
v -4 -14 0
v -8 -15 0
v -9 -15 0
v -9 -14 0
v -8 -14 0
v -9 -15 0
v -10 -15 0
v -10 -14 0
v -9 -14 0
v -2 -16 0
v -3 -16 0
v -3 -15 0
v -2 -15 0
v -3 -16 0
v -4 -16 0
v -4 -15 0
v -3 -15 0
v -4 -16 0
v -5 -16 0
v -5 -15 0
v -4 -15 0
v -5 -16 0
v -6 -16 0
v -6 -15 0
v -5 -15 0
v -6 -16 0
v -7 -16 0
v -7 -15 0
v -6 -15 0
v -7 -16 0
v -8 -16 0
v -8 -15 0
v -7 -15 0
v -8 -16 0
v -9 -16 0
v -9 -15 0
v -8 -15 0
v -9 -16 0
v -10 -16 0
v -10 -15 0
v -9 -15 0

# Texture cooridinates (Count = 73)
vt 0.5195313 0.3984375
vt 0.546875 0.3984375
vt 0.546875 0.4257813
vt 0.5195313 0.4257813
vt 0.5742188 0.3984375
vt 0.5742188 0.4257813
vt 0.6015625 0.3984375
vt 0.6015625 0.4257813
vt 0.6289063 0.3984375
vt 0.6289063 0.4257813
vt 0.65625 0.3984375
vt 0.65625 0.4257813
vt 0.6835938 0.3984375
vt 0.6835938 0.4257813
vt 0 0.6445313
vt 0.02734375 0.6445313
vt 0.02734375 0.671875
vt 0 0.671875
vt 0.0546875 0.6445313
vt 0.0546875 0.671875
vt 0.6289063 0.3710938
vt 0.65625 0.3710938
vt 0.6835938 0.3710938
vt 0 0.6171875
vt 0.02734375 0.6171875
vt 0.0546875 0.6171875
vt 0 0.6992188
vt 0.02734375 0.6992188
vt 0.02734375 0.7265625
vt 0 0.7265625
vt 0.0546875 0.6992188
vt 0.0546875 0.7265625
vt 0.6289063 0.3164063
vt 0.65625 0.3164063
vt 0.65625 0.34375
vt 0.6289063 0.34375
vt 0.6835938 0.3164063
vt 0.6835938 0.34375
vt 0.4101563 0.7539063
vt 0.4101563 0.7265625
vt 0.4375 0.7265625
vt 0.4375 0.7539063
vt 0.4101563 0.6992188
vt 0.4375 0.6992188
vt 0.3828125 0.7539063
vt 0.3828125 0.7265625
vt 0.3828125 0.6992188
vt 0.3554688 0.7539063
vt 0.3554688 0.7265625
vt 0.3554688 0.6992188
vt 0.328125 0.7539063
vt 0.328125 0.7265625
vt 0.328125 0.6992188
vt 0.3007813 0.7539063
vt 0.3007813 0.7265625
vt 0.3007813 0.6992188
vt 0.2734375 0.7539063
vt 0.2734375 0.7265625
vt 0.2734375 0.6992188
vt 0.2460938 0.7539063
vt 0.2460938 0.7265625
vt 0.2460938 0.6992188
vt 0.5195313 0.2890625
vt 0.546875 0.2890625
vt 0.546875 0.3164063
vt 0.5195313 0.3164063
vt 0.5742188 0.2890625
vt 0.5742188 0.3164063
vt 0.6015625 0.2890625
vt 0.6015625 0.3164063
vt 0.6289063 0.2890625
vt 0.65625 0.2890625
vt 0.6835938 0.2890625

# Normal
vn 0 0 -1

# Mesh description
g escenaNorte_2_mesh_0186

# Faces
f 1/1/1 2/2/1 3/3/1 4/4/1
f 5/2/1 6/5/1 7/6/1 8/3/1
f 9/5/1 10/7/1 11/8/1 12/6/1
f 13/7/1 14/9/1 15/10/1 16/8/1
f 17/5/1 18/7/1 19/8/1 20/6/1
f 21/7/1 22/9/1 23/10/1 24/8/1
f 25/9/1 26/11/1 27/12/1 28/10/1
f 29/11/1 30/13/1 31/14/1 32/12/1
f 33/15/1 34/16/1 35/17/1 36/18/1
f 37/16/1 38/19/1 39/20/1 40/17/1
f 41/21/1 42/22/1 43/11/1 44/9/1
f 45/22/1 46/23/1 47/13/1 48/11/1
f 49/24/1 50/25/1 51/16/1 52/15/1
f 53/25/1 54/26/1 55/19/1 56/16/1
f 57/27/1 58/28/1 59/29/1 60/30/1
f 61/28/1 62/31/1 63/32/1 64/29/1
f 65/33/1 66/34/1 67/35/1 68/36/1
f 69/34/1 70/37/1 71/38/1 72/35/1
f 73/18/1 74/17/1 75/28/1 76/27/1
f 77/17/1 78/20/1 79/31/1 80/28/1
f 81/21/1 82/22/1 83/11/1 84/9/1
f 85/22/1 86/23/1 87/13/1 88/11/1
f 89/15/1 90/16/1 91/17/1 92/18/1
f 93/16/1 94/19/1 95/20/1 96/17/1
f 97/33/1 98/34/1 99/35/1 100/36/1
f 101/34/1 102/37/1 103/38/1 104/35/1
f 105/39/1 106/40/1 107/41/1 108/42/1
f 109/40/1 110/43/1 111/44/1 112/41/1
f 113/27/1 114/28/1 115/29/1 116/30/1
f 117/28/1 118/31/1 119/32/1 120/29/1
f 121/24/1 122/25/1 123/16/1 124/15/1
f 125/25/1 126/26/1 127/19/1 128/16/1
f 129/21/1 130/22/1 131/11/1 132/9/1
f 133/22/1 134/23/1 135/13/1 136/11/1
f 137/45/1 138/46/1 139/40/1 140/39/1
f 141/46/1 142/47/1 143/43/1 144/40/1
f 145/18/1 146/17/1 147/28/1 148/27/1
f 149/17/1 150/20/1 151/31/1 152/28/1
f 153/33/1 154/34/1 155/35/1 156/36/1
f 157/34/1 158/37/1 159/38/1 160/35/1
f 161/48/1 162/49/1 163/46/1 164/45/1
f 165/49/1 166/50/1 167/47/1 168/46/1
f 169/15/1 170/16/1 171/17/1 172/18/1
f 173/16/1 174/19/1 175/20/1 176/17/1
f 177/21/1 178/22/1 179/11/1 180/9/1
f 181/22/1 182/23/1 183/13/1 184/11/1
f 185/51/1 186/52/1 187/49/1 188/48/1
f 189/52/1 190/53/1 191/50/1 192/49/1
f 193/24/1 194/25/1 195/16/1 196/15/1
f 197/25/1 198/26/1 199/19/1 200/16/1
f 201/33/1 202/34/1 203/35/1 204/36/1
f 205/34/1 206/37/1 207/38/1 208/35/1
f 209/54/1 210/55/1 211/52/1 212/51/1
f 213/55/1 214/56/1 215/53/1 216/52/1
f 217/21/1 218/22/1 219/11/1 220/9/1
f 221/22/1 222/23/1 223/13/1 224/11/1
f 225/57/1 226/58/1 227/55/1 228/54/1
f 229/58/1 230/59/1 231/56/1 232/55/1
f 233/33/1 234/34/1 235/35/1 236/36/1
f 237/34/1 238/37/1 239/38/1 240/35/1
f 241/60/1 242/61/1 243/58/1 244/57/1
f 245/61/1 246/62/1 247/59/1 248/58/1
f 249/49/1 250/46/1 251/45/1 252/48/1
f 253/46/1 254/40/1 255/39/1 256/45/1
f 257/40/1 258/41/1 259/42/1 260/39/1
f 261/21/1 262/22/1 263/11/1 264/9/1
f 265/22/1 266/23/1 267/13/1 268/11/1
f 269/50/1 270/47/1 271/46/1 272/49/1
f 273/47/1 274/43/1 275/40/1 276/46/1
f 277/43/1 278/44/1 279/41/1 280/40/1
f 281/33/1 282/34/1 283/35/1 284/36/1
f 285/34/1 286/37/1 287/38/1 288/35/1
f 289/63/1 290/64/1 291/65/1 292/66/1
f 293/64/1 294/67/1 295/68/1 296/65/1
f 297/67/1 298/69/1 299/70/1 300/68/1
f 301/69/1 302/71/1 303/33/1 304/70/1
f 305/71/1 306/72/1 307/34/1 308/33/1
f 309/71/1 310/72/1 311/34/1 312/33/1
f 313/71/1 314/72/1 315/34/1 316/33/1
f 317/72/1 318/73/1 319/37/1 320/34/1

