# Tiled2Unity generated file. Do not modify by hand.
# Wavefront file for 'escenaNorte_2_mesh_0101.obj'

# Vertices (Count = 128)
v 0 -14 0
v -1 -14 0
v -1 -13 0
v 0 -13 0
v -1 -14 0
v -2 -14 0
v -2 -13 0
v -1 -13 0
v -2 -14 0
v -3 -14 0
v -3 -13 0
v -2 -13 0
v -3 -14 0
v -4 -14 0
v -4 -13 0
v -3 -13 0
v -4 -14 0
v -5 -14 0
v -5 -13 0
v -4 -13 0
v -5 -14 0
v -6 -14 0
v -6 -13 0
v -5 -13 0
v -6 -14 0
v -7 -14 0
v -7 -13 0
v -6 -13 0
v -7 -14 0
v -8 -14 0
v -8 -13 0
v -7 -13 0
v -8 -14 0
v -9 -14 0
v -9 -13 0
v -8 -13 0
v -9 -14 0
v -10 -14 0
v -10 -13 0
v -9 -13 0
v -10 -14 0
v -11 -14 0
v -11 -13 0
v -10 -13 0
v -11 -14 0
v -12 -14 0
v -12 -13 0
v -11 -13 0
v -12 -14 0
v -13 -14 0
v -13 -13 0
v -12 -13 0
v -13 -14 0
v -14 -14 0
v -14 -13 0
v -13 -13 0
v -14 -14 0
v -15 -14 0
v -15 -13 0
v -14 -13 0
v -15 -14 0
v -16 -14 0
v -16 -13 0
v -15 -13 0
v 0 -15 0
v -1 -15 0
v -1 -14 0
v 0 -14 0
v -1 -15 0
v -2 -15 0
v -2 -14 0
v -1 -14 0
v -2 -15 0
v -3 -15 0
v -3 -14 0
v -2 -14 0
v -3 -15 0
v -4 -15 0
v -4 -14 0
v -3 -14 0
v -4 -15 0
v -5 -15 0
v -5 -14 0
v -4 -14 0
v -5 -15 0
v -6 -15 0
v -6 -14 0
v -5 -14 0
v -6 -15 0
v -7 -15 0
v -7 -14 0
v -6 -14 0
v -7 -15 0
v -8 -15 0
v -8 -14 0
v -7 -14 0
v -8 -15 0
v -9 -15 0
v -9 -14 0
v -8 -14 0
v -9 -15 0
v -10 -15 0
v -10 -14 0
v -9 -14 0
v -10 -15 0
v -11 -15 0
v -11 -14 0
v -10 -14 0
v -11 -15 0
v -12 -15 0
v -12 -14 0
v -11 -14 0
v -12 -15 0
v -13 -15 0
v -13 -14 0
v -12 -14 0
v -13 -15 0
v -14 -15 0
v -14 -14 0
v -13 -14 0
v -14 -15 0
v -15 -15 0
v -15 -14 0
v -14 -14 0
v -15 -15 0
v -16 -15 0
v -16 -14 0
v -15 -14 0

# Texture cooridinates (Count = 16)
vt 0 0.671875
vt 0.328125 0.671875
vt 0.328125 1
vt 0 1
vt 0.328125 0.015625
vt 0.65625 0.015625
vt 0.65625 0.34375
vt 0.328125 0.34375
vt 0.65625 0.671875
vt 0.984375 0.34375
vt 0.984375 0.671875
vt 0 0.34375
vt 0.984375 0.015625
vt 0.65625 1
vt 0.984375 1
vt 0 0.015625

# Normal
vn 0 0 -1

# Mesh description
g escenaNorte_2_mesh_0101

# Faces
f 1/1/1 2/2/1 3/3/1 4/4/1
f 5/5/1 6/6/1 7/7/1 8/8/1
f 9/8/1 10/7/1 11/9/1 12/2/1
f 13/5/1 14/6/1 15/7/1 16/8/1
f 17/5/1 18/6/1 19/7/1 20/8/1
f 21/7/1 22/10/1 23/11/1 24/9/1
f 25/7/1 26/10/1 27/11/1 28/9/1
f 29/1/1 30/2/1 31/3/1 32/4/1
f 33/12/1 34/8/1 35/2/1 36/1/1
f 37/6/1 38/13/1 39/10/1 40/7/1
f 41/2/1 42/9/1 43/14/1 44/3/1
f 45/12/1 46/8/1 47/2/1 48/1/1
f 49/9/1 50/11/1 51/15/1 52/14/1
f 53/1/1 54/2/1 55/3/1 56/4/1
f 57/1/1 58/2/1 59/3/1 60/4/1
f 61/9/1 62/11/1 63/15/1 64/14/1
f 65/1/1 66/2/1 67/3/1 68/4/1
f 69/7/1 70/10/1 71/11/1 72/9/1
f 73/5/1 74/6/1 75/7/1 76/8/1
f 77/16/1 78/5/1 79/8/1 80/12/1
f 81/5/1 82/6/1 83/7/1 84/8/1
f 85/1/1 86/2/1 87/3/1 88/4/1
f 89/12/1 90/8/1 91/2/1 92/1/1
f 93/2/1 94/9/1 95/14/1 96/3/1
f 97/7/1 98/10/1 99/11/1 100/9/1
f 101/9/1 102/11/1 103/15/1 104/14/1
f 105/2/1 106/9/1 107/14/1 108/3/1
f 109/12/1 110/8/1 111/2/1 112/1/1
f 113/12/1 114/8/1 115/2/1 116/1/1
f 117/1/1 118/2/1 119/3/1 120/4/1
f 121/8/1 122/7/1 123/9/1 124/2/1
f 125/5/1 126/6/1 127/7/1 128/8/1

