# Tiled2Unity generated file. Do not modify by hand.
# Wavefront file for 'escenaNorte_2_mesh_0111.obj'

# Vertices (Count = 448)
v -2 -3 0
v -3 -3 0
v -3 -2 0
v -2 -2 0
v -3 -3 0
v -4 -3 0
v -4 -2 0
v -3 -2 0
v -4 -3 0
v -5 -3 0
v -5 -2 0
v -4 -2 0
v -5 -3 0
v -6 -3 0
v -6 -2 0
v -5 -2 0
v -6 -3 0
v -7 -3 0
v -7 -2 0
v -6 -2 0
v -7 -3 0
v -8 -3 0
v -8 -2 0
v -7 -2 0
v -8 -3 0
v -9 -3 0
v -9 -2 0
v -8 -2 0
v -9 -3 0
v -10 -3 0
v -10 -2 0
v -9 -2 0
v -2 -4 0
v -3 -4 0
v -3 -3 0
v -2 -3 0
v -3 -4 0
v -4 -4 0
v -4 -3 0
v -3 -3 0
v -4 -4 0
v -5 -4 0
v -5 -3 0
v -4 -3 0
v -5 -4 0
v -6 -4 0
v -6 -3 0
v -5 -3 0
v -6 -4 0
v -7 -4 0
v -7 -3 0
v -6 -3 0
v -7 -4 0
v -8 -4 0
v -8 -3 0
v -7 -3 0
v -8 -4 0
v -9 -4 0
v -9 -3 0
v -8 -3 0
v -9 -4 0
v -10 -4 0
v -10 -3 0
v -9 -3 0
v -2 -5 0
v -3 -5 0
v -3 -4 0
v -2 -4 0
v -3 -5 0
v -4 -5 0
v -4 -4 0
v -3 -4 0
v -4 -5 0
v -5 -5 0
v -5 -4 0
v -4 -4 0
v -5 -5 0
v -6 -5 0
v -6 -4 0
v -5 -4 0
v -6 -5 0
v -7 -5 0
v -7 -4 0
v -6 -4 0
v -7 -5 0
v -8 -5 0
v -8 -4 0
v -7 -4 0
v -8 -5 0
v -9 -5 0
v -9 -4 0
v -8 -4 0
v -9 -5 0
v -10 -5 0
v -10 -4 0
v -9 -4 0
v -2 -6 0
v -3 -6 0
v -3 -5 0
v -2 -5 0
v -3 -6 0
v -4 -6 0
v -4 -5 0
v -3 -5 0
v -4 -6 0
v -5 -6 0
v -5 -5 0
v -4 -5 0
v -5 -6 0
v -6 -6 0
v -6 -5 0
v -5 -5 0
v -6 -6 0
v -7 -6 0
v -7 -5 0
v -6 -5 0
v -7 -6 0
v -8 -6 0
v -8 -5 0
v -7 -5 0
v -8 -6 0
v -9 -6 0
v -9 -5 0
v -8 -5 0
v -9 -6 0
v -10 -6 0
v -10 -5 0
v -9 -5 0
v -2 -7 0
v -3 -7 0
v -3 -6 0
v -2 -6 0
v -3 -7 0
v -4 -7 0
v -4 -6 0
v -3 -6 0
v -4 -7 0
v -5 -7 0
v -5 -6 0
v -4 -6 0
v -5 -7 0
v -6 -7 0
v -6 -6 0
v -5 -6 0
v -6 -7 0
v -7 -7 0
v -7 -6 0
v -6 -6 0
v -7 -7 0
v -8 -7 0
v -8 -6 0
v -7 -6 0
v -8 -7 0
v -9 -7 0
v -9 -6 0
v -8 -6 0
v -9 -7 0
v -10 -7 0
v -10 -6 0
v -9 -6 0
v -2 -8 0
v -3 -8 0
v -3 -7 0
v -2 -7 0
v -3 -8 0
v -4 -8 0
v -4 -7 0
v -3 -7 0
v -4 -8 0
v -5 -8 0
v -5 -7 0
v -4 -7 0
v -5 -8 0
v -6 -8 0
v -6 -7 0
v -5 -7 0
v -6 -8 0
v -7 -8 0
v -7 -7 0
v -6 -7 0
v -7 -8 0
v -8 -8 0
v -8 -7 0
v -7 -7 0
v -8 -8 0
v -9 -8 0
v -9 -7 0
v -8 -7 0
v -9 -8 0
v -10 -8 0
v -10 -7 0
v -9 -7 0
v -2 -9 0
v -3 -9 0
v -3 -8 0
v -2 -8 0
v -3 -9 0
v -4 -9 0
v -4 -8 0
v -3 -8 0
v -4 -9 0
v -5 -9 0
v -5 -8 0
v -4 -8 0
v -5 -9 0
v -6 -9 0
v -6 -8 0
v -5 -8 0
v -6 -9 0
v -7 -9 0
v -7 -8 0
v -6 -8 0
v -7 -9 0
v -8 -9 0
v -8 -8 0
v -7 -8 0
v -8 -9 0
v -9 -9 0
v -9 -8 0
v -8 -8 0
v -9 -9 0
v -10 -9 0
v -10 -8 0
v -9 -8 0
v -2 -10 0
v -3 -10 0
v -3 -9 0
v -2 -9 0
v -3 -10 0
v -4 -10 0
v -4 -9 0
v -3 -9 0
v -4 -10 0
v -5 -10 0
v -5 -9 0
v -4 -9 0
v -5 -10 0
v -6 -10 0
v -6 -9 0
v -5 -9 0
v -6 -10 0
v -7 -10 0
v -7 -9 0
v -6 -9 0
v -7 -10 0
v -8 -10 0
v -8 -9 0
v -7 -9 0
v -8 -10 0
v -9 -10 0
v -9 -9 0
v -8 -9 0
v -9 -10 0
v -10 -10 0
v -10 -9 0
v -9 -9 0
v -2 -11 0
v -3 -11 0
v -3 -10 0
v -2 -10 0
v -3 -11 0
v -4 -11 0
v -4 -10 0
v -3 -10 0
v -4 -11 0
v -5 -11 0
v -5 -10 0
v -4 -10 0
v -5 -11 0
v -6 -11 0
v -6 -10 0
v -5 -10 0
v -6 -11 0
v -7 -11 0
v -7 -10 0
v -6 -10 0
v -7 -11 0
v -8 -11 0
v -8 -10 0
v -7 -10 0
v -8 -11 0
v -9 -11 0
v -9 -10 0
v -8 -10 0
v -9 -11 0
v -10 -11 0
v -10 -10 0
v -9 -10 0
v -2 -12 0
v -3 -12 0
v -3 -11 0
v -2 -11 0
v -3 -12 0
v -4 -12 0
v -4 -11 0
v -3 -11 0
v -4 -12 0
v -5 -12 0
v -5 -11 0
v -4 -11 0
v -5 -12 0
v -6 -12 0
v -6 -11 0
v -5 -11 0
v -6 -12 0
v -7 -12 0
v -7 -11 0
v -6 -11 0
v -7 -12 0
v -8 -12 0
v -8 -11 0
v -7 -11 0
v -8 -12 0
v -9 -12 0
v -9 -11 0
v -8 -11 0
v -9 -12 0
v -10 -12 0
v -10 -11 0
v -9 -11 0
v -2 -13 0
v -3 -13 0
v -3 -12 0
v -2 -12 0
v -3 -13 0
v -4 -13 0
v -4 -12 0
v -3 -12 0
v -4 -13 0
v -5 -13 0
v -5 -12 0
v -4 -12 0
v -5 -13 0
v -6 -13 0
v -6 -12 0
v -5 -12 0
v -6 -13 0
v -7 -13 0
v -7 -12 0
v -6 -12 0
v -7 -13 0
v -8 -13 0
v -8 -12 0
v -7 -12 0
v -8 -13 0
v -9 -13 0
v -9 -12 0
v -8 -12 0
v -9 -13 0
v -10 -13 0
v -10 -12 0
v -9 -12 0
v -2 -14 0
v -3 -14 0
v -3 -13 0
v -2 -13 0
v -3 -14 0
v -4 -14 0
v -4 -13 0
v -3 -13 0
v -4 -14 0
v -5 -14 0
v -5 -13 0
v -4 -13 0
v -5 -14 0
v -6 -14 0
v -6 -13 0
v -5 -13 0
v -6 -14 0
v -7 -14 0
v -7 -13 0
v -6 -13 0
v -7 -14 0
v -8 -14 0
v -8 -13 0
v -7 -13 0
v -8 -14 0
v -9 -14 0
v -9 -13 0
v -8 -13 0
v -9 -14 0
v -10 -14 0
v -10 -13 0
v -9 -13 0
v -2 -15 0
v -3 -15 0
v -3 -14 0
v -2 -14 0
v -3 -15 0
v -4 -15 0
v -4 -14 0
v -3 -14 0
v -4 -15 0
v -5 -15 0
v -5 -14 0
v -4 -14 0
v -5 -15 0
v -6 -15 0
v -6 -14 0
v -5 -14 0
v -6 -15 0
v -7 -15 0
v -7 -14 0
v -6 -14 0
v -7 -15 0
v -8 -15 0
v -8 -14 0
v -7 -14 0
v -8 -15 0
v -9 -15 0
v -9 -14 0
v -8 -14 0
v -9 -15 0
v -10 -15 0
v -10 -14 0
v -9 -14 0
v -2 -16 0
v -3 -16 0
v -3 -15 0
v -2 -15 0
v -3 -16 0
v -4 -16 0
v -4 -15 0
v -3 -15 0
v -4 -16 0
v -5 -16 0
v -5 -15 0
v -4 -15 0
v -5 -16 0
v -6 -16 0
v -6 -15 0
v -5 -15 0
v -6 -16 0
v -7 -16 0
v -7 -15 0
v -6 -15 0
v -7 -16 0
v -8 -16 0
v -8 -15 0
v -7 -15 0
v -8 -16 0
v -9 -16 0
v -9 -15 0
v -8 -15 0
v -9 -16 0
v -10 -16 0
v -10 -15 0
v -9 -15 0

# Texture cooridinates (Count = 32)
vt 0.765625 0.9453125
vt 0.7929688 0.9453125
vt 0.7929688 0.9726563
vt 0.765625 0.9726563
vt 0.8203125 0.9726563
vt 0.8476563 0.9726563
vt 0.8476563 1
vt 0.8203125 1
vt 0.7109375 0.9453125
vt 0.7382813 0.9453125
vt 0.7382813 0.9726563
vt 0.7109375 0.9726563
vt 0.765625 0.9179688
vt 0.7929688 0.9179688
vt 0.8203125 0.9453125
vt 0.8476563 0.9453125
vt 0.765625 0.890625
vt 0.7929688 0.890625
vt 0.7109375 0.9179688
vt 0.7382813 0.9179688
vt 0.7109375 0.890625
vt 0.7382813 0.890625
vt 0.8203125 0.9179688
vt 0.8476563 0.9179688
vt 0.8203125 0.890625
vt 0.8476563 0.890625
vt 0.7109375 0.8632813
vt 0.7382813 0.8632813
vt 0.765625 0.8632813
vt 0.7929688 0.8632813
vt 0.8203125 0.8632813
vt 0.8476563 0.8632813

# Normal
vn 0 0 -1

# Mesh description
g escenaNorte_2_mesh_0111

# Faces
f 1/1/1 2/2/1 3/3/1 4/4/1
f 5/1/1 6/2/1 7/3/1 8/4/1
f 9/1/1 10/2/1 11/3/1 12/4/1
f 13/1/1 14/2/1 15/3/1 16/4/1
f 17/1/1 18/2/1 19/3/1 20/4/1
f 21/1/1 22/2/1 23/3/1 24/4/1
f 25/1/1 26/2/1 27/3/1 28/4/1
f 29/5/1 30/6/1 31/7/1 32/8/1
f 33/9/1 34/10/1 35/11/1 36/12/1
f 37/10/1 38/1/1 39/4/1 40/11/1
f 41/13/1 42/14/1 43/2/1 44/1/1
f 45/13/1 46/14/1 47/2/1 48/1/1
f 49/13/1 50/14/1 51/2/1 52/1/1
f 53/13/1 54/14/1 55/2/1 56/1/1
f 57/13/1 58/14/1 59/2/1 60/1/1
f 61/15/1 62/16/1 63/6/1 64/5/1
f 65/9/1 66/10/1 67/11/1 68/12/1
f 69/10/1 70/1/1 71/4/1 72/11/1
f 73/1/1 74/2/1 75/3/1 76/4/1
f 77/1/1 78/2/1 79/3/1 80/4/1
f 81/17/1 82/18/1 83/14/1 84/13/1
f 85/1/1 86/2/1 87/3/1 88/4/1
f 89/1/1 90/2/1 91/3/1 92/4/1
f 93/15/1 94/16/1 95/6/1 96/5/1
f 97/19/1 98/20/1 99/10/1 100/9/1
f 101/20/1 102/13/1 103/1/1 104/10/1
f 105/1/1 106/2/1 107/3/1 108/4/1
f 109/13/1 110/14/1 111/2/1 112/1/1
f 113/1/1 114/2/1 115/3/1 116/4/1
f 117/1/1 118/2/1 119/3/1 120/4/1
f 121/13/1 122/14/1 123/2/1 124/1/1
f 125/15/1 126/16/1 127/6/1 128/5/1
f 129/21/1 130/22/1 131/20/1 132/19/1
f 133/22/1 134/17/1 135/13/1 136/20/1
f 137/1/1 138/2/1 139/3/1 140/4/1
f 141/1/1 142/2/1 143/3/1 144/4/1
f 145/1/1 146/2/1 147/3/1 148/4/1
f 149/1/1 150/2/1 151/3/1 152/4/1
f 153/1/1 154/2/1 155/3/1 156/4/1
f 157/15/1 158/16/1 159/6/1 160/5/1
f 161/21/1 162/22/1 163/20/1 164/19/1
f 165/22/1 166/17/1 167/13/1 168/20/1
f 169/1/1 170/2/1 171/3/1 172/4/1
f 173/1/1 174/2/1 175/3/1 176/4/1
f 177/1/1 178/2/1 179/3/1 180/4/1
f 181/1/1 182/2/1 183/3/1 184/4/1
f 185/13/1 186/14/1 187/2/1 188/1/1
f 189/15/1 190/16/1 191/6/1 192/5/1
f 193/21/1 194/22/1 195/20/1 196/19/1
f 197/22/1 198/17/1 199/13/1 200/20/1
f 201/1/1 202/2/1 203/3/1 204/4/1
f 205/1/1 206/2/1 207/3/1 208/4/1
f 209/13/1 210/14/1 211/2/1 212/1/1
f 213/13/1 214/14/1 215/2/1 216/1/1
f 217/17/1 218/18/1 219/14/1 220/13/1
f 221/15/1 222/16/1 223/6/1 224/5/1
f 225/9/1 226/10/1 227/11/1 228/12/1
f 229/10/1 230/1/1 231/4/1 232/11/1
f 233/13/1 234/14/1 235/2/1 236/1/1
f 237/1/1 238/2/1 239/3/1 240/4/1
f 241/1/1 242/2/1 243/3/1 244/4/1
f 245/1/1 246/2/1 247/3/1 248/4/1
f 249/17/1 250/18/1 251/14/1 252/13/1
f 253/15/1 254/16/1 255/6/1 256/5/1
f 257/19/1 258/20/1 259/10/1 260/9/1
f 261/20/1 262/13/1 263/1/1 264/10/1
f 265/1/1 266/2/1 267/3/1 268/4/1
f 269/1/1 270/2/1 271/3/1 272/4/1
f 273/1/1 274/2/1 275/3/1 276/4/1
f 277/1/1 278/2/1 279/3/1 280/4/1
f 281/1/1 282/2/1 283/3/1 284/4/1
f 285/15/1 286/16/1 287/6/1 288/5/1
f 289/9/1 290/10/1 291/11/1 292/12/1
f 293/10/1 294/1/1 295/4/1 296/11/1
f 297/13/1 298/14/1 299/2/1 300/1/1
f 301/13/1 302/14/1 303/2/1 304/1/1
f 305/1/1 306/2/1 307/3/1 308/4/1
f 309/1/1 310/2/1 311/3/1 312/4/1
f 313/13/1 314/14/1 315/2/1 316/1/1
f 317/15/1 318/16/1 319/6/1 320/5/1
f 321/19/1 322/20/1 323/10/1 324/9/1
f 325/20/1 326/13/1 327/1/1 328/10/1
f 329/17/1 330/18/1 331/14/1 332/13/1
f 333/17/1 334/18/1 335/14/1 336/13/1
f 337/13/1 338/14/1 339/2/1 340/1/1
f 341/13/1 342/14/1 343/2/1 344/1/1
f 345/17/1 346/18/1 347/14/1 348/13/1
f 349/15/1 350/16/1 351/6/1 352/5/1
f 353/21/1 354/22/1 355/20/1 356/19/1
f 357/22/1 358/17/1 359/13/1 360/20/1
f 361/13/1 362/14/1 363/2/1 364/1/1
f 365/13/1 366/14/1 367/2/1 368/1/1
f 369/17/1 370/18/1 371/14/1 372/13/1
f 373/17/1 374/18/1 375/14/1 376/13/1
f 377/17/1 378/18/1 379/14/1 380/13/1
f 381/23/1 382/24/1 383/16/1 384/15/1
f 385/21/1 386/22/1 387/20/1 388/19/1
f 389/22/1 390/17/1 391/13/1 392/20/1
f 393/17/1 394/18/1 395/14/1 396/13/1
f 397/17/1 398/18/1 399/14/1 400/13/1
f 401/17/1 402/18/1 403/14/1 404/13/1
f 405/17/1 406/18/1 407/14/1 408/13/1
f 409/17/1 410/18/1 411/14/1 412/13/1
f 413/25/1 414/26/1 415/24/1 416/23/1
f 417/27/1 418/28/1 419/22/1 420/21/1
f 421/28/1 422/29/1 423/17/1 424/22/1
f 425/29/1 426/30/1 427/18/1 428/17/1
f 429/29/1 430/30/1 431/18/1 432/17/1
f 433/29/1 434/30/1 435/18/1 436/17/1
f 437/29/1 438/30/1 439/18/1 440/17/1
f 441/29/1 442/30/1 443/18/1 444/17/1
f 445/31/1 446/32/1 447/26/1 448/25/1

