# Tiled2Unity generated file. Do not modify by hand.
# Wavefront file for 'escenaNorte_2_mesh_0083.obj'

# Vertices (Count = 24)
v -13 -15 0
v -14 -15 0
v -14 -14 0
v -13 -14 0
v -14 -15 0
v -15 -15 0
v -15 -14 0
v -14 -14 0
v -15 -15 0
v -16 -15 0
v -16 -14 0
v -15 -14 0
v -13 -16 0
v -14 -16 0
v -14 -15 0
v -13 -15 0
v -14 -16 0
v -15 -16 0
v -15 -15 0
v -14 -15 0
v -15 -16 0
v -16 -16 0
v -16 -15 0
v -15 -15 0

# Texture cooridinates (Count = 14)
vt 0.65625 0.015625
vt 0.984375 0.015625
vt 0.984375 0.34375
vt 0.65625 0.34375
vt 0.328125 0.015625
vt 0.328125 0.34375
vt 0 0.671875
vt 0.328125 0.671875
vt 0.328125 1
vt 0 1
vt 0.65625 0.671875
vt 0.984375 0.671875
vt 0.984375 1
vt 0.65625 1

# Normal
vn 0 0 -1

# Mesh description
g escenaNorte_2_mesh_0083

# Faces
f 1/1/1 2/2/1 3/3/1 4/4/1
f 5/5/1 6/1/1 7/4/1 8/6/1
f 9/5/1 10/1/1 11/4/1 12/6/1
f 13/7/1 14/8/1 15/9/1 16/10/1
f 17/11/1 18/12/1 19/13/1 20/14/1
f 21/1/1 22/2/1 23/3/1 24/4/1

