# Tiled2Unity generated file. Do not modify by hand.
# Wavefront file for 'escenaNorte_2_mesh_0226.obj'

# Vertices (Count = 72)
v -5 -5 0
v -6 -5 0
v -6 -4 0
v -5 -4 0
v -6 -5 0
v -7 -5 0
v -7 -4 0
v -6 -4 0
v -5 -6 0
v -6 -6 0
v -6 -5 0
v -5 -5 0
v -6 -6 0
v -7 -6 0
v -7 -5 0
v -6 -5 0
v -7 -7 0
v -8 -7 0
v -8 -6 0
v -7 -6 0
v -8 -7 0
v -9 -7 0
v -9 -6 0
v -8 -6 0
v -9 -7 0
v -10 -7 0
v -10 -6 0
v -9 -6 0
v -14 -7 0
v -15 -7 0
v -15 -6 0
v -14 -6 0
v -7 -8 0
v -8 -8 0
v -8 -7 0
v -7 -7 0
v -8 -8 0
v -9 -8 0
v -9 -7 0
v -8 -7 0
v -9 -8 0
v -10 -8 0
v -10 -7 0
v -9 -7 0
v -14 -8 0
v -15 -8 0
v -15 -7 0
v -14 -7 0
v -7 -9 0
v -8 -9 0
v -8 -8 0
v -7 -8 0
v -14 -9 0
v -15 -9 0
v -15 -8 0
v -14 -8 0
v -7 -10 0
v -8 -10 0
v -8 -9 0
v -7 -9 0
v -14 -10 0
v -15 -10 0
v -15 -9 0
v -14 -9 0
v -7 -11 0
v -8 -11 0
v -8 -10 0
v -7 -10 0
v -14 -11 0
v -15 -11 0
v -15 -10 0
v -14 -10 0

# Texture cooridinates (Count = 22)
vt 0 0.6445313
vt 0.02734375 0.6445313
vt 0.02734375 0.671875
vt 0 0.671875
vt 0.0546875 0.6445313
vt 0.0546875 0.671875
vt 0 0.6171875
vt 0.02734375 0.6171875
vt 0.0546875 0.6171875
vt 0.65625 0.3710938
vt 0.6835938 0.3710938
vt 0.6835938 0.3984375
vt 0.65625 0.3984375
vt 0.5742188 0.34375
vt 0.6015625 0.34375
vt 0.6015625 0.3710938
vt 0.5742188 0.3710938
vt 0.6289063 0.34375
vt 0.6289063 0.3710938
vt 0.5742188 0.3164063
vt 0.6015625 0.3164063
vt 0.6289063 0.3164063

# Normal
vn 0 0 -1

# Mesh description
g escenaNorte_2_mesh_0226

# Faces
f 1/1/1 2/2/1 3/3/1 4/4/1
f 5/2/1 6/5/1 7/6/1 8/3/1
f 9/7/1 10/8/1 11/2/1 12/1/1
f 13/8/1 14/9/1 15/5/1 16/2/1
f 17/10/1 18/11/1 19/12/1 20/13/1
f 21/14/1 22/15/1 23/16/1 24/17/1
f 25/15/1 26/18/1 27/19/1 28/16/1
f 29/10/1 30/11/1 31/12/1 32/13/1
f 33/10/1 34/11/1 35/12/1 36/13/1
f 37/20/1 38/21/1 39/15/1 40/14/1
f 41/21/1 42/22/1 43/18/1 44/15/1
f 45/10/1 46/11/1 47/12/1 48/13/1
f 49/10/1 50/11/1 51/12/1 52/13/1
f 53/10/1 54/11/1 55/12/1 56/13/1
f 57/10/1 58/11/1 59/12/1 60/13/1
f 61/10/1 62/11/1 63/12/1 64/13/1
f 65/10/1 66/11/1 67/12/1 68/13/1
f 69/10/1 70/11/1 71/12/1 72/13/1

