# Tiled2Unity generated file. Do not modify by hand.
# Wavefront file for 'escenaNorte_2_mesh_0094.obj'

# Vertices (Count = 128)
v -4 -1 0
v -5 -1 0
v -5 0 0
v -4 0 0
v -5 -1 0
v -6 -1 0
v -6 0 0
v -5 0 0
v -4 -2 0
v -5 -2 0
v -5 -1 0
v -4 -1 0
v -5 -2 0
v -6 -2 0
v -6 -1 0
v -5 -1 0
v -4 -3 0
v -5 -3 0
v -5 -2 0
v -4 -2 0
v -5 -3 0
v -6 -3 0
v -6 -2 0
v -5 -2 0
v -4 -4 0
v -5 -4 0
v -5 -3 0
v -4 -3 0
v -5 -4 0
v -6 -4 0
v -6 -3 0
v -5 -3 0
v -4 -5 0
v -5 -5 0
v -5 -4 0
v -4 -4 0
v -5 -5 0
v -6 -5 0
v -6 -4 0
v -5 -4 0
v -4 -6 0
v -5 -6 0
v -5 -5 0
v -4 -5 0
v -5 -6 0
v -6 -6 0
v -6 -5 0
v -5 -5 0
v -4 -7 0
v -5 -7 0
v -5 -6 0
v -4 -6 0
v -5 -7 0
v -6 -7 0
v -6 -6 0
v -5 -6 0
v -4 -8 0
v -5 -8 0
v -5 -7 0
v -4 -7 0
v -5 -8 0
v -6 -8 0
v -6 -7 0
v -5 -7 0
v -4 -9 0
v -5 -9 0
v -5 -8 0
v -4 -8 0
v -5 -9 0
v -6 -9 0
v -6 -8 0
v -5 -8 0
v -4 -10 0
v -5 -10 0
v -5 -9 0
v -4 -9 0
v -5 -10 0
v -6 -10 0
v -6 -9 0
v -5 -9 0
v -4 -11 0
v -5 -11 0
v -5 -10 0
v -4 -10 0
v -5 -11 0
v -6 -11 0
v -6 -10 0
v -5 -10 0
v -4 -12 0
v -5 -12 0
v -5 -11 0
v -4 -11 0
v -5 -12 0
v -6 -12 0
v -6 -11 0
v -5 -11 0
v -4 -13 0
v -5 -13 0
v -5 -12 0
v -4 -12 0
v -5 -13 0
v -6 -13 0
v -6 -12 0
v -5 -12 0
v -4 -14 0
v -5 -14 0
v -5 -13 0
v -4 -13 0
v -5 -14 0
v -6 -14 0
v -6 -13 0
v -5 -13 0
v -4 -15 0
v -5 -15 0
v -5 -14 0
v -4 -14 0
v -5 -15 0
v -6 -15 0
v -6 -14 0
v -5 -14 0
v -4 -16 0
v -5 -16 0
v -5 -15 0
v -4 -15 0
v -5 -16 0
v -6 -16 0
v -6 -15 0
v -5 -15 0

# Texture cooridinates (Count = 16)
vt 0.328125 0.34375
vt 0.65625 0.34375
vt 0.65625 0.671875
vt 0.328125 0.671875
vt 0 0.671875
vt 0.328125 1
vt 0 1
vt 0 0.34375
vt 0 0.015625
vt 0.328125 0.015625
vt 0.65625 0.015625
vt 0.984375 0.34375
vt 0.984375 0.671875
vt 0.984375 1
vt 0.65625 1
vt 0.984375 0.015625

# Normal
vn 0 0 -1

# Mesh description
g escenaNorte_2_mesh_0094

# Faces
f 1/1/1 2/2/1 3/3/1 4/4/1
f 5/5/1 6/4/1 7/6/1 8/7/1
f 9/8/1 10/1/1 11/4/1 12/5/1
f 13/5/1 14/4/1 15/6/1 16/7/1
f 17/9/1 18/10/1 19/1/1 20/8/1
f 21/10/1 22/11/1 23/2/1 24/1/1
f 25/2/1 26/12/1 27/13/1 28/3/1
f 29/10/1 30/11/1 31/2/1 32/1/1
f 33/8/1 34/1/1 35/4/1 36/5/1
f 37/8/1 38/1/1 39/4/1 40/5/1
f 41/5/1 42/4/1 43/6/1 44/7/1
f 45/10/1 46/11/1 47/2/1 48/1/1
f 49/10/1 50/11/1 51/2/1 52/1/1
f 53/5/1 54/4/1 55/6/1 56/7/1
f 57/5/1 58/4/1 59/6/1 60/7/1
f 61/10/1 62/11/1 63/2/1 64/1/1
f 65/9/1 66/10/1 67/1/1 68/8/1
f 69/10/1 70/11/1 71/2/1 72/1/1
f 73/3/1 74/13/1 75/14/1 76/15/1
f 77/10/1 78/11/1 79/2/1 80/1/1
f 81/4/1 82/3/1 83/15/1 84/6/1
f 85/5/1 86/4/1 87/6/1 88/7/1
f 89/9/1 90/10/1 91/1/1 92/8/1
f 93/3/1 94/13/1 95/14/1 96/15/1
f 97/11/1 98/16/1 99/12/1 100/2/1
f 101/2/1 102/12/1 103/13/1 104/3/1
f 105/8/1 106/1/1 107/4/1 108/5/1
f 109/1/1 110/2/1 111/3/1 112/4/1
f 113/8/1 114/1/1 115/4/1 116/5/1
f 117/3/1 118/13/1 119/14/1 120/15/1
f 121/8/1 122/1/1 123/4/1 124/5/1
f 125/11/1 126/16/1 127/12/1 128/2/1

