# Tiled2Unity generated file. Do not modify by hand.
# Wavefront file for 'escenaNorte_2_mesh_0221.obj'

# Vertices (Count = 44)
v 0 -7 0
v -1 -7 0
v -1 -6 0
v 0 -6 0
v -1 -7 0
v -2 -7 0
v -2 -6 0
v -1 -6 0
v -2 -7 0
v -3 -7 0
v -3 -6 0
v -2 -6 0
v -5 -7 0
v -6 -7 0
v -6 -6 0
v -5 -6 0
v 0 -8 0
v -1 -8 0
v -1 -7 0
v 0 -7 0
v -1 -8 0
v -2 -8 0
v -2 -7 0
v -1 -7 0
v -2 -8 0
v -3 -8 0
v -3 -7 0
v -2 -7 0
v -5 -8 0
v -6 -8 0
v -6 -7 0
v -5 -7 0
v -5 -9 0
v -6 -9 0
v -6 -8 0
v -5 -8 0
v -5 -10 0
v -6 -10 0
v -6 -9 0
v -5 -9 0
v -5 -11 0
v -6 -11 0
v -6 -10 0
v -5 -10 0

# Texture cooridinates (Count = 16)
vt 0.546875 0.34375
vt 0.5742188 0.34375
vt 0.5742188 0.3710938
vt 0.546875 0.3710938
vt 0.6015625 0.34375
vt 0.6015625 0.3710938
vt 0.6289063 0.34375
vt 0.6289063 0.3710938
vt 0.6835938 0.3710938
vt 0.65625 0.3710938
vt 0.65625 0.3984375
vt 0.6835938 0.3984375
vt 0.546875 0.3164063
vt 0.5742188 0.3164063
vt 0.6015625 0.3164063
vt 0.6289063 0.3164063

# Normal
vn 0 0 -1

# Mesh description
g escenaNorte_2_mesh_0221

# Faces
f 1/1/1 2/2/1 3/3/1 4/4/1
f 5/2/1 6/5/1 7/6/1 8/3/1
f 9/5/1 10/7/1 11/8/1 12/6/1
f 13/9/1 14/10/1 15/11/1 16/12/1
f 17/13/1 18/14/1 19/2/1 20/1/1
f 21/14/1 22/15/1 23/5/1 24/2/1
f 25/15/1 26/16/1 27/7/1 28/5/1
f 29/9/1 30/10/1 31/11/1 32/12/1
f 33/9/1 34/10/1 35/11/1 36/12/1
f 37/9/1 38/10/1 39/11/1 40/12/1
f 41/9/1 42/10/1 43/11/1 44/12/1

