# Tiled2Unity generated file. Do not modify by hand.
# Wavefront file for 'escenaNorte_2_mesh_0114.obj'

# Vertices (Count = 448)
v -8 -3 0
v -9 -3 0
v -9 -2 0
v -8 -2 0
v -9 -3 0
v -10 -3 0
v -10 -2 0
v -9 -2 0
v -10 -3 0
v -11 -3 0
v -11 -2 0
v -10 -2 0
v -11 -3 0
v -12 -3 0
v -12 -2 0
v -11 -2 0
v -12 -3 0
v -13 -3 0
v -13 -2 0
v -12 -2 0
v -13 -3 0
v -14 -3 0
v -14 -2 0
v -13 -2 0
v -14 -3 0
v -15 -3 0
v -15 -2 0
v -14 -2 0
v -15 -3 0
v -16 -3 0
v -16 -2 0
v -15 -2 0
v -8 -4 0
v -9 -4 0
v -9 -3 0
v -8 -3 0
v -9 -4 0
v -10 -4 0
v -10 -3 0
v -9 -3 0
v -10 -4 0
v -11 -4 0
v -11 -3 0
v -10 -3 0
v -11 -4 0
v -12 -4 0
v -12 -3 0
v -11 -3 0
v -12 -4 0
v -13 -4 0
v -13 -3 0
v -12 -3 0
v -13 -4 0
v -14 -4 0
v -14 -3 0
v -13 -3 0
v -14 -4 0
v -15 -4 0
v -15 -3 0
v -14 -3 0
v -15 -4 0
v -16 -4 0
v -16 -3 0
v -15 -3 0
v -8 -5 0
v -9 -5 0
v -9 -4 0
v -8 -4 0
v -9 -5 0
v -10 -5 0
v -10 -4 0
v -9 -4 0
v -10 -5 0
v -11 -5 0
v -11 -4 0
v -10 -4 0
v -11 -5 0
v -12 -5 0
v -12 -4 0
v -11 -4 0
v -12 -5 0
v -13 -5 0
v -13 -4 0
v -12 -4 0
v -13 -5 0
v -14 -5 0
v -14 -4 0
v -13 -4 0
v -14 -5 0
v -15 -5 0
v -15 -4 0
v -14 -4 0
v -15 -5 0
v -16 -5 0
v -16 -4 0
v -15 -4 0
v -8 -6 0
v -9 -6 0
v -9 -5 0
v -8 -5 0
v -9 -6 0
v -10 -6 0
v -10 -5 0
v -9 -5 0
v -10 -6 0
v -11 -6 0
v -11 -5 0
v -10 -5 0
v -11 -6 0
v -12 -6 0
v -12 -5 0
v -11 -5 0
v -12 -6 0
v -13 -6 0
v -13 -5 0
v -12 -5 0
v -13 -6 0
v -14 -6 0
v -14 -5 0
v -13 -5 0
v -14 -6 0
v -15 -6 0
v -15 -5 0
v -14 -5 0
v -15 -6 0
v -16 -6 0
v -16 -5 0
v -15 -5 0
v -8 -7 0
v -9 -7 0
v -9 -6 0
v -8 -6 0
v -9 -7 0
v -10 -7 0
v -10 -6 0
v -9 -6 0
v -10 -7 0
v -11 -7 0
v -11 -6 0
v -10 -6 0
v -11 -7 0
v -12 -7 0
v -12 -6 0
v -11 -6 0
v -12 -7 0
v -13 -7 0
v -13 -6 0
v -12 -6 0
v -13 -7 0
v -14 -7 0
v -14 -6 0
v -13 -6 0
v -14 -7 0
v -15 -7 0
v -15 -6 0
v -14 -6 0
v -15 -7 0
v -16 -7 0
v -16 -6 0
v -15 -6 0
v -8 -8 0
v -9 -8 0
v -9 -7 0
v -8 -7 0
v -9 -8 0
v -10 -8 0
v -10 -7 0
v -9 -7 0
v -10 -8 0
v -11 -8 0
v -11 -7 0
v -10 -7 0
v -11 -8 0
v -12 -8 0
v -12 -7 0
v -11 -7 0
v -12 -8 0
v -13 -8 0
v -13 -7 0
v -12 -7 0
v -13 -8 0
v -14 -8 0
v -14 -7 0
v -13 -7 0
v -14 -8 0
v -15 -8 0
v -15 -7 0
v -14 -7 0
v -15 -8 0
v -16 -8 0
v -16 -7 0
v -15 -7 0
v -8 -9 0
v -9 -9 0
v -9 -8 0
v -8 -8 0
v -9 -9 0
v -10 -9 0
v -10 -8 0
v -9 -8 0
v -10 -9 0
v -11 -9 0
v -11 -8 0
v -10 -8 0
v -11 -9 0
v -12 -9 0
v -12 -8 0
v -11 -8 0
v -12 -9 0
v -13 -9 0
v -13 -8 0
v -12 -8 0
v -13 -9 0
v -14 -9 0
v -14 -8 0
v -13 -8 0
v -14 -9 0
v -15 -9 0
v -15 -8 0
v -14 -8 0
v -15 -9 0
v -16 -9 0
v -16 -8 0
v -15 -8 0
v -8 -10 0
v -9 -10 0
v -9 -9 0
v -8 -9 0
v -9 -10 0
v -10 -10 0
v -10 -9 0
v -9 -9 0
v -10 -10 0
v -11 -10 0
v -11 -9 0
v -10 -9 0
v -11 -10 0
v -12 -10 0
v -12 -9 0
v -11 -9 0
v -12 -10 0
v -13 -10 0
v -13 -9 0
v -12 -9 0
v -13 -10 0
v -14 -10 0
v -14 -9 0
v -13 -9 0
v -14 -10 0
v -15 -10 0
v -15 -9 0
v -14 -9 0
v -15 -10 0
v -16 -10 0
v -16 -9 0
v -15 -9 0
v -8 -11 0
v -9 -11 0
v -9 -10 0
v -8 -10 0
v -9 -11 0
v -10 -11 0
v -10 -10 0
v -9 -10 0
v -10 -11 0
v -11 -11 0
v -11 -10 0
v -10 -10 0
v -11 -11 0
v -12 -11 0
v -12 -10 0
v -11 -10 0
v -12 -11 0
v -13 -11 0
v -13 -10 0
v -12 -10 0
v -13 -11 0
v -14 -11 0
v -14 -10 0
v -13 -10 0
v -14 -11 0
v -15 -11 0
v -15 -10 0
v -14 -10 0
v -15 -11 0
v -16 -11 0
v -16 -10 0
v -15 -10 0
v -8 -12 0
v -9 -12 0
v -9 -11 0
v -8 -11 0
v -9 -12 0
v -10 -12 0
v -10 -11 0
v -9 -11 0
v -10 -12 0
v -11 -12 0
v -11 -11 0
v -10 -11 0
v -11 -12 0
v -12 -12 0
v -12 -11 0
v -11 -11 0
v -12 -12 0
v -13 -12 0
v -13 -11 0
v -12 -11 0
v -13 -12 0
v -14 -12 0
v -14 -11 0
v -13 -11 0
v -14 -12 0
v -15 -12 0
v -15 -11 0
v -14 -11 0
v -15 -12 0
v -16 -12 0
v -16 -11 0
v -15 -11 0
v -8 -13 0
v -9 -13 0
v -9 -12 0
v -8 -12 0
v -9 -13 0
v -10 -13 0
v -10 -12 0
v -9 -12 0
v -10 -13 0
v -11 -13 0
v -11 -12 0
v -10 -12 0
v -11 -13 0
v -12 -13 0
v -12 -12 0
v -11 -12 0
v -12 -13 0
v -13 -13 0
v -13 -12 0
v -12 -12 0
v -13 -13 0
v -14 -13 0
v -14 -12 0
v -13 -12 0
v -14 -13 0
v -15 -13 0
v -15 -12 0
v -14 -12 0
v -15 -13 0
v -16 -13 0
v -16 -12 0
v -15 -12 0
v -8 -14 0
v -9 -14 0
v -9 -13 0
v -8 -13 0
v -9 -14 0
v -10 -14 0
v -10 -13 0
v -9 -13 0
v -10 -14 0
v -11 -14 0
v -11 -13 0
v -10 -13 0
v -11 -14 0
v -12 -14 0
v -12 -13 0
v -11 -13 0
v -12 -14 0
v -13 -14 0
v -13 -13 0
v -12 -13 0
v -13 -14 0
v -14 -14 0
v -14 -13 0
v -13 -13 0
v -14 -14 0
v -15 -14 0
v -15 -13 0
v -14 -13 0
v -15 -14 0
v -16 -14 0
v -16 -13 0
v -15 -13 0
v -8 -15 0
v -9 -15 0
v -9 -14 0
v -8 -14 0
v -9 -15 0
v -10 -15 0
v -10 -14 0
v -9 -14 0
v -10 -15 0
v -11 -15 0
v -11 -14 0
v -10 -14 0
v -11 -15 0
v -12 -15 0
v -12 -14 0
v -11 -14 0
v -12 -15 0
v -13 -15 0
v -13 -14 0
v -12 -14 0
v -13 -15 0
v -14 -15 0
v -14 -14 0
v -13 -14 0
v -14 -15 0
v -15 -15 0
v -15 -14 0
v -14 -14 0
v -15 -15 0
v -16 -15 0
v -16 -14 0
v -15 -14 0
v -8 -16 0
v -9 -16 0
v -9 -15 0
v -8 -15 0
v -9 -16 0
v -10 -16 0
v -10 -15 0
v -9 -15 0
v -10 -16 0
v -11 -16 0
v -11 -15 0
v -10 -15 0
v -11 -16 0
v -12 -16 0
v -12 -15 0
v -11 -15 0
v -12 -16 0
v -13 -16 0
v -13 -15 0
v -12 -15 0
v -13 -16 0
v -14 -16 0
v -14 -15 0
v -13 -15 0
v -14 -16 0
v -15 -16 0
v -15 -15 0
v -14 -15 0
v -15 -16 0
v -16 -16 0
v -16 -15 0
v -15 -15 0

# Texture cooridinates (Count = 37)
vt 0.7109375 0.9453125
vt 0.7382813 0.9453125
vt 0.7382813 0.9726563
vt 0.7109375 0.9726563
vt 0.6289063 0.8359375
vt 0.65625 0.8359375
vt 0.65625 0.8632813
vt 0.6289063 0.8632813
vt 0.6835938 0.8359375
vt 0.6835938 0.8632813
vt 0.765625 0.9453125
vt 0.7929688 0.9453125
vt 0.7929688 0.9726563
vt 0.765625 0.9726563
vt 0.8203125 0.9726563
vt 0.8476563 0.9726563
vt 0.8476563 1
vt 0.8203125 1
vt 0.7109375 0.9179688
vt 0.7382813 0.9179688
vt 0.6289063 0.8085938
vt 0.65625 0.8085938
vt 0.6835938 0.8085938
vt 0.765625 0.9179688
vt 0.7929688 0.9179688
vt 0.8203125 0.9179688
vt 0.8476563 0.9179688
vt 0.8476563 0.9453125
vt 0.8203125 0.9453125
vt 0.765625 0.890625
vt 0.7929688 0.890625
vt 0.8203125 0.890625
vt 0.8476563 0.890625
vt 0.8203125 0.8632813
vt 0.8476563 0.8632813
vt 0.7109375 0.890625
vt 0.7382813 0.890625

# Normal
vn 0 0 -1

# Mesh description
g escenaNorte_2_mesh_0114

# Faces
f 1/1/1 2/2/1 3/3/1 4/4/1
f 5/5/1 6/6/1 7/7/1 8/8/1
f 9/6/1 10/9/1 11/10/1 12/7/1
f 13/11/1 14/12/1 15/13/1 16/14/1
f 17/11/1 18/12/1 19/13/1 20/14/1
f 21/5/1 22/6/1 23/7/1 24/8/1
f 25/6/1 26/9/1 27/10/1 28/7/1
f 29/15/1 30/16/1 31/17/1 32/18/1
f 33/19/1 34/20/1 35/2/1 36/1/1
f 37/21/1 38/22/1 39/6/1 40/5/1
f 41/22/1 42/23/1 43/9/1 44/6/1
f 45/24/1 46/25/1 47/12/1 48/11/1
f 49/24/1 50/25/1 51/12/1 52/11/1
f 53/21/1 54/22/1 55/6/1 56/5/1
f 57/22/1 58/23/1 59/9/1 60/6/1
f 61/26/1 62/27/1 63/28/1 64/29/1
f 65/1/1 66/2/1 67/3/1 68/4/1
f 69/2/1 70/11/1 71/14/1 72/3/1
f 73/30/1 74/31/1 75/25/1 76/24/1
f 77/30/1 78/31/1 79/25/1 80/24/1
f 81/30/1 82/31/1 83/25/1 84/24/1
f 85/30/1 86/31/1 87/25/1 88/24/1
f 89/30/1 90/31/1 91/25/1 92/24/1
f 93/32/1 94/33/1 95/27/1 96/26/1
f 97/19/1 98/20/1 99/2/1 100/1/1
f 101/20/1 102/24/1 103/11/1 104/2/1
f 105/11/1 106/12/1 107/13/1 108/14/1
f 109/11/1 110/12/1 111/13/1 112/14/1
f 113/11/1 114/12/1 115/13/1 116/14/1
f 117/11/1 118/12/1 119/13/1 120/14/1
f 121/24/1 122/25/1 123/12/1 124/11/1
f 125/34/1 126/35/1 127/33/1 128/32/1
f 129/36/1 130/37/1 131/20/1 132/19/1
f 133/37/1 134/30/1 135/24/1 136/20/1
f 137/24/1 138/25/1 139/12/1 140/11/1
f 141/24/1 142/25/1 143/12/1 144/11/1
f 145/24/1 146/25/1 147/12/1 148/11/1
f 149/24/1 150/25/1 151/12/1 152/11/1
f 153/11/1 154/12/1 155/13/1 156/14/1
f 157/29/1 158/28/1 159/16/1 160/15/1
f 161/1/1 162/2/1 163/3/1 164/4/1
f 165/2/1 166/11/1 167/14/1 168/3/1
f 169/30/1 170/31/1 171/25/1 172/24/1
f 173/30/1 174/31/1 175/25/1 176/24/1
f 177/11/1 178/12/1 179/13/1 180/14/1
f 181/11/1 182/12/1 183/13/1 184/14/1
f 185/24/1 186/25/1 187/12/1 188/11/1
f 189/26/1 190/27/1 191/28/1 192/29/1
f 193/19/1 194/20/1 195/2/1 196/1/1
f 197/20/1 198/24/1 199/11/1 200/2/1
f 201/30/1 202/31/1 203/25/1 204/24/1
f 205/11/1 206/12/1 207/13/1 208/14/1
f 209/24/1 210/25/1 211/12/1 212/11/1
f 213/24/1 214/25/1 215/12/1 216/11/1
f 217/30/1 218/31/1 219/25/1 220/24/1
f 221/32/1 222/33/1 223/27/1 224/26/1
f 225/36/1 226/37/1 227/20/1 228/19/1
f 229/37/1 230/30/1 231/24/1 232/20/1
f 233/24/1 234/25/1 235/12/1 236/11/1
f 237/24/1 238/25/1 239/12/1 240/11/1
f 241/30/1 242/31/1 243/25/1 244/24/1
f 245/30/1 246/31/1 247/25/1 248/24/1
f 249/30/1 250/31/1 251/25/1 252/24/1
f 253/34/1 254/35/1 255/33/1 256/32/1
f 257/1/1 258/2/1 259/3/1 260/4/1
f 261/2/1 262/11/1 263/14/1 264/3/1
f 265/30/1 266/31/1 267/25/1 268/24/1
f 269/30/1 270/31/1 271/25/1 272/24/1
f 273/11/1 274/12/1 275/13/1 276/14/1
f 277/11/1 278/12/1 279/13/1 280/14/1
f 281/11/1 282/12/1 283/13/1 284/14/1
f 285/29/1 286/28/1 287/16/1 288/15/1
f 289/19/1 290/20/1 291/2/1 292/1/1
f 293/20/1 294/24/1 295/11/1 296/2/1
f 297/24/1 298/25/1 299/12/1 300/11/1
f 301/24/1 302/25/1 303/12/1 304/11/1
f 305/24/1 306/25/1 307/12/1 308/11/1
f 309/24/1 310/25/1 311/12/1 312/11/1
f 313/24/1 314/25/1 315/12/1 316/11/1
f 317/26/1 318/27/1 319/28/1 320/29/1
f 321/36/1 322/37/1 323/20/1 324/19/1
f 325/37/1 326/30/1 327/24/1 328/20/1
f 329/30/1 330/31/1 331/25/1 332/24/1
f 333/30/1 334/31/1 335/25/1 336/24/1
f 337/30/1 338/31/1 339/25/1 340/24/1
f 341/30/1 342/31/1 343/25/1 344/24/1
f 345/30/1 346/31/1 347/25/1 348/24/1
f 349/32/1 350/33/1 351/27/1 352/26/1
f 353/1/1 354/2/1 355/3/1 356/4/1
f 357/2/1 358/11/1 359/14/1 360/3/1
f 361/11/1 362/12/1 363/13/1 364/14/1
f 365/11/1 366/12/1 367/13/1 368/14/1
f 369/11/1 370/12/1 371/13/1 372/14/1
f 373/11/1 374/12/1 375/13/1 376/14/1
f 377/11/1 378/12/1 379/13/1 380/14/1
f 381/34/1 382/35/1 383/33/1 384/32/1
f 385/1/1 386/2/1 387/3/1 388/4/1
f 389/2/1 390/11/1 391/14/1 392/3/1
f 393/24/1 394/25/1 395/12/1 396/11/1
f 397/24/1 398/25/1 399/12/1 400/11/1
f 401/24/1 402/25/1 403/12/1 404/11/1
f 405/24/1 406/25/1 407/12/1 408/11/1
f 409/24/1 410/25/1 411/12/1 412/11/1
f 413/29/1 414/28/1 415/16/1 416/15/1
f 417/19/1 418/20/1 419/2/1 420/1/1
f 421/20/1 422/24/1 423/11/1 424/2/1
f 425/11/1 426/12/1 427/13/1 428/14/1
f 429/11/1 430/12/1 431/13/1 432/14/1
f 433/30/1 434/31/1 435/25/1 436/24/1
f 437/11/1 438/12/1 439/13/1 440/14/1
f 441/11/1 442/12/1 443/13/1 444/14/1
f 445/29/1 446/28/1 447/16/1 448/15/1

