# Tiled2Unity generated file. Do not modify by hand.
# Wavefront file for 'escenaNorte_2_mesh_0131.obj'

# Vertices (Count = 100)
v -2 -1 0
v -3 -1 0
v -3 0 0
v -2 0 0
v -3 -1 0
v -4 -1 0
v -4 0 0
v -3 0 0
v -4 -1 0
v -5 -1 0
v -5 0 0
v -4 0 0
v -5 -1 0
v -6 -1 0
v -6 0 0
v -5 0 0
v -6 -1 0
v -7 -1 0
v -7 0 0
v -6 0 0
v -7 -1 0
v -8 -1 0
v -8 0 0
v -7 0 0
v -8 -1 0
v -9 -1 0
v -9 0 0
v -8 0 0
v -9 -1 0
v -10 -1 0
v -10 0 0
v -9 0 0
v -4 -4 0
v -5 -4 0
v -5 -3 0
v -4 -3 0
v -5 -4 0
v -6 -4 0
v -6 -3 0
v -5 -3 0
v -6 -4 0
v -7 -4 0
v -7 -3 0
v -6 -3 0
v -7 -4 0
v -8 -4 0
v -8 -3 0
v -7 -3 0
v -4 -5 0
v -5 -5 0
v -5 -4 0
v -4 -4 0
v -5 -5 0
v -6 -5 0
v -6 -4 0
v -5 -4 0
v -6 -5 0
v -7 -5 0
v -7 -4 0
v -6 -4 0
v -7 -5 0
v -8 -5 0
v -8 -4 0
v -7 -4 0
v -13 -9 0
v -14 -9 0
v -14 -8 0
v -13 -8 0
v -14 -9 0
v -15 -9 0
v -15 -8 0
v -14 -8 0
v -15 -9 0
v -16 -9 0
v -16 -8 0
v -15 -8 0
v -13 -10 0
v -14 -10 0
v -14 -9 0
v -13 -9 0
v -14 -10 0
v -15 -10 0
v -15 -9 0
v -14 -9 0
v -15 -10 0
v -16 -10 0
v -16 -9 0
v -15 -9 0
v -13 -11 0
v -14 -11 0
v -14 -10 0
v -13 -10 0
v -14 -11 0
v -15 -11 0
v -15 -10 0
v -14 -10 0
v -15 -11 0
v -16 -11 0
v -16 -10 0
v -15 -10 0

# Texture cooridinates (Count = 30)
vt 0.765625 0.8359375
vt 0.7929688 0.8359375
vt 0.7929688 0.8632813
vt 0.765625 0.8632813
vt 0.8203125 0.8359375
vt 0.8476563 0.8359375
vt 0.8476563 0.8632813
vt 0.8203125 0.8632813
vt 0.3828125 0.5351563
vt 0.4101563 0.5351563
vt 0.4101563 0.5625
vt 0.3828125 0.5625
vt 0.4375 0.5351563
vt 0.4375 0.5625
vt 0.4648438 0.5351563
vt 0.4648438 0.5625
vt 0.4921875 0.5351563
vt 0.4921875 0.5625
vt 0.7109375 0.890625
vt 0.7382813 0.890625
vt 0.7382813 0.9179688
vt 0.7109375 0.9179688
vt 0.765625 0.890625
vt 0.765625 0.9179688
vt 0.7929688 0.890625
vt 0.7929688 0.9179688
vt 0.7109375 0.8632813
vt 0.7382813 0.8632813
vt 0.7109375 0.8359375
vt 0.7382813 0.8359375

# Normal
vn 0 0 -1

# Mesh description
g escenaNorte_2_mesh_0131

# Faces
f 1/1/1 2/2/1 3/3/1 4/4/1
f 5/1/1 6/2/1 7/3/1 8/4/1
f 9/1/1 10/2/1 11/3/1 12/4/1
f 13/1/1 14/2/1 15/3/1 16/4/1
f 17/1/1 18/2/1 19/3/1 20/4/1
f 21/1/1 22/2/1 23/3/1 24/4/1
f 25/1/1 26/2/1 27/3/1 28/4/1
f 29/5/1 30/6/1 31/7/1 32/8/1
f 33/9/1 34/10/1 35/11/1 36/12/1
f 37/10/1 38/13/1 39/14/1 40/11/1
f 41/13/1 42/15/1 43/16/1 44/14/1
f 45/15/1 46/17/1 47/18/1 48/16/1
f 49/12/1 50/11/1 51/10/1 52/9/1
f 53/11/1 54/14/1 55/13/1 56/10/1
f 57/14/1 58/16/1 59/15/1 60/13/1
f 61/16/1 62/18/1 63/17/1 64/15/1
f 65/19/1 66/20/1 67/21/1 68/22/1
f 69/20/1 70/23/1 71/24/1 72/21/1
f 73/23/1 74/25/1 75/26/1 76/24/1
f 77/27/1 78/28/1 79/20/1 80/19/1
f 81/28/1 82/4/1 83/23/1 84/20/1
f 85/4/1 86/3/1 87/25/1 88/23/1
f 89/29/1 90/30/1 91/28/1 92/27/1
f 93/30/1 94/1/1 95/4/1 96/28/1
f 97/1/1 98/2/1 99/3/1 100/4/1

