# Tiled2Unity generated file. Do not modify by hand.
# Wavefront file for 'escenaNorte_2_mesh_0098.obj'

# Vertices (Count = 128)
v 0 -14 0
v -1 -14 0
v -1 -13 0
v 0 -13 0
v -1 -14 0
v -2 -14 0
v -2 -13 0
v -1 -13 0
v -2 -14 0
v -3 -14 0
v -3 -13 0
v -2 -13 0
v -3 -14 0
v -4 -14 0
v -4 -13 0
v -3 -13 0
v -4 -14 0
v -5 -14 0
v -5 -13 0
v -4 -13 0
v -5 -14 0
v -6 -14 0
v -6 -13 0
v -5 -13 0
v -6 -14 0
v -7 -14 0
v -7 -13 0
v -6 -13 0
v -7 -14 0
v -8 -14 0
v -8 -13 0
v -7 -13 0
v -8 -14 0
v -9 -14 0
v -9 -13 0
v -8 -13 0
v -9 -14 0
v -10 -14 0
v -10 -13 0
v -9 -13 0
v -10 -14 0
v -11 -14 0
v -11 -13 0
v -10 -13 0
v -11 -14 0
v -12 -14 0
v -12 -13 0
v -11 -13 0
v -12 -14 0
v -13 -14 0
v -13 -13 0
v -12 -13 0
v -13 -14 0
v -14 -14 0
v -14 -13 0
v -13 -13 0
v -14 -14 0
v -15 -14 0
v -15 -13 0
v -14 -13 0
v -15 -14 0
v -16 -14 0
v -16 -13 0
v -15 -13 0
v 0 -15 0
v -1 -15 0
v -1 -14 0
v 0 -14 0
v -1 -15 0
v -2 -15 0
v -2 -14 0
v -1 -14 0
v -2 -15 0
v -3 -15 0
v -3 -14 0
v -2 -14 0
v -3 -15 0
v -4 -15 0
v -4 -14 0
v -3 -14 0
v -4 -15 0
v -5 -15 0
v -5 -14 0
v -4 -14 0
v -5 -15 0
v -6 -15 0
v -6 -14 0
v -5 -14 0
v -6 -15 0
v -7 -15 0
v -7 -14 0
v -6 -14 0
v -7 -15 0
v -8 -15 0
v -8 -14 0
v -7 -14 0
v -8 -15 0
v -9 -15 0
v -9 -14 0
v -8 -14 0
v -9 -15 0
v -10 -15 0
v -10 -14 0
v -9 -14 0
v -10 -15 0
v -11 -15 0
v -11 -14 0
v -10 -14 0
v -11 -15 0
v -12 -15 0
v -12 -14 0
v -11 -14 0
v -12 -15 0
v -13 -15 0
v -13 -14 0
v -12 -14 0
v -13 -15 0
v -14 -15 0
v -14 -14 0
v -13 -14 0
v -14 -15 0
v -15 -15 0
v -15 -14 0
v -14 -14 0
v -15 -15 0
v -16 -15 0
v -16 -14 0
v -15 -14 0

# Texture cooridinates (Count = 16)
vt 0 0.671875
vt 0.328125 0.671875
vt 0.328125 1
vt 0 1
vt 0.65625 0.671875
vt 0.984375 0.671875
vt 0.984375 1
vt 0.65625 1
vt 0.65625 0.015625
vt 0.984375 0.015625
vt 0.984375 0.34375
vt 0.65625 0.34375
vt 0.328125 0.34375
vt 0 0.015625
vt 0.328125 0.015625
vt 0 0.34375

# Normal
vn 0 0 -1

# Mesh description
g escenaNorte_2_mesh_0098

# Faces
f 1/1/1 2/2/1 3/3/1 4/4/1
f 5/5/1 6/6/1 7/7/1 8/8/1
f 9/1/1 10/2/1 11/3/1 12/4/1
f 13/2/1 14/5/1 15/8/1 16/3/1
f 17/9/1 18/10/1 19/11/1 20/12/1
f 21/1/1 22/2/1 23/3/1 24/4/1
f 25/9/1 26/10/1 27/11/1 28/12/1
f 29/1/1 30/2/1 31/3/1 32/4/1
f 33/13/1 34/12/1 35/5/1 36/2/1
f 37/12/1 38/11/1 39/6/1 40/5/1
f 41/9/1 42/10/1 43/11/1 44/12/1
f 45/14/1 46/15/1 47/13/1 48/16/1
f 49/12/1 50/11/1 51/6/1 52/5/1
f 53/13/1 54/12/1 55/5/1 56/2/1
f 57/12/1 58/11/1 59/6/1 60/5/1
f 61/15/1 62/9/1 63/12/1 64/13/1
f 65/12/1 66/11/1 67/6/1 68/5/1
f 69/15/1 70/9/1 71/12/1 72/13/1
f 73/13/1 74/12/1 75/5/1 76/2/1
f 77/9/1 78/10/1 79/11/1 80/12/1
f 81/12/1 82/11/1 83/6/1 84/5/1
f 85/9/1 86/10/1 87/11/1 88/12/1
f 89/5/1 90/6/1 91/7/1 92/8/1
f 93/14/1 94/15/1 95/13/1 96/16/1
f 97/15/1 98/9/1 99/12/1 100/13/1
f 101/9/1 102/10/1 103/11/1 104/12/1
f 105/13/1 106/12/1 107/5/1 108/2/1
f 109/13/1 110/12/1 111/5/1 112/2/1
f 113/13/1 114/12/1 115/5/1 116/2/1
f 117/2/1 118/5/1 119/8/1 120/3/1
f 121/1/1 122/2/1 123/3/1 124/4/1
f 125/14/1 126/15/1 127/13/1 128/16/1

