# Tiled2Unity generated file. Do not modify by hand.
# Wavefront file for 'escenaNorte_2_mesh_0151.obj'

# Vertices (Count = 308)
v 0 -1 0
v -1 -1 0
v -1 0 0
v 0 0 0
v -1 -1 0
v -2 -1 0
v -2 0 0
v -1 0 0
v -2 -1 0
v -3 -1 0
v -3 0 0
v -2 0 0
v -3 -1 0
v -4 -1 0
v -4 0 0
v -3 0 0
v -4 -1 0
v -5 -1 0
v -5 0 0
v -4 0 0
v -5 -1 0
v -6 -1 0
v -6 0 0
v -5 0 0
v -6 -1 0
v -7 -1 0
v -7 0 0
v -6 0 0
v 0 -2 0
v -1 -2 0
v -1 -1 0
v 0 -1 0
v -1 -2 0
v -2 -2 0
v -2 -1 0
v -1 -1 0
v -2 -2 0
v -3 -2 0
v -3 -1 0
v -2 -1 0
v -3 -2 0
v -4 -2 0
v -4 -1 0
v -3 -1 0
v -4 -2 0
v -5 -2 0
v -5 -1 0
v -4 -1 0
v -5 -2 0
v -6 -2 0
v -6 -1 0
v -5 -1 0
v -6 -2 0
v -7 -2 0
v -7 -1 0
v -6 -1 0
v 0 -3 0
v -1 -3 0
v -1 -2 0
v 0 -2 0
v -1 -3 0
v -2 -3 0
v -2 -2 0
v -1 -2 0
v -2 -3 0
v -3 -3 0
v -3 -2 0
v -2 -2 0
v -3 -3 0
v -4 -3 0
v -4 -2 0
v -3 -2 0
v -4 -3 0
v -5 -3 0
v -5 -2 0
v -4 -2 0
v -5 -3 0
v -6 -3 0
v -6 -2 0
v -5 -2 0
v -6 -3 0
v -7 -3 0
v -7 -2 0
v -6 -2 0
v 0 -4 0
v -1 -4 0
v -1 -3 0
v 0 -3 0
v -1 -4 0
v -2 -4 0
v -2 -3 0
v -1 -3 0
v -2 -4 0
v -3 -4 0
v -3 -3 0
v -2 -3 0
v -3 -4 0
v -4 -4 0
v -4 -3 0
v -3 -3 0
v -4 -4 0
v -5 -4 0
v -5 -3 0
v -4 -3 0
v -5 -4 0
v -6 -4 0
v -6 -3 0
v -5 -3 0
v -6 -4 0
v -7 -4 0
v -7 -3 0
v -6 -3 0
v 0 -5 0
v -1 -5 0
v -1 -4 0
v 0 -4 0
v -1 -5 0
v -2 -5 0
v -2 -4 0
v -1 -4 0
v -2 -5 0
v -3 -5 0
v -3 -4 0
v -2 -4 0
v -3 -5 0
v -4 -5 0
v -4 -4 0
v -3 -4 0
v -4 -5 0
v -5 -5 0
v -5 -4 0
v -4 -4 0
v -5 -5 0
v -6 -5 0
v -6 -4 0
v -5 -4 0
v -6 -5 0
v -7 -5 0
v -7 -4 0
v -6 -4 0
v 0 -6 0
v -1 -6 0
v -1 -5 0
v 0 -5 0
v -1 -6 0
v -2 -6 0
v -2 -5 0
v -1 -5 0
v -2 -6 0
v -3 -6 0
v -3 -5 0
v -2 -5 0
v -3 -6 0
v -4 -6 0
v -4 -5 0
v -3 -5 0
v -4 -6 0
v -5 -6 0
v -5 -5 0
v -4 -5 0
v -5 -6 0
v -6 -6 0
v -6 -5 0
v -5 -5 0
v -6 -6 0
v -7 -6 0
v -7 -5 0
v -6 -5 0
v 0 -7 0
v -1 -7 0
v -1 -6 0
v 0 -6 0
v -1 -7 0
v -2 -7 0
v -2 -6 0
v -1 -6 0
v -2 -7 0
v -3 -7 0
v -3 -6 0
v -2 -6 0
v -3 -7 0
v -4 -7 0
v -4 -6 0
v -3 -6 0
v -4 -7 0
v -5 -7 0
v -5 -6 0
v -4 -6 0
v -5 -7 0
v -6 -7 0
v -6 -6 0
v -5 -6 0
v -6 -7 0
v -7 -7 0
v -7 -6 0
v -6 -6 0
v 0 -8 0
v -1 -8 0
v -1 -7 0
v 0 -7 0
v -1 -8 0
v -2 -8 0
v -2 -7 0
v -1 -7 0
v -2 -8 0
v -3 -8 0
v -3 -7 0
v -2 -7 0
v -3 -8 0
v -4 -8 0
v -4 -7 0
v -3 -7 0
v -4 -8 0
v -5 -8 0
v -5 -7 0
v -4 -7 0
v -5 -8 0
v -6 -8 0
v -6 -7 0
v -5 -7 0
v -6 -8 0
v -7 -8 0
v -7 -7 0
v -6 -7 0
v 0 -9 0
v -1 -9 0
v -1 -8 0
v 0 -8 0
v -1 -9 0
v -2 -9 0
v -2 -8 0
v -1 -8 0
v -2 -9 0
v -3 -9 0
v -3 -8 0
v -2 -8 0
v -3 -9 0
v -4 -9 0
v -4 -8 0
v -3 -8 0
v -4 -9 0
v -5 -9 0
v -5 -8 0
v -4 -8 0
v -5 -9 0
v -6 -9 0
v -6 -8 0
v -5 -8 0
v -6 -9 0
v -7 -9 0
v -7 -8 0
v -6 -8 0
v 0 -10 0
v -1 -10 0
v -1 -9 0
v 0 -9 0
v -1 -10 0
v -2 -10 0
v -2 -9 0
v -1 -9 0
v -2 -10 0
v -3 -10 0
v -3 -9 0
v -2 -9 0
v -3 -10 0
v -4 -10 0
v -4 -9 0
v -3 -9 0
v -4 -10 0
v -5 -10 0
v -5 -9 0
v -4 -9 0
v -5 -10 0
v -6 -10 0
v -6 -9 0
v -5 -9 0
v -6 -10 0
v -7 -10 0
v -7 -9 0
v -6 -9 0
v 0 -11 0
v -1 -11 0
v -1 -10 0
v 0 -10 0
v -1 -11 0
v -2 -11 0
v -2 -10 0
v -1 -10 0
v -2 -11 0
v -3 -11 0
v -3 -10 0
v -2 -10 0
v -3 -11 0
v -4 -11 0
v -4 -10 0
v -3 -10 0
v -4 -11 0
v -5 -11 0
v -5 -10 0
v -4 -10 0
v -5 -11 0
v -6 -11 0
v -6 -10 0
v -5 -10 0
v -6 -11 0
v -7 -11 0
v -7 -10 0
v -6 -10 0

# Texture cooridinates (Count = 24)
vt 0.7382813 0.890625
vt 0.765625 0.890625
vt 0.765625 0.9179688
vt 0.7382813 0.9179688
vt 0.7929688 0.890625
vt 0.7929688 0.9179688
vt 0.7929688 0.9453125
vt 0.765625 0.9453125
vt 0.8203125 0.9179688
vt 0.8203125 0.9453125
vt 0.7382813 0.9453125
vt 0.765625 0.9726563
vt 0.7382813 0.9726563
vt 0.7929688 0.9726563
vt 0.8203125 0.890625
vt 0.8203125 0.9726563
vt 0.7382813 0.8632813
vt 0.765625 0.8632813
vt 0.7929688 0.8632813
vt 0.8203125 0.8632813
vt 0.7382813 0.8359375
vt 0.765625 0.8359375
vt 0.7929688 0.8359375
vt 0.8203125 0.8359375

# Normal
vn 0 0 -1

# Mesh description
g escenaNorte_2_mesh_0151

# Faces
f 1/1/1 2/2/1 3/3/1 4/4/1
f 5/2/1 6/5/1 7/6/1 8/3/1
f 9/3/1 10/6/1 11/7/1 12/8/1
f 13/3/1 14/6/1 15/7/1 16/8/1
f 17/3/1 18/6/1 19/7/1 20/8/1
f 21/3/1 22/6/1 23/7/1 24/8/1
f 25/6/1 26/9/1 27/10/1 28/7/1
f 29/11/1 30/8/1 31/12/1 32/13/1
f 33/8/1 34/7/1 35/14/1 36/12/1
f 37/2/1 38/5/1 39/6/1 40/3/1
f 41/2/1 42/5/1 43/6/1 44/3/1
f 45/2/1 46/5/1 47/6/1 48/3/1
f 49/2/1 50/5/1 51/6/1 52/3/1
f 53/5/1 54/15/1 55/9/1 56/6/1
f 57/4/1 58/3/1 59/8/1 60/11/1
f 61/3/1 62/6/1 63/7/1 64/8/1
f 65/3/1 66/6/1 67/7/1 68/8/1
f 69/3/1 70/6/1 71/7/1 72/8/1
f 73/3/1 74/6/1 75/7/1 76/8/1
f 77/8/1 78/7/1 79/14/1 80/12/1
f 81/7/1 82/10/1 83/16/1 84/14/1
f 85/1/1 86/2/1 87/3/1 88/4/1
f 89/2/1 90/5/1 91/6/1 92/3/1
f 93/2/1 94/5/1 95/6/1 96/3/1
f 97/2/1 98/5/1 99/6/1 100/3/1
f 101/2/1 102/5/1 103/6/1 104/3/1
f 105/3/1 106/6/1 107/7/1 108/8/1
f 109/6/1 110/9/1 111/10/1 112/7/1
f 113/11/1 114/8/1 115/12/1 116/13/1
f 117/8/1 118/7/1 119/14/1 120/12/1
f 121/3/1 122/6/1 123/7/1 124/8/1
f 125/3/1 126/6/1 127/7/1 128/8/1
f 129/3/1 130/6/1 131/7/1 132/8/1
f 133/2/1 134/5/1 135/6/1 136/3/1
f 137/5/1 138/15/1 139/9/1 140/6/1
f 141/4/1 142/3/1 143/8/1 144/11/1
f 145/3/1 146/6/1 147/7/1 148/8/1
f 149/2/1 150/5/1 151/6/1 152/3/1
f 153/2/1 154/5/1 155/6/1 156/3/1
f 157/2/1 158/5/1 159/6/1 160/3/1
f 161/8/1 162/7/1 163/14/1 164/12/1
f 165/7/1 166/10/1 167/16/1 168/14/1
f 169/11/1 170/8/1 171/12/1 172/13/1
f 173/8/1 174/7/1 175/14/1 176/12/1
f 177/3/1 178/6/1 179/7/1 180/8/1
f 181/3/1 182/6/1 183/7/1 184/8/1
f 185/3/1 186/6/1 187/7/1 188/8/1
f 189/3/1 190/6/1 191/7/1 192/8/1
f 193/6/1 194/9/1 195/10/1 196/7/1
f 197/4/1 198/3/1 199/8/1 200/11/1
f 201/3/1 202/6/1 203/7/1 204/8/1
f 205/2/1 206/5/1 207/6/1 208/3/1
f 209/2/1 210/5/1 211/6/1 212/3/1
f 213/2/1 214/5/1 215/6/1 216/3/1
f 217/2/1 218/5/1 219/6/1 220/3/1
f 221/5/1 222/15/1 223/9/1 224/6/1
f 225/1/1 226/2/1 227/3/1 228/4/1
f 229/2/1 230/5/1 231/6/1 232/3/1
f 233/2/1 234/5/1 235/6/1 236/3/1
f 237/2/1 238/5/1 239/6/1 240/3/1
f 241/2/1 242/5/1 243/6/1 244/3/1
f 245/2/1 246/5/1 247/6/1 248/3/1
f 249/5/1 250/15/1 251/9/1 252/6/1
f 253/17/1 254/18/1 255/2/1 256/1/1
f 257/18/1 258/19/1 259/5/1 260/2/1
f 261/18/1 262/19/1 263/5/1 264/2/1
f 265/18/1 266/19/1 267/5/1 268/2/1
f 269/18/1 270/19/1 271/5/1 272/2/1
f 273/18/1 274/19/1 275/5/1 276/2/1
f 277/19/1 278/20/1 279/15/1 280/5/1
f 281/21/1 282/22/1 283/18/1 284/17/1
f 285/22/1 286/23/1 287/19/1 288/18/1
f 289/22/1 290/23/1 291/19/1 292/18/1
f 293/22/1 294/23/1 295/19/1 296/18/1
f 297/22/1 298/23/1 299/19/1 300/18/1
f 301/22/1 302/23/1 303/19/1 304/18/1
f 305/23/1 306/24/1 307/20/1 308/19/1

