# Tiled2Unity generated file. Do not modify by hand.
# Wavefront file for 'escenaNorte_2_mesh_0150.obj'

# Vertices (Count = 12)
v 0 -14 0
v -1 -14 0
v -1 -13 0
v 0 -13 0
v 0 -15 0
v -1 -15 0
v -1 -14 0
v 0 -14 0
v 0 -16 0
v -1 -16 0
v -1 -15 0
v 0 -15 0

# Texture cooridinates (Count = 4)
vt 0.1640625 0.71875
vt 0.2460938 0.71875
vt 0.2460938 0.765625
vt 0.1640625 0.765625

# Normal
vn 0 0 -1

# Mesh description
g escenaNorte_2_mesh_0150

# Faces
f 1/1/1 2/2/1 3/3/1 4/4/1
f 5/1/1 6/2/1 7/3/1 8/4/1
f 9/1/1 10/2/1 11/3/1 12/4/1

