# Tiled2Unity generated file. Do not modify by hand.
# Wavefront file for 'escenaNorte_2_mesh_0183.obj'

# Vertices (Count = 172)
v -12 -3 0
v -13 -3 0
v -13 -2 0
v -12 -2 0
v -13 -3 0
v -14 -3 0
v -14 -2 0
v -13 -2 0
v -14 -3 0
v -15 -3 0
v -15 -2 0
v -14 -2 0
v -15 -3 0
v -16 -3 0
v -16 -2 0
v -15 -2 0
v -13 -4 0
v -14 -4 0
v -14 -3 0
v -13 -3 0
v -14 -4 0
v -15 -4 0
v -15 -3 0
v -14 -3 0
v -13 -5 0
v -14 -5 0
v -14 -4 0
v -13 -4 0
v -14 -5 0
v -15 -5 0
v -15 -4 0
v -14 -4 0
v -13 -6 0
v -14 -6 0
v -14 -5 0
v -13 -5 0
v -14 -6 0
v -15 -6 0
v -15 -5 0
v -14 -5 0
v -1 -7 0
v -2 -7 0
v -2 -6 0
v -1 -6 0
v -2 -7 0
v -3 -7 0
v -3 -6 0
v -2 -6 0
v -3 -7 0
v -4 -7 0
v -4 -6 0
v -3 -6 0
v -6 -7 0
v -7 -7 0
v -7 -6 0
v -6 -6 0
v -7 -7 0
v -8 -7 0
v -8 -6 0
v -7 -6 0
v -8 -7 0
v -9 -7 0
v -9 -6 0
v -8 -6 0
v -13 -7 0
v -14 -7 0
v -14 -6 0
v -13 -6 0
v -14 -7 0
v -15 -7 0
v -15 -6 0
v -14 -6 0
v -1 -8 0
v -2 -8 0
v -2 -7 0
v -1 -7 0
v -8 -8 0
v -9 -8 0
v -9 -7 0
v -8 -7 0
v -1 -9 0
v -2 -9 0
v -2 -8 0
v -1 -8 0
v -8 -9 0
v -9 -9 0
v -9 -8 0
v -8 -8 0
v -1 -10 0
v -2 -10 0
v -2 -9 0
v -1 -9 0
v -8 -10 0
v -9 -10 0
v -9 -9 0
v -8 -9 0
v -1 -14 0
v -2 -14 0
v -2 -13 0
v -1 -13 0
v -2 -14 0
v -3 -14 0
v -3 -13 0
v -2 -13 0
v -3 -14 0
v -4 -14 0
v -4 -13 0
v -3 -13 0
v -12 -14 0
v -13 -14 0
v -13 -13 0
v -12 -13 0
v -13 -14 0
v -14 -14 0
v -14 -13 0
v -13 -13 0
v -14 -14 0
v -15 -14 0
v -15 -13 0
v -14 -13 0
v -1 -15 0
v -2 -15 0
v -2 -14 0
v -1 -14 0
v -2 -15 0
v -3 -15 0
v -3 -14 0
v -2 -14 0
v -3 -15 0
v -4 -15 0
v -4 -14 0
v -3 -14 0
v -12 -15 0
v -13 -15 0
v -13 -14 0
v -12 -14 0
v -13 -15 0
v -14 -15 0
v -14 -14 0
v -13 -14 0
v -14 -15 0
v -15 -15 0
v -15 -14 0
v -14 -14 0
v -1 -16 0
v -2 -16 0
v -2 -15 0
v -1 -15 0
v -2 -16 0
v -3 -16 0
v -3 -15 0
v -2 -15 0
v -3 -16 0
v -4 -16 0
v -4 -15 0
v -3 -15 0
v -12 -16 0
v -13 -16 0
v -13 -15 0
v -12 -15 0
v -13 -16 0
v -14 -16 0
v -14 -15 0
v -13 -15 0
v -14 -16 0
v -15 -16 0
v -15 -15 0
v -14 -15 0
v -15 -16 0
v -16 -16 0
v -16 -15 0
v -15 -15 0

# Texture cooridinates (Count = 79)
vt 0.5195313 0.3984375
vt 0.546875 0.3984375
vt 0.546875 0.4257813
vt 0.5195313 0.4257813
vt 0.5742188 0.3984375
vt 0.5742188 0.4257813
vt 0.6015625 0.3984375
vt 0.6015625 0.4257813
vt 0.6289063 0.3984375
vt 0.6289063 0.4257813
vt 0 0.6992188
vt 0.02734375 0.6992188
vt 0.02734375 0.7265625
vt 0 0.7265625
vt 0.0546875 0.6992188
vt 0.0546875 0.7265625
vt 0 0.671875
vt 0.02734375 0.671875
vt 0.0546875 0.671875
vt 0 0.6445313
vt 0.02734375 0.6445313
vt 0.0546875 0.6445313
vt 0.6835938 0.3984375
vt 0.7109375 0.3984375
vt 0.7109375 0.4257813
vt 0.6835938 0.4257813
vt 0.7382813 0.3984375
vt 0.7382813 0.4257813
vt 0.765625 0.3984375
vt 0.765625 0.4257813
vt 0 0.6171875
vt 0.02734375 0.6171875
vt 0.0546875 0.6171875
vt 0.7929688 0.671875
vt 0.8203125 0.671875
vt 0.8203125 0.6992188
vt 0.7929688 0.6992188
vt 0.7929688 0.6445313
vt 0.8203125 0.6445313
vt 0.7929688 0.6171875
vt 0.8203125 0.6171875
vt 0.7382813 0.1523438
vt 0.765625 0.1523438
vt 0.765625 0.1796875
vt 0.7382813 0.1796875
vt 0.7929688 0.1523438
vt 0.7929688 0.1796875
vt 0.8203125 0.1523438
vt 0.8203125 0.1796875
vt 0.3554688 0.7265625
vt 0.3828125 0.7265625
vt 0.3828125 0.7539063
vt 0.3554688 0.7539063
vt 0.4101563 0.7265625
vt 0.4101563 0.7539063
vt 0.4375 0.7265625
vt 0.4375 0.7539063
vt 0.7382813 0.125
vt 0.765625 0.125
vt 0.7929688 0.125
vt 0.8203125 0.125
vt 0.3554688 0.6992188
vt 0.3828125 0.6992188
vt 0.4101563 0.6992188
vt 0.4375 0.6992188
vt 0.7382813 0.09765625
vt 0.765625 0.09765625
vt 0.7929688 0.09765625
vt 0.8203125 0.09765625
vt 0.5195313 0.2890625
vt 0.546875 0.2890625
vt 0.546875 0.3164063
vt 0.5195313 0.3164063
vt 0.5742188 0.2890625
vt 0.5742188 0.3164063
vt 0.6015625 0.2890625
vt 0.6015625 0.3164063
vt 0.6289063 0.2890625
vt 0.6289063 0.3164063

# Normal
vn 0 0 -1

# Mesh description
g escenaNorte_2_mesh_0183

# Faces
f 1/1/1 2/2/1 3/3/1 4/4/1
f 5/2/1 6/5/1 7/6/1 8/3/1
f 9/5/1 10/7/1 11/8/1 12/6/1
f 13/7/1 14/9/1 15/10/1 16/8/1
f 17/11/1 18/12/1 19/13/1 20/14/1
f 21/12/1 22/15/1 23/16/1 24/13/1
f 25/17/1 26/18/1 27/12/1 28/11/1
f 29/18/1 30/19/1 31/15/1 32/12/1
f 33/20/1 34/21/1 35/18/1 36/17/1
f 37/21/1 38/22/1 39/19/1 40/18/1
f 41/23/1 42/24/1 43/25/1 44/26/1
f 45/24/1 46/27/1 47/28/1 48/25/1
f 49/27/1 50/29/1 51/30/1 52/28/1
f 53/29/1 54/27/1 55/28/1 56/30/1
f 57/27/1 58/24/1 59/25/1 60/28/1
f 61/24/1 62/23/1 63/26/1 64/25/1
f 65/31/1 66/32/1 67/21/1 68/20/1
f 69/32/1 70/33/1 71/22/1 72/21/1
f 73/34/1 74/35/1 75/36/1 76/37/1
f 77/35/1 78/34/1 79/37/1 80/36/1
f 81/38/1 82/39/1 83/35/1 84/34/1
f 85/39/1 86/38/1 87/34/1 88/35/1
f 89/40/1 90/41/1 91/39/1 92/38/1
f 93/41/1 94/40/1 95/38/1 96/39/1
f 97/42/1 98/43/1 99/44/1 100/45/1
f 101/43/1 102/46/1 103/47/1 104/44/1
f 105/46/1 106/48/1 107/49/1 108/47/1
f 109/50/1 110/51/1 111/52/1 112/53/1
f 113/51/1 114/54/1 115/55/1 116/52/1
f 117/54/1 118/56/1 119/57/1 120/55/1
f 121/58/1 122/59/1 123/43/1 124/42/1
f 125/59/1 126/60/1 127/46/1 128/43/1
f 129/60/1 130/61/1 131/48/1 132/46/1
f 133/62/1 134/63/1 135/51/1 136/50/1
f 137/63/1 138/64/1 139/54/1 140/51/1
f 141/64/1 142/65/1 143/56/1 144/54/1
f 145/66/1 146/67/1 147/59/1 148/58/1
f 149/67/1 150/68/1 151/60/1 152/59/1
f 153/68/1 154/69/1 155/61/1 156/60/1
f 157/70/1 158/71/1 159/72/1 160/73/1
f 161/71/1 162/74/1 163/75/1 164/72/1
f 165/74/1 166/76/1 167/77/1 168/75/1
f 169/76/1 170/78/1 171/79/1 172/77/1

