# Tiled2Unity generated file. Do not modify by hand.
# Wavefront file for 'escenaNorte_2_mesh_0103.obj'

# Vertices (Count = 128)
v 0 -14 0
v -1 -14 0
v -1 -13 0
v 0 -13 0
v -1 -14 0
v -2 -14 0
v -2 -13 0
v -1 -13 0
v -2 -14 0
v -3 -14 0
v -3 -13 0
v -2 -13 0
v -3 -14 0
v -4 -14 0
v -4 -13 0
v -3 -13 0
v -4 -14 0
v -5 -14 0
v -5 -13 0
v -4 -13 0
v -5 -14 0
v -6 -14 0
v -6 -13 0
v -5 -13 0
v -6 -14 0
v -7 -14 0
v -7 -13 0
v -6 -13 0
v -7 -14 0
v -8 -14 0
v -8 -13 0
v -7 -13 0
v -8 -14 0
v -9 -14 0
v -9 -13 0
v -8 -13 0
v -9 -14 0
v -10 -14 0
v -10 -13 0
v -9 -13 0
v -10 -14 0
v -11 -14 0
v -11 -13 0
v -10 -13 0
v -11 -14 0
v -12 -14 0
v -12 -13 0
v -11 -13 0
v -12 -14 0
v -13 -14 0
v -13 -13 0
v -12 -13 0
v -13 -14 0
v -14 -14 0
v -14 -13 0
v -13 -13 0
v -14 -14 0
v -15 -14 0
v -15 -13 0
v -14 -13 0
v -15 -14 0
v -16 -14 0
v -16 -13 0
v -15 -13 0
v 0 -15 0
v -1 -15 0
v -1 -14 0
v 0 -14 0
v -1 -15 0
v -2 -15 0
v -2 -14 0
v -1 -14 0
v -2 -15 0
v -3 -15 0
v -3 -14 0
v -2 -14 0
v -3 -15 0
v -4 -15 0
v -4 -14 0
v -3 -14 0
v -4 -15 0
v -5 -15 0
v -5 -14 0
v -4 -14 0
v -5 -15 0
v -6 -15 0
v -6 -14 0
v -5 -14 0
v -6 -15 0
v -7 -15 0
v -7 -14 0
v -6 -14 0
v -7 -15 0
v -8 -15 0
v -8 -14 0
v -7 -14 0
v -8 -15 0
v -9 -15 0
v -9 -14 0
v -8 -14 0
v -9 -15 0
v -10 -15 0
v -10 -14 0
v -9 -14 0
v -10 -15 0
v -11 -15 0
v -11 -14 0
v -10 -14 0
v -11 -15 0
v -12 -15 0
v -12 -14 0
v -11 -14 0
v -12 -15 0
v -13 -15 0
v -13 -14 0
v -12 -14 0
v -13 -15 0
v -14 -15 0
v -14 -14 0
v -13 -14 0
v -14 -15 0
v -15 -15 0
v -15 -14 0
v -14 -14 0
v -15 -15 0
v -16 -15 0
v -16 -14 0
v -15 -14 0

# Texture cooridinates (Count = 16)
vt 0 0.34375
vt 0.328125 0.34375
vt 0.328125 0.671875
vt 0 0.671875
vt 0.328125 0.015625
vt 0.65625 0.015625
vt 0.65625 0.34375
vt 0.65625 0.671875
vt 0.984375 0.671875
vt 0.984375 1
vt 0.65625 1
vt 0.328125 1
vt 0 1
vt 0 0.015625
vt 0.984375 0.015625
vt 0.984375 0.34375

# Normal
vn 0 0 -1

# Mesh description
g escenaNorte_2_mesh_0103

# Faces
f 1/1/1 2/2/1 3/3/1 4/4/1
f 5/5/1 6/6/1 7/7/1 8/2/1
f 9/5/1 10/6/1 11/7/1 12/2/1
f 13/2/1 14/7/1 15/8/1 16/3/1
f 17/8/1 18/9/1 19/10/1 20/11/1
f 21/8/1 22/9/1 23/10/1 24/11/1
f 25/4/1 26/3/1 27/12/1 28/13/1
f 29/14/1 30/5/1 31/2/1 32/1/1
f 33/5/1 34/6/1 35/7/1 36/2/1
f 37/3/1 38/8/1 39/11/1 40/12/1
f 41/3/1 42/8/1 43/11/1 44/12/1
f 45/14/1 46/5/1 47/2/1 48/1/1
f 49/4/1 50/3/1 51/12/1 52/13/1
f 53/6/1 54/15/1 55/16/1 56/7/1
f 57/7/1 58/16/1 59/9/1 60/8/1
f 61/8/1 62/9/1 63/10/1 64/11/1
f 65/2/1 66/7/1 67/8/1 68/3/1
f 69/4/1 70/3/1 71/12/1 72/13/1
f 73/5/1 74/6/1 75/7/1 76/2/1
f 77/6/1 78/15/1 79/16/1 80/7/1
f 81/7/1 82/16/1 83/9/1 84/8/1
f 85/3/1 86/8/1 87/11/1 88/12/1
f 89/7/1 90/16/1 91/9/1 92/8/1
f 93/3/1 94/8/1 95/11/1 96/12/1
f 97/7/1 98/16/1 99/9/1 100/8/1
f 101/2/1 102/7/1 103/8/1 104/3/1
f 105/4/1 106/3/1 107/12/1 108/13/1
f 109/3/1 110/8/1 111/11/1 112/12/1
f 113/6/1 114/15/1 115/16/1 116/7/1
f 117/7/1 118/16/1 119/9/1 120/8/1
f 121/7/1 122/16/1 123/9/1 124/8/1
f 125/2/1 126/7/1 127/8/1 128/3/1

