# Tiled2Unity generated file. Do not modify by hand.
# Wavefront file for 'escenaNorte_2_mesh_0195.obj'

# Vertices (Count = 224)
v -4 -3 0
v -5 -3 0
v -5 -2 0
v -4 -2 0
v -5 -3 0
v -6 -3 0
v -6 -2 0
v -5 -2 0
v -10 -3 0
v -11 -3 0
v -11 -2 0
v -10 -2 0
v -11 -3 0
v -12 -3 0
v -12 -2 0
v -11 -2 0
v -4 -4 0
v -5 -4 0
v -5 -3 0
v -4 -3 0
v -5 -4 0
v -6 -4 0
v -6 -3 0
v -5 -3 0
v -10 -4 0
v -11 -4 0
v -11 -3 0
v -10 -3 0
v -11 -4 0
v -12 -4 0
v -12 -3 0
v -11 -3 0
v -4 -5 0
v -5 -5 0
v -5 -4 0
v -4 -4 0
v -5 -5 0
v -6 -5 0
v -6 -4 0
v -5 -4 0
v -10 -5 0
v -11 -5 0
v -11 -4 0
v -10 -4 0
v -11 -5 0
v -12 -5 0
v -12 -4 0
v -11 -4 0
v -4 -6 0
v -5 -6 0
v -5 -5 0
v -4 -5 0
v -5 -6 0
v -6 -6 0
v -6 -5 0
v -5 -5 0
v -10 -6 0
v -11 -6 0
v -11 -5 0
v -10 -5 0
v -11 -6 0
v -12 -6 0
v -12 -5 0
v -11 -5 0
v -4 -9 0
v -5 -9 0
v -5 -8 0
v -4 -8 0
v -5 -9 0
v -6 -9 0
v -6 -8 0
v -5 -8 0
v -6 -9 0
v -7 -9 0
v -7 -8 0
v -6 -8 0
v -7 -9 0
v -8 -9 0
v -8 -8 0
v -7 -8 0
v -4 -10 0
v -5 -10 0
v -5 -9 0
v -4 -9 0
v -5 -10 0
v -6 -10 0
v -6 -9 0
v -5 -9 0
v -6 -10 0
v -7 -10 0
v -7 -9 0
v -6 -9 0
v -7 -10 0
v -8 -10 0
v -8 -9 0
v -7 -9 0
v -4 -11 0
v -5 -11 0
v -5 -10 0
v -4 -10 0
v -5 -11 0
v -6 -11 0
v -6 -10 0
v -5 -10 0
v -6 -11 0
v -7 -11 0
v -7 -10 0
v -6 -10 0
v -7 -11 0
v -8 -11 0
v -8 -10 0
v -7 -10 0
v -4 -12 0
v -5 -12 0
v -5 -11 0
v -4 -11 0
v -5 -12 0
v -6 -12 0
v -6 -11 0
v -5 -11 0
v -6 -12 0
v -7 -12 0
v -7 -11 0
v -6 -11 0
v -7 -12 0
v -8 -12 0
v -8 -11 0
v -7 -11 0
v -10 -12 0
v -11 -12 0
v -11 -11 0
v -10 -11 0
v -11 -12 0
v -12 -12 0
v -12 -11 0
v -11 -11 0
v -4 -13 0
v -5 -13 0
v -5 -12 0
v -4 -12 0
v -5 -13 0
v -6 -13 0
v -6 -12 0
v -5 -12 0
v -6 -13 0
v -7 -13 0
v -7 -12 0
v -6 -12 0
v -7 -13 0
v -8 -13 0
v -8 -12 0
v -7 -12 0
v -10 -13 0
v -11 -13 0
v -11 -12 0
v -10 -12 0
v -11 -13 0
v -12 -13 0
v -12 -12 0
v -11 -12 0
v -4 -14 0
v -5 -14 0
v -5 -13 0
v -4 -13 0
v -5 -14 0
v -6 -14 0
v -6 -13 0
v -5 -13 0
v -6 -14 0
v -7 -14 0
v -7 -13 0
v -6 -13 0
v -7 -14 0
v -8 -14 0
v -8 -13 0
v -7 -13 0
v -10 -14 0
v -11 -14 0
v -11 -13 0
v -10 -13 0
v -11 -14 0
v -12 -14 0
v -12 -13 0
v -11 -13 0
v -4 -15 0
v -5 -15 0
v -5 -14 0
v -4 -14 0
v -5 -15 0
v -6 -15 0
v -6 -14 0
v -5 -14 0
v -6 -15 0
v -7 -15 0
v -7 -14 0
v -6 -14 0
v -7 -15 0
v -8 -15 0
v -8 -14 0
v -7 -14 0
v -10 -15 0
v -11 -15 0
v -11 -14 0
v -10 -14 0
v -11 -15 0
v -12 -15 0
v -12 -14 0
v -11 -14 0
v -4 -16 0
v -5 -16 0
v -5 -15 0
v -4 -15 0
v -5 -16 0
v -6 -16 0
v -6 -15 0
v -5 -15 0
v -6 -16 0
v -7 -16 0
v -7 -15 0
v -6 -15 0
v -7 -16 0
v -8 -16 0
v -8 -15 0
v -7 -15 0

# Texture cooridinates (Count = 30)
vt 0.6289063 0.1523438
vt 0.65625 0.1523438
vt 0.65625 0.1796875
vt 0.6289063 0.1796875
vt 0.6835938 0.1523438
vt 0.6835938 0.1796875
vt 0.6289063 0.125
vt 0.65625 0.125
vt 0.6835938 0.125
vt 0.6289063 0.09765625
vt 0.65625 0.09765625
vt 0.6835938 0.09765625
vt 0.6289063 0.0703125
vt 0.65625 0.0703125
vt 0.6835938 0.0703125
vt 0.328125 0.34375
vt 0.3554688 0.34375
vt 0.3554688 0.3710938
vt 0.328125 0.3710938
vt 0.3828125 0.34375
vt 0.3828125 0.3710938
vt 0.4101563 0.34375
vt 0.4101563 0.3710938
vt 0.4375 0.34375
vt 0.4375 0.3710938
vt 0.328125 0.3164063
vt 0.3554688 0.3164063
vt 0.3828125 0.3164063
vt 0.4101563 0.3164063
vt 0.4375 0.3164063

# Normal
vn 0 0 -1

# Mesh description
g escenaNorte_2_mesh_0195

# Faces
f 1/1/1 2/2/1 3/3/1 4/4/1
f 5/2/1 6/5/1 7/6/1 8/3/1
f 9/1/1 10/2/1 11/3/1 12/4/1
f 13/2/1 14/5/1 15/6/1 16/3/1
f 17/7/1 18/8/1 19/2/1 20/1/1
f 21/8/1 22/9/1 23/5/1 24/2/1
f 25/7/1 26/8/1 27/2/1 28/1/1
f 29/8/1 30/9/1 31/5/1 32/2/1
f 33/10/1 34/11/1 35/8/1 36/7/1
f 37/11/1 38/12/1 39/9/1 40/8/1
f 41/10/1 42/11/1 43/8/1 44/7/1
f 45/11/1 46/12/1 47/9/1 48/8/1
f 49/13/1 50/14/1 51/11/1 52/10/1
f 53/14/1 54/15/1 55/12/1 56/11/1
f 57/13/1 58/14/1 59/11/1 60/10/1
f 61/14/1 62/15/1 63/12/1 64/11/1
f 65/16/1 66/17/1 67/18/1 68/19/1
f 69/17/1 70/20/1 71/21/1 72/18/1
f 73/20/1 74/22/1 75/23/1 76/21/1
f 77/22/1 78/24/1 79/25/1 80/23/1
f 81/26/1 82/27/1 83/17/1 84/16/1
f 85/27/1 86/28/1 87/20/1 88/17/1
f 89/28/1 90/29/1 91/22/1 92/20/1
f 93/29/1 94/30/1 95/24/1 96/22/1
f 97/16/1 98/17/1 99/18/1 100/19/1
f 101/17/1 102/20/1 103/21/1 104/18/1
f 105/20/1 106/22/1 107/23/1 108/21/1
f 109/22/1 110/24/1 111/25/1 112/23/1
f 113/26/1 114/27/1 115/17/1 116/16/1
f 117/27/1 118/28/1 119/20/1 120/17/1
f 121/28/1 122/29/1 123/22/1 124/20/1
f 125/29/1 126/30/1 127/24/1 128/22/1
f 129/1/1 130/2/1 131/3/1 132/4/1
f 133/2/1 134/5/1 135/6/1 136/3/1
f 137/16/1 138/17/1 139/18/1 140/19/1
f 141/17/1 142/20/1 143/21/1 144/18/1
f 145/20/1 146/22/1 147/23/1 148/21/1
f 149/22/1 150/24/1 151/25/1 152/23/1
f 153/7/1 154/8/1 155/2/1 156/1/1
f 157/8/1 158/9/1 159/5/1 160/2/1
f 161/26/1 162/27/1 163/17/1 164/16/1
f 165/27/1 166/28/1 167/20/1 168/17/1
f 169/28/1 170/29/1 171/22/1 172/20/1
f 173/29/1 174/30/1 175/24/1 176/22/1
f 177/10/1 178/11/1 179/8/1 180/7/1
f 181/11/1 182/12/1 183/9/1 184/8/1
f 185/16/1 186/17/1 187/18/1 188/19/1
f 189/17/1 190/20/1 191/21/1 192/18/1
f 193/20/1 194/22/1 195/23/1 196/21/1
f 197/22/1 198/24/1 199/25/1 200/23/1
f 201/13/1 202/14/1 203/11/1 204/10/1
f 205/14/1 206/15/1 207/12/1 208/11/1
f 209/26/1 210/27/1 211/17/1 212/16/1
f 213/27/1 214/28/1 215/20/1 216/17/1
f 217/28/1 218/29/1 219/22/1 220/20/1
f 221/29/1 222/30/1 223/24/1 224/22/1

