# Tiled2Unity generated file. Do not modify by hand.
# Wavefront file for 'escenaNorte_2_mesh_0227.obj'

# Vertices (Count = 12)
v -4 -11 0
v -5 -11 0
v -5 -10 0
v -4 -10 0
v -5 -11 0
v -6 -11 0
v -6 -10 0
v -5 -10 0
v -6 -11 0
v -7 -11 0
v -7 -10 0
v -6 -10 0

# Texture cooridinates (Count = 4)
vt 0.1757813 0.7120535
vt 0.2578125 0.7120535
vt 0.2578125 0.7589285
vt 0.1757813 0.7589285

# Normal
vn 0 0 -1

# Mesh description
g escenaNorte_2_mesh_0227

# Faces
f 1/1/1 2/2/1 3/3/1 4/4/1
f 5/1/1 6/2/1 7/3/1 8/4/1
f 9/1/1 10/2/1 11/3/1 12/4/1

