# Tiled2Unity generated file. Do not modify by hand.
# Wavefront file for 'escenaNorte_2_mesh_0079.obj'

# Vertices (Count = 12)
v -8 -2 0
v -9 -2 0
v -9 -1 0
v -8 -1 0
v -8 -7 0
v -9 -7 0
v -9 -6 0
v -8 -6 0
v -8 -13 0
v -9 -13 0
v -9 -12 0
v -8 -12 0

# Texture cooridinates (Count = 4)
vt 0.1679688 0.1145833
vt 0.2089844 0.1145833
vt 0.2089844 0.2239583
vt 0.1679688 0.2239583

# Normal
vn 0 0 -1

# Mesh description
g escenaNorte_2_mesh_0079

# Faces
f 1/1/1 2/2/1 3/3/1 4/4/1
f 5/1/1 6/2/1 7/3/1 8/4/1
f 9/1/1 10/2/1 11/3/1 12/4/1

