# Tiled2Unity generated file. Do not modify by hand.
# Wavefront file for 'escenaNorte_2_mesh_0139.obj'

# Vertices (Count = 416)
v -3 -1 0
v -4 -1 0
v -4 0 0
v -3 0 0
v -4 -1 0
v -5 -1 0
v -5 0 0
v -4 0 0
v -5 -1 0
v -6 -1 0
v -6 0 0
v -5 0 0
v -6 -1 0
v -7 -1 0
v -7 0 0
v -6 0 0
v -7 -1 0
v -8 -1 0
v -8 0 0
v -7 0 0
v -8 -1 0
v -9 -1 0
v -9 0 0
v -8 0 0
v -9 -1 0
v -10 -1 0
v -10 0 0
v -9 0 0
v -10 -1 0
v -11 -1 0
v -11 0 0
v -10 0 0
v -3 -2 0
v -4 -2 0
v -4 -1 0
v -3 -1 0
v -4 -2 0
v -5 -2 0
v -5 -1 0
v -4 -1 0
v -5 -2 0
v -6 -2 0
v -6 -1 0
v -5 -1 0
v -6 -2 0
v -7 -2 0
v -7 -1 0
v -6 -1 0
v -7 -2 0
v -8 -2 0
v -8 -1 0
v -7 -1 0
v -8 -2 0
v -9 -2 0
v -9 -1 0
v -8 -1 0
v -9 -2 0
v -10 -2 0
v -10 -1 0
v -9 -1 0
v -10 -2 0
v -11 -2 0
v -11 -1 0
v -10 -1 0
v -3 -3 0
v -4 -3 0
v -4 -2 0
v -3 -2 0
v -4 -3 0
v -5 -3 0
v -5 -2 0
v -4 -2 0
v -5 -3 0
v -6 -3 0
v -6 -2 0
v -5 -2 0
v -6 -3 0
v -7 -3 0
v -7 -2 0
v -6 -2 0
v -7 -3 0
v -8 -3 0
v -8 -2 0
v -7 -2 0
v -8 -3 0
v -9 -3 0
v -9 -2 0
v -8 -2 0
v -9 -3 0
v -10 -3 0
v -10 -2 0
v -9 -2 0
v -10 -3 0
v -11 -3 0
v -11 -2 0
v -10 -2 0
v -3 -4 0
v -4 -4 0
v -4 -3 0
v -3 -3 0
v -4 -4 0
v -5 -4 0
v -5 -3 0
v -4 -3 0
v -5 -4 0
v -6 -4 0
v -6 -3 0
v -5 -3 0
v -6 -4 0
v -7 -4 0
v -7 -3 0
v -6 -3 0
v -7 -4 0
v -8 -4 0
v -8 -3 0
v -7 -3 0
v -8 -4 0
v -9 -4 0
v -9 -3 0
v -8 -3 0
v -9 -4 0
v -10 -4 0
v -10 -3 0
v -9 -3 0
v -10 -4 0
v -11 -4 0
v -11 -3 0
v -10 -3 0
v -3 -5 0
v -4 -5 0
v -4 -4 0
v -3 -4 0
v -4 -5 0
v -5 -5 0
v -5 -4 0
v -4 -4 0
v -5 -5 0
v -6 -5 0
v -6 -4 0
v -5 -4 0
v -6 -5 0
v -7 -5 0
v -7 -4 0
v -6 -4 0
v -7 -5 0
v -8 -5 0
v -8 -4 0
v -7 -4 0
v -8 -5 0
v -9 -5 0
v -9 -4 0
v -8 -4 0
v -9 -5 0
v -10 -5 0
v -10 -4 0
v -9 -4 0
v -10 -5 0
v -11 -5 0
v -11 -4 0
v -10 -4 0
v -3 -6 0
v -4 -6 0
v -4 -5 0
v -3 -5 0
v -4 -6 0
v -5 -6 0
v -5 -5 0
v -4 -5 0
v -5 -6 0
v -6 -6 0
v -6 -5 0
v -5 -5 0
v -6 -6 0
v -7 -6 0
v -7 -5 0
v -6 -5 0
v -7 -6 0
v -8 -6 0
v -8 -5 0
v -7 -5 0
v -8 -6 0
v -9 -6 0
v -9 -5 0
v -8 -5 0
v -9 -6 0
v -10 -6 0
v -10 -5 0
v -9 -5 0
v -10 -6 0
v -11 -6 0
v -11 -5 0
v -10 -5 0
v -3 -7 0
v -4 -7 0
v -4 -6 0
v -3 -6 0
v -4 -7 0
v -5 -7 0
v -5 -6 0
v -4 -6 0
v -5 -7 0
v -6 -7 0
v -6 -6 0
v -5 -6 0
v -6 -7 0
v -7 -7 0
v -7 -6 0
v -6 -6 0
v -7 -7 0
v -8 -7 0
v -8 -6 0
v -7 -6 0
v -8 -7 0
v -9 -7 0
v -9 -6 0
v -8 -6 0
v -9 -7 0
v -10 -7 0
v -10 -6 0
v -9 -6 0
v -10 -7 0
v -11 -7 0
v -11 -6 0
v -10 -6 0
v -3 -8 0
v -4 -8 0
v -4 -7 0
v -3 -7 0
v -4 -8 0
v -5 -8 0
v -5 -7 0
v -4 -7 0
v -5 -8 0
v -6 -8 0
v -6 -7 0
v -5 -7 0
v -6 -8 0
v -7 -8 0
v -7 -7 0
v -6 -7 0
v -7 -8 0
v -8 -8 0
v -8 -7 0
v -7 -7 0
v -8 -8 0
v -9 -8 0
v -9 -7 0
v -8 -7 0
v -9 -8 0
v -10 -8 0
v -10 -7 0
v -9 -7 0
v -10 -8 0
v -11 -8 0
v -11 -7 0
v -10 -7 0
v -3 -9 0
v -4 -9 0
v -4 -8 0
v -3 -8 0
v -4 -9 0
v -5 -9 0
v -5 -8 0
v -4 -8 0
v -5 -9 0
v -6 -9 0
v -6 -8 0
v -5 -8 0
v -6 -9 0
v -7 -9 0
v -7 -8 0
v -6 -8 0
v -7 -9 0
v -8 -9 0
v -8 -8 0
v -7 -8 0
v -8 -9 0
v -9 -9 0
v -9 -8 0
v -8 -8 0
v -9 -9 0
v -10 -9 0
v -10 -8 0
v -9 -8 0
v -10 -9 0
v -11 -9 0
v -11 -8 0
v -10 -8 0
v -3 -10 0
v -4 -10 0
v -4 -9 0
v -3 -9 0
v -4 -10 0
v -5 -10 0
v -5 -9 0
v -4 -9 0
v -5 -10 0
v -6 -10 0
v -6 -9 0
v -5 -9 0
v -6 -10 0
v -7 -10 0
v -7 -9 0
v -6 -9 0
v -7 -10 0
v -8 -10 0
v -8 -9 0
v -7 -9 0
v -8 -10 0
v -9 -10 0
v -9 -9 0
v -8 -9 0
v -9 -10 0
v -10 -10 0
v -10 -9 0
v -9 -9 0
v -10 -10 0
v -11 -10 0
v -11 -9 0
v -10 -9 0
v -3 -11 0
v -4 -11 0
v -4 -10 0
v -3 -10 0
v -4 -11 0
v -5 -11 0
v -5 -10 0
v -4 -10 0
v -5 -11 0
v -6 -11 0
v -6 -10 0
v -5 -10 0
v -6 -11 0
v -7 -11 0
v -7 -10 0
v -6 -10 0
v -7 -11 0
v -8 -11 0
v -8 -10 0
v -7 -10 0
v -8 -11 0
v -9 -11 0
v -9 -10 0
v -8 -10 0
v -9 -11 0
v -10 -11 0
v -10 -10 0
v -9 -10 0
v -10 -11 0
v -11 -11 0
v -11 -10 0
v -10 -10 0
v -3 -12 0
v -4 -12 0
v -4 -11 0
v -3 -11 0
v -4 -12 0
v -5 -12 0
v -5 -11 0
v -4 -11 0
v -5 -12 0
v -6 -12 0
v -6 -11 0
v -5 -11 0
v -6 -12 0
v -7 -12 0
v -7 -11 0
v -6 -11 0
v -7 -12 0
v -8 -12 0
v -8 -11 0
v -7 -11 0
v -8 -12 0
v -9 -12 0
v -9 -11 0
v -8 -11 0
v -9 -12 0
v -10 -12 0
v -10 -11 0
v -9 -11 0
v -10 -12 0
v -11 -12 0
v -11 -11 0
v -10 -11 0
v -3 -13 0
v -4 -13 0
v -4 -12 0
v -3 -12 0
v -4 -13 0
v -5 -13 0
v -5 -12 0
v -4 -12 0
v -5 -13 0
v -6 -13 0
v -6 -12 0
v -5 -12 0
v -6 -13 0
v -7 -13 0
v -7 -12 0
v -6 -12 0
v -7 -13 0
v -8 -13 0
v -8 -12 0
v -7 -12 0
v -8 -13 0
v -9 -13 0
v -9 -12 0
v -8 -12 0
v -9 -13 0
v -10 -13 0
v -10 -12 0
v -9 -12 0
v -10 -13 0
v -11 -13 0
v -11 -12 0
v -10 -12 0

# Texture cooridinates (Count = 30)
vt 0.8476563 0.1523438
vt 0.875 0.1523438
vt 0.875 0.1796875
vt 0.8476563 0.1796875
vt 0.875 0.2070313
vt 0.9023438 0.2070313
vt 0.9023438 0.234375
vt 0.875 0.234375
vt 0.9296875 0.2070313
vt 0.9296875 0.234375
vt 0.875 0.125
vt 0.9023438 0.125
vt 0.9023438 0.1523438
vt 0.9296875 0.125
vt 0.9296875 0.1523438
vt 0.9023438 0.1796875
vt 0.9296875 0.1796875
vt 0.9570313 0.2070313
vt 0.9570313 0.234375
vt 0.8476563 0.2070313
vt 0.8476563 0.234375
vt 0.9570313 0.1796875
vt 0.9570313 0.1523438
vt 0.9570313 0.125
vt 0.8476563 0.125
vt 0.8476563 0.09765625
vt 0.875 0.09765625
vt 0.9023438 0.09765625
vt 0.9296875 0.09765625
vt 0.9570313 0.09765625

# Normal
vn 0 0 -1

# Mesh description
g escenaNorte_2_mesh_0139

# Faces
f 1/1/1 2/2/1 3/3/1 4/4/1
f 5/5/1 6/6/1 7/7/1 8/8/1
f 9/6/1 10/9/1 11/10/1 12/7/1
f 13/11/1 14/12/1 15/13/1 16/2/1
f 17/12/1 18/14/1 19/15/1 20/13/1
f 21/2/1 22/13/1 23/16/1 24/3/1
f 25/13/1 26/15/1 27/17/1 28/16/1
f 29/9/1 30/18/1 31/19/1 32/10/1
f 33/20/1 34/5/1 35/8/1 36/21/1
f 37/3/1 38/16/1 39/6/1 40/5/1
f 41/16/1 42/17/1 43/9/1 44/6/1
f 45/5/1 46/6/1 47/7/1 48/8/1
f 49/6/1 50/9/1 51/10/1 52/7/1
f 53/11/1 54/12/1 55/13/1 56/2/1
f 57/12/1 58/14/1 59/15/1 60/13/1
f 61/17/1 62/22/1 63/18/1 64/9/1
f 65/4/1 66/3/1 67/5/1 68/20/1
f 69/2/1 70/13/1 71/16/1 72/3/1
f 73/13/1 74/15/1 75/17/1 76/16/1
f 77/3/1 78/16/1 79/6/1 80/5/1
f 81/16/1 82/17/1 83/9/1 84/6/1
f 85/5/1 86/6/1 87/7/1 88/8/1
f 89/6/1 90/9/1 91/10/1 92/7/1
f 93/15/1 94/23/1 95/22/1 96/17/1
f 97/1/1 98/2/1 99/3/1 100/4/1
f 101/11/1 102/12/1 103/13/1 104/2/1
f 105/12/1 106/14/1 107/15/1 108/13/1
f 109/2/1 110/13/1 111/16/1 112/3/1
f 113/13/1 114/15/1 115/17/1 116/16/1
f 117/3/1 118/16/1 119/6/1 120/5/1
f 121/16/1 122/17/1 123/9/1 124/6/1
f 125/14/1 126/24/1 127/23/1 128/15/1
f 129/20/1 130/5/1 131/8/1 132/21/1
f 133/5/1 134/6/1 135/7/1 136/8/1
f 137/6/1 138/9/1 139/10/1 140/7/1
f 141/11/1 142/12/1 143/13/1 144/2/1
f 145/12/1 146/14/1 147/15/1 148/13/1
f 149/2/1 150/13/1 151/16/1 152/3/1
f 153/13/1 154/15/1 155/17/1 156/16/1
f 157/9/1 158/18/1 159/19/1 160/10/1
f 161/4/1 162/3/1 163/5/1 164/20/1
f 165/3/1 166/16/1 167/6/1 168/5/1
f 169/16/1 170/17/1 171/9/1 172/6/1
f 173/5/1 174/6/1 175/7/1 176/8/1
f 177/6/1 178/9/1 179/10/1 180/7/1
f 181/11/1 182/12/1 183/13/1 184/2/1
f 185/12/1 186/14/1 187/15/1 188/13/1
f 189/17/1 190/22/1 191/18/1 192/9/1
f 193/1/1 194/2/1 195/3/1 196/4/1
f 197/2/1 198/13/1 199/16/1 200/3/1
f 201/13/1 202/15/1 203/17/1 204/16/1
f 205/3/1 206/16/1 207/6/1 208/5/1
f 209/16/1 210/17/1 211/9/1 212/6/1
f 213/5/1 214/6/1 215/7/1 216/8/1
f 217/6/1 218/9/1 219/10/1 220/7/1
f 221/15/1 222/23/1 223/22/1 224/17/1
f 225/20/1 226/5/1 227/8/1 228/21/1
f 229/11/1 230/12/1 231/13/1 232/2/1
f 233/12/1 234/14/1 235/15/1 236/13/1
f 237/2/1 238/13/1 239/16/1 240/3/1
f 241/13/1 242/15/1 243/17/1 244/16/1
f 245/3/1 246/16/1 247/6/1 248/5/1
f 249/16/1 250/17/1 251/9/1 252/6/1
f 253/14/1 254/24/1 255/23/1 256/15/1
f 257/4/1 258/3/1 259/5/1 260/20/1
f 261/5/1 262/6/1 263/7/1 264/8/1
f 265/6/1 266/9/1 267/10/1 268/7/1
f 269/11/1 270/12/1 271/13/1 272/2/1
f 273/12/1 274/14/1 275/15/1 276/13/1
f 277/2/1 278/13/1 279/16/1 280/3/1
f 281/13/1 282/15/1 283/17/1 284/16/1
f 285/9/1 286/18/1 287/19/1 288/10/1
f 289/1/1 290/2/1 291/3/1 292/4/1
f 293/3/1 294/16/1 295/6/1 296/5/1
f 297/16/1 298/17/1 299/9/1 300/6/1
f 301/3/1 302/16/1 303/6/1 304/5/1
f 305/16/1 306/17/1 307/9/1 308/6/1
f 309/11/1 310/12/1 311/13/1 312/2/1
f 313/12/1 314/14/1 315/15/1 316/13/1
f 317/17/1 318/22/1 319/18/1 320/9/1
f 321/1/1 322/2/1 323/3/1 324/4/1
f 325/2/1 326/13/1 327/16/1 328/3/1
f 329/13/1 330/15/1 331/17/1 332/16/1
f 333/2/1 334/13/1 335/16/1 336/3/1
f 337/13/1 338/15/1 339/17/1 340/16/1
f 341/2/1 342/13/1 343/16/1 344/3/1
f 345/13/1 346/15/1 347/17/1 348/16/1
f 349/15/1 350/23/1 351/22/1 352/17/1
f 353/25/1 354/11/1 355/2/1 356/1/1
f 357/11/1 358/12/1 359/13/1 360/2/1
f 361/12/1 362/14/1 363/15/1 364/13/1
f 365/11/1 366/12/1 367/13/1 368/2/1
f 369/12/1 370/14/1 371/15/1 372/13/1
f 373/11/1 374/12/1 375/13/1 376/2/1
f 377/12/1 378/14/1 379/15/1 380/13/1
f 381/14/1 382/24/1 383/23/1 384/15/1
f 385/26/1 386/27/1 387/11/1 388/25/1
f 389/27/1 390/28/1 391/12/1 392/11/1
f 393/28/1 394/29/1 395/14/1 396/12/1
f 397/27/1 398/28/1 399/12/1 400/11/1
f 401/28/1 402/29/1 403/14/1 404/12/1
f 405/27/1 406/28/1 407/12/1 408/11/1
f 409/28/1 410/29/1 411/14/1 412/12/1
f 413/29/1 414/30/1 415/24/1 416/14/1

