# Tiled2Unity generated file. Do not modify by hand.
# Wavefront file for 'escenaNorte_2_mesh_0088.obj'

# Vertices (Count = 128)
v 0 -15 0
v -1 -15 0
v -1 -14 0
v 0 -14 0
v -1 -15 0
v -2 -15 0
v -2 -14 0
v -1 -14 0
v -2 -15 0
v -3 -15 0
v -3 -14 0
v -2 -14 0
v -3 -15 0
v -4 -15 0
v -4 -14 0
v -3 -14 0
v -4 -15 0
v -5 -15 0
v -5 -14 0
v -4 -14 0
v -5 -15 0
v -6 -15 0
v -6 -14 0
v -5 -14 0
v -6 -15 0
v -7 -15 0
v -7 -14 0
v -6 -14 0
v -7 -15 0
v -8 -15 0
v -8 -14 0
v -7 -14 0
v -8 -15 0
v -9 -15 0
v -9 -14 0
v -8 -14 0
v -9 -15 0
v -10 -15 0
v -10 -14 0
v -9 -14 0
v -10 -15 0
v -11 -15 0
v -11 -14 0
v -10 -14 0
v -11 -15 0
v -12 -15 0
v -12 -14 0
v -11 -14 0
v -12 -15 0
v -13 -15 0
v -13 -14 0
v -12 -14 0
v -13 -15 0
v -14 -15 0
v -14 -14 0
v -13 -14 0
v -14 -15 0
v -15 -15 0
v -15 -14 0
v -14 -14 0
v -15 -15 0
v -16 -15 0
v -16 -14 0
v -15 -14 0
v 0 -16 0
v -1 -16 0
v -1 -15 0
v 0 -15 0
v -1 -16 0
v -2 -16 0
v -2 -15 0
v -1 -15 0
v -2 -16 0
v -3 -16 0
v -3 -15 0
v -2 -15 0
v -3 -16 0
v -4 -16 0
v -4 -15 0
v -3 -15 0
v -4 -16 0
v -5 -16 0
v -5 -15 0
v -4 -15 0
v -5 -16 0
v -6 -16 0
v -6 -15 0
v -5 -15 0
v -6 -16 0
v -7 -16 0
v -7 -15 0
v -6 -15 0
v -7 -16 0
v -8 -16 0
v -8 -15 0
v -7 -15 0
v -8 -16 0
v -9 -16 0
v -9 -15 0
v -8 -15 0
v -9 -16 0
v -10 -16 0
v -10 -15 0
v -9 -15 0
v -10 -16 0
v -11 -16 0
v -11 -15 0
v -10 -15 0
v -11 -16 0
v -12 -16 0
v -12 -15 0
v -11 -15 0
v -12 -16 0
v -13 -16 0
v -13 -15 0
v -12 -15 0
v -13 -16 0
v -14 -16 0
v -14 -15 0
v -13 -15 0
v -14 -16 0
v -15 -16 0
v -15 -15 0
v -14 -15 0
v -15 -16 0
v -16 -16 0
v -16 -15 0
v -15 -15 0

# Texture cooridinates (Count = 15)
vt 0 0.015625
vt 0.328125 0.015625
vt 0.328125 0.34375
vt 0 0.34375
vt 0.328125 0.671875
vt 0 0.671875
vt 0.65625 0.671875
vt 0.65625 1
vt 0.328125 1
vt 0.65625 0.34375
vt 0.65625 0.015625
vt 0.984375 0.34375
vt 0.984375 0.671875
vt 0 1
vt 0.984375 0.015625

# Normal
vn 0 0 -1

# Mesh description
g escenaNorte_2_mesh_0088

# Faces
f 1/1/1 2/2/1 3/3/1 4/4/1
f 5/4/1 6/3/1 7/5/1 8/6/1
f 9/4/1 10/3/1 11/5/1 12/6/1
f 13/5/1 14/7/1 15/8/1 16/9/1
f 17/1/1 18/2/1 19/3/1 20/4/1
f 21/3/1 22/10/1 23/7/1 24/5/1
f 25/2/1 26/11/1 27/10/1 28/3/1
f 29/10/1 30/12/1 31/13/1 32/7/1
f 33/3/1 34/10/1 35/7/1 36/5/1
f 37/10/1 38/12/1 39/13/1 40/7/1
f 41/10/1 42/12/1 43/13/1 44/7/1
f 45/6/1 46/5/1 47/9/1 48/14/1
f 49/3/1 50/10/1 51/7/1 52/5/1
f 53/4/1 54/3/1 55/5/1 56/6/1
f 57/10/1 58/12/1 59/13/1 60/7/1
f 61/1/1 62/2/1 63/3/1 64/4/1
f 65/2/1 66/11/1 67/10/1 68/3/1
f 69/10/1 70/12/1 71/13/1 72/7/1
f 73/10/1 74/12/1 75/13/1 76/7/1
f 77/11/1 78/15/1 79/12/1 80/10/1
f 81/11/1 82/15/1 83/12/1 84/10/1
f 85/1/1 86/2/1 87/3/1 88/4/1
f 89/1/1 90/2/1 91/3/1 92/4/1
f 93/3/1 94/10/1 95/7/1 96/5/1
f 97/6/1 98/5/1 99/9/1 100/14/1
f 101/6/1 102/5/1 103/9/1 104/14/1
f 105/5/1 106/7/1 107/8/1 108/9/1
f 109/11/1 110/15/1 111/12/1 112/10/1
f 113/6/1 114/5/1 115/9/1 116/14/1
f 117/4/1 118/3/1 119/5/1 120/6/1
f 121/5/1 122/7/1 123/8/1 124/9/1
f 125/2/1 126/11/1 127/10/1 128/3/1

