# Tiled2Unity generated file. Do not modify by hand.
# Wavefront file for 'escenaNorte_2_mesh_0144.obj'

# Vertices (Count = 364)
v -9 -1 0
v -10 -1 0
v -10 0 0
v -9 0 0
v -10 -1 0
v -11 -1 0
v -11 0 0
v -10 0 0
v -11 -1 0
v -12 -1 0
v -12 0 0
v -11 0 0
v -12 -1 0
v -13 -1 0
v -13 0 0
v -12 0 0
v -13 -1 0
v -14 -1 0
v -14 0 0
v -13 0 0
v -14 -1 0
v -15 -1 0
v -15 0 0
v -14 0 0
v -15 -1 0
v -16 -1 0
v -16 0 0
v -15 0 0
v -9 -2 0
v -10 -2 0
v -10 -1 0
v -9 -1 0
v -10 -2 0
v -11 -2 0
v -11 -1 0
v -10 -1 0
v -11 -2 0
v -12 -2 0
v -12 -1 0
v -11 -1 0
v -12 -2 0
v -13 -2 0
v -13 -1 0
v -12 -1 0
v -13 -2 0
v -14 -2 0
v -14 -1 0
v -13 -1 0
v -14 -2 0
v -15 -2 0
v -15 -1 0
v -14 -1 0
v -15 -2 0
v -16 -2 0
v -16 -1 0
v -15 -1 0
v -9 -3 0
v -10 -3 0
v -10 -2 0
v -9 -2 0
v -10 -3 0
v -11 -3 0
v -11 -2 0
v -10 -2 0
v -11 -3 0
v -12 -3 0
v -12 -2 0
v -11 -2 0
v -12 -3 0
v -13 -3 0
v -13 -2 0
v -12 -2 0
v -13 -3 0
v -14 -3 0
v -14 -2 0
v -13 -2 0
v -14 -3 0
v -15 -3 0
v -15 -2 0
v -14 -2 0
v -15 -3 0
v -16 -3 0
v -16 -2 0
v -15 -2 0
v -9 -4 0
v -10 -4 0
v -10 -3 0
v -9 -3 0
v -10 -4 0
v -11 -4 0
v -11 -3 0
v -10 -3 0
v -11 -4 0
v -12 -4 0
v -12 -3 0
v -11 -3 0
v -12 -4 0
v -13 -4 0
v -13 -3 0
v -12 -3 0
v -13 -4 0
v -14 -4 0
v -14 -3 0
v -13 -3 0
v -14 -4 0
v -15 -4 0
v -15 -3 0
v -14 -3 0
v -15 -4 0
v -16 -4 0
v -16 -3 0
v -15 -3 0
v -9 -5 0
v -10 -5 0
v -10 -4 0
v -9 -4 0
v -10 -5 0
v -11 -5 0
v -11 -4 0
v -10 -4 0
v -11 -5 0
v -12 -5 0
v -12 -4 0
v -11 -4 0
v -12 -5 0
v -13 -5 0
v -13 -4 0
v -12 -4 0
v -13 -5 0
v -14 -5 0
v -14 -4 0
v -13 -4 0
v -14 -5 0
v -15 -5 0
v -15 -4 0
v -14 -4 0
v -15 -5 0
v -16 -5 0
v -16 -4 0
v -15 -4 0
v -9 -6 0
v -10 -6 0
v -10 -5 0
v -9 -5 0
v -10 -6 0
v -11 -6 0
v -11 -5 0
v -10 -5 0
v -11 -6 0
v -12 -6 0
v -12 -5 0
v -11 -5 0
v -12 -6 0
v -13 -6 0
v -13 -5 0
v -12 -5 0
v -13 -6 0
v -14 -6 0
v -14 -5 0
v -13 -5 0
v -14 -6 0
v -15 -6 0
v -15 -5 0
v -14 -5 0
v -15 -6 0
v -16 -6 0
v -16 -5 0
v -15 -5 0
v -9 -7 0
v -10 -7 0
v -10 -6 0
v -9 -6 0
v -10 -7 0
v -11 -7 0
v -11 -6 0
v -10 -6 0
v -11 -7 0
v -12 -7 0
v -12 -6 0
v -11 -6 0
v -12 -7 0
v -13 -7 0
v -13 -6 0
v -12 -6 0
v -13 -7 0
v -14 -7 0
v -14 -6 0
v -13 -6 0
v -14 -7 0
v -15 -7 0
v -15 -6 0
v -14 -6 0
v -15 -7 0
v -16 -7 0
v -16 -6 0
v -15 -6 0
v -9 -8 0
v -10 -8 0
v -10 -7 0
v -9 -7 0
v -10 -8 0
v -11 -8 0
v -11 -7 0
v -10 -7 0
v -11 -8 0
v -12 -8 0
v -12 -7 0
v -11 -7 0
v -12 -8 0
v -13 -8 0
v -13 -7 0
v -12 -7 0
v -13 -8 0
v -14 -8 0
v -14 -7 0
v -13 -7 0
v -14 -8 0
v -15 -8 0
v -15 -7 0
v -14 -7 0
v -15 -8 0
v -16 -8 0
v -16 -7 0
v -15 -7 0
v -9 -9 0
v -10 -9 0
v -10 -8 0
v -9 -8 0
v -10 -9 0
v -11 -9 0
v -11 -8 0
v -10 -8 0
v -11 -9 0
v -12 -9 0
v -12 -8 0
v -11 -8 0
v -12 -9 0
v -13 -9 0
v -13 -8 0
v -12 -8 0
v -13 -9 0
v -14 -9 0
v -14 -8 0
v -13 -8 0
v -14 -9 0
v -15 -9 0
v -15 -8 0
v -14 -8 0
v -15 -9 0
v -16 -9 0
v -16 -8 0
v -15 -8 0
v -9 -10 0
v -10 -10 0
v -10 -9 0
v -9 -9 0
v -10 -10 0
v -11 -10 0
v -11 -9 0
v -10 -9 0
v -11 -10 0
v -12 -10 0
v -12 -9 0
v -11 -9 0
v -12 -10 0
v -13 -10 0
v -13 -9 0
v -12 -9 0
v -13 -10 0
v -14 -10 0
v -14 -9 0
v -13 -9 0
v -14 -10 0
v -15 -10 0
v -15 -9 0
v -14 -9 0
v -15 -10 0
v -16 -10 0
v -16 -9 0
v -15 -9 0
v -9 -11 0
v -10 -11 0
v -10 -10 0
v -9 -10 0
v -10 -11 0
v -11 -11 0
v -11 -10 0
v -10 -10 0
v -11 -11 0
v -12 -11 0
v -12 -10 0
v -11 -10 0
v -12 -11 0
v -13 -11 0
v -13 -10 0
v -12 -10 0
v -13 -11 0
v -14 -11 0
v -14 -10 0
v -13 -10 0
v -14 -11 0
v -15 -11 0
v -15 -10 0
v -14 -10 0
v -15 -11 0
v -16 -11 0
v -16 -10 0
v -15 -10 0
v -9 -12 0
v -10 -12 0
v -10 -11 0
v -9 -11 0
v -10 -12 0
v -11 -12 0
v -11 -11 0
v -10 -11 0
v -11 -12 0
v -12 -12 0
v -12 -11 0
v -11 -11 0
v -12 -12 0
v -13 -12 0
v -13 -11 0
v -12 -11 0
v -13 -12 0
v -14 -12 0
v -14 -11 0
v -13 -11 0
v -14 -12 0
v -15 -12 0
v -15 -11 0
v -14 -11 0
v -15 -12 0
v -16 -12 0
v -16 -11 0
v -15 -11 0
v -9 -13 0
v -10 -13 0
v -10 -12 0
v -9 -12 0
v -10 -13 0
v -11 -13 0
v -11 -12 0
v -10 -12 0
v -11 -13 0
v -12 -13 0
v -12 -12 0
v -11 -12 0
v -12 -13 0
v -13 -13 0
v -13 -12 0
v -12 -12 0
v -13 -13 0
v -14 -13 0
v -14 -12 0
v -13 -12 0
v -14 -13 0
v -15 -13 0
v -15 -12 0
v -14 -12 0
v -15 -13 0
v -16 -13 0
v -16 -12 0
v -15 -12 0

# Texture cooridinates (Count = 24)
vt 0.8476563 0.1796875
vt 0.875 0.1796875
vt 0.875 0.2070313
vt 0.8476563 0.2070313
vt 0.9023438 0.1796875
vt 0.9023438 0.2070313
vt 0.875 0.1523438
vt 0.9023438 0.1523438
vt 0.8476563 0.1523438
vt 0.9023438 0.234375
vt 0.875 0.234375
vt 0.8476563 0.234375
vt 0.9296875 0.2070313
vt 0.9296875 0.234375
vt 0.9296875 0.1796875
vt 0.9296875 0.1523438
vt 0.8476563 0.125
vt 0.875 0.125
vt 0.9023438 0.125
vt 0.9296875 0.125
vt 0.8476563 0.09765625
vt 0.875 0.09765625
vt 0.9023438 0.09765625
vt 0.9296875 0.09765625

# Normal
vn 0 0 -1

# Mesh description
g escenaNorte_2_mesh_0144

# Faces
f 1/1/1 2/2/1 3/3/1 4/4/1
f 5/2/1 6/5/1 7/6/1 8/3/1
f 9/7/1 10/8/1 11/5/1 12/2/1
f 13/2/1 14/5/1 15/6/1 16/3/1
f 17/2/1 18/5/1 19/6/1 20/3/1
f 21/2/1 22/5/1 23/6/1 24/3/1
f 25/2/1 26/5/1 27/6/1 28/3/1
f 29/9/1 30/7/1 31/2/1 32/1/1
f 33/7/1 34/8/1 35/5/1 36/2/1
f 37/3/1 38/6/1 39/10/1 40/11/1
f 41/7/1 42/8/1 43/5/1 44/2/1
f 45/7/1 46/8/1 47/5/1 48/2/1
f 49/7/1 50/8/1 51/5/1 52/2/1
f 53/7/1 54/8/1 55/5/1 56/2/1
f 57/4/1 58/3/1 59/11/1 60/12/1
f 61/3/1 62/6/1 63/10/1 64/11/1
f 65/2/1 66/5/1 67/6/1 68/3/1
f 69/3/1 70/6/1 71/10/1 72/11/1
f 73/3/1 74/6/1 75/10/1 76/11/1
f 77/3/1 78/6/1 79/10/1 80/11/1
f 81/3/1 82/6/1 83/10/1 84/11/1
f 85/1/1 86/2/1 87/3/1 88/4/1
f 89/2/1 90/5/1 91/6/1 92/3/1
f 93/7/1 94/8/1 95/5/1 96/2/1
f 97/2/1 98/5/1 99/6/1 100/3/1
f 101/2/1 102/5/1 103/6/1 104/3/1
f 105/2/1 106/5/1 107/6/1 108/3/1
f 109/2/1 110/5/1 111/6/1 112/3/1
f 113/9/1 114/7/1 115/2/1 116/1/1
f 117/7/1 118/8/1 119/5/1 120/2/1
f 121/3/1 122/6/1 123/10/1 124/11/1
f 125/7/1 126/8/1 127/5/1 128/2/1
f 129/7/1 130/8/1 131/5/1 132/2/1
f 133/7/1 134/8/1 135/5/1 136/2/1
f 137/7/1 138/8/1 139/5/1 140/2/1
f 141/4/1 142/3/1 143/11/1 144/12/1
f 145/3/1 146/6/1 147/10/1 148/11/1
f 149/3/1 150/6/1 151/10/1 152/11/1
f 153/3/1 154/6/1 155/10/1 156/11/1
f 157/3/1 158/6/1 159/10/1 160/11/1
f 161/3/1 162/6/1 163/10/1 164/11/1
f 165/3/1 166/6/1 167/10/1 168/11/1
f 169/1/1 170/2/1 171/3/1 172/4/1
f 173/2/1 174/5/1 175/6/1 176/3/1
f 177/2/1 178/5/1 179/6/1 180/3/1
f 181/2/1 182/5/1 183/6/1 184/3/1
f 185/2/1 186/5/1 187/6/1 188/3/1
f 189/2/1 190/5/1 191/6/1 192/3/1
f 193/2/1 194/5/1 195/6/1 196/3/1
f 197/9/1 198/7/1 199/2/1 200/1/1
f 201/7/1 202/8/1 203/5/1 204/2/1
f 205/7/1 206/8/1 207/5/1 208/2/1
f 209/7/1 210/8/1 211/5/1 212/2/1
f 213/7/1 214/8/1 215/5/1 216/2/1
f 217/7/1 218/8/1 219/5/1 220/2/1
f 221/7/1 222/8/1 223/5/1 224/2/1
f 225/4/1 226/3/1 227/11/1 228/12/1
f 229/3/1 230/6/1 231/10/1 232/11/1
f 233/6/1 234/13/1 235/14/1 236/10/1
f 237/3/1 238/6/1 239/10/1 240/11/1
f 241/6/1 242/13/1 243/14/1 244/10/1
f 245/3/1 246/6/1 247/10/1 248/11/1
f 249/6/1 250/13/1 251/14/1 252/10/1
f 253/1/1 254/2/1 255/3/1 256/4/1
f 257/2/1 258/5/1 259/6/1 260/3/1
f 261/5/1 262/15/1 263/13/1 264/6/1
f 265/2/1 266/5/1 267/6/1 268/3/1
f 269/5/1 270/15/1 271/13/1 272/6/1
f 273/2/1 274/5/1 275/6/1 276/3/1
f 277/5/1 278/15/1 279/13/1 280/6/1
f 281/9/1 282/7/1 283/2/1 284/1/1
f 285/7/1 286/8/1 287/5/1 288/2/1
f 289/8/1 290/16/1 291/15/1 292/5/1
f 293/7/1 294/8/1 295/5/1 296/2/1
f 297/8/1 298/16/1 299/15/1 300/5/1
f 301/7/1 302/8/1 303/5/1 304/2/1
f 305/8/1 306/16/1 307/15/1 308/5/1
f 309/17/1 310/18/1 311/7/1 312/9/1
f 313/18/1 314/19/1 315/8/1 316/7/1
f 317/19/1 318/20/1 319/16/1 320/8/1
f 321/18/1 322/19/1 323/8/1 324/7/1
f 325/19/1 326/20/1 327/16/1 328/8/1
f 329/18/1 330/19/1 331/8/1 332/7/1
f 333/19/1 334/20/1 335/16/1 336/8/1
f 337/21/1 338/22/1 339/18/1 340/17/1
f 341/22/1 342/23/1 343/19/1 344/18/1
f 345/23/1 346/24/1 347/20/1 348/19/1
f 349/22/1 350/23/1 351/19/1 352/18/1
f 353/23/1 354/24/1 355/20/1 356/19/1
f 357/22/1 358/23/1 359/19/1 360/18/1
f 361/23/1 362/24/1 363/20/1 364/19/1

