# Tiled2Unity generated file. Do not modify by hand.
# Wavefront file for 'mapa_sur_este_mesh_0006.obj'

# Vertices (Count = 648)
v -30 -4 0
v -31 -4 0
v -31 -3 0
v -30 -3 0
v -31 -4 0
v -32 -4 0
v -32 -3 0
v -31 -3 0
v -32 -4 0
v -33 -4 0
v -33 -3 0
v -32 -3 0
v -33 -4 0
v -34 -4 0
v -34 -3 0
v -33 -3 0
v -39 -4 0
v -40 -4 0
v -40 -3 0
v -39 -3 0
v -40 -4 0
v -41 -4 0
v -41 -3 0
v -40 -3 0
v -41 -4 0
v -42 -4 0
v -42 -3 0
v -41 -3 0
v -42 -4 0
v -43 -4 0
v -43 -3 0
v -42 -3 0
v -30 -5 0
v -31 -5 0
v -31 -4 0
v -30 -4 0
v -31 -5 0
v -32 -5 0
v -32 -4 0
v -31 -4 0
v -32 -5 0
v -33 -5 0
v -33 -4 0
v -32 -4 0
v -33 -5 0
v -34 -5 0
v -34 -4 0
v -33 -4 0
v -39 -5 0
v -40 -5 0
v -40 -4 0
v -39 -4 0
v -40 -5 0
v -41 -5 0
v -41 -4 0
v -40 -4 0
v -41 -5 0
v -42 -5 0
v -42 -4 0
v -41 -4 0
v -42 -5 0
v -43 -5 0
v -43 -4 0
v -42 -4 0
v -23 -7 0
v -24 -7 0
v -24 -6 0
v -23 -6 0
v -24 -7 0
v -25 -7 0
v -25 -6 0
v -24 -6 0
v -5 -8 0
v -6 -8 0
v -6 -7 0
v -5 -7 0
v -6 -8 0
v -7 -8 0
v -7 -7 0
v -6 -7 0
v -23 -8 0
v -24 -8 0
v -24 -7 0
v -23 -7 0
v -24 -8 0
v -25 -8 0
v -25 -7 0
v -24 -7 0
v -57 -8 0
v -58 -8 0
v -58 -7 0
v -57 -7 0
v -58 -8 0
v -59 -8 0
v -59 -7 0
v -58 -7 0
v -59 -8 0
v -60 -8 0
v -60 -7 0
v -59 -7 0
v -60 -8 0
v -61 -8 0
v -61 -7 0
v -60 -7 0
v -5 -9 0
v -6 -9 0
v -6 -8 0
v -5 -8 0
v -6 -9 0
v -7 -9 0
v -7 -8 0
v -6 -8 0
v -23 -9 0
v -24 -9 0
v -24 -8 0
v -23 -8 0
v -24 -9 0
v -25 -9 0
v -25 -8 0
v -24 -8 0
v -57 -9 0
v -58 -9 0
v -58 -8 0
v -57 -8 0
v -58 -9 0
v -59 -9 0
v -59 -8 0
v -58 -8 0
v -59 -9 0
v -60 -9 0
v -60 -8 0
v -59 -8 0
v -60 -9 0
v -61 -9 0
v -61 -8 0
v -60 -8 0
v -5 -10 0
v -6 -10 0
v -6 -9 0
v -5 -9 0
v -6 -10 0
v -7 -10 0
v -7 -9 0
v -6 -9 0
v -23 -10 0
v -24 -10 0
v -24 -9 0
v -23 -9 0
v -24 -10 0
v -25 -10 0
v -25 -9 0
v -24 -9 0
v -5 -11 0
v -6 -11 0
v -6 -10 0
v -5 -10 0
v -6 -11 0
v -7 -11 0
v -7 -10 0
v -6 -10 0
v -39 -13 0
v -40 -13 0
v -40 -12 0
v -39 -12 0
v -40 -13 0
v -41 -13 0
v -41 -12 0
v -40 -12 0
v -41 -13 0
v -42 -13 0
v -42 -12 0
v -41 -12 0
v -42 -13 0
v -43 -13 0
v -43 -12 0
v -42 -12 0
v -48 -13 0
v -49 -13 0
v -49 -12 0
v -48 -12 0
v -49 -13 0
v -50 -13 0
v -50 -12 0
v -49 -12 0
v -50 -13 0
v -51 -13 0
v -51 -12 0
v -50 -12 0
v -51 -13 0
v -52 -13 0
v -52 -12 0
v -51 -12 0
v -39 -14 0
v -40 -14 0
v -40 -13 0
v -39 -13 0
v -40 -14 0
v -41 -14 0
v -41 -13 0
v -40 -13 0
v -41 -14 0
v -42 -14 0
v -42 -13 0
v -41 -13 0
v -42 -14 0
v -43 -14 0
v -43 -13 0
v -42 -13 0
v -48 -14 0
v -49 -14 0
v -49 -13 0
v -48 -13 0
v -49 -14 0
v -50 -14 0
v -50 -13 0
v -49 -13 0
v -50 -14 0
v -51 -14 0
v -51 -13 0
v -50 -13 0
v -51 -14 0
v -52 -14 0
v -52 -13 0
v -51 -13 0
v -57 -14 0
v -58 -14 0
v -58 -13 0
v -57 -13 0
v -58 -14 0
v -59 -14 0
v -59 -13 0
v -58 -13 0
v -59 -14 0
v -60 -14 0
v -60 -13 0
v -59 -13 0
v -60 -14 0
v -61 -14 0
v -61 -13 0
v -60 -13 0
v -57 -15 0
v -58 -15 0
v -58 -14 0
v -57 -14 0
v -58 -15 0
v -59 -15 0
v -59 -14 0
v -58 -14 0
v -59 -15 0
v -60 -15 0
v -60 -14 0
v -59 -14 0
v -60 -15 0
v -61 -15 0
v -61 -14 0
v -60 -14 0
v -15 -18 0
v -16 -18 0
v -16 -17 0
v -15 -17 0
v -16 -18 0
v -17 -18 0
v -17 -17 0
v -16 -17 0
v -17 -18 0
v -18 -18 0
v -18 -17 0
v -17 -17 0
v -18 -18 0
v -19 -18 0
v -19 -17 0
v -18 -17 0
v -30 -18 0
v -31 -18 0
v -31 -17 0
v -30 -17 0
v -31 -18 0
v -32 -18 0
v -32 -17 0
v -31 -17 0
v -15 -19 0
v -16 -19 0
v -16 -18 0
v -15 -18 0
v -16 -19 0
v -17 -19 0
v -17 -18 0
v -16 -18 0
v -17 -19 0
v -18 -19 0
v -18 -18 0
v -17 -18 0
v -18 -19 0
v -19 -19 0
v -19 -18 0
v -18 -18 0
v -30 -19 0
v -31 -19 0
v -31 -18 0
v -30 -18 0
v -31 -19 0
v -32 -19 0
v -32 -18 0
v -31 -18 0
v -30 -20 0
v -31 -20 0
v -31 -19 0
v -30 -19 0
v -31 -20 0
v -32 -20 0
v -32 -19 0
v -31 -19 0
v -15 -21 0
v -16 -21 0
v -16 -20 0
v -15 -20 0
v -16 -21 0
v -17 -21 0
v -17 -20 0
v -16 -20 0
v -17 -21 0
v -18 -21 0
v -18 -20 0
v -17 -20 0
v -18 -21 0
v -19 -21 0
v -19 -20 0
v -18 -20 0
v -30 -21 0
v -31 -21 0
v -31 -20 0
v -30 -20 0
v -31 -21 0
v -32 -21 0
v -32 -20 0
v -31 -20 0
v -15 -22 0
v -16 -22 0
v -16 -21 0
v -15 -21 0
v -16 -22 0
v -17 -22 0
v -17 -21 0
v -16 -21 0
v -17 -22 0
v -18 -22 0
v -18 -21 0
v -17 -21 0
v -18 -22 0
v -19 -22 0
v -19 -21 0
v -18 -21 0
v -30 -23 0
v -31 -23 0
v -31 -22 0
v -30 -22 0
v -31 -23 0
v -32 -23 0
v -32 -22 0
v -31 -22 0
v -32 -23 0
v -33 -23 0
v -33 -22 0
v -32 -22 0
v -33 -23 0
v -34 -23 0
v -34 -22 0
v -33 -22 0
v -44 -23 0
v -45 -23 0
v -45 -22 0
v -44 -22 0
v -45 -23 0
v -46 -23 0
v -46 -22 0
v -45 -22 0
v -46 -23 0
v -47 -23 0
v -47 -22 0
v -46 -22 0
v -47 -23 0
v -48 -23 0
v -48 -22 0
v -47 -22 0
v -50 -23 0
v -51 -23 0
v -51 -22 0
v -50 -22 0
v -51 -23 0
v -52 -23 0
v -52 -22 0
v -51 -22 0
v -52 -23 0
v -53 -23 0
v -53 -22 0
v -52 -22 0
v -53 -23 0
v -54 -23 0
v -54 -22 0
v -53 -22 0
v -60 -23 0
v -61 -23 0
v -61 -22 0
v -60 -22 0
v -61 -23 0
v -62 -23 0
v -62 -22 0
v -61 -22 0
v -30 -24 0
v -31 -24 0
v -31 -23 0
v -30 -23 0
v -31 -24 0
v -32 -24 0
v -32 -23 0
v -31 -23 0
v -32 -24 0
v -33 -24 0
v -33 -23 0
v -32 -23 0
v -33 -24 0
v -34 -24 0
v -34 -23 0
v -33 -23 0
v -44 -24 0
v -45 -24 0
v -45 -23 0
v -44 -23 0
v -45 -24 0
v -46 -24 0
v -46 -23 0
v -45 -23 0
v -46 -24 0
v -47 -24 0
v -47 -23 0
v -46 -23 0
v -47 -24 0
v -48 -24 0
v -48 -23 0
v -47 -23 0
v -50 -24 0
v -51 -24 0
v -51 -23 0
v -50 -23 0
v -51 -24 0
v -52 -24 0
v -52 -23 0
v -51 -23 0
v -52 -24 0
v -53 -24 0
v -53 -23 0
v -52 -23 0
v -53 -24 0
v -54 -24 0
v -54 -23 0
v -53 -23 0
v -60 -24 0
v -61 -24 0
v -61 -23 0
v -60 -23 0
v -61 -24 0
v -62 -24 0
v -62 -23 0
v -61 -23 0
v -60 -25 0
v -61 -25 0
v -61 -24 0
v -60 -24 0
v -61 -25 0
v -62 -25 0
v -62 -24 0
v -61 -24 0
v -60 -26 0
v -61 -26 0
v -61 -25 0
v -60 -25 0
v -61 -26 0
v -62 -26 0
v -62 -25 0
v -61 -25 0
v -3 -27 0
v -4 -27 0
v -4 -26 0
v -3 -26 0
v -4 -27 0
v -5 -27 0
v -5 -26 0
v -4 -26 0
v -3 -28 0
v -4 -28 0
v -4 -27 0
v -3 -27 0
v -4 -28 0
v -5 -28 0
v -5 -27 0
v -4 -27 0
v -3 -29 0
v -4 -29 0
v -4 -28 0
v -3 -28 0
v -4 -29 0
v -5 -29 0
v -5 -28 0
v -4 -28 0
v -52 -29 0
v -53 -29 0
v -53 -28 0
v -52 -28 0
v -53 -29 0
v -54 -29 0
v -54 -28 0
v -53 -28 0
v -54 -29 0
v -55 -29 0
v -55 -28 0
v -54 -28 0
v -55 -29 0
v -56 -29 0
v -56 -28 0
v -55 -28 0
v -3 -30 0
v -4 -30 0
v -4 -29 0
v -3 -29 0
v -4 -30 0
v -5 -30 0
v -5 -29 0
v -4 -29 0
v -52 -30 0
v -53 -30 0
v -53 -29 0
v -52 -29 0
v -53 -30 0
v -54 -30 0
v -54 -29 0
v -53 -29 0
v -54 -30 0
v -55 -30 0
v -55 -29 0
v -54 -29 0
v -55 -30 0
v -56 -30 0
v -56 -29 0
v -55 -29 0
v -5 -34 0
v -6 -34 0
v -6 -33 0
v -5 -33 0
v -6 -34 0
v -7 -34 0
v -7 -33 0
v -6 -33 0
v -7 -34 0
v -8 -34 0
v -8 -33 0
v -7 -33 0
v -8 -34 0
v -9 -34 0
v -9 -33 0
v -8 -33 0
v -56 -34 0
v -57 -34 0
v -57 -33 0
v -56 -33 0
v -57 -34 0
v -58 -34 0
v -58 -33 0
v -57 -33 0
v -5 -35 0
v -6 -35 0
v -6 -34 0
v -5 -34 0
v -6 -35 0
v -7 -35 0
v -7 -34 0
v -6 -34 0
v -7 -35 0
v -8 -35 0
v -8 -34 0
v -7 -34 0
v -8 -35 0
v -9 -35 0
v -9 -34 0
v -8 -34 0
v -56 -35 0
v -57 -35 0
v -57 -34 0
v -56 -34 0
v -57 -35 0
v -58 -35 0
v -58 -34 0
v -57 -34 0
v -56 -36 0
v -57 -36 0
v -57 -35 0
v -56 -35 0
v -57 -36 0
v -58 -36 0
v -58 -35 0
v -57 -35 0
v -56 -37 0
v -57 -37 0
v -57 -36 0
v -56 -36 0
v -57 -37 0
v -58 -37 0
v -58 -36 0
v -57 -36 0
v -13 -41 0
v -14 -41 0
v -14 -40 0
v -13 -40 0
v -14 -41 0
v -15 -41 0
v -15 -40 0
v -14 -40 0
v -15 -41 0
v -16 -41 0
v -16 -40 0
v -15 -40 0
v -16 -41 0
v -17 -41 0
v -17 -40 0
v -16 -40 0
v -17 -41 0
v -18 -41 0
v -18 -40 0
v -17 -40 0
v -13 -42 0
v -14 -42 0
v -14 -41 0
v -13 -41 0
v -14 -42 0
v -15 -42 0
v -15 -41 0
v -14 -41 0
v -15 -42 0
v -16 -42 0
v -16 -41 0
v -15 -41 0
v -16 -42 0
v -17 -42 0
v -17 -41 0
v -16 -41 0
v -17 -42 0
v -18 -42 0
v -18 -41 0
v -17 -41 0

# Texture cooridinates (Count = 40)
vt 0.1757813 0.2743056
vt 0.2578125 0.2743056
vt 0.2578125 0.2925347
vt 0.1757813 0.2925347
vt 0.2617188 0.2743056
vt 0.34375 0.2743056
vt 0.34375 0.2925347
vt 0.2617188 0.2925347
vt 0.3476563 0.2743056
vt 0.4296875 0.2743056
vt 0.4296875 0.2925347
vt 0.3476563 0.2925347
vt 0.4335938 0.2743056
vt 0.515625 0.2743056
vt 0.515625 0.2925347
vt 0.4335938 0.2925347
vt 0.1757813 0.2552083
vt 0.2578125 0.2552083
vt 0.2578125 0.2734375
vt 0.1757813 0.2734375
vt 0.2617188 0.2552083
vt 0.34375 0.2552083
vt 0.34375 0.2734375
vt 0.2617188 0.2734375
vt 0.3476563 0.2552083
vt 0.4296875 0.2552083
vt 0.4296875 0.2734375
vt 0.3476563 0.2734375
vt 0.4335938 0.2552083
vt 0.515625 0.2552083
vt 0.515625 0.2734375
vt 0.4335938 0.2734375
vt 0.08984375 0.2743056
vt 0.171875 0.2743056
vt 0.171875 0.2925347
vt 0.08984375 0.2925347
vt 0.08984375 0.2552083
vt 0.171875 0.2552083
vt 0.171875 0.2734375
vt 0.08984375 0.2734375

# Normal
vn 0 0 -1

# Mesh description
g mapa_sur_este_mesh_0006

# Faces
f 1/1/1 2/2/1 3/3/1 4/4/1
f 5/5/1 6/6/1 7/7/1 8/8/1
f 9/9/1 10/10/1 11/11/1 12/12/1
f 13/13/1 14/14/1 15/15/1 16/16/1
f 17/1/1 18/2/1 19/3/1 20/4/1
f 21/5/1 22/6/1 23/7/1 24/8/1
f 25/9/1 26/10/1 27/11/1 28/12/1
f 29/13/1 30/14/1 31/15/1 32/16/1
f 33/17/1 34/18/1 35/19/1 36/20/1
f 37/21/1 38/22/1 39/23/1 40/24/1
f 41/25/1 42/26/1 43/27/1 44/28/1
f 45/29/1 46/30/1 47/31/1 48/32/1
f 49/17/1 50/18/1 51/19/1 52/20/1
f 53/21/1 54/22/1 55/23/1 56/24/1
f 57/25/1 58/26/1 59/27/1 60/28/1
f 61/29/1 62/30/1 63/31/1 64/32/1
f 65/18/1 66/19/1 67/20/1 68/17/1
f 69/2/1 70/3/1 71/4/1 72/1/1
f 73/16/1 74/13/1 75/14/1 76/15/1
f 77/32/1 78/29/1 79/30/1 80/31/1
f 81/22/1 82/23/1 83/24/1 84/21/1
f 85/6/1 86/7/1 87/8/1 88/5/1
f 89/1/1 90/2/1 91/3/1 92/4/1
f 93/5/1 94/6/1 95/7/1 96/8/1
f 97/9/1 98/10/1 99/11/1 100/12/1
f 101/13/1 102/14/1 103/15/1 104/16/1
f 105/12/1 106/9/1 107/10/1 108/11/1
f 109/28/1 110/25/1 111/26/1 112/27/1
f 113/26/1 114/27/1 115/28/1 116/25/1
f 117/10/1 118/11/1 119/12/1 120/9/1
f 121/17/1 122/18/1 123/19/1 124/20/1
f 125/21/1 126/22/1 127/23/1 128/24/1
f 129/25/1 130/26/1 131/27/1 132/28/1
f 133/29/1 134/30/1 135/31/1 136/32/1
f 137/8/1 138/5/1 139/6/1 140/7/1
f 141/24/1 142/21/1 143/22/1 144/23/1
f 145/30/1 146/31/1 147/32/1 148/29/1
f 149/14/1 150/15/1 151/16/1 152/13/1
f 153/4/1 154/1/1 155/2/1 156/3/1
f 157/20/1 158/17/1 159/18/1 160/19/1
f 161/1/1 162/2/1 163/3/1 164/4/1
f 165/5/1 166/6/1 167/7/1 168/8/1
f 169/9/1 170/10/1 171/11/1 172/12/1
f 173/13/1 174/14/1 175/15/1 176/16/1
f 177/1/1 178/2/1 179/3/1 180/4/1
f 181/5/1 182/6/1 183/7/1 184/8/1
f 185/9/1 186/10/1 187/11/1 188/12/1
f 189/13/1 190/14/1 191/15/1 192/16/1
f 193/17/1 194/18/1 195/19/1 196/20/1
f 197/21/1 198/22/1 199/23/1 200/24/1
f 201/25/1 202/26/1 203/27/1 204/28/1
f 205/29/1 206/30/1 207/31/1 208/32/1
f 209/17/1 210/18/1 211/19/1 212/20/1
f 213/21/1 214/22/1 215/23/1 216/24/1
f 217/25/1 218/26/1 219/27/1 220/28/1
f 221/29/1 222/30/1 223/31/1 224/32/1
f 225/1/1 226/2/1 227/3/1 228/4/1
f 229/5/1 230/6/1 231/7/1 232/8/1
f 233/9/1 234/10/1 235/11/1 236/12/1
f 237/13/1 238/14/1 239/15/1 240/16/1
f 241/17/1 242/18/1 243/19/1 244/20/1
f 245/21/1 246/22/1 247/23/1 248/24/1
f 249/25/1 250/26/1 251/27/1 252/28/1
f 253/29/1 254/30/1 255/31/1 256/32/1
f 257/1/1 258/2/1 259/3/1 260/4/1
f 261/5/1 262/6/1 263/7/1 264/8/1
f 265/9/1 266/10/1 267/11/1 268/12/1
f 269/13/1 270/14/1 271/15/1 272/16/1
f 273/16/1 274/13/1 275/14/1 276/15/1
f 277/32/1 278/29/1 279/30/1 280/31/1
f 281/17/1 282/18/1 283/19/1 284/20/1
f 285/21/1 286/22/1 287/23/1 288/24/1
f 289/25/1 290/26/1 291/27/1 292/28/1
f 293/29/1 294/30/1 295/31/1 296/32/1
f 297/12/1 298/9/1 299/10/1 300/11/1
f 301/28/1 302/25/1 303/26/1 304/27/1
f 305/8/1 306/5/1 307/6/1 308/7/1
f 309/24/1 310/21/1 311/22/1 312/23/1
f 313/1/1 314/2/1 315/3/1 316/4/1
f 317/5/1 318/6/1 319/7/1 320/8/1
f 321/9/1 322/10/1 323/11/1 324/12/1
f 325/13/1 326/14/1 327/15/1 328/16/1
f 329/4/1 330/1/1 331/2/1 332/3/1
f 333/20/1 334/17/1 335/18/1 336/19/1
f 337/17/1 338/18/1 339/19/1 340/20/1
f 341/21/1 342/22/1 343/23/1 344/24/1
f 345/25/1 346/26/1 347/27/1 348/28/1
f 349/29/1 350/30/1 351/31/1 352/32/1
f 353/1/1 354/2/1 355/3/1 356/4/1
f 357/5/1 358/6/1 359/7/1 360/8/1
f 361/9/1 362/10/1 363/11/1 364/12/1
f 365/13/1 366/14/1 367/15/1 368/16/1
f 369/1/1 370/2/1 371/3/1 372/4/1
f 373/5/1 374/6/1 375/7/1 376/8/1
f 377/9/1 378/10/1 379/11/1 380/12/1
f 381/13/1 382/14/1 383/15/1 384/16/1
f 385/1/1 386/2/1 387/3/1 388/4/1
f 389/5/1 390/6/1 391/7/1 392/8/1
f 393/9/1 394/10/1 395/11/1 396/12/1
f 397/13/1 398/14/1 399/15/1 400/16/1
f 401/18/1 402/19/1 403/20/1 404/17/1
f 405/2/1 406/3/1 407/4/1 408/1/1
f 409/17/1 410/18/1 411/19/1 412/20/1
f 413/21/1 414/22/1 415/23/1 416/24/1
f 417/25/1 418/26/1 419/27/1 420/28/1
f 421/29/1 422/30/1 423/31/1 424/32/1
f 425/17/1 426/18/1 427/19/1 428/20/1
f 429/21/1 430/22/1 431/23/1 432/24/1
f 433/25/1 434/26/1 435/27/1 436/28/1
f 437/29/1 438/30/1 439/31/1 440/32/1
f 441/17/1 442/18/1 443/19/1 444/20/1
f 445/21/1 446/22/1 447/23/1 448/24/1
f 449/25/1 450/26/1 451/27/1 452/28/1
f 453/29/1 454/30/1 455/31/1 456/32/1
f 457/22/1 458/23/1 459/24/1 460/21/1
f 461/6/1 462/7/1 463/8/1 464/5/1
f 465/26/1 466/27/1 467/28/1 468/25/1
f 469/10/1 470/11/1 471/12/1 472/9/1
f 473/30/1 474/31/1 475/32/1 476/29/1
f 477/14/1 478/15/1 479/16/1 480/13/1
f 481/16/1 482/13/1 483/14/1 484/15/1
f 485/32/1 486/29/1 487/30/1 488/31/1
f 489/12/1 490/9/1 491/10/1 492/11/1
f 493/28/1 494/25/1 495/26/1 496/27/1
f 497/8/1 498/5/1 499/6/1 500/7/1
f 501/24/1 502/21/1 503/22/1 504/23/1
f 505/1/1 506/2/1 507/3/1 508/4/1
f 509/5/1 510/6/1 511/7/1 512/8/1
f 513/9/1 514/10/1 515/11/1 516/12/1
f 517/13/1 518/14/1 519/15/1 520/16/1
f 521/4/1 522/1/1 523/2/1 524/3/1
f 525/20/1 526/17/1 527/18/1 528/19/1
f 529/17/1 530/18/1 531/19/1 532/20/1
f 533/21/1 534/22/1 535/23/1 536/24/1
f 537/25/1 538/26/1 539/27/1 540/28/1
f 541/29/1 542/30/1 543/31/1 544/32/1
f 545/1/1 546/2/1 547/3/1 548/4/1
f 549/5/1 550/6/1 551/7/1 552/8/1
f 553/9/1 554/10/1 555/11/1 556/12/1
f 557/13/1 558/14/1 559/15/1 560/16/1
f 561/16/1 562/13/1 563/14/1 564/15/1
f 565/32/1 566/29/1 567/30/1 568/31/1
f 569/17/1 570/18/1 571/19/1 572/20/1
f 573/21/1 574/22/1 575/23/1 576/24/1
f 577/25/1 578/26/1 579/27/1 580/28/1
f 581/29/1 582/30/1 583/31/1 584/32/1
f 585/12/1 586/9/1 587/10/1 588/11/1
f 589/28/1 590/25/1 591/26/1 592/27/1
f 593/8/1 594/5/1 595/6/1 596/7/1
f 597/24/1 598/21/1 599/22/1 600/23/1
f 601/4/1 602/1/1 603/2/1 604/3/1
f 605/20/1 606/17/1 607/18/1 608/19/1
f 609/33/1 610/34/1 611/35/1 612/36/1
f 613/1/1 614/2/1 615/3/1 616/4/1
f 617/5/1 618/6/1 619/7/1 620/8/1
f 621/9/1 622/10/1 623/11/1 624/12/1
f 625/13/1 626/14/1 627/15/1 628/16/1
f 629/37/1 630/38/1 631/39/1 632/40/1
f 633/17/1 634/18/1 635/19/1 636/20/1
f 637/21/1 638/22/1 639/23/1 640/24/1
f 641/25/1 642/26/1 643/27/1 644/28/1
f 645/29/1 646/30/1 647/31/1 648/32/1

