# Tiled2Unity generated file. Do not modify by hand.
# Wavefront file for 'escenaNorte_1_mesh_0037.obj'

# Vertices (Count = 272)
v 0 -1 0
v -1 -1 0
v -1 0 0
v 0 0 0
v -1 -1 0
v -2 -1 0
v -2 0 0
v -1 0 0
v -5 -5 0
v -6 -5 0
v -6 -4 0
v -5 -4 0
v -6 -5 0
v -7 -5 0
v -7 -4 0
v -6 -4 0
v -7 -5 0
v -8 -5 0
v -8 -4 0
v -7 -4 0
v -8 -5 0
v -9 -5 0
v -9 -4 0
v -8 -4 0
v -9 -5 0
v -10 -5 0
v -10 -4 0
v -9 -4 0
v -10 -5 0
v -11 -5 0
v -11 -4 0
v -10 -4 0
v -11 -5 0
v -12 -5 0
v -12 -4 0
v -11 -4 0
v -12 -5 0
v -13 -5 0
v -13 -4 0
v -12 -4 0
v -5 -6 0
v -6 -6 0
v -6 -5 0
v -5 -5 0
v -6 -6 0
v -7 -6 0
v -7 -5 0
v -6 -5 0
v -7 -6 0
v -8 -6 0
v -8 -5 0
v -7 -5 0
v -8 -6 0
v -9 -6 0
v -9 -5 0
v -8 -5 0
v -9 -6 0
v -10 -6 0
v -10 -5 0
v -9 -5 0
v -10 -6 0
v -11 -6 0
v -11 -5 0
v -10 -5 0
v -11 -6 0
v -12 -6 0
v -12 -5 0
v -11 -5 0
v -12 -6 0
v -13 -6 0
v -13 -5 0
v -12 -5 0
v -5 -7 0
v -6 -7 0
v -6 -6 0
v -5 -6 0
v -6 -7 0
v -7 -7 0
v -7 -6 0
v -6 -6 0
v -7 -7 0
v -8 -7 0
v -8 -6 0
v -7 -6 0
v -8 -7 0
v -9 -7 0
v -9 -6 0
v -8 -6 0
v -9 -7 0
v -10 -7 0
v -10 -6 0
v -9 -6 0
v -10 -7 0
v -11 -7 0
v -11 -6 0
v -10 -6 0
v -11 -7 0
v -12 -7 0
v -12 -6 0
v -11 -6 0
v -12 -7 0
v -13 -7 0
v -13 -6 0
v -12 -6 0
v -5 -8 0
v -6 -8 0
v -6 -7 0
v -5 -7 0
v -6 -8 0
v -7 -8 0
v -7 -7 0
v -6 -7 0
v -7 -8 0
v -8 -8 0
v -8 -7 0
v -7 -7 0
v -8 -8 0
v -9 -8 0
v -9 -7 0
v -8 -7 0
v -9 -8 0
v -10 -8 0
v -10 -7 0
v -9 -7 0
v -10 -8 0
v -11 -8 0
v -11 -7 0
v -10 -7 0
v -11 -8 0
v -12 -8 0
v -12 -7 0
v -11 -7 0
v -12 -8 0
v -13 -8 0
v -13 -7 0
v -12 -7 0
v -5 -9 0
v -6 -9 0
v -6 -8 0
v -5 -8 0
v -6 -9 0
v -7 -9 0
v -7 -8 0
v -6 -8 0
v -7 -9 0
v -8 -9 0
v -8 -8 0
v -7 -8 0
v -8 -9 0
v -9 -9 0
v -9 -8 0
v -8 -8 0
v -9 -9 0
v -10 -9 0
v -10 -8 0
v -9 -8 0
v -10 -9 0
v -11 -9 0
v -11 -8 0
v -10 -8 0
v -11 -9 0
v -12 -9 0
v -12 -8 0
v -11 -8 0
v -12 -9 0
v -13 -9 0
v -13 -8 0
v -12 -8 0
v -5 -10 0
v -6 -10 0
v -6 -9 0
v -5 -9 0
v -6 -10 0
v -7 -10 0
v -7 -9 0
v -6 -9 0
v -7 -10 0
v -8 -10 0
v -8 -9 0
v -7 -9 0
v -8 -10 0
v -9 -10 0
v -9 -9 0
v -8 -9 0
v -9 -10 0
v -10 -10 0
v -10 -9 0
v -9 -9 0
v -10 -10 0
v -11 -10 0
v -11 -9 0
v -10 -9 0
v -11 -10 0
v -12 -10 0
v -12 -9 0
v -11 -9 0
v -12 -10 0
v -13 -10 0
v -13 -9 0
v -12 -9 0
v -5 -11 0
v -6 -11 0
v -6 -10 0
v -5 -10 0
v -6 -11 0
v -7 -11 0
v -7 -10 0
v -6 -10 0
v -7 -11 0
v -8 -11 0
v -8 -10 0
v -7 -10 0
v -8 -11 0
v -9 -11 0
v -9 -10 0
v -8 -10 0
v -9 -11 0
v -10 -11 0
v -10 -10 0
v -9 -10 0
v -10 -11 0
v -11 -11 0
v -11 -10 0
v -10 -10 0
v -11 -11 0
v -12 -11 0
v -12 -10 0
v -11 -10 0
v -12 -11 0
v -13 -11 0
v -13 -10 0
v -12 -10 0
v -5 -12 0
v -6 -12 0
v -6 -11 0
v -5 -11 0
v -6 -12 0
v -7 -12 0
v -7 -11 0
v -6 -11 0
v -7 -12 0
v -8 -12 0
v -8 -11 0
v -7 -11 0
v -8 -12 0
v -9 -12 0
v -9 -11 0
v -8 -11 0
v -9 -12 0
v -10 -12 0
v -10 -11 0
v -9 -11 0
v -10 -12 0
v -11 -12 0
v -11 -11 0
v -10 -11 0
v -11 -12 0
v -12 -12 0
v -12 -11 0
v -11 -11 0
v -12 -12 0
v -13 -12 0
v -13 -11 0
v -12 -11 0
v 0 -16 0
v -1 -16 0
v -1 -15 0
v 0 -15 0
v -1 -16 0
v -2 -16 0
v -2 -15 0
v -1 -15 0

# Texture cooridinates (Count = 42)
vt 0.9570313 0.09765625
vt 0.984375 0.09765625
vt 0.984375 0.125
vt 0.9570313 0.125
vt 0.7109375 0.9179688
vt 0.7382813 0.9179688
vt 0.7382813 0.9453125
vt 0.7109375 0.9453125
vt 0.765625 0.9179688
vt 0.765625 0.9453125
vt 0.7929688 0.9179688
vt 0.7929688 0.9453125
vt 0.7929688 0.9726563
vt 0.765625 0.9726563
vt 0.8203125 0.9453125
vt 0.8203125 0.9726563
vt 0.8476563 0.9453125
vt 0.8476563 0.9726563
vt 0.8203125 0.9179688
vt 0.8476563 0.9179688
vt 0.7109375 0.890625
vt 0.7382813 0.890625
vt 0.765625 0.890625
vt 0.7929688 0.890625
vt 0.8203125 0.890625
vt 0.8476563 0.890625
vt 0.7109375 0.8632813
vt 0.7382813 0.8632813
vt 0.765625 0.8632813
vt 0.7929688 0.8632813
vt 0.8203125 0.8632813
vt 0.8476563 0.8632813
vt 0.7109375 0.8359375
vt 0.7382813 0.8359375
vt 0.765625 0.8359375
vt 0.7929688 0.8359375
vt 0.8203125 0.8359375
vt 0.8476563 0.8359375
vt 0.9023438 0.09765625
vt 0.9296875 0.09765625
vt 0.9296875 0.125
vt 0.9023438 0.125

# Normal
vn 0 0 -1

# Mesh description
g escenaNorte_1_mesh_0037

# Faces
f 1/1/1 2/2/1 3/3/1 4/4/1
f 5/1/1 6/2/1 7/3/1 8/4/1
f 9/5/1 10/6/1 11/7/1 12/8/1
f 13/6/1 14/9/1 15/10/1 16/7/1
f 17/9/1 18/11/1 19/12/1 20/10/1
f 21/10/1 22/12/1 23/13/1 24/14/1
f 25/10/1 26/12/1 27/13/1 28/14/1
f 29/10/1 30/12/1 31/13/1 32/14/1
f 33/12/1 34/15/1 35/16/1 36/13/1
f 37/15/1 38/17/1 39/18/1 40/16/1
f 41/5/1 42/6/1 43/7/1 44/8/1
f 45/6/1 46/9/1 47/10/1 48/7/1
f 49/9/1 50/11/1 51/12/1 52/10/1
f 53/9/1 54/11/1 55/12/1 56/10/1
f 57/9/1 58/11/1 59/12/1 60/10/1
f 61/10/1 62/12/1 63/13/1 64/14/1
f 65/12/1 66/15/1 67/16/1 68/13/1
f 69/19/1 70/20/1 71/17/1 72/15/1
f 73/21/1 74/22/1 75/6/1 76/5/1
f 77/22/1 78/23/1 79/9/1 80/6/1
f 81/23/1 82/24/1 83/11/1 84/9/1
f 85/9/1 86/11/1 87/12/1 88/10/1
f 89/9/1 90/11/1 91/12/1 92/10/1
f 93/9/1 94/11/1 95/12/1 96/10/1
f 97/11/1 98/19/1 99/15/1 100/12/1
f 101/25/1 102/26/1 103/20/1 104/19/1
f 105/27/1 106/28/1 107/22/1 108/21/1
f 109/28/1 110/29/1 111/23/1 112/22/1
f 113/29/1 114/30/1 115/24/1 116/23/1
f 117/29/1 118/30/1 119/24/1 120/23/1
f 121/29/1 122/30/1 123/24/1 124/23/1
f 125/29/1 126/30/1 127/24/1 128/23/1
f 129/30/1 130/31/1 131/25/1 132/24/1
f 133/31/1 134/32/1 135/26/1 136/25/1
f 137/33/1 138/34/1 139/28/1 140/27/1
f 141/34/1 142/35/1 143/29/1 144/28/1
f 145/35/1 146/36/1 147/30/1 148/29/1
f 149/35/1 150/36/1 151/30/1 152/29/1
f 153/35/1 154/36/1 155/30/1 156/29/1
f 157/35/1 158/36/1 159/30/1 160/29/1
f 161/36/1 162/37/1 163/31/1 164/30/1
f 165/37/1 166/38/1 167/32/1 168/31/1
f 169/39/1 170/40/1 171/41/1 172/42/1
f 173/39/1 174/40/1 175/41/1 176/42/1
f 177/39/1 178/40/1 179/41/1 180/42/1
f 181/39/1 182/40/1 183/41/1 184/42/1
f 185/39/1 186/40/1 187/41/1 188/42/1
f 189/39/1 190/40/1 191/41/1 192/42/1
f 193/40/1 194/1/1 195/4/1 196/41/1
f 197/1/1 198/2/1 199/3/1 200/4/1
f 201/39/1 202/40/1 203/41/1 204/42/1
f 205/39/1 206/40/1 207/41/1 208/42/1
f 209/39/1 210/40/1 211/41/1 212/42/1
f 213/40/1 214/1/1 215/4/1 216/41/1
f 217/1/1 218/2/1 219/3/1 220/4/1
f 221/39/1 222/40/1 223/41/1 224/42/1
f 225/40/1 226/1/1 227/4/1 228/41/1
f 229/1/1 230/2/1 231/3/1 232/4/1
f 233/39/1 234/40/1 235/41/1 236/42/1
f 237/40/1 238/1/1 239/4/1 240/41/1
f 241/1/1 242/2/1 243/3/1 244/4/1
f 245/1/1 246/2/1 247/3/1 248/4/1
f 249/1/1 250/2/1 251/3/1 252/4/1
f 253/1/1 254/2/1 255/3/1 256/4/1
f 257/1/1 258/2/1 259/3/1 260/4/1
f 261/1/1 262/2/1 263/3/1 264/4/1
f 265/12/1 266/15/1 267/16/1 268/13/1
f 269/15/1 270/17/1 271/18/1 272/16/1

