# Tiled2Unity generated file. Do not modify by hand.
# Wavefront file for 'escenaNorte_1_mesh_0264.obj'

# Vertices (Count = 64)
v 0 -11 0
v -1 -11 0
v -1 -10 0
v 0 -10 0
v -1 -11 0
v -2 -11 0
v -2 -10 0
v -1 -10 0
v -2 -11 0
v -3 -11 0
v -3 -10 0
v -2 -10 0
v -3 -11 0
v -4 -11 0
v -4 -10 0
v -3 -10 0
v -4 -11 0
v -5 -11 0
v -5 -10 0
v -4 -10 0
v -5 -11 0
v -6 -11 0
v -6 -10 0
v -5 -10 0
v -6 -11 0
v -7 -11 0
v -7 -10 0
v -6 -10 0
v -7 -11 0
v -8 -11 0
v -8 -10 0
v -7 -10 0
v -8 -11 0
v -9 -11 0
v -9 -10 0
v -8 -10 0
v -9 -11 0
v -10 -11 0
v -10 -10 0
v -9 -10 0
v -10 -11 0
v -11 -11 0
v -11 -10 0
v -10 -10 0
v -11 -11 0
v -12 -11 0
v -12 -10 0
v -11 -10 0
v -12 -11 0
v -13 -11 0
v -13 -10 0
v -12 -10 0
v -13 -11 0
v -14 -11 0
v -14 -10 0
v -13 -10 0
v -14 -11 0
v -15 -11 0
v -15 -10 0
v -14 -10 0
v -15 -11 0
v -16 -11 0
v -16 -10 0
v -15 -10 0

# Texture cooridinates (Count = 14)
vt 0.65625 0.34375
vt 0.984375 0.34375
vt 0.984375 0.671875
vt 0.65625 0.671875
vt 0.984375 1
vt 0.65625 1
vt 0.65625 0.015625
vt 0.984375 0.015625
vt 0.328125 0.671875
vt 0.328125 1
vt 0 0.34375
vt 0.328125 0.34375
vt 0 0.671875
vt 0 1

# Normal
vn 0 0 -1

# Mesh description
g escenaNorte_1_mesh_0264

# Faces
f 1/1/1 2/2/1 3/3/1 4/4/1
f 5/4/1 6/3/1 7/5/1 8/6/1
f 9/7/1 10/8/1 11/2/1 12/1/1
f 13/9/1 14/4/1 15/6/1 16/10/1
f 17/11/1 18/12/1 19/9/1 20/13/1
f 21/11/1 22/12/1 23/9/1 24/13/1
f 25/4/1 26/3/1 27/5/1 28/6/1
f 29/13/1 30/9/1 31/10/1 32/14/1
f 33/11/1 34/12/1 35/9/1 36/13/1
f 37/1/1 38/2/1 39/3/1 40/4/1
f 41/7/1 42/8/1 43/2/1 44/1/1
f 45/4/1 46/3/1 47/5/1 48/6/1
f 49/4/1 50/3/1 51/5/1 52/6/1
f 53/9/1 54/4/1 55/6/1 56/10/1
f 57/13/1 58/9/1 59/10/1 60/14/1
f 61/12/1 62/1/1 63/4/1 64/9/1

