# Tiled2Unity generated file. Do not modify by hand.
# Wavefront file for 'escenaNorte_1_mesh_0116.obj'

# Vertices (Count = 440)
v 0 -6 0
v -1 -6 0
v -1 -5 0
v 0 -5 0
v -1 -6 0
v -2 -6 0
v -2 -5 0
v -1 -5 0
v -2 -6 0
v -3 -6 0
v -3 -5 0
v -2 -5 0
v -6 -6 0
v -7 -6 0
v -7 -5 0
v -6 -5 0
v -7 -6 0
v -8 -6 0
v -8 -5 0
v -7 -5 0
v -8 -6 0
v -9 -6 0
v -9 -5 0
v -8 -5 0
v -9 -6 0
v -10 -6 0
v -10 -5 0
v -9 -5 0
v -10 -6 0
v -11 -6 0
v -11 -5 0
v -10 -5 0
v -11 -6 0
v -12 -6 0
v -12 -5 0
v -11 -5 0
v -12 -6 0
v -13 -6 0
v -13 -5 0
v -12 -5 0
v -13 -6 0
v -14 -6 0
v -14 -5 0
v -13 -5 0
v -14 -6 0
v -15 -6 0
v -15 -5 0
v -14 -5 0
v -15 -6 0
v -16 -6 0
v -16 -5 0
v -15 -5 0
v 0 -7 0
v -1 -7 0
v -1 -6 0
v 0 -6 0
v -1 -7 0
v -2 -7 0
v -2 -6 0
v -1 -6 0
v -2 -7 0
v -3 -7 0
v -3 -6 0
v -2 -6 0
v -6 -7 0
v -7 -7 0
v -7 -6 0
v -6 -6 0
v -7 -7 0
v -8 -7 0
v -8 -6 0
v -7 -6 0
v -8 -7 0
v -9 -7 0
v -9 -6 0
v -8 -6 0
v -9 -7 0
v -10 -7 0
v -10 -6 0
v -9 -6 0
v -10 -7 0
v -11 -7 0
v -11 -6 0
v -10 -6 0
v -11 -7 0
v -12 -7 0
v -12 -6 0
v -11 -6 0
v -12 -7 0
v -13 -7 0
v -13 -6 0
v -12 -6 0
v -13 -7 0
v -14 -7 0
v -14 -6 0
v -13 -6 0
v -14 -7 0
v -15 -7 0
v -15 -6 0
v -14 -6 0
v -15 -7 0
v -16 -7 0
v -16 -6 0
v -15 -6 0
v -6 -8 0
v -7 -8 0
v -7 -7 0
v -6 -7 0
v -7 -8 0
v -8 -8 0
v -8 -7 0
v -7 -7 0
v -8 -8 0
v -9 -8 0
v -9 -7 0
v -8 -7 0
v -9 -8 0
v -10 -8 0
v -10 -7 0
v -9 -7 0
v -10 -8 0
v -11 -8 0
v -11 -7 0
v -10 -7 0
v -11 -8 0
v -12 -8 0
v -12 -7 0
v -11 -7 0
v -12 -8 0
v -13 -8 0
v -13 -7 0
v -12 -7 0
v -13 -8 0
v -14 -8 0
v -14 -7 0
v -13 -7 0
v -14 -8 0
v -15 -8 0
v -15 -7 0
v -14 -7 0
v -15 -8 0
v -16 -8 0
v -16 -7 0
v -15 -7 0
v -6 -9 0
v -7 -9 0
v -7 -8 0
v -6 -8 0
v -7 -9 0
v -8 -9 0
v -8 -8 0
v -7 -8 0
v -8 -9 0
v -9 -9 0
v -9 -8 0
v -8 -8 0
v -9 -9 0
v -10 -9 0
v -10 -8 0
v -9 -8 0
v -10 -9 0
v -11 -9 0
v -11 -8 0
v -10 -8 0
v -11 -9 0
v -12 -9 0
v -12 -8 0
v -11 -8 0
v -12 -9 0
v -13 -9 0
v -13 -8 0
v -12 -8 0
v -13 -9 0
v -14 -9 0
v -14 -8 0
v -13 -8 0
v -14 -9 0
v -15 -9 0
v -15 -8 0
v -14 -8 0
v -15 -9 0
v -16 -9 0
v -16 -8 0
v -15 -8 0
v -6 -10 0
v -7 -10 0
v -7 -9 0
v -6 -9 0
v -7 -10 0
v -8 -10 0
v -8 -9 0
v -7 -9 0
v -8 -10 0
v -9 -10 0
v -9 -9 0
v -8 -9 0
v -9 -10 0
v -10 -10 0
v -10 -9 0
v -9 -9 0
v -10 -10 0
v -11 -10 0
v -11 -9 0
v -10 -9 0
v -11 -10 0
v -12 -10 0
v -12 -9 0
v -11 -9 0
v -12 -10 0
v -13 -10 0
v -13 -9 0
v -12 -9 0
v -13 -10 0
v -14 -10 0
v -14 -9 0
v -13 -9 0
v -14 -10 0
v -15 -10 0
v -15 -9 0
v -14 -9 0
v -15 -10 0
v -16 -10 0
v -16 -9 0
v -15 -9 0
v -6 -11 0
v -7 -11 0
v -7 -10 0
v -6 -10 0
v -7 -11 0
v -8 -11 0
v -8 -10 0
v -7 -10 0
v -8 -11 0
v -9 -11 0
v -9 -10 0
v -8 -10 0
v -9 -11 0
v -10 -11 0
v -10 -10 0
v -9 -10 0
v -10 -11 0
v -11 -11 0
v -11 -10 0
v -10 -10 0
v -11 -11 0
v -12 -11 0
v -12 -10 0
v -11 -10 0
v -12 -11 0
v -13 -11 0
v -13 -10 0
v -12 -10 0
v -13 -11 0
v -14 -11 0
v -14 -10 0
v -13 -10 0
v -14 -11 0
v -15 -11 0
v -15 -10 0
v -14 -10 0
v -15 -11 0
v -16 -11 0
v -16 -10 0
v -15 -10 0
v -6 -12 0
v -7 -12 0
v -7 -11 0
v -6 -11 0
v -7 -12 0
v -8 -12 0
v -8 -11 0
v -7 -11 0
v -8 -12 0
v -9 -12 0
v -9 -11 0
v -8 -11 0
v -9 -12 0
v -10 -12 0
v -10 -11 0
v -9 -11 0
v -10 -12 0
v -11 -12 0
v -11 -11 0
v -10 -11 0
v -11 -12 0
v -12 -12 0
v -12 -11 0
v -11 -11 0
v -12 -12 0
v -13 -12 0
v -13 -11 0
v -12 -11 0
v -13 -12 0
v -14 -12 0
v -14 -11 0
v -13 -11 0
v -14 -12 0
v -15 -12 0
v -15 -11 0
v -14 -11 0
v -15 -12 0
v -16 -12 0
v -16 -11 0
v -15 -11 0
v -6 -13 0
v -7 -13 0
v -7 -12 0
v -6 -12 0
v -7 -13 0
v -8 -13 0
v -8 -12 0
v -7 -12 0
v -8 -13 0
v -9 -13 0
v -9 -12 0
v -8 -12 0
v -9 -13 0
v -10 -13 0
v -10 -12 0
v -9 -12 0
v -10 -13 0
v -11 -13 0
v -11 -12 0
v -10 -12 0
v -11 -13 0
v -12 -13 0
v -12 -12 0
v -11 -12 0
v -12 -13 0
v -13 -13 0
v -13 -12 0
v -12 -12 0
v -13 -13 0
v -14 -13 0
v -14 -12 0
v -13 -12 0
v -14 -13 0
v -15 -13 0
v -15 -12 0
v -14 -12 0
v -15 -13 0
v -16 -13 0
v -16 -12 0
v -15 -12 0
v -6 -14 0
v -7 -14 0
v -7 -13 0
v -6 -13 0
v -7 -14 0
v -8 -14 0
v -8 -13 0
v -7 -13 0
v -8 -14 0
v -9 -14 0
v -9 -13 0
v -8 -13 0
v -9 -14 0
v -10 -14 0
v -10 -13 0
v -9 -13 0
v -10 -14 0
v -11 -14 0
v -11 -13 0
v -10 -13 0
v -11 -14 0
v -12 -14 0
v -12 -13 0
v -11 -13 0
v -12 -14 0
v -13 -14 0
v -13 -13 0
v -12 -13 0
v -13 -14 0
v -14 -14 0
v -14 -13 0
v -13 -13 0
v -14 -14 0
v -15 -14 0
v -15 -13 0
v -14 -13 0
v -15 -14 0
v -16 -14 0
v -16 -13 0
v -15 -13 0
v -8 -15 0
v -9 -15 0
v -9 -14 0
v -8 -14 0
v -9 -15 0
v -10 -15 0
v -10 -14 0
v -9 -14 0
v -10 -15 0
v -11 -15 0
v -11 -14 0
v -10 -14 0
v -11 -15 0
v -12 -15 0
v -12 -14 0
v -11 -14 0
v -12 -15 0
v -13 -15 0
v -13 -14 0
v -12 -14 0
v -13 -15 0
v -14 -15 0
v -14 -14 0
v -13 -14 0
v -14 -15 0
v -15 -15 0
v -15 -14 0
v -14 -14 0
v -15 -15 0
v -16 -15 0
v -16 -14 0
v -15 -14 0
v -10 -16 0
v -11 -16 0
v -11 -15 0
v -10 -15 0
v -11 -16 0
v -12 -16 0
v -12 -15 0
v -11 -15 0
v -12 -16 0
v -13 -16 0
v -13 -15 0
v -12 -15 0
v -13 -16 0
v -14 -16 0
v -14 -15 0
v -13 -15 0
v -14 -16 0
v -15 -16 0
v -15 -15 0
v -14 -15 0
v -15 -16 0
v -16 -16 0
v -16 -15 0
v -15 -15 0

# Texture cooridinates (Count = 33)
vt 0.6015625 0.5898438
vt 0.6289063 0.5898438
vt 0.6289063 0.6171875
vt 0.6015625 0.6171875
vt 0.5742188 0.5898438
vt 0.5742188 0.6171875
vt 0.6015625 0.5625
vt 0.6289063 0.5625
vt 0.5742188 0.5625
vt 0.7109375 0.9726563
vt 0.7382813 0.9726563
vt 0.7382813 1
vt 0.7109375 1
vt 0.765625 0.9726563
vt 0.765625 1
vt 0.7929688 0.9726563
vt 0.7929688 1
vt 0.7109375 0.9179688
vt 0.7382813 0.9179688
vt 0.7382813 0.9453125
vt 0.7109375 0.9453125
vt 0.765625 0.9179688
vt 0.765625 0.9453125
vt 0.7929688 0.9453125
vt 0.7109375 0.890625
vt 0.7382813 0.890625
vt 0.765625 0.890625
vt 0.7929688 0.9179688
vt 0.7929688 0.890625
vt 0.765625 0.8632813
vt 0.7929688 0.8632813
vt 0.765625 0.8359375
vt 0.7929688 0.8359375

# Normal
vn 0 0 -1

# Mesh description
g escenaNorte_1_mesh_0116

# Faces
f 1/1/1 2/2/1 3/3/1 4/4/1
f 5/5/1 6/1/1 7/4/1 8/6/1
f 9/1/1 10/2/1 11/3/1 12/4/1
f 13/5/1 14/1/1 15/4/1 16/6/1
f 17/1/1 18/2/1 19/3/1 20/4/1
f 21/5/1 22/1/1 23/4/1 24/6/1
f 25/1/1 26/2/1 27/3/1 28/4/1
f 29/5/1 30/1/1 31/4/1 32/6/1
f 33/1/1 34/2/1 35/3/1 36/4/1
f 37/5/1 38/1/1 39/4/1 40/6/1
f 41/1/1 42/2/1 43/3/1 44/4/1
f 45/5/1 46/1/1 47/4/1 48/6/1
f 49/1/1 50/2/1 51/3/1 52/4/1
f 53/7/1 54/8/1 55/2/1 56/1/1
f 57/9/1 58/7/1 59/1/1 60/5/1
f 61/7/1 62/8/1 63/2/1 64/1/1
f 65/9/1 66/7/1 67/1/1 68/5/1
f 69/7/1 70/8/1 71/2/1 72/1/1
f 73/9/1 74/7/1 75/1/1 76/5/1
f 77/7/1 78/8/1 79/2/1 80/1/1
f 81/9/1 82/7/1 83/1/1 84/5/1
f 85/7/1 86/8/1 87/2/1 88/1/1
f 89/9/1 90/7/1 91/1/1 92/5/1
f 93/7/1 94/8/1 95/2/1 96/1/1
f 97/9/1 98/7/1 99/1/1 100/5/1
f 101/7/1 102/8/1 103/2/1 104/1/1
f 105/10/1 106/11/1 107/12/1 108/13/1
f 109/11/1 110/14/1 111/15/1 112/12/1
f 113/14/1 114/16/1 115/17/1 116/15/1
f 117/14/1 118/16/1 119/17/1 120/15/1
f 121/14/1 122/16/1 123/17/1 124/15/1
f 125/14/1 126/16/1 127/17/1 128/15/1
f 129/14/1 130/16/1 131/17/1 132/15/1
f 133/14/1 134/16/1 135/17/1 136/15/1
f 137/14/1 138/16/1 139/17/1 140/15/1
f 141/14/1 142/16/1 143/17/1 144/15/1
f 145/18/1 146/19/1 147/20/1 148/21/1
f 149/19/1 150/22/1 151/23/1 152/20/1
f 153/23/1 154/24/1 155/16/1 156/14/1
f 157/23/1 158/24/1 159/16/1 160/14/1
f 161/23/1 162/24/1 163/16/1 164/14/1
f 165/23/1 166/24/1 167/16/1 168/14/1
f 169/23/1 170/24/1 171/16/1 172/14/1
f 173/23/1 174/24/1 175/16/1 176/14/1
f 177/23/1 178/24/1 179/16/1 180/14/1
f 181/23/1 182/24/1 183/16/1 184/14/1
f 185/25/1 186/26/1 187/19/1 188/18/1
f 189/26/1 190/27/1 191/22/1 192/19/1
f 193/23/1 194/24/1 195/16/1 196/14/1
f 197/23/1 198/24/1 199/16/1 200/14/1
f 201/22/1 202/28/1 203/24/1 204/23/1
f 205/22/1 206/28/1 207/24/1 208/23/1
f 209/22/1 210/28/1 211/24/1 212/23/1
f 213/22/1 214/28/1 215/24/1 216/23/1
f 217/22/1 218/28/1 219/24/1 220/23/1
f 221/22/1 222/28/1 223/24/1 224/23/1
f 225/25/1 226/26/1 227/19/1 228/18/1
f 229/26/1 230/27/1 231/22/1 232/19/1
f 233/23/1 234/24/1 235/16/1 236/14/1
f 237/23/1 238/24/1 239/16/1 240/14/1
f 241/23/1 242/24/1 243/16/1 244/14/1
f 245/27/1 246/29/1 247/28/1 248/22/1
f 249/27/1 250/29/1 251/28/1 252/22/1
f 253/27/1 254/29/1 255/28/1 256/22/1
f 257/27/1 258/29/1 259/28/1 260/22/1
f 261/27/1 262/29/1 263/28/1 264/22/1
f 265/25/1 266/26/1 267/19/1 268/18/1
f 269/26/1 270/27/1 271/22/1 272/19/1
f 273/23/1 274/24/1 275/16/1 276/14/1
f 277/23/1 278/24/1 279/16/1 280/14/1
f 281/23/1 282/24/1 283/16/1 284/14/1
f 285/23/1 286/24/1 287/16/1 288/14/1
f 289/23/1 290/24/1 291/16/1 292/14/1
f 293/23/1 294/24/1 295/16/1 296/14/1
f 297/23/1 298/24/1 299/16/1 300/14/1
f 301/27/1 302/29/1 303/28/1 304/22/1
f 305/25/1 306/26/1 307/19/1 308/18/1
f 309/26/1 310/27/1 311/22/1 312/19/1
f 313/22/1 314/28/1 315/24/1 316/23/1
f 317/22/1 318/28/1 319/24/1 320/23/1
f 321/22/1 322/28/1 323/24/1 324/23/1
f 325/22/1 326/28/1 327/24/1 328/23/1
f 329/22/1 330/28/1 331/24/1 332/23/1
f 333/22/1 334/28/1 335/24/1 336/23/1
f 337/22/1 338/28/1 339/24/1 340/23/1
f 341/27/1 342/29/1 343/28/1 344/22/1
f 345/25/1 346/26/1 347/19/1 348/18/1
f 349/26/1 350/27/1 351/22/1 352/19/1
f 353/27/1 354/29/1 355/28/1 356/22/1
f 357/27/1 358/29/1 359/28/1 360/22/1
f 361/27/1 362/29/1 363/28/1 364/22/1
f 365/27/1 366/29/1 367/28/1 368/22/1
f 369/27/1 370/29/1 371/28/1 372/22/1
f 373/27/1 374/29/1 375/28/1 376/22/1
f 377/27/1 378/29/1 379/28/1 380/22/1
f 381/27/1 382/29/1 383/28/1 384/22/1
f 385/30/1 386/31/1 387/29/1 388/27/1
f 389/30/1 390/31/1 391/29/1 392/27/1
f 393/30/1 394/31/1 395/29/1 396/27/1
f 397/30/1 398/31/1 399/29/1 400/27/1
f 401/30/1 402/31/1 403/29/1 404/27/1
f 405/30/1 406/31/1 407/29/1 408/27/1
f 409/30/1 410/31/1 411/29/1 412/27/1
f 413/30/1 414/31/1 415/29/1 416/27/1
f 417/32/1 418/33/1 419/31/1 420/30/1
f 421/32/1 422/33/1 423/31/1 424/30/1
f 425/32/1 426/33/1 427/31/1 428/30/1
f 429/32/1 430/33/1 431/31/1 432/30/1
f 433/32/1 434/33/1 435/31/1 436/30/1
f 437/32/1 438/33/1 439/31/1 440/30/1

