# Tiled2Unity generated file. Do not modify by hand.
# Wavefront file for 'escenaNorte_1_mesh_0045.obj'

# Vertices (Count = 76)
v 0 -1 0
v -1 -1 0
v -1 0 0
v 0 0 0
v -1 -1 0
v -2 -1 0
v -2 0 0
v -1 0 0
v -2 -1 0
v -3 -1 0
v -3 0 0
v -2 0 0
v -3 -1 0
v -4 -1 0
v -4 0 0
v -3 0 0
v -4 -1 0
v -5 -1 0
v -5 0 0
v -4 0 0
v -6 -1 0
v -7 -1 0
v -7 0 0
v -6 0 0
v -7 -1 0
v -8 -1 0
v -8 0 0
v -7 0 0
v -8 -1 0
v -9 -1 0
v -9 0 0
v -8 0 0
v -9 -1 0
v -10 -1 0
v -10 0 0
v -9 0 0
v -11 -1 0
v -12 -1 0
v -12 0 0
v -11 0 0
v -12 -1 0
v -13 -1 0
v -13 0 0
v -12 0 0
v -13 -1 0
v -14 -1 0
v -14 0 0
v -13 0 0
v -14 -1 0
v -15 -1 0
v -15 0 0
v -14 0 0
v -10 -16 0
v -11 -16 0
v -11 -15 0
v -10 -15 0
v -11 -16 0
v -12 -16 0
v -12 -15 0
v -11 -15 0
v -12 -16 0
v -13 -16 0
v -13 -15 0
v -12 -15 0
v -13 -16 0
v -14 -16 0
v -14 -15 0
v -13 -15 0
v -14 -16 0
v -15 -16 0
v -15 -15 0
v -14 -15 0
v -15 -16 0
v -16 -16 0
v -16 -15 0
v -15 -15 0

# Texture cooridinates (Count = 24)
vt 0.7929688 0.2617188
vt 0.8203125 0.2617188
vt 0.8203125 0.2890625
vt 0.7929688 0.2890625
vt 0.8476563 0.2617188
vt 0.8476563 0.2890625
vt 0.875 0.2617188
vt 0.875 0.2890625
vt 0.9296875 0.09765625
vt 0.9570313 0.09765625
vt 0.9570313 0.125
vt 0.9296875 0.125
vt 0.9023438 0.09765625
vt 0.9023438 0.125
vt 0.7109375 0.9179688
vt 0.7382813 0.9179688
vt 0.7382813 0.9453125
vt 0.7109375 0.9453125
vt 0.765625 0.9179688
vt 0.765625 0.9453125
vt 0.7929688 0.9179688
vt 0.7929688 0.9453125
vt 0.7929688 0.9726563
vt 0.765625 0.9726563

# Normal
vn 0 0 -1

# Mesh description
g escenaNorte_1_mesh_0045

# Faces
f 1/1/1 2/2/1 3/3/1 4/4/1
f 5/2/1 6/5/1 7/6/1 8/3/1
f 9/5/1 10/7/1 11/8/1 12/6/1
f 13/9/1 14/10/1 15/11/1 16/12/1
f 17/9/1 18/10/1 19/11/1 20/12/1
f 21/13/1 22/9/1 23/12/1 24/14/1
f 25/9/1 26/10/1 27/11/1 28/12/1
f 29/13/1 30/9/1 31/12/1 32/14/1
f 33/13/1 34/9/1 35/12/1 36/14/1
f 37/13/1 38/9/1 39/12/1 40/14/1
f 41/13/1 42/9/1 43/12/1 44/14/1
f 45/13/1 46/9/1 47/12/1 48/14/1
f 49/13/1 50/9/1 51/12/1 52/14/1
f 53/15/1 54/16/1 55/17/1 56/18/1
f 57/16/1 58/19/1 59/20/1 60/17/1
f 61/19/1 62/21/1 63/22/1 64/20/1
f 65/20/1 66/22/1 67/23/1 68/24/1
f 69/20/1 70/22/1 71/23/1 72/24/1
f 73/15/1 74/16/1 75/17/1 76/18/1

