# Tiled2Unity generated file. Do not modify by hand.
# Wavefront file for 'escenaNorte_1_mesh_0247.obj'

# Vertices (Count = 64)
v 0 -5 0
v -1 -5 0
v -1 -4 0
v 0 -4 0
v -1 -5 0
v -2 -5 0
v -2 -4 0
v -1 -4 0
v -2 -5 0
v -3 -5 0
v -3 -4 0
v -2 -4 0
v -3 -5 0
v -4 -5 0
v -4 -4 0
v -3 -4 0
v -4 -5 0
v -5 -5 0
v -5 -4 0
v -4 -4 0
v -5 -5 0
v -6 -5 0
v -6 -4 0
v -5 -4 0
v -6 -5 0
v -7 -5 0
v -7 -4 0
v -6 -4 0
v -7 -5 0
v -8 -5 0
v -8 -4 0
v -7 -4 0
v -8 -5 0
v -9 -5 0
v -9 -4 0
v -8 -4 0
v -9 -5 0
v -10 -5 0
v -10 -4 0
v -9 -4 0
v -10 -5 0
v -11 -5 0
v -11 -4 0
v -10 -4 0
v -11 -5 0
v -12 -5 0
v -12 -4 0
v -11 -4 0
v -12 -5 0
v -13 -5 0
v -13 -4 0
v -12 -4 0
v -13 -5 0
v -14 -5 0
v -14 -4 0
v -13 -4 0
v -14 -5 0
v -15 -5 0
v -15 -4 0
v -14 -4 0
v -15 -5 0
v -16 -5 0
v -16 -4 0
v -15 -4 0

# Texture cooridinates (Count = 14)
vt 0.65625 0.015625
vt 0.984375 0.015625
vt 0.984375 0.34375
vt 0.65625 0.34375
vt 0 0.671875
vt 0.328125 0.671875
vt 0.328125 1
vt 0 1
vt 0.65625 0.671875
vt 0.984375 0.671875
vt 0.984375 1
vt 0.65625 1
vt 0.328125 0.34375
vt 0 0.34375

# Normal
vn 0 0 -1

# Mesh description
g escenaNorte_1_mesh_0247

# Faces
f 1/1/1 2/2/1 3/3/1 4/4/1
f 5/1/1 6/2/1 7/3/1 8/4/1
f 9/5/1 10/6/1 11/7/1 12/8/1
f 13/5/1 14/6/1 15/7/1 16/8/1
f 17/9/1 18/10/1 19/11/1 20/12/1
f 21/13/1 22/4/1 23/9/1 24/6/1
f 25/9/1 26/10/1 27/11/1 28/12/1
f 29/14/1 30/13/1 31/6/1 32/5/1
f 33/6/1 34/9/1 35/12/1 36/7/1
f 37/13/1 38/4/1 39/9/1 40/6/1
f 41/14/1 42/13/1 43/6/1 44/5/1
f 45/14/1 46/13/1 47/6/1 48/5/1
f 49/9/1 50/10/1 51/11/1 52/12/1
f 53/13/1 54/4/1 55/9/1 56/6/1
f 57/14/1 58/13/1 59/6/1 60/5/1
f 61/4/1 62/3/1 63/10/1 64/9/1

