# Tiled2Unity generated file. Do not modify by hand.
# Wavefront file for 'escenaNorte_1_mesh_0051.obj'

# Vertices (Count = 340)
v 0 -1 0
v -1 -1 0
v -1 0 0
v 0 0 0
v -1 -1 0
v -2 -1 0
v -2 0 0
v -1 0 0
v -2 -1 0
v -3 -1 0
v -3 0 0
v -2 0 0
v -3 -1 0
v -4 -1 0
v -4 0 0
v -3 0 0
v -4 -1 0
v -5 -1 0
v -5 0 0
v -4 0 0
v -5 -1 0
v -6 -1 0
v -6 0 0
v -5 0 0
v -6 -1 0
v -7 -1 0
v -7 0 0
v -6 0 0
v 0 -2 0
v -1 -2 0
v -1 -1 0
v 0 -1 0
v -1 -2 0
v -2 -2 0
v -2 -1 0
v -1 -1 0
v -2 -2 0
v -3 -2 0
v -3 -1 0
v -2 -1 0
v -3 -2 0
v -4 -2 0
v -4 -1 0
v -3 -1 0
v -4 -2 0
v -5 -2 0
v -5 -1 0
v -4 -1 0
v -5 -2 0
v -6 -2 0
v -6 -1 0
v -5 -1 0
v -6 -2 0
v -7 -2 0
v -7 -1 0
v -6 -1 0
v 0 -3 0
v -1 -3 0
v -1 -2 0
v 0 -2 0
v -1 -3 0
v -2 -3 0
v -2 -2 0
v -1 -2 0
v -2 -3 0
v -3 -3 0
v -3 -2 0
v -2 -2 0
v -3 -3 0
v -4 -3 0
v -4 -2 0
v -3 -2 0
v -4 -3 0
v -5 -3 0
v -5 -2 0
v -4 -2 0
v -5 -3 0
v -6 -3 0
v -6 -2 0
v -5 -2 0
v -6 -3 0
v -7 -3 0
v -7 -2 0
v -6 -2 0
v 0 -4 0
v -1 -4 0
v -1 -3 0
v 0 -3 0
v -1 -4 0
v -2 -4 0
v -2 -3 0
v -1 -3 0
v -2 -4 0
v -3 -4 0
v -3 -3 0
v -2 -3 0
v -3 -4 0
v -4 -4 0
v -4 -3 0
v -3 -3 0
v -4 -4 0
v -5 -4 0
v -5 -3 0
v -4 -3 0
v -5 -4 0
v -6 -4 0
v -6 -3 0
v -5 -3 0
v -6 -4 0
v -7 -4 0
v -7 -3 0
v -6 -3 0
v 0 -5 0
v -1 -5 0
v -1 -4 0
v 0 -4 0
v -1 -5 0
v -2 -5 0
v -2 -4 0
v -1 -4 0
v -2 -5 0
v -3 -5 0
v -3 -4 0
v -2 -4 0
v -3 -5 0
v -4 -5 0
v -4 -4 0
v -3 -4 0
v -4 -5 0
v -5 -5 0
v -5 -4 0
v -4 -4 0
v -5 -5 0
v -6 -5 0
v -6 -4 0
v -5 -4 0
v -6 -5 0
v -7 -5 0
v -7 -4 0
v -6 -4 0
v 0 -6 0
v -1 -6 0
v -1 -5 0
v 0 -5 0
v -1 -6 0
v -2 -6 0
v -2 -5 0
v -1 -5 0
v -2 -6 0
v -3 -6 0
v -3 -5 0
v -2 -5 0
v -3 -6 0
v -4 -6 0
v -4 -5 0
v -3 -5 0
v -4 -6 0
v -5 -6 0
v -5 -5 0
v -4 -5 0
v -5 -6 0
v -6 -6 0
v -6 -5 0
v -5 -5 0
v -6 -6 0
v -7 -6 0
v -7 -5 0
v -6 -5 0
v 0 -7 0
v -1 -7 0
v -1 -6 0
v 0 -6 0
v -1 -7 0
v -2 -7 0
v -2 -6 0
v -1 -6 0
v -2 -7 0
v -3 -7 0
v -3 -6 0
v -2 -6 0
v -3 -7 0
v -4 -7 0
v -4 -6 0
v -3 -6 0
v -4 -7 0
v -5 -7 0
v -5 -6 0
v -4 -6 0
v -5 -7 0
v -6 -7 0
v -6 -6 0
v -5 -6 0
v -6 -7 0
v -7 -7 0
v -7 -6 0
v -6 -6 0
v -10 -11 0
v -11 -11 0
v -11 -10 0
v -10 -10 0
v -11 -11 0
v -12 -11 0
v -12 -10 0
v -11 -10 0
v -12 -11 0
v -13 -11 0
v -13 -10 0
v -12 -10 0
v -13 -11 0
v -14 -11 0
v -14 -10 0
v -13 -10 0
v -14 -11 0
v -15 -11 0
v -15 -10 0
v -14 -10 0
v -15 -11 0
v -16 -11 0
v -16 -10 0
v -15 -10 0
v -10 -12 0
v -11 -12 0
v -11 -11 0
v -10 -11 0
v -11 -12 0
v -12 -12 0
v -12 -11 0
v -11 -11 0
v -12 -12 0
v -13 -12 0
v -13 -11 0
v -12 -11 0
v -13 -12 0
v -14 -12 0
v -14 -11 0
v -13 -11 0
v -14 -12 0
v -15 -12 0
v -15 -11 0
v -14 -11 0
v -15 -12 0
v -16 -12 0
v -16 -11 0
v -15 -11 0
v -10 -13 0
v -11 -13 0
v -11 -12 0
v -10 -12 0
v -11 -13 0
v -12 -13 0
v -12 -12 0
v -11 -12 0
v -12 -13 0
v -13 -13 0
v -13 -12 0
v -12 -12 0
v -13 -13 0
v -14 -13 0
v -14 -12 0
v -13 -12 0
v -14 -13 0
v -15 -13 0
v -15 -12 0
v -14 -12 0
v -15 -13 0
v -16 -13 0
v -16 -12 0
v -15 -12 0
v -10 -14 0
v -11 -14 0
v -11 -13 0
v -10 -13 0
v -11 -14 0
v -12 -14 0
v -12 -13 0
v -11 -13 0
v -12 -14 0
v -13 -14 0
v -13 -13 0
v -12 -13 0
v -13 -14 0
v -14 -14 0
v -14 -13 0
v -13 -13 0
v -14 -14 0
v -15 -14 0
v -15 -13 0
v -14 -13 0
v -15 -14 0
v -16 -14 0
v -16 -13 0
v -15 -13 0
v -10 -15 0
v -11 -15 0
v -11 -14 0
v -10 -14 0
v -11 -15 0
v -12 -15 0
v -12 -14 0
v -11 -14 0
v -12 -15 0
v -13 -15 0
v -13 -14 0
v -12 -14 0
v -13 -15 0
v -14 -15 0
v -14 -14 0
v -13 -14 0
v -14 -15 0
v -15 -15 0
v -15 -14 0
v -14 -14 0
v -15 -15 0
v -16 -15 0
v -16 -14 0
v -15 -14 0
v -10 -16 0
v -11 -16 0
v -11 -15 0
v -10 -15 0
v -11 -16 0
v -12 -16 0
v -12 -15 0
v -11 -15 0
v -12 -16 0
v -13 -16 0
v -13 -15 0
v -12 -15 0
v -13 -16 0
v -14 -16 0
v -14 -15 0
v -13 -15 0
v -14 -16 0
v -15 -16 0
v -15 -15 0
v -14 -15 0
v -15 -16 0
v -16 -16 0
v -16 -15 0
v -15 -15 0

# Texture cooridinates (Count = 34)
vt 0.9023438 0.1796875
vt 0.9296875 0.1796875
vt 0.9296875 0.2070313
vt 0.9023438 0.2070313
vt 0.9570313 0.2070313
vt 0.9570313 0.234375
vt 0.9296875 0.234375
vt 0.9023438 0.1523438
vt 0.9296875 0.1523438
vt 0.9570313 0.1796875
vt 0.9570313 0.1523438
vt 0.9296875 0.125
vt 0.9570313 0.125
vt 0.875 0.09765625
vt 0.9023438 0.09765625
vt 0.9023438 0.125
vt 0.875 0.125
vt 0.9296875 0.09765625
vt 0.9570313 0.09765625
vt 0.5742188 0.5078125
vt 0.6015625 0.5078125
vt 0.6015625 0.5351563
vt 0.5742188 0.5351563
vt 0.5742188 0.4804688
vt 0.6015625 0.4804688
vt 0.8476563 0.1796875
vt 0.875 0.1796875
vt 0.875 0.2070313
vt 0.8476563 0.2070313
vt 0.9023438 0.234375
vt 0.8476563 0.1523438
vt 0.875 0.1523438
vt 0.8476563 0.125
vt 0.8476563 0.09765625

# Normal
vn 0 0 -1

# Mesh description
g escenaNorte_1_mesh_0051

# Faces
f 1/1/1 2/2/1 3/3/1 4/4/1
f 5/1/1 6/2/1 7/3/1 8/4/1
f 9/1/1 10/2/1 11/3/1 12/4/1
f 13/1/1 14/2/1 15/3/1 16/4/1
f 17/1/1 18/2/1 19/3/1 20/4/1
f 21/1/1 22/2/1 23/3/1 24/4/1
f 25/3/1 26/5/1 27/6/1 28/7/1
f 29/8/1 30/9/1 31/2/1 32/1/1
f 33/8/1 34/9/1 35/2/1 36/1/1
f 37/8/1 38/9/1 39/2/1 40/1/1
f 41/8/1 42/9/1 43/2/1 44/1/1
f 45/8/1 46/9/1 47/2/1 48/1/1
f 49/8/1 50/9/1 51/2/1 52/1/1
f 53/2/1 54/10/1 55/5/1 56/3/1
f 57/1/1 58/2/1 59/3/1 60/4/1
f 61/8/1 62/9/1 63/2/1 64/1/1
f 65/1/1 66/2/1 67/3/1 68/4/1
f 69/8/1 70/9/1 71/2/1 72/1/1
f 73/1/1 74/2/1 75/3/1 76/4/1
f 77/8/1 78/9/1 79/2/1 80/1/1
f 81/9/1 82/11/1 83/10/1 84/2/1
f 85/8/1 86/9/1 87/2/1 88/1/1
f 89/8/1 90/9/1 91/2/1 92/1/1
f 93/8/1 94/9/1 95/2/1 96/1/1
f 97/8/1 98/9/1 99/2/1 100/1/1
f 101/8/1 102/9/1 103/2/1 104/1/1
f 105/8/1 106/9/1 107/2/1 108/1/1
f 109/12/1 110/13/1 111/11/1 112/9/1
f 113/14/1 114/15/1 115/16/1 116/17/1
f 117/14/1 118/15/1 119/16/1 120/17/1
f 121/14/1 122/15/1 123/16/1 124/17/1
f 125/14/1 126/15/1 127/16/1 128/17/1
f 129/14/1 130/15/1 131/16/1 132/17/1
f 133/15/1 134/18/1 135/12/1 136/16/1
f 137/18/1 138/19/1 139/13/1 140/12/1
f 141/20/1 142/21/1 143/22/1 144/23/1
f 145/20/1 146/21/1 147/22/1 148/23/1
f 149/20/1 150/21/1 151/22/1 152/23/1
f 153/20/1 154/21/1 155/22/1 156/23/1
f 157/20/1 158/21/1 159/22/1 160/23/1
f 161/20/1 162/21/1 163/22/1 164/23/1
f 165/20/1 166/21/1 167/22/1 168/23/1
f 169/24/1 170/25/1 171/21/1 172/20/1
f 173/24/1 174/25/1 175/21/1 176/20/1
f 177/24/1 178/25/1 179/21/1 180/20/1
f 181/24/1 182/25/1 183/21/1 184/20/1
f 185/24/1 186/25/1 187/21/1 188/20/1
f 189/24/1 190/25/1 191/21/1 192/20/1
f 193/24/1 194/25/1 195/21/1 196/20/1
f 197/26/1 198/27/1 199/28/1 200/29/1
f 201/4/1 202/3/1 203/7/1 204/30/1
f 205/4/1 206/3/1 207/7/1 208/30/1
f 209/4/1 210/3/1 211/7/1 212/30/1
f 213/4/1 214/3/1 215/7/1 216/30/1
f 217/4/1 218/3/1 219/7/1 220/30/1
f 221/31/1 222/32/1 223/27/1 224/26/1
f 225/1/1 226/2/1 227/3/1 228/4/1
f 229/1/1 230/2/1 231/3/1 232/4/1
f 233/1/1 234/2/1 235/3/1 236/4/1
f 237/1/1 238/2/1 239/3/1 240/4/1
f 241/1/1 242/2/1 243/3/1 244/4/1
f 245/31/1 246/32/1 247/27/1 248/26/1
f 249/8/1 250/9/1 251/2/1 252/1/1
f 253/8/1 254/9/1 255/2/1 256/1/1
f 257/8/1 258/9/1 259/2/1 260/1/1
f 261/8/1 262/9/1 263/2/1 264/1/1
f 265/8/1 266/9/1 267/2/1 268/1/1
f 269/31/1 270/32/1 271/27/1 272/26/1
f 273/1/1 274/2/1 275/3/1 276/4/1
f 277/8/1 278/9/1 279/2/1 280/1/1
f 281/1/1 282/2/1 283/3/1 284/4/1
f 285/8/1 286/9/1 287/2/1 288/1/1
f 289/1/1 290/2/1 291/3/1 292/4/1
f 293/33/1 294/17/1 295/32/1 296/31/1
f 297/8/1 298/9/1 299/2/1 300/1/1
f 301/8/1 302/9/1 303/2/1 304/1/1
f 305/8/1 306/9/1 307/2/1 308/1/1
f 309/8/1 310/9/1 311/2/1 312/1/1
f 313/8/1 314/9/1 315/2/1 316/1/1
f 317/34/1 318/14/1 319/17/1 320/33/1
f 321/14/1 322/15/1 323/16/1 324/17/1
f 325/14/1 326/15/1 327/16/1 328/17/1
f 329/14/1 330/15/1 331/16/1 332/17/1
f 333/14/1 334/15/1 335/16/1 336/17/1
f 337/14/1 338/15/1 339/16/1 340/17/1

