# Tiled2Unity generated file. Do not modify by hand.
# Wavefront file for 'escenaNorte_1_mesh_0027.obj'

# Vertices (Count = 276)
v -6 -1 0
v -7 -1 0
v -7 0 0
v -6 0 0
v -7 -1 0
v -8 -1 0
v -8 0 0
v -7 0 0
v -8 -1 0
v -9 -1 0
v -9 0 0
v -8 0 0
v -9 -1 0
v -10 -1 0
v -10 0 0
v -9 0 0
v -10 -1 0
v -11 -1 0
v -11 0 0
v -10 0 0
v -11 -1 0
v -12 -1 0
v -12 0 0
v -11 0 0
v -12 -1 0
v -13 -1 0
v -13 0 0
v -12 0 0
v -13 -1 0
v -14 -1 0
v -14 0 0
v -13 0 0
v -6 -2 0
v -7 -2 0
v -7 -1 0
v -6 -1 0
v -7 -2 0
v -8 -2 0
v -8 -1 0
v -7 -1 0
v -8 -2 0
v -9 -2 0
v -9 -1 0
v -8 -1 0
v -9 -2 0
v -10 -2 0
v -10 -1 0
v -9 -1 0
v -10 -2 0
v -11 -2 0
v -11 -1 0
v -10 -1 0
v -11 -2 0
v -12 -2 0
v -12 -1 0
v -11 -1 0
v -12 -2 0
v -13 -2 0
v -13 -1 0
v -12 -1 0
v -13 -2 0
v -14 -2 0
v -14 -1 0
v -13 -1 0
v -6 -3 0
v -7 -3 0
v -7 -2 0
v -6 -2 0
v -7 -3 0
v -8 -3 0
v -8 -2 0
v -7 -2 0
v -8 -3 0
v -9 -3 0
v -9 -2 0
v -8 -2 0
v -9 -3 0
v -10 -3 0
v -10 -2 0
v -9 -2 0
v -10 -3 0
v -11 -3 0
v -11 -2 0
v -10 -2 0
v -11 -3 0
v -12 -3 0
v -12 -2 0
v -11 -2 0
v -12 -3 0
v -13 -3 0
v -13 -2 0
v -12 -2 0
v -13 -3 0
v -14 -3 0
v -14 -2 0
v -13 -2 0
v -6 -4 0
v -7 -4 0
v -7 -3 0
v -6 -3 0
v -7 -4 0
v -8 -4 0
v -8 -3 0
v -7 -3 0
v -8 -4 0
v -9 -4 0
v -9 -3 0
v -8 -3 0
v -9 -4 0
v -10 -4 0
v -10 -3 0
v -9 -3 0
v -10 -4 0
v -11 -4 0
v -11 -3 0
v -10 -3 0
v -11 -4 0
v -12 -4 0
v -12 -3 0
v -11 -3 0
v -12 -4 0
v -13 -4 0
v -13 -3 0
v -12 -3 0
v -13 -4 0
v -14 -4 0
v -14 -3 0
v -13 -3 0
v -6 -5 0
v -7 -5 0
v -7 -4 0
v -6 -4 0
v -7 -5 0
v -8 -5 0
v -8 -4 0
v -7 -4 0
v -8 -5 0
v -9 -5 0
v -9 -4 0
v -8 -4 0
v -9 -5 0
v -10 -5 0
v -10 -4 0
v -9 -4 0
v -10 -5 0
v -11 -5 0
v -11 -4 0
v -10 -4 0
v -11 -5 0
v -12 -5 0
v -12 -4 0
v -11 -4 0
v -12 -5 0
v -13 -5 0
v -13 -4 0
v -12 -4 0
v -13 -5 0
v -14 -5 0
v -14 -4 0
v -13 -4 0
v -6 -6 0
v -7 -6 0
v -7 -5 0
v -6 -5 0
v -7 -6 0
v -8 -6 0
v -8 -5 0
v -7 -5 0
v -8 -6 0
v -9 -6 0
v -9 -5 0
v -8 -5 0
v -9 -6 0
v -10 -6 0
v -10 -5 0
v -9 -5 0
v -10 -6 0
v -11 -6 0
v -11 -5 0
v -10 -5 0
v -11 -6 0
v -12 -6 0
v -12 -5 0
v -11 -5 0
v -12 -6 0
v -13 -6 0
v -13 -5 0
v -12 -5 0
v -13 -6 0
v -14 -6 0
v -14 -5 0
v -13 -5 0
v 0 -10 0
v -1 -10 0
v -1 -9 0
v 0 -9 0
v -1 -10 0
v -2 -10 0
v -2 -9 0
v -1 -9 0
v -2 -10 0
v -3 -10 0
v -3 -9 0
v -2 -9 0
v 0 -11 0
v -1 -11 0
v -1 -10 0
v 0 -10 0
v -1 -11 0
v -2 -11 0
v -2 -10 0
v -1 -10 0
v -2 -11 0
v -3 -11 0
v -3 -10 0
v -2 -10 0
v 0 -12 0
v -1 -12 0
v -1 -11 0
v 0 -11 0
v -1 -12 0
v -2 -12 0
v -2 -11 0
v -1 -11 0
v -2 -12 0
v -3 -12 0
v -3 -11 0
v -2 -11 0
v 0 -13 0
v -1 -13 0
v -1 -12 0
v 0 -12 0
v -1 -13 0
v -2 -13 0
v -2 -12 0
v -1 -12 0
v -2 -13 0
v -3 -13 0
v -3 -12 0
v -2 -12 0
v 0 -14 0
v -1 -14 0
v -1 -13 0
v 0 -13 0
v -1 -14 0
v -2 -14 0
v -2 -13 0
v -1 -13 0
v -2 -14 0
v -3 -14 0
v -3 -13 0
v -2 -13 0
v 0 -15 0
v -1 -15 0
v -1 -14 0
v 0 -14 0
v -1 -15 0
v -2 -15 0
v -2 -14 0
v -1 -14 0
v -2 -15 0
v -3 -15 0
v -3 -14 0
v -2 -14 0
v 0 -16 0
v -1 -16 0
v -1 -15 0
v 0 -15 0
v -1 -16 0
v -2 -16 0
v -2 -15 0
v -1 -15 0
v -2 -16 0
v -3 -16 0
v -3 -15 0
v -2 -15 0

# Texture cooridinates (Count = 32)
vt 0.8476563 0.1523438
vt 0.875 0.1523438
vt 0.875 0.1796875
vt 0.8476563 0.1796875
vt 0.9023438 0.1523438
vt 0.9296875 0.1523438
vt 0.9296875 0.1796875
vt 0.9023438 0.1796875
vt 0.9570313 0.1796875
vt 0.9570313 0.2070313
vt 0.9296875 0.2070313
vt 0.9023438 0.2070313
vt 0.9570313 0.1523438
vt 0.8476563 0.125
vt 0.875 0.125
vt 0.9296875 0.125
vt 0.9570313 0.125
vt 0.8476563 0.09765625
vt 0.875 0.09765625
vt 0.9023438 0.09765625
vt 0.9023438 0.125
vt 0.9296875 0.09765625
vt 0.9570313 0.09765625
vt 0.5742188 0.5078125
vt 0.6015625 0.5078125
vt 0.6015625 0.5351563
vt 0.5742188 0.5351563
vt 0.5742188 0.4804688
vt 0.6015625 0.4804688
vt 0.9296875 0.234375
vt 0.9023438 0.234375
vt 0.9570313 0.234375

# Normal
vn 0 0 -1

# Mesh description
g escenaNorte_1_mesh_0027

# Faces
f 1/1/1 2/2/1 3/3/1 4/4/1
f 5/5/1 6/6/1 7/7/1 8/8/1
f 9/5/1 10/6/1 11/7/1 12/8/1
f 13/5/1 14/6/1 15/7/1 16/8/1
f 17/5/1 18/6/1 19/7/1 20/8/1
f 21/5/1 22/6/1 23/7/1 24/8/1
f 25/5/1 26/6/1 27/7/1 28/8/1
f 29/7/1 30/9/1 31/10/1 32/11/1
f 33/1/1 34/2/1 35/3/1 36/4/1
f 37/8/1 38/7/1 39/11/1 40/12/1
f 41/5/1 42/6/1 43/7/1 44/8/1
f 45/8/1 46/7/1 47/11/1 48/12/1
f 49/5/1 50/6/1 51/7/1 52/8/1
f 53/8/1 54/7/1 55/11/1 56/12/1
f 57/5/1 58/6/1 59/7/1 60/8/1
f 61/6/1 62/13/1 63/9/1 64/7/1
f 65/14/1 66/15/1 67/2/1 68/1/1
f 69/5/1 70/6/1 71/7/1 72/8/1
f 73/5/1 74/6/1 75/7/1 76/8/1
f 77/5/1 78/6/1 79/7/1 80/8/1
f 81/5/1 82/6/1 83/7/1 84/8/1
f 85/5/1 86/6/1 87/7/1 88/8/1
f 89/5/1 90/6/1 91/7/1 92/8/1
f 93/16/1 94/17/1 95/13/1 96/6/1
f 97/18/1 98/19/1 99/15/1 100/14/1
f 101/19/1 102/20/1 103/21/1 104/15/1
f 105/19/1 106/20/1 107/21/1 108/15/1
f 109/19/1 110/20/1 111/21/1 112/15/1
f 113/19/1 114/20/1 115/21/1 116/15/1
f 117/19/1 118/20/1 119/21/1 120/15/1
f 121/20/1 122/22/1 123/16/1 124/21/1
f 125/22/1 126/23/1 127/17/1 128/16/1
f 129/24/1 130/25/1 131/26/1 132/27/1
f 133/24/1 134/25/1 135/26/1 136/27/1
f 137/24/1 138/25/1 139/26/1 140/27/1
f 141/24/1 142/25/1 143/26/1 144/27/1
f 145/24/1 146/25/1 147/26/1 148/27/1
f 149/24/1 150/25/1 151/26/1 152/27/1
f 153/24/1 154/25/1 155/26/1 156/27/1
f 157/24/1 158/25/1 159/26/1 160/27/1
f 161/28/1 162/29/1 163/25/1 164/24/1
f 165/28/1 166/29/1 167/25/1 168/24/1
f 169/28/1 170/29/1 171/25/1 172/24/1
f 173/28/1 174/29/1 175/25/1 176/24/1
f 177/28/1 178/29/1 179/25/1 180/24/1
f 181/28/1 182/29/1 183/25/1 184/24/1
f 185/28/1 186/29/1 187/25/1 188/24/1
f 189/28/1 190/29/1 191/25/1 192/24/1
f 193/12/1 194/11/1 195/30/1 196/31/1
f 197/12/1 198/11/1 199/30/1 200/31/1
f 201/7/1 202/9/1 203/10/1 204/11/1
f 205/8/1 206/7/1 207/11/1 208/12/1
f 209/8/1 210/7/1 211/11/1 212/12/1
f 213/11/1 214/10/1 215/32/1 216/30/1
f 217/5/1 218/6/1 219/7/1 220/8/1
f 221/5/1 222/6/1 223/7/1 224/8/1
f 225/7/1 226/9/1 227/10/1 228/11/1
f 229/8/1 230/7/1 231/11/1 232/12/1
f 233/5/1 234/6/1 235/7/1 236/8/1
f 237/6/1 238/13/1 239/9/1 240/7/1
f 241/5/1 242/6/1 243/7/1 244/8/1
f 245/5/1 246/6/1 247/7/1 248/8/1
f 249/16/1 250/17/1 251/13/1 252/6/1
f 253/19/1 254/20/1 255/21/1 256/15/1
f 257/20/1 258/22/1 259/16/1 260/21/1
f 261/22/1 262/23/1 263/17/1 264/16/1
f 265/24/1 266/25/1 267/26/1 268/27/1
f 269/24/1 270/25/1 271/26/1 272/27/1
f 273/24/1 274/25/1 275/26/1 276/27/1

