# Tiled2Unity generated file. Do not modify by hand.
# Wavefront file for 'escenaNorte_1_mesh_0259.obj'

# Vertices (Count = 192)
v 0 -9 0
v -1 -9 0
v -1 -8 0
v 0 -8 0
v -1 -9 0
v -2 -9 0
v -2 -8 0
v -1 -8 0
v -2 -9 0
v -3 -9 0
v -3 -8 0
v -2 -8 0
v -3 -9 0
v -4 -9 0
v -4 -8 0
v -3 -8 0
v -4 -9 0
v -5 -9 0
v -5 -8 0
v -4 -8 0
v -5 -9 0
v -6 -9 0
v -6 -8 0
v -5 -8 0
v -6 -9 0
v -7 -9 0
v -7 -8 0
v -6 -8 0
v -7 -9 0
v -8 -9 0
v -8 -8 0
v -7 -8 0
v -8 -9 0
v -9 -9 0
v -9 -8 0
v -8 -8 0
v -9 -9 0
v -10 -9 0
v -10 -8 0
v -9 -8 0
v -10 -9 0
v -11 -9 0
v -11 -8 0
v -10 -8 0
v -11 -9 0
v -12 -9 0
v -12 -8 0
v -11 -8 0
v -12 -9 0
v -13 -9 0
v -13 -8 0
v -12 -8 0
v -13 -9 0
v -14 -9 0
v -14 -8 0
v -13 -8 0
v -14 -9 0
v -15 -9 0
v -15 -8 0
v -14 -8 0
v -15 -9 0
v -16 -9 0
v -16 -8 0
v -15 -8 0
v 0 -10 0
v -1 -10 0
v -1 -9 0
v 0 -9 0
v -1 -10 0
v -2 -10 0
v -2 -9 0
v -1 -9 0
v -2 -10 0
v -3 -10 0
v -3 -9 0
v -2 -9 0
v -3 -10 0
v -4 -10 0
v -4 -9 0
v -3 -9 0
v -4 -10 0
v -5 -10 0
v -5 -9 0
v -4 -9 0
v -5 -10 0
v -6 -10 0
v -6 -9 0
v -5 -9 0
v -6 -10 0
v -7 -10 0
v -7 -9 0
v -6 -9 0
v -7 -10 0
v -8 -10 0
v -8 -9 0
v -7 -9 0
v -8 -10 0
v -9 -10 0
v -9 -9 0
v -8 -9 0
v -9 -10 0
v -10 -10 0
v -10 -9 0
v -9 -9 0
v -10 -10 0
v -11 -10 0
v -11 -9 0
v -10 -9 0
v -11 -10 0
v -12 -10 0
v -12 -9 0
v -11 -9 0
v -12 -10 0
v -13 -10 0
v -13 -9 0
v -12 -9 0
v -13 -10 0
v -14 -10 0
v -14 -9 0
v -13 -9 0
v -14 -10 0
v -15 -10 0
v -15 -9 0
v -14 -9 0
v -15 -10 0
v -16 -10 0
v -16 -9 0
v -15 -9 0
v 0 -11 0
v -1 -11 0
v -1 -10 0
v 0 -10 0
v -1 -11 0
v -2 -11 0
v -2 -10 0
v -1 -10 0
v -2 -11 0
v -3 -11 0
v -3 -10 0
v -2 -10 0
v -3 -11 0
v -4 -11 0
v -4 -10 0
v -3 -10 0
v -4 -11 0
v -5 -11 0
v -5 -10 0
v -4 -10 0
v -5 -11 0
v -6 -11 0
v -6 -10 0
v -5 -10 0
v -6 -11 0
v -7 -11 0
v -7 -10 0
v -6 -10 0
v -7 -11 0
v -8 -11 0
v -8 -10 0
v -7 -10 0
v -8 -11 0
v -9 -11 0
v -9 -10 0
v -8 -10 0
v -9 -11 0
v -10 -11 0
v -10 -10 0
v -9 -10 0
v -10 -11 0
v -11 -11 0
v -11 -10 0
v -10 -10 0
v -11 -11 0
v -12 -11 0
v -12 -10 0
v -11 -10 0
v -12 -11 0
v -13 -11 0
v -13 -10 0
v -12 -10 0
v -13 -11 0
v -14 -11 0
v -14 -10 0
v -13 -10 0
v -14 -11 0
v -15 -11 0
v -15 -10 0
v -14 -10 0
v -15 -11 0
v -16 -11 0
v -16 -10 0
v -15 -10 0

# Texture cooridinates (Count = 16)
vt 0.65625 0.671875
vt 0.984375 0.671875
vt 0.984375 1
vt 0.65625 1
vt 0 0.015625
vt 0.328125 0.015625
vt 0.328125 0.34375
vt 0 0.34375
vt 0.328125 0.671875
vt 0.328125 1
vt 0.65625 0.34375
vt 0.984375 0.34375
vt 0 0.671875
vt 0 1
vt 0.65625 0.015625
vt 0.984375 0.015625

# Normal
vn 0 0 -1

# Mesh description
g escenaNorte_1_mesh_0259

# Faces
f 1/1/1 2/2/1 3/3/1 4/4/1
f 5/5/1 6/6/1 7/7/1 8/8/1
f 9/9/1 10/1/1 11/4/1 12/10/1
f 13/11/1 14/12/1 15/2/1 16/1/1
f 17/9/1 18/1/1 19/4/1 20/10/1
f 21/9/1 22/1/1 23/4/1 24/10/1
f 25/7/1 26/11/1 27/1/1 28/9/1
f 29/7/1 30/11/1 31/1/1 32/9/1
f 33/13/1 34/9/1 35/10/1 36/14/1
f 37/1/1 38/2/1 39/3/1 40/4/1
f 41/9/1 42/1/1 43/4/1 44/10/1
f 45/1/1 46/2/1 47/3/1 48/4/1
f 49/7/1 50/11/1 51/1/1 52/9/1
f 53/11/1 54/12/1 55/2/1 56/1/1
f 57/1/1 58/2/1 59/3/1 60/4/1
f 61/15/1 62/16/1 63/12/1 64/11/1
f 65/5/1 66/6/1 67/7/1 68/8/1
f 69/9/1 70/1/1 71/4/1 72/10/1
f 73/15/1 74/16/1 75/12/1 76/11/1
f 77/11/1 78/12/1 79/2/1 80/1/1
f 81/6/1 82/15/1 83/11/1 84/7/1
f 85/1/1 86/2/1 87/3/1 88/4/1
f 89/7/1 90/11/1 91/1/1 92/9/1
f 93/1/1 94/2/1 95/3/1 96/4/1
f 97/7/1 98/11/1 99/1/1 100/9/1
f 101/9/1 102/1/1 103/4/1 104/10/1
f 105/13/1 106/9/1 107/10/1 108/14/1
f 109/7/1 110/11/1 111/1/1 112/9/1
f 113/15/1 114/16/1 115/12/1 116/11/1
f 117/1/1 118/2/1 119/3/1 120/4/1
f 121/15/1 122/16/1 123/12/1 124/11/1
f 125/11/1 126/12/1 127/2/1 128/1/1
f 129/1/1 130/2/1 131/3/1 132/4/1
f 133/7/1 134/11/1 135/1/1 136/9/1
f 137/11/1 138/12/1 139/2/1 140/1/1
f 141/5/1 142/6/1 143/7/1 144/8/1
f 145/8/1 146/7/1 147/9/1 148/13/1
f 149/5/1 150/6/1 151/7/1 152/8/1
f 153/8/1 154/7/1 155/9/1 156/13/1
f 157/8/1 158/7/1 159/9/1 160/13/1
f 161/9/1 162/1/1 163/4/1 164/10/1
f 165/8/1 166/7/1 167/9/1 168/13/1
f 169/1/1 170/2/1 171/3/1 172/4/1
f 173/7/1 174/11/1 175/1/1 176/9/1
f 177/15/1 178/16/1 179/12/1 180/11/1
f 181/11/1 182/12/1 183/2/1 184/1/1
f 185/11/1 186/12/1 187/2/1 188/1/1
f 189/8/1 190/7/1 191/9/1 192/13/1

