# Tiled2Unity generated file. Do not modify by hand.
# Wavefront file for 'escenaNorte_1_mesh_0048.obj'

# Vertices (Count = 28)
v 0 -16 0
v -1 -16 0
v -1 -15 0
v 0 -15 0
v -1 -16 0
v -2 -16 0
v -2 -15 0
v -1 -15 0
v -2 -16 0
v -3 -16 0
v -3 -15 0
v -2 -15 0
v -3 -16 0
v -4 -16 0
v -4 -15 0
v -3 -15 0
v -4 -16 0
v -5 -16 0
v -5 -15 0
v -4 -15 0
v -5 -16 0
v -6 -16 0
v -6 -15 0
v -5 -15 0
v -6 -16 0
v -7 -16 0
v -7 -15 0
v -6 -15 0

# Texture cooridinates (Count = 12)
vt 0.7382813 0.9179688
vt 0.765625 0.9179688
vt 0.765625 0.9453125
vt 0.7382813 0.9453125
vt 0.7929688 0.9179688
vt 0.7929688 0.9453125
vt 0.7929688 0.9726563
vt 0.765625 0.9726563
vt 0.8203125 0.9453125
vt 0.8203125 0.9726563
vt 0.8476563 0.9453125
vt 0.8476563 0.9726563

# Normal
vn 0 0 -1

# Mesh description
g escenaNorte_1_mesh_0048

# Faces
f 1/1/1 2/2/1 3/3/1 4/4/1
f 5/2/1 6/5/1 7/6/1 8/3/1
f 9/3/1 10/6/1 11/7/1 12/8/1
f 13/3/1 14/6/1 15/7/1 16/8/1
f 17/3/1 18/6/1 19/7/1 20/8/1
f 21/6/1 22/9/1 23/10/1 24/7/1
f 25/9/1 26/11/1 27/12/1 28/10/1

