# Tiled2Unity generated file. Do not modify by hand.
# Wavefront file for 'escenaNorte_1_mesh_0148.obj'

# Vertices (Count = 192)
v 0 -5 0
v -1 -5 0
v -1 -4 0
v 0 -4 0
v -1 -5 0
v -2 -5 0
v -2 -4 0
v -1 -4 0
v -2 -5 0
v -3 -5 0
v -3 -4 0
v -2 -4 0
v -4 -5 0
v -5 -5 0
v -5 -4 0
v -4 -4 0
v -5 -5 0
v -6 -5 0
v -6 -4 0
v -5 -4 0
v -6 -5 0
v -7 -5 0
v -7 -4 0
v -6 -4 0
v -7 -5 0
v -8 -5 0
v -8 -4 0
v -7 -4 0
v -8 -5 0
v -9 -5 0
v -9 -4 0
v -8 -4 0
v -9 -5 0
v -10 -5 0
v -10 -4 0
v -9 -4 0
v -10 -5 0
v -11 -5 0
v -11 -4 0
v -10 -4 0
v -11 -5 0
v -12 -5 0
v -12 -4 0
v -11 -4 0
v -12 -5 0
v -13 -5 0
v -13 -4 0
v -12 -4 0
v -13 -5 0
v -14 -5 0
v -14 -4 0
v -13 -4 0
v -15 -5 0
v -16 -5 0
v -16 -4 0
v -15 -4 0
v -3 -6 0
v -4 -6 0
v -4 -5 0
v -3 -5 0
v -14 -6 0
v -15 -6 0
v -15 -5 0
v -14 -5 0
v -3 -7 0
v -4 -7 0
v -4 -6 0
v -3 -6 0
v -14 -7 0
v -15 -7 0
v -15 -6 0
v -14 -6 0
v -3 -8 0
v -4 -8 0
v -4 -7 0
v -3 -7 0
v -14 -8 0
v -15 -8 0
v -15 -7 0
v -14 -7 0
v -3 -9 0
v -4 -9 0
v -4 -8 0
v -3 -8 0
v -14 -9 0
v -15 -9 0
v -15 -8 0
v -14 -8 0
v -3 -10 0
v -4 -10 0
v -4 -9 0
v -3 -9 0
v -14 -10 0
v -15 -10 0
v -15 -9 0
v -14 -9 0
v -3 -11 0
v -4 -11 0
v -4 -10 0
v -3 -10 0
v -14 -11 0
v -15 -11 0
v -15 -10 0
v -14 -10 0
v -3 -12 0
v -4 -12 0
v -4 -11 0
v -3 -11 0
v -14 -12 0
v -15 -12 0
v -15 -11 0
v -14 -11 0
v -3 -13 0
v -4 -13 0
v -4 -12 0
v -3 -12 0
v -14 -13 0
v -15 -13 0
v -15 -12 0
v -14 -12 0
v -3 -14 0
v -4 -14 0
v -4 -13 0
v -3 -13 0
v -14 -14 0
v -15 -14 0
v -15 -13 0
v -14 -13 0
v -3 -15 0
v -4 -15 0
v -4 -14 0
v -3 -14 0
v -14 -15 0
v -15 -15 0
v -15 -14 0
v -14 -14 0
v 0 -16 0
v -1 -16 0
v -1 -15 0
v 0 -15 0
v -1 -16 0
v -2 -16 0
v -2 -15 0
v -1 -15 0
v -2 -16 0
v -3 -16 0
v -3 -15 0
v -2 -15 0
v -4 -16 0
v -5 -16 0
v -5 -15 0
v -4 -15 0
v -5 -16 0
v -6 -16 0
v -6 -15 0
v -5 -15 0
v -6 -16 0
v -7 -16 0
v -7 -15 0
v -6 -15 0
v -7 -16 0
v -8 -16 0
v -8 -15 0
v -7 -15 0
v -8 -16 0
v -9 -16 0
v -9 -15 0
v -8 -15 0
v -9 -16 0
v -10 -16 0
v -10 -15 0
v -9 -15 0
v -10 -16 0
v -11 -16 0
v -11 -15 0
v -10 -15 0
v -11 -16 0
v -12 -16 0
v -12 -15 0
v -11 -15 0
v -12 -16 0
v -13 -16 0
v -13 -15 0
v -12 -15 0
v -13 -16 0
v -14 -16 0
v -14 -15 0
v -13 -15 0
v -15 -16 0
v -16 -16 0
v -16 -15 0
v -15 -15 0

# Texture cooridinates (Count = 4)
vt 0.5839844 0.9739583
vt 0.5839844 0.8645833
vt 0.5429688 0.8645833
vt 0.5429688 0.9739583

# Normal
vn 0 0 -1

# Mesh description
g escenaNorte_1_mesh_0148

# Faces
f 1/1/1 2/2/1 3/3/1 4/4/1
f 5/1/1 6/2/1 7/3/1 8/4/1
f 9/1/1 10/2/1 11/3/1 12/4/1
f 13/1/1 14/2/1 15/3/1 16/4/1
f 17/1/1 18/2/1 19/3/1 20/4/1
f 21/1/1 22/2/1 23/3/1 24/4/1
f 25/1/1 26/2/1 27/3/1 28/4/1
f 29/1/1 30/2/1 31/3/1 32/4/1
f 33/1/1 34/2/1 35/3/1 36/4/1
f 37/1/1 38/2/1 39/3/1 40/4/1
f 41/1/1 42/2/1 43/3/1 44/4/1
f 45/1/1 46/2/1 47/3/1 48/4/1
f 49/1/1 50/2/1 51/3/1 52/4/1
f 53/2/1 54/1/1 55/4/1 56/3/1
f 57/1/1 58/4/1 59/3/1 60/2/1
f 61/1/1 62/4/1 63/3/1 64/2/1
f 65/1/1 66/4/1 67/3/1 68/2/1
f 69/1/1 70/4/1 71/3/1 72/2/1
f 73/1/1 74/4/1 75/3/1 76/2/1
f 77/1/1 78/4/1 79/3/1 80/2/1
f 81/1/1 82/4/1 83/3/1 84/2/1
f 85/1/1 86/4/1 87/3/1 88/2/1
f 89/1/1 90/4/1 91/3/1 92/2/1
f 93/1/1 94/4/1 95/3/1 96/2/1
f 97/1/1 98/4/1 99/3/1 100/2/1
f 101/1/1 102/4/1 103/3/1 104/2/1
f 105/1/1 106/4/1 107/3/1 108/2/1
f 109/1/1 110/4/1 111/3/1 112/2/1
f 113/1/1 114/4/1 115/3/1 116/2/1
f 117/1/1 118/4/1 119/3/1 120/2/1
f 121/1/1 122/4/1 123/3/1 124/2/1
f 125/1/1 126/4/1 127/3/1 128/2/1
f 129/1/1 130/4/1 131/3/1 132/2/1
f 133/1/1 134/4/1 135/3/1 136/2/1
f 137/4/1 138/3/1 139/2/1 140/1/1
f 141/4/1 142/3/1 143/2/1 144/1/1
f 145/4/1 146/3/1 147/2/1 148/1/1
f 149/4/1 150/3/1 151/2/1 152/1/1
f 153/4/1 154/3/1 155/2/1 156/1/1
f 157/4/1 158/3/1 159/2/1 160/1/1
f 161/4/1 162/3/1 163/2/1 164/1/1
f 165/4/1 166/3/1 167/2/1 168/1/1
f 169/4/1 170/3/1 171/2/1 172/1/1
f 173/4/1 174/3/1 175/2/1 176/1/1
f 177/4/1 178/3/1 179/2/1 180/1/1
f 181/4/1 182/3/1 183/2/1 184/1/1
f 185/4/1 186/3/1 187/2/1 188/1/1
f 189/4/1 190/3/1 191/2/1 192/1/1

