# Tiled2Unity generated file. Do not modify by hand.
# Wavefront file for 'escenaNorte_1_mesh_0260.obj'

# Vertices (Count = 192)
v 0 -9 0
v -1 -9 0
v -1 -8 0
v 0 -8 0
v -1 -9 0
v -2 -9 0
v -2 -8 0
v -1 -8 0
v -2 -9 0
v -3 -9 0
v -3 -8 0
v -2 -8 0
v -3 -9 0
v -4 -9 0
v -4 -8 0
v -3 -8 0
v -4 -9 0
v -5 -9 0
v -5 -8 0
v -4 -8 0
v -5 -9 0
v -6 -9 0
v -6 -8 0
v -5 -8 0
v -6 -9 0
v -7 -9 0
v -7 -8 0
v -6 -8 0
v -7 -9 0
v -8 -9 0
v -8 -8 0
v -7 -8 0
v -8 -9 0
v -9 -9 0
v -9 -8 0
v -8 -8 0
v -9 -9 0
v -10 -9 0
v -10 -8 0
v -9 -8 0
v -10 -9 0
v -11 -9 0
v -11 -8 0
v -10 -8 0
v -11 -9 0
v -12 -9 0
v -12 -8 0
v -11 -8 0
v -12 -9 0
v -13 -9 0
v -13 -8 0
v -12 -8 0
v -13 -9 0
v -14 -9 0
v -14 -8 0
v -13 -8 0
v -14 -9 0
v -15 -9 0
v -15 -8 0
v -14 -8 0
v -15 -9 0
v -16 -9 0
v -16 -8 0
v -15 -8 0
v 0 -10 0
v -1 -10 0
v -1 -9 0
v 0 -9 0
v -1 -10 0
v -2 -10 0
v -2 -9 0
v -1 -9 0
v -2 -10 0
v -3 -10 0
v -3 -9 0
v -2 -9 0
v -3 -10 0
v -4 -10 0
v -4 -9 0
v -3 -9 0
v -4 -10 0
v -5 -10 0
v -5 -9 0
v -4 -9 0
v -5 -10 0
v -6 -10 0
v -6 -9 0
v -5 -9 0
v -6 -10 0
v -7 -10 0
v -7 -9 0
v -6 -9 0
v -7 -10 0
v -8 -10 0
v -8 -9 0
v -7 -9 0
v -8 -10 0
v -9 -10 0
v -9 -9 0
v -8 -9 0
v -9 -10 0
v -10 -10 0
v -10 -9 0
v -9 -9 0
v -10 -10 0
v -11 -10 0
v -11 -9 0
v -10 -9 0
v -11 -10 0
v -12 -10 0
v -12 -9 0
v -11 -9 0
v -12 -10 0
v -13 -10 0
v -13 -9 0
v -12 -9 0
v -13 -10 0
v -14 -10 0
v -14 -9 0
v -13 -9 0
v -14 -10 0
v -15 -10 0
v -15 -9 0
v -14 -9 0
v -15 -10 0
v -16 -10 0
v -16 -9 0
v -15 -9 0
v 0 -11 0
v -1 -11 0
v -1 -10 0
v 0 -10 0
v -1 -11 0
v -2 -11 0
v -2 -10 0
v -1 -10 0
v -2 -11 0
v -3 -11 0
v -3 -10 0
v -2 -10 0
v -3 -11 0
v -4 -11 0
v -4 -10 0
v -3 -10 0
v -4 -11 0
v -5 -11 0
v -5 -10 0
v -4 -10 0
v -5 -11 0
v -6 -11 0
v -6 -10 0
v -5 -10 0
v -6 -11 0
v -7 -11 0
v -7 -10 0
v -6 -10 0
v -7 -11 0
v -8 -11 0
v -8 -10 0
v -7 -10 0
v -8 -11 0
v -9 -11 0
v -9 -10 0
v -8 -10 0
v -9 -11 0
v -10 -11 0
v -10 -10 0
v -9 -10 0
v -10 -11 0
v -11 -11 0
v -11 -10 0
v -10 -10 0
v -11 -11 0
v -12 -11 0
v -12 -10 0
v -11 -10 0
v -12 -11 0
v -13 -11 0
v -13 -10 0
v -12 -10 0
v -13 -11 0
v -14 -11 0
v -14 -10 0
v -13 -10 0
v -14 -11 0
v -15 -11 0
v -15 -10 0
v -14 -10 0
v -15 -11 0
v -16 -11 0
v -16 -10 0
v -15 -10 0

# Texture cooridinates (Count = 16)
vt 0 0.671875
vt 0.328125 0.671875
vt 0.328125 1
vt 0 1
vt 0.65625 0.015625
vt 0.984375 0.015625
vt 0.984375 0.34375
vt 0.65625 0.34375
vt 0.328125 0.34375
vt 0.65625 0.671875
vt 0.328125 0.015625
vt 0.65625 1
vt 0.984375 0.671875
vt 0.984375 1
vt 0 0.015625
vt 0 0.34375

# Normal
vn 0 0 -1

# Mesh description
g escenaNorte_1_mesh_0260

# Faces
f 1/1/1 2/2/1 3/3/1 4/4/1
f 5/5/1 6/6/1 7/7/1 8/8/1
f 9/9/1 10/8/1 11/10/1 12/2/1
f 13/1/1 14/2/1 15/3/1 16/4/1
f 17/5/1 18/6/1 19/7/1 20/8/1
f 21/11/1 22/5/1 23/8/1 24/9/1
f 25/2/1 26/10/1 27/12/1 28/3/1
f 29/10/1 30/13/1 31/14/1 32/12/1
f 33/2/1 34/10/1 35/12/1 36/3/1
f 37/15/1 38/11/1 39/9/1 40/16/1
f 41/8/1 42/7/1 43/13/1 44/10/1
f 45/11/1 46/5/1 47/8/1 48/9/1
f 49/1/1 50/2/1 51/3/1 52/4/1
f 53/10/1 54/13/1 55/14/1 56/12/1
f 57/5/1 58/6/1 59/7/1 60/8/1
f 61/8/1 62/7/1 63/13/1 64/10/1
f 65/11/1 66/5/1 67/8/1 68/9/1
f 69/9/1 70/8/1 71/10/1 72/2/1
f 73/16/1 74/9/1 75/2/1 76/1/1
f 77/1/1 78/2/1 79/3/1 80/4/1
f 81/8/1 82/7/1 83/13/1 84/10/1
f 85/15/1 86/11/1 87/9/1 88/16/1
f 89/11/1 90/5/1 91/8/1 92/9/1
f 93/5/1 94/6/1 95/7/1 96/8/1
f 97/2/1 98/10/1 99/12/1 100/3/1
f 101/9/1 102/8/1 103/10/1 104/2/1
f 105/16/1 106/9/1 107/2/1 108/1/1
f 109/11/1 110/5/1 111/8/1 112/9/1
f 113/11/1 114/5/1 115/8/1 116/9/1
f 117/9/1 118/8/1 119/10/1 120/2/1
f 121/15/1 122/11/1 123/9/1 124/16/1
f 125/16/1 126/9/1 127/2/1 128/1/1
f 129/1/1 130/2/1 131/3/1 132/4/1
f 133/2/1 134/10/1 135/12/1 136/3/1
f 137/10/1 138/13/1 139/14/1 140/12/1
f 141/15/1 142/11/1 143/9/1 144/16/1
f 145/16/1 146/9/1 147/2/1 148/1/1
f 149/9/1 150/8/1 151/10/1 152/2/1
f 153/1/1 154/2/1 155/3/1 156/4/1
f 157/5/1 158/6/1 159/7/1 160/8/1
f 161/16/1 162/9/1 163/2/1 164/1/1
f 165/10/1 166/13/1 167/14/1 168/12/1
f 169/1/1 170/2/1 171/3/1 172/4/1
f 173/16/1 174/9/1 175/2/1 176/1/1
f 177/15/1 178/11/1 179/9/1 180/16/1
f 181/2/1 182/10/1 183/12/1 184/3/1
f 185/9/1 186/8/1 187/10/1 188/2/1
f 189/2/1 190/10/1 191/12/1 192/3/1

