# Tiled2Unity generated file. Do not modify by hand.
# Wavefront file for 'escenaNorte_1_mesh_0076.obj'

# Vertices (Count = 84)
v -6 -9 0
v -7 -9 0
v -7 -8 0
v -6 -8 0
v -7 -9 0
v -8 -9 0
v -8 -8 0
v -7 -8 0
v -8 -9 0
v -9 -9 0
v -9 -8 0
v -8 -8 0
v -4 -10 0
v -5 -10 0
v -5 -9 0
v -4 -9 0
v -5 -10 0
v -6 -10 0
v -6 -9 0
v -5 -9 0
v -6 -10 0
v -7 -10 0
v -7 -9 0
v -6 -9 0
v -7 -10 0
v -8 -10 0
v -8 -9 0
v -7 -9 0
v -8 -10 0
v -9 -10 0
v -9 -9 0
v -8 -9 0
v -9 -10 0
v -10 -10 0
v -10 -9 0
v -9 -9 0
v -10 -10 0
v -11 -10 0
v -11 -9 0
v -10 -9 0
v -11 -10 0
v -12 -10 0
v -12 -9 0
v -11 -9 0
v -15 -10 0
v -16 -10 0
v -16 -9 0
v -15 -9 0
v -4 -11 0
v -5 -11 0
v -5 -10 0
v -4 -10 0
v -5 -11 0
v -6 -11 0
v -6 -10 0
v -5 -10 0
v -6 -11 0
v -7 -11 0
v -7 -10 0
v -6 -10 0
v -7 -11 0
v -8 -11 0
v -8 -10 0
v -7 -10 0
v -8 -11 0
v -9 -11 0
v -9 -10 0
v -8 -10 0
v -9 -11 0
v -10 -11 0
v -10 -10 0
v -9 -10 0
v -10 -11 0
v -11 -11 0
v -11 -10 0
v -10 -10 0
v -11 -11 0
v -12 -11 0
v -12 -10 0
v -11 -10 0
v -15 -11 0
v -16 -11 0
v -16 -10 0
v -15 -10 0

# Texture cooridinates (Count = 21)
vt 0.6835938 0.2890625
vt 0.7109375 0.2890625
vt 0.7109375 0.3164063
vt 0.6835938 0.3164063
vt 0.7382813 0.2890625
vt 0.7382813 0.3164063
vt 0.5742188 0.5898438
vt 0.6015625 0.5898438
vt 0.6015625 0.6171875
vt 0.5742188 0.6171875
vt 0.6289063 0.5898438
vt 0.6289063 0.6171875
vt 0.6835938 0.2617188
vt 0.7109375 0.2617188
vt 0.7382813 0.2617188
vt 0.5742188 0.5625
vt 0.6015625 0.5625
vt 0.6289063 0.5625
vt 0.6835938 0.234375
vt 0.7109375 0.234375
vt 0.7382813 0.234375

# Normal
vn 0 0 -1

# Mesh description
g escenaNorte_1_mesh_0076

# Faces
f 1/1/1 2/2/1 3/3/1 4/4/1
f 5/5/1 6/2/1 7/3/1 8/6/1
f 9/2/1 10/1/1 11/4/1 12/3/1
f 13/7/1 14/8/1 15/9/1 16/10/1
f 17/8/1 18/11/1 19/12/1 20/9/1
f 21/13/1 22/14/1 23/2/1 24/1/1
f 25/15/1 26/14/1 27/2/1 28/5/1
f 29/14/1 30/13/1 31/1/1 32/2/1
f 33/8/1 34/11/1 35/12/1 36/9/1
f 37/7/1 38/8/1 39/9/1 40/10/1
f 41/8/1 42/11/1 43/12/1 44/9/1
f 45/7/1 46/8/1 47/9/1 48/10/1
f 49/16/1 50/17/1 51/8/1 52/7/1
f 53/17/1 54/18/1 55/11/1 56/8/1
f 57/19/1 58/20/1 59/14/1 60/13/1
f 61/21/1 62/20/1 63/14/1 64/15/1
f 65/20/1 66/19/1 67/13/1 68/14/1
f 69/17/1 70/18/1 71/11/1 72/8/1
f 73/16/1 74/17/1 75/8/1 76/7/1
f 77/17/1 78/18/1 79/11/1 80/8/1
f 81/16/1 82/17/1 83/8/1 84/7/1

