# Tiled2Unity generated file. Do not modify by hand.
# Wavefront file for 'escenaNorte_1_mesh_0241.obj'

# Vertices (Count = 48)
v -5 -1 0
v -6 -1 0
v -6 0 0
v -5 0 0
v -5 -2 0
v -6 -2 0
v -6 -1 0
v -5 -1 0
v -5 -3 0
v -6 -3 0
v -6 -2 0
v -5 -2 0
v -5 -4 0
v -6 -4 0
v -6 -3 0
v -5 -3 0
v -5 -5 0
v -6 -5 0
v -6 -4 0
v -5 -4 0
v -5 -6 0
v -6 -6 0
v -6 -5 0
v -5 -5 0
v 0 -7 0
v -1 -7 0
v -1 -6 0
v 0 -6 0
v -1 -7 0
v -2 -7 0
v -2 -6 0
v -1 -6 0
v -2 -7 0
v -3 -7 0
v -3 -6 0
v -2 -6 0
v -3 -7 0
v -4 -7 0
v -4 -6 0
v -3 -6 0
v -4 -7 0
v -5 -7 0
v -5 -6 0
v -4 -6 0
v -5 -7 0
v -6 -7 0
v -6 -6 0
v -5 -6 0

# Texture cooridinates (Count = 4)
vt 0.5039063 0.5714285
vt 0.5039063 0.5245535
vt 0.5859375 0.5245535
vt 0.5859375 0.5714285

# Normal
vn 0 0 -1

# Mesh description
g escenaNorte_1_mesh_0241

# Faces
f 1/1/1 2/2/1 3/3/1 4/4/1
f 5/1/1 6/2/1 7/3/1 8/4/1
f 9/1/1 10/2/1 11/3/1 12/4/1
f 13/1/1 14/2/1 15/3/1 16/4/1
f 17/1/1 18/2/1 19/3/1 20/4/1
f 21/1/1 22/2/1 23/3/1 24/4/1
f 25/2/1 26/3/1 27/4/1 28/1/1
f 29/2/1 30/3/1 31/4/1 32/1/1
f 33/2/1 34/3/1 35/4/1 36/1/1
f 37/2/1 38/3/1 39/4/1 40/1/1
f 41/2/1 42/3/1 43/4/1 44/1/1
f 45/2/1 46/3/1 47/4/1 48/1/1

