# Tiled2Unity generated file. Do not modify by hand.
# Wavefront file for 'escenaNorte_1_mesh_0220.obj'

# Vertices (Count = 80)
v 0 -2 0
v -1 -2 0
v -1 -1 0
v 0 -1 0
v -1 -2 0
v -2 -2 0
v -2 -1 0
v -1 -1 0
v -2 -2 0
v -3 -2 0
v -3 -1 0
v -2 -1 0
v -3 -2 0
v -4 -2 0
v -4 -1 0
v -3 -1 0
v -4 -2 0
v -5 -2 0
v -5 -1 0
v -4 -1 0
v -5 -2 0
v -6 -2 0
v -6 -1 0
v -5 -1 0
v -5 -3 0
v -6 -3 0
v -6 -2 0
v -5 -2 0
v -5 -4 0
v -6 -4 0
v -6 -3 0
v -5 -3 0
v -5 -5 0
v -6 -5 0
v -6 -4 0
v -5 -4 0
v -5 -6 0
v -6 -6 0
v -6 -5 0
v -5 -5 0
v -5 -7 0
v -6 -7 0
v -6 -6 0
v -5 -6 0
v -5 -8 0
v -6 -8 0
v -6 -7 0
v -5 -7 0
v -5 -9 0
v -6 -9 0
v -6 -8 0
v -5 -8 0
v -5 -10 0
v -6 -10 0
v -6 -9 0
v -5 -9 0
v -5 -11 0
v -6 -11 0
v -6 -10 0
v -5 -10 0
v -5 -12 0
v -6 -12 0
v -6 -11 0
v -5 -11 0
v -5 -13 0
v -6 -13 0
v -6 -12 0
v -5 -12 0
v -5 -14 0
v -6 -14 0
v -6 -13 0
v -5 -13 0
v -5 -15 0
v -6 -15 0
v -6 -14 0
v -5 -14 0
v -5 -16 0
v -6 -16 0
v -6 -15 0
v -5 -15 0

# Texture cooridinates (Count = 4)
vt 0.5039063 0.5245535
vt 0.5859375 0.5245535
vt 0.5859375 0.5714285
vt 0.5039063 0.5714285

# Normal
vn 0 0 -1

# Mesh description
g escenaNorte_1_mesh_0220

# Faces
f 1/1/1 2/2/1 3/3/1 4/4/1
f 5/1/1 6/2/1 7/3/1 8/4/1
f 9/1/1 10/2/1 11/3/1 12/4/1
f 13/1/1 14/2/1 15/3/1 16/4/1
f 17/1/1 18/2/1 19/3/1 20/4/1
f 21/1/1 22/2/1 23/3/1 24/4/1
f 25/4/1 26/1/1 27/2/1 28/3/1
f 29/4/1 30/1/1 31/2/1 32/3/1
f 33/4/1 34/1/1 35/2/1 36/3/1
f 37/4/1 38/1/1 39/2/1 40/3/1
f 41/4/1 42/1/1 43/2/1 44/3/1
f 45/4/1 46/1/1 47/2/1 48/3/1
f 49/4/1 50/1/1 51/2/1 52/3/1
f 53/4/1 54/1/1 55/2/1 56/3/1
f 57/4/1 58/1/1 59/2/1 60/3/1
f 61/4/1 62/1/1 63/2/1 64/3/1
f 65/4/1 66/1/1 67/2/1 68/3/1
f 69/4/1 70/1/1 71/2/1 72/3/1
f 73/4/1 74/1/1 75/2/1 76/3/1
f 77/4/1 78/1/1 79/2/1 80/3/1

