# Tiled2Unity generated file. Do not modify by hand.
# Wavefront file for 'escenaNorte_1_mesh_0029.obj'

# Vertices (Count = 336)
v -12 -1 0
v -13 -1 0
v -13 0 0
v -12 0 0
v -13 -1 0
v -14 -1 0
v -14 0 0
v -13 0 0
v -14 -1 0
v -15 -1 0
v -15 0 0
v -14 0 0
v -15 -1 0
v -16 -1 0
v -16 0 0
v -15 0 0
v -12 -2 0
v -13 -2 0
v -13 -1 0
v -12 -1 0
v -13 -2 0
v -14 -2 0
v -14 -1 0
v -13 -1 0
v -14 -2 0
v -15 -2 0
v -15 -1 0
v -14 -1 0
v -15 -2 0
v -16 -2 0
v -16 -1 0
v -15 -1 0
v -12 -3 0
v -13 -3 0
v -13 -2 0
v -12 -2 0
v -13 -3 0
v -14 -3 0
v -14 -2 0
v -13 -2 0
v -14 -3 0
v -15 -3 0
v -15 -2 0
v -14 -2 0
v -15 -3 0
v -16 -3 0
v -16 -2 0
v -15 -2 0
v -12 -4 0
v -13 -4 0
v -13 -3 0
v -12 -3 0
v -13 -4 0
v -14 -4 0
v -14 -3 0
v -13 -3 0
v -14 -4 0
v -15 -4 0
v -15 -3 0
v -14 -3 0
v -15 -4 0
v -16 -4 0
v -16 -3 0
v -15 -3 0
v -12 -5 0
v -13 -5 0
v -13 -4 0
v -12 -4 0
v -13 -5 0
v -14 -5 0
v -14 -4 0
v -13 -4 0
v -14 -5 0
v -15 -5 0
v -15 -4 0
v -14 -4 0
v -15 -5 0
v -16 -5 0
v -16 -4 0
v -15 -4 0
v -12 -6 0
v -13 -6 0
v -13 -5 0
v -12 -5 0
v -13 -6 0
v -14 -6 0
v -14 -5 0
v -13 -5 0
v -14 -6 0
v -15 -6 0
v -15 -5 0
v -14 -5 0
v -15 -6 0
v -16 -6 0
v -16 -5 0
v -15 -5 0
v -1 -10 0
v -2 -10 0
v -2 -9 0
v -1 -9 0
v -2 -10 0
v -3 -10 0
v -3 -9 0
v -2 -9 0
v -3 -10 0
v -4 -10 0
v -4 -9 0
v -3 -9 0
v -4 -10 0
v -5 -10 0
v -5 -9 0
v -4 -9 0
v -5 -10 0
v -6 -10 0
v -6 -9 0
v -5 -9 0
v -6 -10 0
v -7 -10 0
v -7 -9 0
v -6 -9 0
v -7 -10 0
v -8 -10 0
v -8 -9 0
v -7 -9 0
v -8 -10 0
v -9 -10 0
v -9 -9 0
v -8 -9 0
v -12 -10 0
v -13 -10 0
v -13 -9 0
v -12 -9 0
v -13 -10 0
v -14 -10 0
v -14 -9 0
v -13 -9 0
v -1 -11 0
v -2 -11 0
v -2 -10 0
v -1 -10 0
v -2 -11 0
v -3 -11 0
v -3 -10 0
v -2 -10 0
v -3 -11 0
v -4 -11 0
v -4 -10 0
v -3 -10 0
v -4 -11 0
v -5 -11 0
v -5 -10 0
v -4 -10 0
v -5 -11 0
v -6 -11 0
v -6 -10 0
v -5 -10 0
v -6 -11 0
v -7 -11 0
v -7 -10 0
v -6 -10 0
v -7 -11 0
v -8 -11 0
v -8 -10 0
v -7 -10 0
v -8 -11 0
v -9 -11 0
v -9 -10 0
v -8 -10 0
v -12 -11 0
v -13 -11 0
v -13 -10 0
v -12 -10 0
v -13 -11 0
v -14 -11 0
v -14 -10 0
v -13 -10 0
v -1 -12 0
v -2 -12 0
v -2 -11 0
v -1 -11 0
v -2 -12 0
v -3 -12 0
v -3 -11 0
v -2 -11 0
v -3 -12 0
v -4 -12 0
v -4 -11 0
v -3 -11 0
v -4 -12 0
v -5 -12 0
v -5 -11 0
v -4 -11 0
v -5 -12 0
v -6 -12 0
v -6 -11 0
v -5 -11 0
v -6 -12 0
v -7 -12 0
v -7 -11 0
v -6 -11 0
v -7 -12 0
v -8 -12 0
v -8 -11 0
v -7 -11 0
v -8 -12 0
v -9 -12 0
v -9 -11 0
v -8 -11 0
v -1 -13 0
v -2 -13 0
v -2 -12 0
v -1 -12 0
v -2 -13 0
v -3 -13 0
v -3 -12 0
v -2 -12 0
v -3 -13 0
v -4 -13 0
v -4 -12 0
v -3 -12 0
v -4 -13 0
v -5 -13 0
v -5 -12 0
v -4 -12 0
v -5 -13 0
v -6 -13 0
v -6 -12 0
v -5 -12 0
v -6 -13 0
v -7 -13 0
v -7 -12 0
v -6 -12 0
v -7 -13 0
v -8 -13 0
v -8 -12 0
v -7 -12 0
v -8 -13 0
v -9 -13 0
v -9 -12 0
v -8 -12 0
v -1 -14 0
v -2 -14 0
v -2 -13 0
v -1 -13 0
v -2 -14 0
v -3 -14 0
v -3 -13 0
v -2 -13 0
v -3 -14 0
v -4 -14 0
v -4 -13 0
v -3 -13 0
v -4 -14 0
v -5 -14 0
v -5 -13 0
v -4 -13 0
v -5 -14 0
v -6 -14 0
v -6 -13 0
v -5 -13 0
v -6 -14 0
v -7 -14 0
v -7 -13 0
v -6 -13 0
v -7 -14 0
v -8 -14 0
v -8 -13 0
v -7 -13 0
v -8 -14 0
v -9 -14 0
v -9 -13 0
v -8 -13 0
v -1 -15 0
v -2 -15 0
v -2 -14 0
v -1 -14 0
v -2 -15 0
v -3 -15 0
v -3 -14 0
v -2 -14 0
v -3 -15 0
v -4 -15 0
v -4 -14 0
v -3 -14 0
v -4 -15 0
v -5 -15 0
v -5 -14 0
v -4 -14 0
v -5 -15 0
v -6 -15 0
v -6 -14 0
v -5 -14 0
v -6 -15 0
v -7 -15 0
v -7 -14 0
v -6 -14 0
v -7 -15 0
v -8 -15 0
v -8 -14 0
v -7 -14 0
v -8 -15 0
v -9 -15 0
v -9 -14 0
v -8 -14 0
v -1 -16 0
v -2 -16 0
v -2 -15 0
v -1 -15 0
v -2 -16 0
v -3 -16 0
v -3 -15 0
v -2 -15 0
v -3 -16 0
v -4 -16 0
v -4 -15 0
v -3 -15 0
v -4 -16 0
v -5 -16 0
v -5 -15 0
v -4 -15 0
v -5 -16 0
v -6 -16 0
v -6 -15 0
v -5 -15 0
v -6 -16 0
v -7 -16 0
v -7 -15 0
v -6 -15 0
v -7 -16 0
v -8 -16 0
v -8 -15 0
v -7 -15 0
v -8 -16 0
v -9 -16 0
v -9 -15 0
v -8 -15 0

# Texture cooridinates (Count = 43)
vt 0.8476563 0.1523438
vt 0.875 0.1523438
vt 0.875 0.1796875
vt 0.8476563 0.1796875
vt 0.9023438 0.1523438
vt 0.9296875 0.1523438
vt 0.9296875 0.1796875
vt 0.9023438 0.1796875
vt 0.9296875 0.2070313
vt 0.9023438 0.2070313
vt 0.8476563 0.125
vt 0.875 0.125
vt 0.8476563 0.09765625
vt 0.875 0.09765625
vt 0.9023438 0.09765625
vt 0.9023438 0.125
vt 0.5742188 0.5078125
vt 0.6015625 0.5078125
vt 0.6015625 0.5351563
vt 0.5742188 0.5351563
vt 0.5742188 0.4804688
vt 0.6015625 0.4804688
vt 0.875 0.2070313
vt 0.8476563 0.2070313
vt 0.9296875 0.234375
vt 0.9023438 0.234375
vt 0.9570313 0.1796875
vt 0.9570313 0.2070313
vt 0.6835938 0.78125
vt 0.7109375 0.78125
vt 0.7109375 0.8085938
vt 0.6835938 0.8085938
vt 0.7382813 0.78125
vt 0.7382813 0.8085938
vt 0.9570313 0.234375
vt 0.6835938 0.7539063
vt 0.7109375 0.7539063
vt 0.7382813 0.7539063
vt 0.9570313 0.1523438
vt 0.9296875 0.125
vt 0.9570313 0.125
vt 0.9296875 0.09765625
vt 0.9570313 0.09765625

# Normal
vn 0 0 -1

# Mesh description
g escenaNorte_1_mesh_0029

# Faces
f 1/1/1 2/2/1 3/3/1 4/4/1
f 5/5/1 6/6/1 7/7/1 8/8/1
f 9/5/1 10/6/1 11/7/1 12/8/1
f 13/5/1 14/6/1 15/7/1 16/8/1
f 17/1/1 18/2/1 19/3/1 20/4/1
f 21/8/1 22/7/1 23/9/1 24/10/1
f 25/5/1 26/6/1 27/7/1 28/8/1
f 29/8/1 30/7/1 31/9/1 32/10/1
f 33/11/1 34/12/1 35/2/1 36/1/1
f 37/5/1 38/6/1 39/7/1 40/8/1
f 41/5/1 42/6/1 43/7/1 44/8/1
f 45/5/1 46/6/1 47/7/1 48/8/1
f 49/13/1 50/14/1 51/12/1 52/11/1
f 53/14/1 54/15/1 55/16/1 56/12/1
f 57/14/1 58/15/1 59/16/1 60/12/1
f 61/14/1 62/15/1 63/16/1 64/12/1
f 65/17/1 66/18/1 67/19/1 68/20/1
f 69/17/1 70/18/1 71/19/1 72/20/1
f 73/17/1 74/18/1 75/19/1 76/20/1
f 77/17/1 78/18/1 79/19/1 80/20/1
f 81/21/1 82/22/1 83/18/1 84/17/1
f 85/21/1 86/22/1 87/18/1 88/17/1
f 89/21/1 90/22/1 91/18/1 92/17/1
f 93/21/1 94/22/1 95/18/1 96/17/1
f 97/4/1 98/3/1 99/23/1 100/24/1
f 101/10/1 102/9/1 103/25/1 104/26/1
f 105/10/1 106/9/1 107/25/1 108/26/1
f 109/10/1 110/9/1 111/25/1 112/26/1
f 113/10/1 114/9/1 115/25/1 116/26/1
f 117/10/1 118/9/1 119/25/1 120/26/1
f 121/10/1 122/9/1 123/25/1 124/26/1
f 125/7/1 126/27/1 127/28/1 128/9/1
f 129/29/1 130/30/1 131/31/1 132/32/1
f 133/30/1 134/33/1 135/34/1 136/31/1
f 137/1/1 138/2/1 139/3/1 140/4/1
f 141/8/1 142/7/1 143/9/1 144/10/1
f 145/8/1 146/7/1 147/9/1 148/10/1
f 149/8/1 150/7/1 151/9/1 152/10/1
f 153/8/1 154/7/1 155/9/1 156/10/1
f 157/8/1 158/7/1 159/9/1 160/10/1
f 161/8/1 162/7/1 163/9/1 164/10/1
f 165/9/1 166/28/1 167/35/1 168/25/1
f 169/36/1 170/37/1 171/30/1 172/29/1
f 173/37/1 174/38/1 175/33/1 176/30/1
f 177/1/1 178/2/1 179/3/1 180/4/1
f 181/5/1 182/6/1 183/7/1 184/8/1
f 185/5/1 186/6/1 187/7/1 188/8/1
f 189/5/1 190/6/1 191/7/1 192/8/1
f 193/5/1 194/6/1 195/7/1 196/8/1
f 197/5/1 198/6/1 199/7/1 200/8/1
f 201/5/1 202/6/1 203/7/1 204/8/1
f 205/7/1 206/27/1 207/28/1 208/9/1
f 209/1/1 210/2/1 211/3/1 212/4/1
f 213/8/1 214/7/1 215/9/1 216/10/1
f 217/5/1 218/6/1 219/7/1 220/8/1
f 221/8/1 222/7/1 223/9/1 224/10/1
f 225/5/1 226/6/1 227/7/1 228/8/1
f 229/8/1 230/7/1 231/9/1 232/10/1
f 233/5/1 234/6/1 235/7/1 236/8/1
f 237/6/1 238/39/1 239/27/1 240/7/1
f 241/11/1 242/12/1 243/2/1 244/1/1
f 245/5/1 246/6/1 247/7/1 248/8/1
f 249/5/1 250/6/1 251/7/1 252/8/1
f 253/5/1 254/6/1 255/7/1 256/8/1
f 257/5/1 258/6/1 259/7/1 260/8/1
f 261/5/1 262/6/1 263/7/1 264/8/1
f 265/5/1 266/6/1 267/7/1 268/8/1
f 269/40/1 270/41/1 271/39/1 272/6/1
f 273/13/1 274/14/1 275/12/1 276/11/1
f 277/14/1 278/15/1 279/16/1 280/12/1
f 281/14/1 282/15/1 283/16/1 284/12/1
f 285/14/1 286/15/1 287/16/1 288/12/1
f 289/14/1 290/15/1 291/16/1 292/12/1
f 293/14/1 294/15/1 295/16/1 296/12/1
f 297/15/1 298/42/1 299/40/1 300/16/1
f 301/42/1 302/43/1 303/41/1 304/40/1
f 305/17/1 306/18/1 307/19/1 308/20/1
f 309/17/1 310/18/1 311/19/1 312/20/1
f 313/17/1 314/18/1 315/19/1 316/20/1
f 317/17/1 318/18/1 319/19/1 320/20/1
f 321/17/1 322/18/1 323/19/1 324/20/1
f 325/17/1 326/18/1 327/19/1 328/20/1
f 329/17/1 330/18/1 331/19/1 332/20/1
f 333/17/1 334/18/1 335/19/1 336/20/1

