# Tiled2Unity generated file. Do not modify by hand.
# Wavefront file for 'escenaNorte_1_mesh_0265.obj'

# Vertices (Count = 216)
v -10 -1 0
v -11 -1 0
v -11 0 0
v -10 0 0
v -11 -1 0
v -12 -1 0
v -12 0 0
v -11 0 0
v -12 -1 0
v -13 -1 0
v -13 0 0
v -12 0 0
v -13 -1 0
v -14 -1 0
v -14 0 0
v -13 0 0
v -10 -2 0
v -11 -2 0
v -11 -1 0
v -10 -1 0
v -11 -2 0
v -12 -2 0
v -12 -1 0
v -11 -1 0
v -12 -2 0
v -13 -2 0
v -13 -1 0
v -12 -1 0
v -13 -2 0
v -14 -2 0
v -14 -1 0
v -13 -1 0
v -10 -3 0
v -11 -3 0
v -11 -2 0
v -10 -2 0
v -11 -3 0
v -12 -3 0
v -12 -2 0
v -11 -2 0
v -12 -3 0
v -13 -3 0
v -13 -2 0
v -12 -2 0
v -13 -3 0
v -14 -3 0
v -14 -2 0
v -13 -2 0
v -10 -4 0
v -11 -4 0
v -11 -3 0
v -10 -3 0
v -11 -4 0
v -12 -4 0
v -12 -3 0
v -11 -3 0
v -12 -4 0
v -13 -4 0
v -13 -3 0
v -12 -3 0
v -13 -4 0
v -14 -4 0
v -14 -3 0
v -13 -3 0
v -10 -5 0
v -11 -5 0
v -11 -4 0
v -10 -4 0
v -11 -5 0
v -12 -5 0
v -12 -4 0
v -11 -4 0
v -12 -5 0
v -13 -5 0
v -13 -4 0
v -12 -4 0
v -13 -5 0
v -14 -5 0
v -14 -4 0
v -13 -4 0
v -10 -6 0
v -11 -6 0
v -11 -5 0
v -10 -5 0
v -11 -6 0
v -12 -6 0
v -12 -5 0
v -11 -5 0
v -12 -6 0
v -13 -6 0
v -13 -5 0
v -12 -5 0
v -13 -6 0
v -14 -6 0
v -14 -5 0
v -13 -5 0
v -10 -7 0
v -11 -7 0
v -11 -6 0
v -10 -6 0
v -11 -7 0
v -12 -7 0
v -12 -6 0
v -11 -6 0
v -12 -7 0
v -13 -7 0
v -13 -6 0
v -12 -6 0
v -13 -7 0
v -14 -7 0
v -14 -6 0
v -13 -6 0
v -10 -8 0
v -11 -8 0
v -11 -7 0
v -10 -7 0
v -11 -8 0
v -12 -8 0
v -12 -7 0
v -11 -7 0
v -12 -8 0
v -13 -8 0
v -13 -7 0
v -12 -7 0
v -13 -8 0
v -14 -8 0
v -14 -7 0
v -13 -7 0
v -10 -9 0
v -11 -9 0
v -11 -8 0
v -10 -8 0
v -11 -9 0
v -12 -9 0
v -12 -8 0
v -11 -8 0
v -12 -9 0
v -13 -9 0
v -13 -8 0
v -12 -8 0
v -13 -9 0
v -14 -9 0
v -14 -8 0
v -13 -8 0
v -10 -10 0
v -11 -10 0
v -11 -9 0
v -10 -9 0
v -11 -10 0
v -12 -10 0
v -12 -9 0
v -11 -9 0
v -12 -10 0
v -13 -10 0
v -13 -9 0
v -12 -9 0
v -13 -10 0
v -14 -10 0
v -14 -9 0
v -13 -9 0
v 0 -11 0
v -1 -11 0
v -1 -10 0
v 0 -10 0
v -1 -11 0
v -2 -11 0
v -2 -10 0
v -1 -10 0
v -2 -11 0
v -3 -11 0
v -3 -10 0
v -2 -10 0
v -3 -11 0
v -4 -11 0
v -4 -10 0
v -3 -10 0
v -4 -11 0
v -5 -11 0
v -5 -10 0
v -4 -10 0
v -5 -11 0
v -6 -11 0
v -6 -10 0
v -5 -10 0
v -6 -11 0
v -7 -11 0
v -7 -10 0
v -6 -10 0
v -7 -11 0
v -8 -11 0
v -8 -10 0
v -7 -10 0
v -8 -11 0
v -9 -11 0
v -9 -10 0
v -8 -10 0
v -9 -11 0
v -10 -11 0
v -10 -10 0
v -9 -10 0
v -10 -11 0
v -11 -11 0
v -11 -10 0
v -10 -10 0
v -11 -11 0
v -12 -11 0
v -12 -10 0
v -11 -10 0
v -12 -11 0
v -13 -11 0
v -13 -10 0
v -12 -10 0
v -13 -11 0
v -14 -11 0
v -14 -10 0
v -13 -10 0

# Texture cooridinates (Count = 16)
vt 0.65625 0.015625
vt 0.984375 0.015625
vt 0.984375 0.34375
vt 0.65625 0.34375
vt 0 0.34375
vt 0.328125 0.34375
vt 0.328125 0.671875
vt 0 0.671875
vt 0.65625 0.671875
vt 0.984375 0.671875
vt 0.984375 1
vt 0.65625 1
vt 0.328125 1
vt 0 1
vt 0 0.015625
vt 0.328125 0.015625

# Normal
vn 0 0 -1

# Mesh description
g escenaNorte_1_mesh_0265

# Faces
f 1/1/1 2/2/1 3/3/1 4/4/1
f 5/5/1 6/6/1 7/7/1 8/8/1
f 9/5/1 10/6/1 11/7/1 12/8/1
f 13/9/1 14/10/1 15/11/1 16/12/1
f 17/8/1 18/7/1 19/13/1 20/14/1
f 21/4/1 22/3/1 23/10/1 24/9/1
f 25/5/1 26/6/1 27/7/1 28/8/1
f 29/7/1 30/9/1 31/12/1 32/13/1
f 33/15/1 34/16/1 35/6/1 36/5/1
f 37/4/1 38/3/1 39/10/1 40/9/1
f 41/6/1 42/4/1 43/9/1 44/7/1
f 45/4/1 46/3/1 47/10/1 48/9/1
f 49/16/1 50/1/1 51/4/1 52/6/1
f 53/8/1 54/7/1 55/13/1 56/14/1
f 57/9/1 58/10/1 59/11/1 60/12/1
f 61/4/1 62/3/1 63/10/1 64/9/1
f 65/8/1 66/7/1 67/13/1 68/14/1
f 69/4/1 70/3/1 71/10/1 72/9/1
f 73/5/1 74/6/1 75/7/1 76/8/1
f 77/6/1 78/4/1 79/9/1 80/7/1
f 81/6/1 82/4/1 83/9/1 84/7/1
f 85/7/1 86/9/1 87/12/1 88/13/1
f 89/16/1 90/1/1 91/4/1 92/6/1
f 93/16/1 94/1/1 95/4/1 96/6/1
f 97/4/1 98/3/1 99/10/1 100/9/1
f 101/8/1 102/7/1 103/13/1 104/14/1
f 105/8/1 106/7/1 107/13/1 108/14/1
f 109/5/1 110/6/1 111/7/1 112/8/1
f 113/6/1 114/4/1 115/9/1 116/7/1
f 117/15/1 118/16/1 119/6/1 120/5/1
f 121/8/1 122/7/1 123/13/1 124/14/1
f 125/8/1 126/7/1 127/13/1 128/14/1
f 129/1/1 130/2/1 131/3/1 132/4/1
f 133/6/1 134/4/1 135/9/1 136/7/1
f 137/9/1 138/10/1 139/11/1 140/12/1
f 141/4/1 142/3/1 143/10/1 144/9/1
f 145/7/1 146/9/1 147/12/1 148/13/1
f 149/9/1 150/10/1 151/11/1 152/12/1
f 153/15/1 154/16/1 155/6/1 156/5/1
f 157/8/1 158/7/1 159/13/1 160/14/1
f 161/6/1 162/4/1 163/9/1 164/7/1
f 165/7/1 166/9/1 167/12/1 168/13/1
f 169/8/1 170/7/1 171/13/1 172/14/1
f 173/7/1 174/9/1 175/12/1 176/13/1
f 177/15/1 178/16/1 179/6/1 180/5/1
f 181/6/1 182/4/1 183/9/1 184/7/1
f 185/1/1 186/2/1 187/3/1 188/4/1
f 189/4/1 190/3/1 191/10/1 192/9/1
f 193/4/1 194/3/1 195/10/1 196/9/1
f 197/9/1 198/10/1 199/11/1 200/12/1
f 201/7/1 202/9/1 203/12/1 204/13/1
f 205/4/1 206/3/1 207/10/1 208/9/1
f 209/5/1 210/6/1 211/7/1 212/8/1
f 213/9/1 214/10/1 215/11/1 216/12/1

