# Tiled2Unity generated file. Do not modify by hand.
# Wavefront file for 'escenaNorte_1_mesh_0266.obj'

# Vertices (Count = 176)
v -2 -2 0
v -3 -2 0
v -3 -1 0
v -2 -1 0
v -3 -2 0
v -4 -2 0
v -4 -1 0
v -3 -1 0
v -4 -2 0
v -5 -2 0
v -5 -1 0
v -4 -1 0
v -5 -2 0
v -6 -2 0
v -6 -1 0
v -5 -1 0
v -6 -2 0
v -7 -2 0
v -7 -1 0
v -6 -1 0
v -7 -2 0
v -8 -2 0
v -8 -1 0
v -7 -1 0
v -8 -2 0
v -9 -2 0
v -9 -1 0
v -8 -1 0
v -9 -2 0
v -10 -2 0
v -10 -1 0
v -9 -1 0
v -2 -3 0
v -3 -3 0
v -3 -2 0
v -2 -2 0
v -3 -3 0
v -4 -3 0
v -4 -2 0
v -3 -2 0
v -4 -3 0
v -5 -3 0
v -5 -2 0
v -4 -2 0
v -5 -3 0
v -6 -3 0
v -6 -2 0
v -5 -2 0
v -6 -3 0
v -7 -3 0
v -7 -2 0
v -6 -2 0
v -7 -3 0
v -8 -3 0
v -8 -2 0
v -7 -2 0
v -8 -3 0
v -9 -3 0
v -9 -2 0
v -8 -2 0
v -9 -3 0
v -10 -3 0
v -10 -2 0
v -9 -2 0
v -2 -4 0
v -3 -4 0
v -3 -3 0
v -2 -3 0
v -3 -4 0
v -4 -4 0
v -4 -3 0
v -3 -3 0
v -4 -4 0
v -5 -4 0
v -5 -3 0
v -4 -3 0
v -5 -4 0
v -6 -4 0
v -6 -3 0
v -5 -3 0
v -6 -4 0
v -7 -4 0
v -7 -3 0
v -6 -3 0
v -7 -4 0
v -8 -4 0
v -8 -3 0
v -7 -3 0
v -8 -4 0
v -9 -4 0
v -9 -3 0
v -8 -3 0
v -9 -4 0
v -10 -4 0
v -10 -3 0
v -9 -3 0
v -2 -8 0
v -3 -8 0
v -3 -7 0
v -2 -7 0
v -3 -8 0
v -4 -8 0
v -4 -7 0
v -3 -7 0
v -4 -8 0
v -5 -8 0
v -5 -7 0
v -4 -7 0
v -5 -8 0
v -6 -8 0
v -6 -7 0
v -5 -7 0
v -6 -8 0
v -7 -8 0
v -7 -7 0
v -6 -7 0
v -7 -8 0
v -8 -8 0
v -8 -7 0
v -7 -7 0
v -8 -8 0
v -9 -8 0
v -9 -7 0
v -8 -7 0
v -9 -8 0
v -10 -8 0
v -10 -7 0
v -9 -7 0
v -2 -9 0
v -3 -9 0
v -3 -8 0
v -2 -8 0
v -3 -9 0
v -4 -9 0
v -4 -8 0
v -3 -8 0
v -4 -9 0
v -5 -9 0
v -5 -8 0
v -4 -8 0
v -5 -9 0
v -6 -9 0
v -6 -8 0
v -5 -8 0
v -6 -9 0
v -7 -9 0
v -7 -8 0
v -6 -8 0
v -7 -9 0
v -8 -9 0
v -8 -8 0
v -7 -8 0
v -8 -9 0
v -9 -9 0
v -9 -8 0
v -8 -8 0
v -9 -9 0
v -10 -9 0
v -10 -8 0
v -9 -8 0
v -1 -13 0
v -2 -13 0
v -2 -12 0
v -1 -12 0
v -1 -14 0
v -2 -14 0
v -2 -13 0
v -1 -13 0
v -1 -15 0
v -2 -15 0
v -2 -14 0
v -1 -14 0
v -1 -16 0
v -2 -16 0
v -2 -15 0
v -1 -15 0

# Texture cooridinates (Count = 41)
vt 0.8476563 0.1796875
vt 0.875 0.1796875
vt 0.875 0.2070313
vt 0.8476563 0.2070313
vt 0.9023438 0.1796875
vt 0.9296875 0.1796875
vt 0.9296875 0.2070313
vt 0.9023438 0.2070313
vt 0.9570313 0.1796875
vt 0.9570313 0.2070313
vt 0.8476563 0.1523438
vt 0.875 0.1523438
vt 0.9023438 0.1523438
vt 0.9296875 0.1523438
vt 0.9570313 0.1523438
vt 0.8476563 0.09765625
vt 0.875 0.09765625
vt 0.875 0.125
vt 0.8476563 0.125
vt 0.9023438 0.09765625
vt 0.9023438 0.125
vt 0.9296875 0.09765625
vt 0.9296875 0.125
vt 0.9570313 0.09765625
vt 0.9570313 0.125
vt 0.546875 0.5898438
vt 0.5742188 0.5898438
vt 0.5742188 0.6171875
vt 0.546875 0.6171875
vt 0.6015625 0.5898438
vt 0.6015625 0.6171875
vt 0.6289063 0.5898438
vt 0.6289063 0.6171875
vt 0.546875 0.5625
vt 0.5742188 0.5625
vt 0.6015625 0.5625
vt 0.6289063 0.5625
vt 0.7109375 0.5351563
vt 0.7109375 0.5078125
vt 0.7382813 0.5078125
vt 0.7382813 0.5351563

# Normal
vn 0 0 -1

# Mesh description
g escenaNorte_1_mesh_0266

# Faces
f 1/1/1 2/2/1 3/3/1 4/4/1
f 5/5/1 6/6/1 7/7/1 8/8/1
f 9/5/1 10/6/1 11/7/1 12/8/1
f 13/5/1 14/6/1 15/7/1 16/8/1
f 17/5/1 18/6/1 19/7/1 20/8/1
f 21/5/1 22/6/1 23/7/1 24/8/1
f 25/5/1 26/6/1 27/7/1 28/8/1
f 29/6/1 30/9/1 31/10/1 32/7/1
f 33/11/1 34/12/1 35/2/1 36/1/1
f 37/13/1 38/14/1 39/6/1 40/5/1
f 41/13/1 42/14/1 43/6/1 44/5/1
f 45/13/1 46/14/1 47/6/1 48/5/1
f 49/13/1 50/14/1 51/6/1 52/5/1
f 53/13/1 54/14/1 55/6/1 56/5/1
f 57/13/1 58/14/1 59/6/1 60/5/1
f 61/14/1 62/15/1 63/9/1 64/6/1
f 65/16/1 66/17/1 67/18/1 68/19/1
f 69/17/1 70/20/1 71/21/1 72/18/1
f 73/20/1 74/22/1 75/23/1 76/21/1
f 77/17/1 78/20/1 79/21/1 80/18/1
f 81/20/1 82/22/1 83/23/1 84/21/1
f 85/17/1 86/20/1 87/21/1 88/18/1
f 89/20/1 90/22/1 91/23/1 92/21/1
f 93/22/1 94/24/1 95/25/1 96/23/1
f 97/26/1 98/27/1 99/28/1 100/29/1
f 101/27/1 102/30/1 103/31/1 104/28/1
f 105/26/1 106/27/1 107/28/1 108/29/1
f 109/27/1 110/30/1 111/31/1 112/28/1
f 113/26/1 114/27/1 115/28/1 116/29/1
f 117/27/1 118/30/1 119/31/1 120/28/1
f 121/30/1 122/32/1 123/33/1 124/31/1
f 125/27/1 126/30/1 127/31/1 128/28/1
f 129/34/1 130/35/1 131/27/1 132/26/1
f 133/35/1 134/36/1 135/30/1 136/27/1
f 137/34/1 138/35/1 139/27/1 140/26/1
f 141/35/1 142/36/1 143/30/1 144/27/1
f 145/34/1 146/35/1 147/27/1 148/26/1
f 149/35/1 150/36/1 151/30/1 152/27/1
f 153/36/1 154/37/1 155/32/1 156/30/1
f 157/35/1 158/36/1 159/30/1 160/27/1
f 161/38/1 162/39/1 163/40/1 164/41/1
f 165/38/1 166/39/1 167/40/1 168/41/1
f 169/38/1 170/39/1 171/40/1 172/41/1
f 173/38/1 174/39/1 175/40/1 176/41/1

