# Tiled2Unity generated file. Do not modify by hand.
# Wavefront file for 'escenaNorte_1_mesh_0244.obj'

# Vertices (Count = 192)
v -1 -5 0
v -2 -5 0
v -2 -4 0
v -1 -4 0
v -2 -5 0
v -3 -5 0
v -3 -4 0
v -2 -4 0
v -3 -5 0
v -4 -5 0
v -4 -4 0
v -3 -4 0
v -4 -5 0
v -5 -5 0
v -5 -4 0
v -4 -4 0
v -5 -5 0
v -6 -5 0
v -6 -4 0
v -5 -4 0
v -6 -5 0
v -7 -5 0
v -7 -4 0
v -6 -4 0
v -7 -5 0
v -8 -5 0
v -8 -4 0
v -7 -4 0
v -8 -5 0
v -9 -5 0
v -9 -4 0
v -8 -4 0
v -9 -5 0
v -10 -5 0
v -10 -4 0
v -9 -4 0
v -10 -5 0
v -11 -5 0
v -11 -4 0
v -10 -4 0
v -11 -5 0
v -12 -5 0
v -12 -4 0
v -11 -4 0
v -12 -5 0
v -13 -5 0
v -13 -4 0
v -12 -4 0
v -13 -5 0
v -14 -5 0
v -14 -4 0
v -13 -4 0
v -14 -5 0
v -15 -5 0
v -15 -4 0
v -14 -4 0
v -15 -5 0
v -16 -5 0
v -16 -4 0
v -15 -4 0
v -1 -6 0
v -2 -6 0
v -2 -5 0
v -1 -5 0
v -2 -6 0
v -3 -6 0
v -3 -5 0
v -2 -5 0
v -3 -6 0
v -4 -6 0
v -4 -5 0
v -3 -5 0
v -1 -7 0
v -2 -7 0
v -2 -6 0
v -1 -6 0
v -2 -7 0
v -3 -7 0
v -3 -6 0
v -2 -6 0
v -3 -7 0
v -4 -7 0
v -4 -6 0
v -3 -6 0
v -1 -8 0
v -2 -8 0
v -2 -7 0
v -1 -7 0
v -2 -8 0
v -3 -8 0
v -3 -7 0
v -2 -7 0
v -3 -8 0
v -4 -8 0
v -4 -7 0
v -3 -7 0
v -1 -9 0
v -2 -9 0
v -2 -8 0
v -1 -8 0
v -2 -9 0
v -3 -9 0
v -3 -8 0
v -2 -8 0
v -3 -9 0
v -4 -9 0
v -4 -8 0
v -3 -8 0
v -1 -10 0
v -2 -10 0
v -2 -9 0
v -1 -9 0
v -2 -10 0
v -3 -10 0
v -3 -9 0
v -2 -9 0
v -3 -10 0
v -4 -10 0
v -4 -9 0
v -3 -9 0
v -1 -11 0
v -2 -11 0
v -2 -10 0
v -1 -10 0
v -2 -11 0
v -3 -11 0
v -3 -10 0
v -2 -10 0
v -3 -11 0
v -4 -11 0
v -4 -10 0
v -3 -10 0
v -1 -12 0
v -2 -12 0
v -2 -11 0
v -1 -11 0
v -2 -12 0
v -3 -12 0
v -3 -11 0
v -2 -11 0
v -3 -12 0
v -4 -12 0
v -4 -11 0
v -3 -11 0
v -1 -13 0
v -2 -13 0
v -2 -12 0
v -1 -12 0
v -2 -13 0
v -3 -13 0
v -3 -12 0
v -2 -12 0
v -3 -13 0
v -4 -13 0
v -4 -12 0
v -3 -12 0
v -1 -14 0
v -2 -14 0
v -2 -13 0
v -1 -13 0
v -2 -14 0
v -3 -14 0
v -3 -13 0
v -2 -13 0
v -3 -14 0
v -4 -14 0
v -4 -13 0
v -3 -13 0
v -1 -15 0
v -2 -15 0
v -2 -14 0
v -1 -14 0
v -2 -15 0
v -3 -15 0
v -3 -14 0
v -2 -14 0
v -3 -15 0
v -4 -15 0
v -4 -14 0
v -3 -14 0
v -1 -16 0
v -2 -16 0
v -2 -15 0
v -1 -15 0
v -2 -16 0
v -3 -16 0
v -3 -15 0
v -2 -15 0
v -3 -16 0
v -4 -16 0
v -4 -15 0
v -3 -15 0

# Texture cooridinates (Count = 16)
vt 0.328125 0.015625
vt 0.65625 0.015625
vt 0.65625 0.34375
vt 0.328125 0.34375
vt 0 0.34375
vt 0.328125 0.671875
vt 0 0.671875
vt 0.65625 0.671875
vt 0.984375 0.671875
vt 0.984375 1
vt 0.65625 1
vt 0.984375 0.34375
vt 0 0.015625
vt 0.328125 1
vt 0 1
vt 0.984375 0.015625

# Normal
vn 0 0 -1

# Mesh description
g escenaNorte_1_mesh_0244

# Faces
f 1/1/1 2/2/1 3/3/1 4/4/1
f 5/5/1 6/4/1 7/6/1 8/7/1
f 9/1/1 10/2/1 11/3/1 12/4/1
f 13/1/1 14/2/1 15/3/1 16/4/1
f 17/8/1 18/9/1 19/10/1 20/11/1
f 21/1/1 22/2/1 23/3/1 24/4/1
f 25/1/1 26/2/1 27/3/1 28/4/1
f 29/3/1 30/12/1 31/9/1 32/8/1
f 33/13/1 34/1/1 35/4/1 36/5/1
f 37/6/1 38/8/1 39/11/1 40/14/1
f 41/5/1 42/4/1 43/6/1 44/7/1
f 45/1/1 46/2/1 47/3/1 48/4/1
f 49/5/1 50/4/1 51/6/1 52/7/1
f 53/7/1 54/6/1 55/14/1 56/15/1
f 57/7/1 58/6/1 59/14/1 60/15/1
f 61/2/1 62/16/1 63/12/1 64/3/1
f 65/2/1 66/16/1 67/12/1 68/3/1
f 69/5/1 70/4/1 71/6/1 72/7/1
f 73/3/1 74/12/1 75/9/1 76/8/1
f 77/7/1 78/6/1 79/14/1 80/15/1
f 81/13/1 82/1/1 83/4/1 84/5/1
f 85/8/1 86/9/1 87/10/1 88/11/1
f 89/1/1 90/2/1 91/3/1 92/4/1
f 93/7/1 94/6/1 95/14/1 96/15/1
f 97/8/1 98/9/1 99/10/1 100/11/1
f 101/5/1 102/4/1 103/6/1 104/7/1
f 105/7/1 106/6/1 107/14/1 108/15/1
f 109/3/1 110/12/1 111/9/1 112/8/1
f 113/6/1 114/8/1 115/11/1 116/14/1
f 117/2/1 118/16/1 119/12/1 120/3/1
f 121/3/1 122/12/1 123/9/1 124/8/1
f 125/7/1 126/6/1 127/14/1 128/15/1
f 129/6/1 130/8/1 131/11/1 132/14/1
f 133/6/1 134/8/1 135/11/1 136/14/1
f 137/4/1 138/3/1 139/8/1 140/6/1
f 141/6/1 142/8/1 143/11/1 144/14/1
f 145/6/1 146/8/1 147/11/1 148/14/1
f 149/4/1 150/3/1 151/8/1 152/6/1
f 153/7/1 154/6/1 155/14/1 156/15/1
f 157/4/1 158/3/1 159/8/1 160/6/1
f 161/5/1 162/4/1 163/6/1 164/7/1
f 165/8/1 166/9/1 167/10/1 168/11/1
f 169/1/1 170/2/1 171/3/1 172/4/1
f 173/13/1 174/1/1 175/4/1 176/5/1
f 177/7/1 178/6/1 179/14/1 180/15/1
f 181/2/1 182/16/1 183/12/1 184/3/1
f 185/6/1 186/8/1 187/11/1 188/14/1
f 189/6/1 190/8/1 191/11/1 192/14/1

