# Tiled2Unity generated file. Do not modify by hand.
# Wavefront file for 'escenaNorte_1_mesh_0107.obj'

# Vertices (Count = 92)
v -11 -1 0
v -12 -1 0
v -12 0 0
v -11 0 0
v -12 -1 0
v -13 -1 0
v -13 0 0
v -12 0 0
v -13 -1 0
v -14 -1 0
v -14 0 0
v -13 0 0
v -14 -1 0
v -15 -1 0
v -15 0 0
v -14 0 0
v -15 -1 0
v -16 -1 0
v -16 0 0
v -15 0 0
v -10 -11 0
v -11 -11 0
v -11 -10 0
v -10 -10 0
v -11 -11 0
v -12 -11 0
v -12 -10 0
v -11 -10 0
v -12 -11 0
v -13 -11 0
v -13 -10 0
v -12 -10 0
v -13 -11 0
v -14 -11 0
v -14 -10 0
v -13 -10 0
v -14 -11 0
v -15 -11 0
v -15 -10 0
v -14 -10 0
v -15 -11 0
v -16 -11 0
v -16 -10 0
v -15 -10 0
v -10 -12 0
v -11 -12 0
v -11 -11 0
v -10 -11 0
v -11 -12 0
v -12 -12 0
v -12 -11 0
v -11 -11 0
v -12 -12 0
v -13 -12 0
v -13 -11 0
v -12 -11 0
v -13 -12 0
v -14 -12 0
v -14 -11 0
v -13 -11 0
v -14 -12 0
v -15 -12 0
v -15 -11 0
v -14 -11 0
v -15 -12 0
v -16 -12 0
v -16 -11 0
v -15 -11 0
v -10 -16 0
v -11 -16 0
v -11 -15 0
v -10 -15 0
v -11 -16 0
v -12 -16 0
v -12 -15 0
v -11 -15 0
v -12 -16 0
v -13 -16 0
v -13 -15 0
v -12 -15 0
v -13 -16 0
v -14 -16 0
v -14 -15 0
v -13 -15 0
v -14 -16 0
v -15 -16 0
v -15 -15 0
v -14 -15 0
v -15 -16 0
v -16 -16 0
v -16 -15 0
v -15 -15 0

# Texture cooridinates (Count = 23)
vt 0.6289063 0.6445313
vt 0.65625 0.6445313
vt 0.65625 0.671875
vt 0.6289063 0.671875
vt 0.6835938 0.6445313
vt 0.6835938 0.671875
vt 0.5742188 0.5625
vt 0.6015625 0.5625
vt 0.6015625 0.5898438
vt 0.5742188 0.5898438
vt 0.6015625 0.6171875
vt 0.5742188 0.6171875
vt 0.6289063 0.5898438
vt 0.6289063 0.6171875
vt 0.6289063 0.5625
vt 0.7109375 0.9726563
vt 0.7382813 0.9726563
vt 0.7382813 1
vt 0.7109375 1
vt 0.765625 0.9726563
vt 0.765625 1
vt 0.7929688 0.9726563
vt 0.7929688 1

# Normal
vn 0 0 -1

# Mesh description
g escenaNorte_1_mesh_0107

# Faces
f 1/1/1 2/2/1 3/3/1 4/4/1
f 5/2/1 6/5/1 7/6/1 8/3/1
f 9/1/1 10/2/1 11/3/1 12/4/1
f 13/2/1 14/5/1 15/6/1 16/3/1
f 17/7/1 18/8/1 19/9/1 20/10/1
f 21/10/1 22/9/1 23/11/1 24/12/1
f 25/9/1 26/13/1 27/14/1 28/11/1
f 29/10/1 30/9/1 31/11/1 32/12/1
f 33/9/1 34/13/1 35/14/1 36/11/1
f 37/10/1 38/9/1 39/11/1 40/12/1
f 41/9/1 42/13/1 43/14/1 44/11/1
f 45/7/1 46/8/1 47/9/1 48/10/1
f 49/8/1 50/15/1 51/13/1 52/9/1
f 53/7/1 54/8/1 55/9/1 56/10/1
f 57/8/1 58/15/1 59/13/1 60/9/1
f 61/7/1 62/8/1 63/9/1 64/10/1
f 65/8/1 66/15/1 67/13/1 68/9/1
f 69/16/1 70/17/1 71/18/1 72/19/1
f 73/17/1 74/20/1 75/21/1 76/18/1
f 77/20/1 78/22/1 79/23/1 80/21/1
f 81/20/1 82/22/1 83/23/1 84/21/1
f 85/20/1 86/22/1 87/23/1 88/21/1
f 89/20/1 90/22/1 91/23/1 92/21/1

