# Tiled2Unity generated file. Do not modify by hand.
# Wavefront file for 'escenaNorte_1_mesh_0205.obj'

# Vertices (Count = 16)
v -1 -1 0
v -2 -1 0
v -2 0 0
v -1 0 0
v -12 -1 0
v -13 -1 0
v -13 0 0
v -12 0 0
v -1 -12 0
v -2 -12 0
v -2 -11 0
v -1 -11 0
v -12 -12 0
v -13 -12 0
v -13 -11 0
v -12 -11 0

# Texture cooridinates (Count = 4)
vt 0.1679688 0.1145833
vt 0.2089844 0.1145833
vt 0.2089844 0.2239583
vt 0.1679688 0.2239583

# Normal
vn 0 0 -1

# Mesh description
g escenaNorte_1_mesh_0205

# Faces
f 1/1/1 2/2/1 3/3/1 4/4/1
f 5/1/1 6/2/1 7/3/1 8/4/1
f 9/2/1 10/3/1 11/4/1 12/1/1
f 13/2/1 14/3/1 15/4/1 16/1/1

