# Tiled2Unity generated file. Do not modify by hand.
# Wavefront file for 'escenaNorte_1_mesh_0131.obj'

# Vertices (Count = 208)
v -1 -6 0
v -2 -6 0
v -2 -5 0
v -1 -5 0
v -2 -6 0
v -3 -6 0
v -3 -5 0
v -2 -5 0
v -3 -6 0
v -4 -6 0
v -4 -5 0
v -3 -5 0
v -4 -6 0
v -5 -6 0
v -5 -5 0
v -4 -5 0
v -5 -6 0
v -6 -6 0
v -6 -5 0
v -5 -5 0
v -6 -6 0
v -7 -6 0
v -7 -5 0
v -6 -5 0
v -7 -6 0
v -8 -6 0
v -8 -5 0
v -7 -5 0
v -8 -6 0
v -9 -6 0
v -9 -5 0
v -8 -5 0
v -9 -6 0
v -10 -6 0
v -10 -5 0
v -9 -5 0
v -10 -6 0
v -11 -6 0
v -11 -5 0
v -10 -5 0
v -12 -6 0
v -13 -6 0
v -13 -5 0
v -12 -5 0
v -13 -6 0
v -14 -6 0
v -14 -5 0
v -13 -5 0
v -14 -6 0
v -15 -6 0
v -15 -5 0
v -14 -5 0
v -15 -6 0
v -16 -6 0
v -16 -5 0
v -15 -5 0
v -1 -7 0
v -2 -7 0
v -2 -6 0
v -1 -6 0
v -10 -7 0
v -11 -7 0
v -11 -6 0
v -10 -6 0
v -12 -7 0
v -13 -7 0
v -13 -6 0
v -12 -6 0
v -1 -8 0
v -2 -8 0
v -2 -7 0
v -1 -7 0
v -10 -8 0
v -11 -8 0
v -11 -7 0
v -10 -7 0
v -12 -8 0
v -13 -8 0
v -13 -7 0
v -12 -7 0
v -1 -9 0
v -2 -9 0
v -2 -8 0
v -1 -8 0
v -10 -9 0
v -11 -9 0
v -11 -8 0
v -10 -8 0
v -12 -9 0
v -13 -9 0
v -13 -8 0
v -12 -8 0
v -1 -10 0
v -2 -10 0
v -2 -9 0
v -1 -9 0
v -10 -10 0
v -11 -10 0
v -11 -9 0
v -10 -9 0
v -12 -10 0
v -13 -10 0
v -13 -9 0
v -12 -9 0
v -1 -11 0
v -2 -11 0
v -2 -10 0
v -1 -10 0
v -10 -11 0
v -11 -11 0
v -11 -10 0
v -10 -10 0
v -12 -11 0
v -13 -11 0
v -13 -10 0
v -12 -10 0
v -1 -12 0
v -2 -12 0
v -2 -11 0
v -1 -11 0
v -10 -12 0
v -11 -12 0
v -11 -11 0
v -10 -11 0
v -12 -12 0
v -13 -12 0
v -13 -11 0
v -12 -11 0
v -1 -13 0
v -2 -13 0
v -2 -12 0
v -1 -12 0
v -10 -13 0
v -11 -13 0
v -11 -12 0
v -10 -12 0
v -12 -13 0
v -13 -13 0
v -13 -12 0
v -12 -12 0
v -1 -14 0
v -2 -14 0
v -2 -13 0
v -1 -13 0
v -10 -14 0
v -11 -14 0
v -11 -13 0
v -10 -13 0
v -12 -14 0
v -13 -14 0
v -13 -13 0
v -12 -13 0
v -1 -15 0
v -2 -15 0
v -2 -14 0
v -1 -14 0
v -2 -15 0
v -3 -15 0
v -3 -14 0
v -2 -14 0
v -3 -15 0
v -4 -15 0
v -4 -14 0
v -3 -14 0
v -4 -15 0
v -5 -15 0
v -5 -14 0
v -4 -14 0
v -5 -15 0
v -6 -15 0
v -6 -14 0
v -5 -14 0
v -6 -15 0
v -7 -15 0
v -7 -14 0
v -6 -14 0
v -7 -15 0
v -8 -15 0
v -8 -14 0
v -7 -14 0
v -8 -15 0
v -9 -15 0
v -9 -14 0
v -8 -14 0
v -9 -15 0
v -10 -15 0
v -10 -14 0
v -9 -14 0
v -10 -15 0
v -11 -15 0
v -11 -14 0
v -10 -14 0
v -12 -15 0
v -13 -15 0
v -13 -14 0
v -12 -14 0
v -13 -15 0
v -14 -15 0
v -14 -14 0
v -13 -14 0
v -14 -15 0
v -15 -15 0
v -15 -14 0
v -14 -14 0
v -15 -15 0
v -16 -15 0
v -16 -14 0
v -15 -14 0

# Texture cooridinates (Count = 4)
vt 0.5039063 0.5245535
vt 0.5859375 0.5245535
vt 0.5859375 0.5714285
vt 0.5039063 0.5714285

# Normal
vn 0 0 -1

# Mesh description
g escenaNorte_1_mesh_0131

# Faces
f 1/1/1 2/2/1 3/3/1 4/4/1
f 5/1/1 6/2/1 7/3/1 8/4/1
f 9/1/1 10/2/1 11/3/1 12/4/1
f 13/1/1 14/2/1 15/3/1 16/4/1
f 17/1/1 18/2/1 19/3/1 20/4/1
f 21/1/1 22/2/1 23/3/1 24/4/1
f 25/1/1 26/2/1 27/3/1 28/4/1
f 29/1/1 30/2/1 31/3/1 32/4/1
f 33/1/1 34/2/1 35/3/1 36/4/1
f 37/1/1 38/2/1 39/3/1 40/4/1
f 41/1/1 42/2/1 43/3/1 44/4/1
f 45/1/1 46/2/1 47/3/1 48/4/1
f 49/1/1 50/2/1 51/3/1 52/4/1
f 53/1/1 54/2/1 55/3/1 56/4/1
f 57/4/1 58/1/1 59/2/1 60/3/1
f 61/4/1 62/1/1 63/2/1 64/3/1
f 65/4/1 66/1/1 67/2/1 68/3/1
f 69/4/1 70/1/1 71/2/1 72/3/1
f 73/4/1 74/1/1 75/2/1 76/3/1
f 77/4/1 78/1/1 79/2/1 80/3/1
f 81/4/1 82/1/1 83/2/1 84/3/1
f 85/4/1 86/1/1 87/2/1 88/3/1
f 89/4/1 90/1/1 91/2/1 92/3/1
f 93/4/1 94/1/1 95/2/1 96/3/1
f 97/4/1 98/1/1 99/2/1 100/3/1
f 101/4/1 102/1/1 103/2/1 104/3/1
f 105/4/1 106/1/1 107/2/1 108/3/1
f 109/4/1 110/1/1 111/2/1 112/3/1
f 113/4/1 114/1/1 115/2/1 116/3/1
f 117/4/1 118/1/1 119/2/1 120/3/1
f 121/4/1 122/1/1 123/2/1 124/3/1
f 125/4/1 126/1/1 127/2/1 128/3/1
f 129/4/1 130/1/1 131/2/1 132/3/1
f 133/4/1 134/1/1 135/2/1 136/3/1
f 137/4/1 138/1/1 139/2/1 140/3/1
f 141/4/1 142/1/1 143/2/1 144/3/1
f 145/4/1 146/1/1 147/2/1 148/3/1
f 149/4/1 150/1/1 151/2/1 152/3/1
f 153/1/1 154/2/1 155/3/1 156/4/1
f 157/1/1 158/2/1 159/3/1 160/4/1
f 161/1/1 162/2/1 163/3/1 164/4/1
f 165/1/1 166/2/1 167/3/1 168/4/1
f 169/1/1 170/2/1 171/3/1 172/4/1
f 173/1/1 174/2/1 175/3/1 176/4/1
f 177/1/1 178/2/1 179/3/1 180/4/1
f 181/1/1 182/2/1 183/3/1 184/4/1
f 185/1/1 186/2/1 187/3/1 188/4/1
f 189/1/1 190/2/1 191/3/1 192/4/1
f 193/1/1 194/2/1 195/3/1 196/4/1
f 197/1/1 198/2/1 199/3/1 200/4/1
f 201/1/1 202/2/1 203/3/1 204/4/1
f 205/1/1 206/2/1 207/3/1 208/4/1

