# Tiled2Unity generated file. Do not modify by hand.
# Wavefront file for 'escenaNorte_1_mesh_0041.obj'

# Vertices (Count = 320)
v 0 -1 0
v -1 -1 0
v -1 0 0
v 0 0 0
v -1 -1 0
v -2 -1 0
v -2 0 0
v -1 0 0
v -2 -1 0
v -3 -1 0
v -3 0 0
v -2 0 0
v -6 -5 0
v -7 -5 0
v -7 -4 0
v -6 -4 0
v -7 -5 0
v -8 -5 0
v -8 -4 0
v -7 -4 0
v -8 -5 0
v -9 -5 0
v -9 -4 0
v -8 -4 0
v -9 -5 0
v -10 -5 0
v -10 -4 0
v -9 -4 0
v -10 -5 0
v -11 -5 0
v -11 -4 0
v -10 -4 0
v -11 -5 0
v -12 -5 0
v -12 -4 0
v -11 -4 0
v -12 -5 0
v -13 -5 0
v -13 -4 0
v -12 -4 0
v -13 -5 0
v -14 -5 0
v -14 -4 0
v -13 -4 0
v -6 -6 0
v -7 -6 0
v -7 -5 0
v -6 -5 0
v -7 -6 0
v -8 -6 0
v -8 -5 0
v -7 -5 0
v -8 -6 0
v -9 -6 0
v -9 -5 0
v -8 -5 0
v -9 -6 0
v -10 -6 0
v -10 -5 0
v -9 -5 0
v -10 -6 0
v -11 -6 0
v -11 -5 0
v -10 -5 0
v -11 -6 0
v -12 -6 0
v -12 -5 0
v -11 -5 0
v -12 -6 0
v -13 -6 0
v -13 -5 0
v -12 -5 0
v -13 -6 0
v -14 -6 0
v -14 -5 0
v -13 -5 0
v -6 -7 0
v -7 -7 0
v -7 -6 0
v -6 -6 0
v -7 -7 0
v -8 -7 0
v -8 -6 0
v -7 -6 0
v -8 -7 0
v -9 -7 0
v -9 -6 0
v -8 -6 0
v -9 -7 0
v -10 -7 0
v -10 -6 0
v -9 -6 0
v -10 -7 0
v -11 -7 0
v -11 -6 0
v -10 -6 0
v -11 -7 0
v -12 -7 0
v -12 -6 0
v -11 -6 0
v -12 -7 0
v -13 -7 0
v -13 -6 0
v -12 -6 0
v -13 -7 0
v -14 -7 0
v -14 -6 0
v -13 -6 0
v -6 -8 0
v -7 -8 0
v -7 -7 0
v -6 -7 0
v -7 -8 0
v -8 -8 0
v -8 -7 0
v -7 -7 0
v -8 -8 0
v -9 -8 0
v -9 -7 0
v -8 -7 0
v -9 -8 0
v -10 -8 0
v -10 -7 0
v -9 -7 0
v -10 -8 0
v -11 -8 0
v -11 -7 0
v -10 -7 0
v -11 -8 0
v -12 -8 0
v -12 -7 0
v -11 -7 0
v -12 -8 0
v -13 -8 0
v -13 -7 0
v -12 -7 0
v -13 -8 0
v -14 -8 0
v -14 -7 0
v -13 -7 0
v -6 -9 0
v -7 -9 0
v -7 -8 0
v -6 -8 0
v -7 -9 0
v -8 -9 0
v -8 -8 0
v -7 -8 0
v -8 -9 0
v -9 -9 0
v -9 -8 0
v -8 -8 0
v -9 -9 0
v -10 -9 0
v -10 -8 0
v -9 -8 0
v -10 -9 0
v -11 -9 0
v -11 -8 0
v -10 -8 0
v -11 -9 0
v -12 -9 0
v -12 -8 0
v -11 -8 0
v -12 -9 0
v -13 -9 0
v -13 -8 0
v -12 -8 0
v -13 -9 0
v -14 -9 0
v -14 -8 0
v -13 -8 0
v -6 -10 0
v -7 -10 0
v -7 -9 0
v -6 -9 0
v -7 -10 0
v -8 -10 0
v -8 -9 0
v -7 -9 0
v -8 -10 0
v -9 -10 0
v -9 -9 0
v -8 -9 0
v -9 -10 0
v -10 -10 0
v -10 -9 0
v -9 -9 0
v -10 -10 0
v -11 -10 0
v -11 -9 0
v -10 -9 0
v -11 -10 0
v -12 -10 0
v -12 -9 0
v -11 -9 0
v -12 -10 0
v -13 -10 0
v -13 -9 0
v -12 -9 0
v -13 -10 0
v -14 -10 0
v -14 -9 0
v -13 -9 0
v -6 -11 0
v -7 -11 0
v -7 -10 0
v -6 -10 0
v -7 -11 0
v -8 -11 0
v -8 -10 0
v -7 -10 0
v -8 -11 0
v -9 -11 0
v -9 -10 0
v -8 -10 0
v -9 -11 0
v -10 -11 0
v -10 -10 0
v -9 -10 0
v -10 -11 0
v -11 -11 0
v -11 -10 0
v -10 -10 0
v -11 -11 0
v -12 -11 0
v -12 -10 0
v -11 -10 0
v -12 -11 0
v -13 -11 0
v -13 -10 0
v -12 -10 0
v -13 -11 0
v -14 -11 0
v -14 -10 0
v -13 -10 0
v -6 -12 0
v -7 -12 0
v -7 -11 0
v -6 -11 0
v -7 -12 0
v -8 -12 0
v -8 -11 0
v -7 -11 0
v -8 -12 0
v -9 -12 0
v -9 -11 0
v -8 -11 0
v -9 -12 0
v -10 -12 0
v -10 -11 0
v -9 -11 0
v -10 -12 0
v -11 -12 0
v -11 -11 0
v -10 -11 0
v -11 -12 0
v -12 -12 0
v -12 -11 0
v -11 -11 0
v -12 -12 0
v -13 -12 0
v -13 -11 0
v -12 -11 0
v -13 -12 0
v -14 -12 0
v -14 -11 0
v -13 -11 0
v 0 -16 0
v -1 -16 0
v -1 -15 0
v 0 -15 0
v -1 -16 0
v -2 -16 0
v -2 -15 0
v -1 -15 0
v -2 -16 0
v -3 -16 0
v -3 -15 0
v -2 -15 0
v -6 -16 0
v -7 -16 0
v -7 -15 0
v -6 -15 0
v -7 -16 0
v -8 -16 0
v -8 -15 0
v -7 -15 0
v -8 -16 0
v -9 -16 0
v -9 -15 0
v -8 -15 0
v -9 -16 0
v -10 -16 0
v -10 -15 0
v -9 -15 0
v -10 -16 0
v -11 -16 0
v -11 -15 0
v -10 -15 0
v -11 -16 0
v -12 -16 0
v -12 -15 0
v -11 -15 0
v -12 -16 0
v -13 -16 0
v -13 -15 0
v -12 -15 0
v -13 -16 0
v -14 -16 0
v -14 -15 0
v -13 -15 0
v -14 -16 0
v -15 -16 0
v -15 -15 0
v -14 -15 0
v -15 -16 0
v -16 -16 0
v -16 -15 0
v -15 -15 0

# Texture cooridinates (Count = 34)
vt 0.5742188 0.4804688
vt 0.6015625 0.4804688
vt 0.6015625 0.5078125
vt 0.5742188 0.5078125
vt 0.8476563 0.1796875
vt 0.875 0.1796875
vt 0.875 0.2070313
vt 0.8476563 0.2070313
vt 0.9023438 0.2070313
vt 0.9296875 0.2070313
vt 0.9296875 0.234375
vt 0.9023438 0.234375
vt 0.9296875 0.1796875
vt 0.9570313 0.1796875
vt 0.9570313 0.2070313
vt 0.8476563 0.1523438
vt 0.875 0.1523438
vt 0.9023438 0.1796875
vt 0.9570313 0.234375
vt 0.9023438 0.1523438
vt 0.9296875 0.1523438
vt 0.9570313 0.1523438
vt 0.8476563 0.125
vt 0.875 0.125
vt 0.9296875 0.125
vt 0.9570313 0.125
vt 0.8476563 0.09765625
vt 0.875 0.09765625
vt 0.9023438 0.09765625
vt 0.9023438 0.125
vt 0.9296875 0.09765625
vt 0.9570313 0.09765625
vt 0.6015625 0.5351563
vt 0.5742188 0.5351563

# Normal
vn 0 0 -1

# Mesh description
g escenaNorte_1_mesh_0041

# Faces
f 1/1/1 2/2/1 3/3/1 4/4/1
f 5/1/1 6/2/1 7/3/1 8/4/1
f 9/1/1 10/2/1 11/3/1 12/4/1
f 13/5/1 14/6/1 15/7/1 16/8/1
f 17/9/1 18/10/1 19/11/1 20/12/1
f 21/9/1 22/10/1 23/11/1 24/12/1
f 25/9/1 26/10/1 27/11/1 28/12/1
f 29/9/1 30/10/1 31/11/1 32/12/1
f 33/9/1 34/10/1 35/11/1 36/12/1
f 37/9/1 38/10/1 39/11/1 40/12/1
f 41/13/1 42/14/1 43/15/1 44/10/1
f 45/16/1 46/17/1 47/6/1 48/5/1
f 49/18/1 50/13/1 51/10/1 52/9/1
f 53/18/1 54/13/1 55/10/1 56/9/1
f 57/18/1 58/13/1 59/10/1 60/9/1
f 61/18/1 62/13/1 63/10/1 64/9/1
f 65/18/1 66/13/1 67/10/1 68/9/1
f 69/18/1 70/13/1 71/10/1 72/9/1
f 73/10/1 74/15/1 75/19/1 76/11/1
f 77/16/1 78/17/1 79/6/1 80/5/1
f 81/20/1 82/21/1 83/13/1 84/18/1
f 85/20/1 86/21/1 87/13/1 88/18/1
f 89/20/1 90/21/1 91/13/1 92/18/1
f 93/20/1 94/21/1 95/13/1 96/18/1
f 97/20/1 98/21/1 99/13/1 100/18/1
f 101/20/1 102/21/1 103/13/1 104/18/1
f 105/13/1 106/14/1 107/15/1 108/10/1
f 109/16/1 110/17/1 111/6/1 112/5/1
f 113/18/1 114/13/1 115/10/1 116/9/1
f 117/20/1 118/21/1 119/13/1 120/18/1
f 121/18/1 122/13/1 123/10/1 124/9/1
f 125/20/1 126/21/1 127/13/1 128/18/1
f 129/18/1 130/13/1 131/10/1 132/9/1
f 133/20/1 134/21/1 135/13/1 136/18/1
f 137/21/1 138/22/1 139/14/1 140/13/1
f 141/23/1 142/24/1 143/17/1 144/16/1
f 145/20/1 146/21/1 147/13/1 148/18/1
f 149/20/1 150/21/1 151/13/1 152/18/1
f 153/20/1 154/21/1 155/13/1 156/18/1
f 157/20/1 158/21/1 159/13/1 160/18/1
f 161/20/1 162/21/1 163/13/1 164/18/1
f 165/20/1 166/21/1 167/13/1 168/18/1
f 169/25/1 170/26/1 171/22/1 172/21/1
f 173/27/1 174/28/1 175/24/1 176/23/1
f 177/28/1 178/29/1 179/30/1 180/24/1
f 181/28/1 182/29/1 183/30/1 184/24/1
f 185/28/1 186/29/1 187/30/1 188/24/1
f 189/28/1 190/29/1 191/30/1 192/24/1
f 193/28/1 194/29/1 195/30/1 196/24/1
f 197/29/1 198/31/1 199/25/1 200/30/1
f 201/31/1 202/32/1 203/26/1 204/25/1
f 205/4/1 206/3/1 207/33/1 208/34/1
f 209/4/1 210/3/1 211/33/1 212/34/1
f 213/4/1 214/3/1 215/33/1 216/34/1
f 217/4/1 218/3/1 219/33/1 220/34/1
f 221/4/1 222/3/1 223/33/1 224/34/1
f 225/4/1 226/3/1 227/33/1 228/34/1
f 229/4/1 230/3/1 231/33/1 232/34/1
f 233/4/1 234/3/1 235/33/1 236/34/1
f 237/1/1 238/2/1 239/3/1 240/4/1
f 241/1/1 242/2/1 243/3/1 244/4/1
f 245/1/1 246/2/1 247/3/1 248/4/1
f 249/1/1 250/2/1 251/3/1 252/4/1
f 253/1/1 254/2/1 255/3/1 256/4/1
f 257/1/1 258/2/1 259/3/1 260/4/1
f 261/1/1 262/2/1 263/3/1 264/4/1
f 265/1/1 266/2/1 267/3/1 268/4/1
f 269/9/1 270/10/1 271/11/1 272/12/1
f 273/9/1 274/10/1 275/11/1 276/12/1
f 277/13/1 278/14/1 279/15/1 280/10/1
f 281/5/1 282/6/1 283/7/1 284/8/1
f 285/9/1 286/10/1 287/11/1 288/12/1
f 289/9/1 290/10/1 291/11/1 292/12/1
f 293/9/1 294/10/1 295/11/1 296/12/1
f 297/9/1 298/10/1 299/11/1 300/12/1
f 301/9/1 302/10/1 303/11/1 304/12/1
f 305/5/1 306/6/1 307/7/1 308/8/1
f 309/9/1 310/10/1 311/11/1 312/12/1
f 313/9/1 314/10/1 315/11/1 316/12/1
f 317/9/1 318/10/1 319/11/1 320/12/1

