# Tiled2Unity generated file. Do not modify by hand.
# Wavefront file for 'escenaNorte_1_mesh_0232.obj'

# Vertices (Count = 12)
v -7 -7 0
v -8 -7 0
v -8 -6 0
v -7 -6 0
v -7 -8 0
v -8 -8 0
v -8 -7 0
v -7 -7 0
v -7 -9 0
v -8 -9 0
v -8 -8 0
v -7 -8 0

# Texture cooridinates (Count = 4)
vt 0.2089844 0.1145833
vt 0.2089844 0.2239583
vt 0.1679688 0.2239583
vt 0.1679688 0.1145833

# Normal
vn 0 0 -1

# Mesh description
g escenaNorte_1_mesh_0232

# Faces
f 1/1/1 2/2/1 3/3/1 4/4/1
f 5/4/1 6/1/1 7/2/1 8/3/1
f 9/4/1 10/1/1 11/2/1 12/3/1

