# Tiled2Unity generated file. Do not modify by hand.
# Wavefront file for 'escenaNorte_1_mesh_0118.obj'

# Vertices (Count = 704)
v 0 -6 0
v -1 -6 0
v -1 -5 0
v 0 -5 0
v -1 -6 0
v -2 -6 0
v -2 -5 0
v -1 -5 0
v -2 -6 0
v -3 -6 0
v -3 -5 0
v -2 -5 0
v -3 -6 0
v -4 -6 0
v -4 -5 0
v -3 -5 0
v -4 -6 0
v -5 -6 0
v -5 -5 0
v -4 -5 0
v -5 -6 0
v -6 -6 0
v -6 -5 0
v -5 -5 0
v -6 -6 0
v -7 -6 0
v -7 -5 0
v -6 -5 0
v -7 -6 0
v -8 -6 0
v -8 -5 0
v -7 -5 0
v -8 -6 0
v -9 -6 0
v -9 -5 0
v -8 -5 0
v -9 -6 0
v -10 -6 0
v -10 -5 0
v -9 -5 0
v -10 -6 0
v -11 -6 0
v -11 -5 0
v -10 -5 0
v -11 -6 0
v -12 -6 0
v -12 -5 0
v -11 -5 0
v -12 -6 0
v -13 -6 0
v -13 -5 0
v -12 -5 0
v -13 -6 0
v -14 -6 0
v -14 -5 0
v -13 -5 0
v -14 -6 0
v -15 -6 0
v -15 -5 0
v -14 -5 0
v -15 -6 0
v -16 -6 0
v -16 -5 0
v -15 -5 0
v 0 -7 0
v -1 -7 0
v -1 -6 0
v 0 -6 0
v -1 -7 0
v -2 -7 0
v -2 -6 0
v -1 -6 0
v -2 -7 0
v -3 -7 0
v -3 -6 0
v -2 -6 0
v -3 -7 0
v -4 -7 0
v -4 -6 0
v -3 -6 0
v -4 -7 0
v -5 -7 0
v -5 -6 0
v -4 -6 0
v -5 -7 0
v -6 -7 0
v -6 -6 0
v -5 -6 0
v -6 -7 0
v -7 -7 0
v -7 -6 0
v -6 -6 0
v -7 -7 0
v -8 -7 0
v -8 -6 0
v -7 -6 0
v -8 -7 0
v -9 -7 0
v -9 -6 0
v -8 -6 0
v -9 -7 0
v -10 -7 0
v -10 -6 0
v -9 -6 0
v -10 -7 0
v -11 -7 0
v -11 -6 0
v -10 -6 0
v -11 -7 0
v -12 -7 0
v -12 -6 0
v -11 -6 0
v -12 -7 0
v -13 -7 0
v -13 -6 0
v -12 -6 0
v -13 -7 0
v -14 -7 0
v -14 -6 0
v -13 -6 0
v -14 -7 0
v -15 -7 0
v -15 -6 0
v -14 -6 0
v -15 -7 0
v -16 -7 0
v -16 -6 0
v -15 -6 0
v 0 -8 0
v -1 -8 0
v -1 -7 0
v 0 -7 0
v -1 -8 0
v -2 -8 0
v -2 -7 0
v -1 -7 0
v -2 -8 0
v -3 -8 0
v -3 -7 0
v -2 -7 0
v -3 -8 0
v -4 -8 0
v -4 -7 0
v -3 -7 0
v -4 -8 0
v -5 -8 0
v -5 -7 0
v -4 -7 0
v -5 -8 0
v -6 -8 0
v -6 -7 0
v -5 -7 0
v -6 -8 0
v -7 -8 0
v -7 -7 0
v -6 -7 0
v -7 -8 0
v -8 -8 0
v -8 -7 0
v -7 -7 0
v -8 -8 0
v -9 -8 0
v -9 -7 0
v -8 -7 0
v -9 -8 0
v -10 -8 0
v -10 -7 0
v -9 -7 0
v -10 -8 0
v -11 -8 0
v -11 -7 0
v -10 -7 0
v -11 -8 0
v -12 -8 0
v -12 -7 0
v -11 -7 0
v -12 -8 0
v -13 -8 0
v -13 -7 0
v -12 -7 0
v -13 -8 0
v -14 -8 0
v -14 -7 0
v -13 -7 0
v -14 -8 0
v -15 -8 0
v -15 -7 0
v -14 -7 0
v -15 -8 0
v -16 -8 0
v -16 -7 0
v -15 -7 0
v 0 -9 0
v -1 -9 0
v -1 -8 0
v 0 -8 0
v -1 -9 0
v -2 -9 0
v -2 -8 0
v -1 -8 0
v -2 -9 0
v -3 -9 0
v -3 -8 0
v -2 -8 0
v -3 -9 0
v -4 -9 0
v -4 -8 0
v -3 -8 0
v -4 -9 0
v -5 -9 0
v -5 -8 0
v -4 -8 0
v -5 -9 0
v -6 -9 0
v -6 -8 0
v -5 -8 0
v -6 -9 0
v -7 -9 0
v -7 -8 0
v -6 -8 0
v -7 -9 0
v -8 -9 0
v -8 -8 0
v -7 -8 0
v -8 -9 0
v -9 -9 0
v -9 -8 0
v -8 -8 0
v -9 -9 0
v -10 -9 0
v -10 -8 0
v -9 -8 0
v -10 -9 0
v -11 -9 0
v -11 -8 0
v -10 -8 0
v -11 -9 0
v -12 -9 0
v -12 -8 0
v -11 -8 0
v -12 -9 0
v -13 -9 0
v -13 -8 0
v -12 -8 0
v -13 -9 0
v -14 -9 0
v -14 -8 0
v -13 -8 0
v -14 -9 0
v -15 -9 0
v -15 -8 0
v -14 -8 0
v -15 -9 0
v -16 -9 0
v -16 -8 0
v -15 -8 0
v 0 -10 0
v -1 -10 0
v -1 -9 0
v 0 -9 0
v -1 -10 0
v -2 -10 0
v -2 -9 0
v -1 -9 0
v -2 -10 0
v -3 -10 0
v -3 -9 0
v -2 -9 0
v -3 -10 0
v -4 -10 0
v -4 -9 0
v -3 -9 0
v -4 -10 0
v -5 -10 0
v -5 -9 0
v -4 -9 0
v -5 -10 0
v -6 -10 0
v -6 -9 0
v -5 -9 0
v -6 -10 0
v -7 -10 0
v -7 -9 0
v -6 -9 0
v -7 -10 0
v -8 -10 0
v -8 -9 0
v -7 -9 0
v -8 -10 0
v -9 -10 0
v -9 -9 0
v -8 -9 0
v -9 -10 0
v -10 -10 0
v -10 -9 0
v -9 -9 0
v -10 -10 0
v -11 -10 0
v -11 -9 0
v -10 -9 0
v -11 -10 0
v -12 -10 0
v -12 -9 0
v -11 -9 0
v -12 -10 0
v -13 -10 0
v -13 -9 0
v -12 -9 0
v -13 -10 0
v -14 -10 0
v -14 -9 0
v -13 -9 0
v -14 -10 0
v -15 -10 0
v -15 -9 0
v -14 -9 0
v -15 -10 0
v -16 -10 0
v -16 -9 0
v -15 -9 0
v 0 -11 0
v -1 -11 0
v -1 -10 0
v 0 -10 0
v -1 -11 0
v -2 -11 0
v -2 -10 0
v -1 -10 0
v -2 -11 0
v -3 -11 0
v -3 -10 0
v -2 -10 0
v -3 -11 0
v -4 -11 0
v -4 -10 0
v -3 -10 0
v -4 -11 0
v -5 -11 0
v -5 -10 0
v -4 -10 0
v -5 -11 0
v -6 -11 0
v -6 -10 0
v -5 -10 0
v -6 -11 0
v -7 -11 0
v -7 -10 0
v -6 -10 0
v -7 -11 0
v -8 -11 0
v -8 -10 0
v -7 -10 0
v -8 -11 0
v -9 -11 0
v -9 -10 0
v -8 -10 0
v -9 -11 0
v -10 -11 0
v -10 -10 0
v -9 -10 0
v -10 -11 0
v -11 -11 0
v -11 -10 0
v -10 -10 0
v -11 -11 0
v -12 -11 0
v -12 -10 0
v -11 -10 0
v -12 -11 0
v -13 -11 0
v -13 -10 0
v -12 -10 0
v -13 -11 0
v -14 -11 0
v -14 -10 0
v -13 -10 0
v -14 -11 0
v -15 -11 0
v -15 -10 0
v -14 -10 0
v -15 -11 0
v -16 -11 0
v -16 -10 0
v -15 -10 0
v 0 -12 0
v -1 -12 0
v -1 -11 0
v 0 -11 0
v -1 -12 0
v -2 -12 0
v -2 -11 0
v -1 -11 0
v -2 -12 0
v -3 -12 0
v -3 -11 0
v -2 -11 0
v -3 -12 0
v -4 -12 0
v -4 -11 0
v -3 -11 0
v -4 -12 0
v -5 -12 0
v -5 -11 0
v -4 -11 0
v -5 -12 0
v -6 -12 0
v -6 -11 0
v -5 -11 0
v -6 -12 0
v -7 -12 0
v -7 -11 0
v -6 -11 0
v -7 -12 0
v -8 -12 0
v -8 -11 0
v -7 -11 0
v -8 -12 0
v -9 -12 0
v -9 -11 0
v -8 -11 0
v -9 -12 0
v -10 -12 0
v -10 -11 0
v -9 -11 0
v -10 -12 0
v -11 -12 0
v -11 -11 0
v -10 -11 0
v -11 -12 0
v -12 -12 0
v -12 -11 0
v -11 -11 0
v -12 -12 0
v -13 -12 0
v -13 -11 0
v -12 -11 0
v -13 -12 0
v -14 -12 0
v -14 -11 0
v -13 -11 0
v -14 -12 0
v -15 -12 0
v -15 -11 0
v -14 -11 0
v -15 -12 0
v -16 -12 0
v -16 -11 0
v -15 -11 0
v 0 -13 0
v -1 -13 0
v -1 -12 0
v 0 -12 0
v -1 -13 0
v -2 -13 0
v -2 -12 0
v -1 -12 0
v -2 -13 0
v -3 -13 0
v -3 -12 0
v -2 -12 0
v -3 -13 0
v -4 -13 0
v -4 -12 0
v -3 -12 0
v -4 -13 0
v -5 -13 0
v -5 -12 0
v -4 -12 0
v -5 -13 0
v -6 -13 0
v -6 -12 0
v -5 -12 0
v -6 -13 0
v -7 -13 0
v -7 -12 0
v -6 -12 0
v -7 -13 0
v -8 -13 0
v -8 -12 0
v -7 -12 0
v -8 -13 0
v -9 -13 0
v -9 -12 0
v -8 -12 0
v -9 -13 0
v -10 -13 0
v -10 -12 0
v -9 -12 0
v -10 -13 0
v -11 -13 0
v -11 -12 0
v -10 -12 0
v -11 -13 0
v -12 -13 0
v -12 -12 0
v -11 -12 0
v -12 -13 0
v -13 -13 0
v -13 -12 0
v -12 -12 0
v -13 -13 0
v -14 -13 0
v -14 -12 0
v -13 -12 0
v -14 -13 0
v -15 -13 0
v -15 -12 0
v -14 -12 0
v -15 -13 0
v -16 -13 0
v -16 -12 0
v -15 -12 0
v 0 -14 0
v -1 -14 0
v -1 -13 0
v 0 -13 0
v -1 -14 0
v -2 -14 0
v -2 -13 0
v -1 -13 0
v -2 -14 0
v -3 -14 0
v -3 -13 0
v -2 -13 0
v -3 -14 0
v -4 -14 0
v -4 -13 0
v -3 -13 0
v -4 -14 0
v -5 -14 0
v -5 -13 0
v -4 -13 0
v -5 -14 0
v -6 -14 0
v -6 -13 0
v -5 -13 0
v -6 -14 0
v -7 -14 0
v -7 -13 0
v -6 -13 0
v -7 -14 0
v -8 -14 0
v -8 -13 0
v -7 -13 0
v -8 -14 0
v -9 -14 0
v -9 -13 0
v -8 -13 0
v -9 -14 0
v -10 -14 0
v -10 -13 0
v -9 -13 0
v -10 -14 0
v -11 -14 0
v -11 -13 0
v -10 -13 0
v -11 -14 0
v -12 -14 0
v -12 -13 0
v -11 -13 0
v -12 -14 0
v -13 -14 0
v -13 -13 0
v -12 -13 0
v -13 -14 0
v -14 -14 0
v -14 -13 0
v -13 -13 0
v -14 -14 0
v -15 -14 0
v -15 -13 0
v -14 -13 0
v -15 -14 0
v -16 -14 0
v -16 -13 0
v -15 -13 0
v 0 -15 0
v -1 -15 0
v -1 -14 0
v 0 -14 0
v -1 -15 0
v -2 -15 0
v -2 -14 0
v -1 -14 0
v -2 -15 0
v -3 -15 0
v -3 -14 0
v -2 -14 0
v -3 -15 0
v -4 -15 0
v -4 -14 0
v -3 -14 0
v -4 -15 0
v -5 -15 0
v -5 -14 0
v -4 -14 0
v -5 -15 0
v -6 -15 0
v -6 -14 0
v -5 -14 0
v -6 -15 0
v -7 -15 0
v -7 -14 0
v -6 -14 0
v -7 -15 0
v -8 -15 0
v -8 -14 0
v -7 -14 0
v -8 -15 0
v -9 -15 0
v -9 -14 0
v -8 -14 0
v -9 -15 0
v -10 -15 0
v -10 -14 0
v -9 -14 0
v -10 -15 0
v -11 -15 0
v -11 -14 0
v -10 -14 0
v -11 -15 0
v -12 -15 0
v -12 -14 0
v -11 -14 0
v -12 -15 0
v -13 -15 0
v -13 -14 0
v -12 -14 0
v -13 -15 0
v -14 -15 0
v -14 -14 0
v -13 -14 0
v -14 -15 0
v -15 -15 0
v -15 -14 0
v -14 -14 0
v -15 -15 0
v -16 -15 0
v -16 -14 0
v -15 -14 0
v 0 -16 0
v -1 -16 0
v -1 -15 0
v 0 -15 0
v -1 -16 0
v -2 -16 0
v -2 -15 0
v -1 -15 0
v -2 -16 0
v -3 -16 0
v -3 -15 0
v -2 -15 0
v -3 -16 0
v -4 -16 0
v -4 -15 0
v -3 -15 0
v -4 -16 0
v -5 -16 0
v -5 -15 0
v -4 -15 0
v -5 -16 0
v -6 -16 0
v -6 -15 0
v -5 -15 0
v -6 -16 0
v -7 -16 0
v -7 -15 0
v -6 -15 0
v -7 -16 0
v -8 -16 0
v -8 -15 0
v -7 -15 0
v -8 -16 0
v -9 -16 0
v -9 -15 0
v -8 -15 0
v -9 -16 0
v -10 -16 0
v -10 -15 0
v -9 -15 0
v -10 -16 0
v -11 -16 0
v -11 -15 0
v -10 -15 0
v -11 -16 0
v -12 -16 0
v -12 -15 0
v -11 -15 0
v -12 -16 0
v -13 -16 0
v -13 -15 0
v -12 -15 0
v -13 -16 0
v -14 -16 0
v -14 -15 0
v -13 -15 0
v -14 -16 0
v -15 -16 0
v -15 -15 0
v -14 -15 0
v -15 -16 0
v -16 -16 0
v -16 -15 0
v -15 -15 0

# Texture cooridinates (Count = 23)
vt 0.5742188 0.5898438
vt 0.6015625 0.5898438
vt 0.6015625 0.6171875
vt 0.5742188 0.6171875
vt 0.6289063 0.5898438
vt 0.6289063 0.6171875
vt 0.5742188 0.5625
vt 0.6015625 0.5625
vt 0.6289063 0.5625
vt 0.765625 0.9726563
vt 0.7929688 0.9726563
vt 0.7929688 1
vt 0.765625 1
vt 0.765625 0.9453125
vt 0.7929688 0.9453125
vt 0.765625 0.9179688
vt 0.7929688 0.9179688
vt 0.765625 0.890625
vt 0.7929688 0.890625
vt 0.765625 0.8632813
vt 0.7929688 0.8632813
vt 0.765625 0.8359375
vt 0.7929688 0.8359375

# Normal
vn 0 0 -1

# Mesh description
g escenaNorte_1_mesh_0118

# Faces
f 1/1/1 2/2/1 3/3/1 4/4/1
f 5/2/1 6/5/1 7/6/1 8/3/1
f 9/1/1 10/2/1 11/3/1 12/4/1
f 13/2/1 14/5/1 15/6/1 16/3/1
f 17/1/1 18/2/1 19/3/1 20/4/1
f 21/2/1 22/5/1 23/6/1 24/3/1
f 25/1/1 26/2/1 27/3/1 28/4/1
f 29/2/1 30/5/1 31/6/1 32/3/1
f 33/1/1 34/2/1 35/3/1 36/4/1
f 37/2/1 38/5/1 39/6/1 40/3/1
f 41/1/1 42/2/1 43/3/1 44/4/1
f 45/2/1 46/5/1 47/6/1 48/3/1
f 49/1/1 50/2/1 51/3/1 52/4/1
f 53/2/1 54/5/1 55/6/1 56/3/1
f 57/1/1 58/2/1 59/3/1 60/4/1
f 61/1/1 62/2/1 63/3/1 64/4/1
f 65/7/1 66/8/1 67/2/1 68/1/1
f 69/8/1 70/9/1 71/5/1 72/2/1
f 73/7/1 74/8/1 75/2/1 76/1/1
f 77/8/1 78/9/1 79/5/1 80/2/1
f 81/7/1 82/8/1 83/2/1 84/1/1
f 85/8/1 86/9/1 87/5/1 88/2/1
f 89/7/1 90/8/1 91/2/1 92/1/1
f 93/8/1 94/9/1 95/5/1 96/2/1
f 97/7/1 98/8/1 99/2/1 100/1/1
f 101/8/1 102/9/1 103/5/1 104/2/1
f 105/7/1 106/8/1 107/2/1 108/1/1
f 109/8/1 110/9/1 111/5/1 112/2/1
f 113/7/1 114/8/1 115/2/1 116/1/1
f 117/8/1 118/9/1 119/5/1 120/2/1
f 121/7/1 122/8/1 123/2/1 124/1/1
f 125/7/1 126/8/1 127/2/1 128/1/1
f 129/10/1 130/11/1 131/12/1 132/13/1
f 133/10/1 134/11/1 135/12/1 136/13/1
f 137/10/1 138/11/1 139/12/1 140/13/1
f 141/10/1 142/11/1 143/12/1 144/13/1
f 145/10/1 146/11/1 147/12/1 148/13/1
f 149/10/1 150/11/1 151/12/1 152/13/1
f 153/10/1 154/11/1 155/12/1 156/13/1
f 157/10/1 158/11/1 159/12/1 160/13/1
f 161/10/1 162/11/1 163/12/1 164/13/1
f 165/10/1 166/11/1 167/12/1 168/13/1
f 169/10/1 170/11/1 171/12/1 172/13/1
f 173/10/1 174/11/1 175/12/1 176/13/1
f 177/10/1 178/11/1 179/12/1 180/13/1
f 181/10/1 182/11/1 183/12/1 184/13/1
f 185/10/1 186/11/1 187/12/1 188/13/1
f 189/10/1 190/11/1 191/12/1 192/13/1
f 193/14/1 194/15/1 195/11/1 196/10/1
f 197/14/1 198/15/1 199/11/1 200/10/1
f 201/14/1 202/15/1 203/11/1 204/10/1
f 205/14/1 206/15/1 207/11/1 208/10/1
f 209/14/1 210/15/1 211/11/1 212/10/1
f 213/14/1 214/15/1 215/11/1 216/10/1
f 217/14/1 218/15/1 219/11/1 220/10/1
f 221/14/1 222/15/1 223/11/1 224/10/1
f 225/14/1 226/15/1 227/11/1 228/10/1
f 229/14/1 230/15/1 231/11/1 232/10/1
f 233/14/1 234/15/1 235/11/1 236/10/1
f 237/14/1 238/15/1 239/11/1 240/10/1
f 241/14/1 242/15/1 243/11/1 244/10/1
f 245/14/1 246/15/1 247/11/1 248/10/1
f 249/14/1 250/15/1 251/11/1 252/10/1
f 253/14/1 254/15/1 255/11/1 256/10/1
f 257/16/1 258/17/1 259/15/1 260/14/1
f 261/16/1 262/17/1 263/15/1 264/14/1
f 265/16/1 266/17/1 267/15/1 268/14/1
f 269/16/1 270/17/1 271/15/1 272/14/1
f 273/14/1 274/15/1 275/11/1 276/10/1
f 277/14/1 278/15/1 279/11/1 280/10/1
f 281/14/1 282/15/1 283/11/1 284/10/1
f 285/14/1 286/15/1 287/11/1 288/10/1
f 289/14/1 290/15/1 291/11/1 292/10/1
f 293/16/1 294/17/1 295/15/1 296/14/1
f 297/16/1 298/17/1 299/15/1 300/14/1
f 301/16/1 302/17/1 303/15/1 304/14/1
f 305/16/1 306/17/1 307/15/1 308/14/1
f 309/14/1 310/15/1 311/11/1 312/10/1
f 313/14/1 314/15/1 315/11/1 316/10/1
f 317/14/1 318/15/1 319/11/1 320/10/1
f 321/18/1 322/19/1 323/17/1 324/16/1
f 325/18/1 326/19/1 327/17/1 328/16/1
f 329/18/1 330/19/1 331/17/1 332/16/1
f 333/18/1 334/19/1 335/17/1 336/16/1
f 337/16/1 338/17/1 339/15/1 340/14/1
f 341/14/1 342/15/1 343/11/1 344/10/1
f 345/14/1 346/15/1 347/11/1 348/10/1
f 349/14/1 350/15/1 351/11/1 352/10/1
f 353/16/1 354/17/1 355/15/1 356/14/1
f 357/18/1 358/19/1 359/17/1 360/16/1
f 361/18/1 362/19/1 363/17/1 364/16/1
f 365/18/1 366/19/1 367/17/1 368/16/1
f 369/18/1 370/19/1 371/17/1 372/16/1
f 373/16/1 374/17/1 375/15/1 376/14/1
f 377/16/1 378/17/1 379/15/1 380/14/1
f 381/16/1 382/17/1 383/15/1 384/14/1
f 385/18/1 386/19/1 387/17/1 388/16/1
f 389/18/1 390/19/1 391/17/1 392/16/1
f 393/18/1 394/19/1 395/17/1 396/16/1
f 397/14/1 398/15/1 399/11/1 400/10/1
f 401/14/1 402/15/1 403/11/1 404/10/1
f 405/14/1 406/15/1 407/11/1 408/10/1
f 409/14/1 410/15/1 411/11/1 412/10/1
f 413/14/1 414/15/1 415/11/1 416/10/1
f 417/14/1 418/15/1 419/11/1 420/10/1
f 421/18/1 422/19/1 423/17/1 424/16/1
f 425/18/1 426/19/1 427/17/1 428/16/1
f 429/18/1 430/19/1 431/17/1 432/16/1
f 433/18/1 434/19/1 435/17/1 436/16/1
f 437/18/1 438/19/1 439/17/1 440/16/1
f 441/18/1 442/19/1 443/17/1 444/16/1
f 445/18/1 446/19/1 447/17/1 448/16/1
f 449/18/1 450/19/1 451/17/1 452/16/1
f 453/18/1 454/19/1 455/17/1 456/16/1
f 457/18/1 458/19/1 459/17/1 460/16/1
f 461/16/1 462/17/1 463/15/1 464/14/1
f 465/16/1 466/17/1 467/15/1 468/14/1
f 469/16/1 470/17/1 471/15/1 472/14/1
f 473/16/1 474/17/1 475/15/1 476/14/1
f 477/16/1 478/17/1 479/15/1 480/14/1
f 481/16/1 482/17/1 483/15/1 484/14/1
f 485/18/1 486/19/1 487/17/1 488/16/1
f 489/18/1 490/19/1 491/17/1 492/16/1
f 493/18/1 494/19/1 495/17/1 496/16/1
f 497/18/1 498/19/1 499/17/1 500/16/1
f 501/16/1 502/17/1 503/15/1 504/14/1
f 505/16/1 506/17/1 507/15/1 508/14/1
f 509/16/1 510/17/1 511/15/1 512/14/1
f 513/18/1 514/19/1 515/17/1 516/16/1
f 517/18/1 518/19/1 519/17/1 520/16/1
f 521/18/1 522/19/1 523/17/1 524/16/1
f 525/18/1 526/19/1 527/17/1 528/16/1
f 529/18/1 530/19/1 531/17/1 532/16/1
f 533/18/1 534/19/1 535/17/1 536/16/1
f 537/18/1 538/19/1 539/17/1 540/16/1
f 541/18/1 542/19/1 543/17/1 544/16/1
f 545/18/1 546/19/1 547/17/1 548/16/1
f 549/18/1 550/19/1 551/17/1 552/16/1
f 553/18/1 554/19/1 555/17/1 556/16/1
f 557/18/1 558/19/1 559/17/1 560/16/1
f 561/18/1 562/19/1 563/17/1 564/16/1
f 565/18/1 566/19/1 567/17/1 568/16/1
f 569/18/1 570/19/1 571/17/1 572/16/1
f 573/18/1 574/19/1 575/17/1 576/16/1
f 577/20/1 578/21/1 579/19/1 580/18/1
f 581/20/1 582/21/1 583/19/1 584/18/1
f 585/20/1 586/21/1 587/19/1 588/18/1
f 589/20/1 590/21/1 591/19/1 592/18/1
f 593/20/1 594/21/1 595/19/1 596/18/1
f 597/20/1 598/21/1 599/19/1 600/18/1
f 601/20/1 602/21/1 603/19/1 604/18/1
f 605/20/1 606/21/1 607/19/1 608/18/1
f 609/20/1 610/21/1 611/19/1 612/18/1
f 613/20/1 614/21/1 615/19/1 616/18/1
f 617/20/1 618/21/1 619/19/1 620/18/1
f 621/20/1 622/21/1 623/19/1 624/18/1
f 625/20/1 626/21/1 627/19/1 628/18/1
f 629/20/1 630/21/1 631/19/1 632/18/1
f 633/20/1 634/21/1 635/19/1 636/18/1
f 637/20/1 638/21/1 639/19/1 640/18/1
f 641/22/1 642/23/1 643/21/1 644/20/1
f 645/22/1 646/23/1 647/21/1 648/20/1
f 649/22/1 650/23/1 651/21/1 652/20/1
f 653/22/1 654/23/1 655/21/1 656/20/1
f 657/22/1 658/23/1 659/21/1 660/20/1
f 661/22/1 662/23/1 663/21/1 664/20/1
f 665/22/1 666/23/1 667/21/1 668/20/1
f 669/22/1 670/23/1 671/21/1 672/20/1
f 673/22/1 674/23/1 675/21/1 676/20/1
f 677/22/1 678/23/1 679/21/1 680/20/1
f 681/22/1 682/23/1 683/21/1 684/20/1
f 685/22/1 686/23/1 687/21/1 688/20/1
f 689/22/1 690/23/1 691/21/1 692/20/1
f 693/22/1 694/23/1 695/21/1 696/20/1
f 697/22/1 698/23/1 699/21/1 700/20/1
f 701/22/1 702/23/1 703/21/1 704/20/1

