# Tiled2Unity generated file. Do not modify by hand.
# Wavefront file for 'escenaNorte_1_mesh_0167.obj'

# Vertices (Count = 176)
v -2 -1 0
v -3 -1 0
v -3 0 0
v -2 0 0
v -13 -1 0
v -14 -1 0
v -14 0 0
v -13 0 0
v -2 -2 0
v -3 -2 0
v -3 -1 0
v -2 -1 0
v -13 -2 0
v -14 -2 0
v -14 -1 0
v -13 -1 0
v -2 -3 0
v -3 -3 0
v -3 -2 0
v -2 -2 0
v -13 -3 0
v -14 -3 0
v -14 -2 0
v -13 -2 0
v -2 -4 0
v -3 -4 0
v -3 -3 0
v -2 -3 0
v -13 -4 0
v -14 -4 0
v -14 -3 0
v -13 -3 0
v -2 -5 0
v -3 -5 0
v -3 -4 0
v -2 -4 0
v -13 -5 0
v -14 -5 0
v -14 -4 0
v -13 -4 0
v -2 -6 0
v -3 -6 0
v -3 -5 0
v -2 -5 0
v -13 -6 0
v -14 -6 0
v -14 -5 0
v -13 -5 0
v -2 -7 0
v -3 -7 0
v -3 -6 0
v -2 -6 0
v -13 -7 0
v -14 -7 0
v -14 -6 0
v -13 -6 0
v -2 -8 0
v -3 -8 0
v -3 -7 0
v -2 -7 0
v -13 -8 0
v -14 -8 0
v -14 -7 0
v -13 -7 0
v -2 -9 0
v -3 -9 0
v -3 -8 0
v -2 -8 0
v -13 -9 0
v -14 -9 0
v -14 -8 0
v -13 -8 0
v -2 -10 0
v -3 -10 0
v -3 -9 0
v -2 -9 0
v -13 -10 0
v -14 -10 0
v -14 -9 0
v -13 -9 0
v 0 -11 0
v -1 -11 0
v -1 -10 0
v 0 -10 0
v -1 -11 0
v -2 -11 0
v -2 -10 0
v -1 -10 0
v -3 -11 0
v -4 -11 0
v -4 -10 0
v -3 -10 0
v -4 -11 0
v -5 -11 0
v -5 -10 0
v -4 -10 0
v -5 -11 0
v -6 -11 0
v -6 -10 0
v -5 -10 0
v -6 -11 0
v -7 -11 0
v -7 -10 0
v -6 -10 0
v -7 -11 0
v -8 -11 0
v -8 -10 0
v -7 -10 0
v -8 -11 0
v -9 -11 0
v -9 -10 0
v -8 -10 0
v -9 -11 0
v -10 -11 0
v -10 -10 0
v -9 -10 0
v -10 -11 0
v -11 -11 0
v -11 -10 0
v -10 -10 0
v -11 -11 0
v -12 -11 0
v -12 -10 0
v -11 -10 0
v -12 -11 0
v -13 -11 0
v -13 -10 0
v -12 -10 0
v -14 -11 0
v -15 -11 0
v -15 -10 0
v -14 -10 0
v -15 -11 0
v -16 -11 0
v -16 -10 0
v -15 -10 0
v -2 -12 0
v -3 -12 0
v -3 -11 0
v -2 -11 0
v -13 -12 0
v -14 -12 0
v -14 -11 0
v -13 -11 0
v -2 -13 0
v -3 -13 0
v -3 -12 0
v -2 -12 0
v -13 -13 0
v -14 -13 0
v -14 -12 0
v -13 -12 0
v -2 -14 0
v -3 -14 0
v -3 -13 0
v -2 -13 0
v -13 -14 0
v -14 -14 0
v -14 -13 0
v -13 -13 0
v -2 -15 0
v -3 -15 0
v -3 -14 0
v -2 -14 0
v -13 -15 0
v -14 -15 0
v -14 -14 0
v -13 -14 0
v -2 -16 0
v -3 -16 0
v -3 -15 0
v -2 -15 0
v -13 -16 0
v -14 -16 0
v -14 -15 0
v -13 -15 0

# Texture cooridinates (Count = 4)
vt 0.5839844 0.9739583
vt 0.5429688 0.9739583
vt 0.5429688 0.8645833
vt 0.5839844 0.8645833

# Normal
vn 0 0 -1

# Mesh description
g escenaNorte_1_mesh_0167

# Faces
f 1/1/1 2/2/1 3/3/1 4/4/1
f 5/1/1 6/2/1 7/3/1 8/4/1
f 9/1/1 10/2/1 11/3/1 12/4/1
f 13/1/1 14/2/1 15/3/1 16/4/1
f 17/1/1 18/2/1 19/3/1 20/4/1
f 21/1/1 22/2/1 23/3/1 24/4/1
f 25/1/1 26/2/1 27/3/1 28/4/1
f 29/1/1 30/2/1 31/3/1 32/4/1
f 33/1/1 34/2/1 35/3/1 36/4/1
f 37/1/1 38/2/1 39/3/1 40/4/1
f 41/1/1 42/2/1 43/3/1 44/4/1
f 45/1/1 46/2/1 47/3/1 48/4/1
f 49/1/1 50/2/1 51/3/1 52/4/1
f 53/1/1 54/2/1 55/3/1 56/4/1
f 57/1/1 58/2/1 59/3/1 60/4/1
f 61/1/1 62/2/1 63/3/1 64/4/1
f 65/1/1 66/2/1 67/3/1 68/4/1
f 69/1/1 70/2/1 71/3/1 72/4/1
f 73/1/1 74/2/1 75/3/1 76/4/1
f 77/1/1 78/2/1 79/3/1 80/4/1
f 81/2/1 82/3/1 83/4/1 84/1/1
f 85/2/1 86/3/1 87/4/1 88/1/1
f 89/2/1 90/3/1 91/4/1 92/1/1
f 93/2/1 94/3/1 95/4/1 96/1/1
f 97/2/1 98/3/1 99/4/1 100/1/1
f 101/2/1 102/3/1 103/4/1 104/1/1
f 105/2/1 106/3/1 107/4/1 108/1/1
f 109/2/1 110/3/1 111/4/1 112/1/1
f 113/2/1 114/3/1 115/4/1 116/1/1
f 117/2/1 118/3/1 119/4/1 120/1/1
f 121/2/1 122/3/1 123/4/1 124/1/1
f 125/2/1 126/3/1 127/4/1 128/1/1
f 129/2/1 130/3/1 131/4/1 132/1/1
f 133/2/1 134/3/1 135/4/1 136/1/1
f 137/1/1 138/2/1 139/3/1 140/4/1
f 141/1/1 142/2/1 143/3/1 144/4/1
f 145/1/1 146/2/1 147/3/1 148/4/1
f 149/1/1 150/2/1 151/3/1 152/4/1
f 153/1/1 154/2/1 155/3/1 156/4/1
f 157/1/1 158/2/1 159/3/1 160/4/1
f 161/1/1 162/2/1 163/3/1 164/4/1
f 165/1/1 166/2/1 167/3/1 168/4/1
f 169/1/1 170/2/1 171/3/1 172/4/1
f 173/1/1 174/2/1 175/3/1 176/4/1

