# Tiled2Unity generated file. Do not modify by hand.
# Wavefront file for 'escenaNorte_1_mesh_0089.obj'

# Vertices (Count = 168)
v -2 -1 0
v -3 -1 0
v -3 0 0
v -2 0 0
v -3 -1 0
v -4 -1 0
v -4 0 0
v -3 0 0
v 0 -2 0
v -1 -2 0
v -1 -1 0
v 0 -1 0
v -2 -2 0
v -3 -2 0
v -3 -1 0
v -2 -1 0
v -3 -2 0
v -4 -2 0
v -4 -1 0
v -3 -1 0
v 0 -3 0
v -1 -3 0
v -1 -2 0
v 0 -2 0
v 0 -4 0
v -1 -4 0
v -1 -3 0
v 0 -3 0
v 0 -5 0
v -1 -5 0
v -1 -4 0
v 0 -4 0
v -1 -5 0
v -2 -5 0
v -2 -4 0
v -1 -4 0
v -4 -5 0
v -5 -5 0
v -5 -4 0
v -4 -4 0
v -5 -5 0
v -6 -5 0
v -6 -4 0
v -5 -4 0
v -6 -5 0
v -7 -5 0
v -7 -4 0
v -6 -4 0
v -10 -5 0
v -11 -5 0
v -11 -4 0
v -10 -4 0
v -11 -5 0
v -12 -5 0
v -12 -4 0
v -11 -4 0
v -12 -5 0
v -13 -5 0
v -13 -4 0
v -12 -4 0
v -13 -5 0
v -14 -5 0
v -14 -4 0
v -13 -4 0
v -14 -5 0
v -15 -5 0
v -15 -4 0
v -14 -4 0
v -15 -5 0
v -16 -5 0
v -16 -4 0
v -15 -4 0
v 0 -6 0
v -1 -6 0
v -1 -5 0
v 0 -5 0
v -1 -6 0
v -2 -6 0
v -2 -5 0
v -1 -5 0
v -4 -6 0
v -5 -6 0
v -5 -5 0
v -4 -5 0
v -5 -6 0
v -6 -6 0
v -6 -5 0
v -5 -5 0
v -6 -6 0
v -7 -6 0
v -7 -5 0
v -6 -5 0
v -10 -6 0
v -11 -6 0
v -11 -5 0
v -10 -5 0
v -11 -6 0
v -12 -6 0
v -12 -5 0
v -11 -5 0
v -12 -6 0
v -13 -6 0
v -13 -5 0
v -12 -5 0
v -13 -6 0
v -14 -6 0
v -14 -5 0
v -13 -5 0
v -14 -6 0
v -15 -6 0
v -15 -5 0
v -14 -5 0
v -15 -6 0
v -16 -6 0
v -16 -5 0
v -15 -5 0
v 0 -16 0
v -1 -16 0
v -1 -15 0
v 0 -15 0
v -1 -16 0
v -2 -16 0
v -2 -15 0
v -1 -15 0
v -2 -16 0
v -3 -16 0
v -3 -15 0
v -2 -15 0
v -3 -16 0
v -4 -16 0
v -4 -15 0
v -3 -15 0
v -4 -16 0
v -5 -16 0
v -5 -15 0
v -4 -15 0
v -5 -16 0
v -6 -16 0
v -6 -15 0
v -5 -15 0
v -6 -16 0
v -7 -16 0
v -7 -15 0
v -6 -15 0
v -10 -16 0
v -11 -16 0
v -11 -15 0
v -10 -15 0
v -11 -16 0
v -12 -16 0
v -12 -15 0
v -11 -15 0
v -12 -16 0
v -13 -16 0
v -13 -15 0
v -12 -15 0
v -13 -16 0
v -14 -16 0
v -14 -15 0
v -13 -15 0
v -14 -16 0
v -15 -16 0
v -15 -15 0
v -14 -15 0
v -15 -16 0
v -16 -16 0
v -16 -15 0
v -15 -15 0

# Texture cooridinates (Count = 38)
vt 0.1914063 0.5351563
vt 0.21875 0.5351563
vt 0.21875 0.5625
vt 0.1914063 0.5625
vt 0.2460938 0.5351563
vt 0.2460938 0.5625
vt 0.4101563 0.453125
vt 0.4375 0.453125
vt 0.4375 0.4804688
vt 0.4101563 0.4804688
vt 0.1914063 0.5078125
vt 0.21875 0.5078125
vt 0.2460938 0.5078125
vt 0.4101563 0.4257813
vt 0.4375 0.4257813
vt 0.4101563 0.3984375
vt 0.4375 0.3984375
vt 0.765625 0.04296875
vt 0.7929688 0.04296875
vt 0.7929688 0.0703125
vt 0.765625 0.0703125
vt 0.8203125 0.04296875
vt 0.8203125 0.0703125
vt 0.7382813 0.04296875
vt 0.7382813 0.0703125
vt 0.5742188 0.5898438
vt 0.6015625 0.5898438
vt 0.6015625 0.6171875
vt 0.5742188 0.6171875
vt 0.6289063 0.5898438
vt 0.6289063 0.6171875
vt 0.765625 0.015625
vt 0.7929688 0.015625
vt 0.8203125 0.015625
vt 0.7382813 0.015625
vt 0.5742188 0.5625
vt 0.6015625 0.5625
vt 0.6289063 0.5625

# Normal
vn 0 0 -1

# Mesh description
g escenaNorte_1_mesh_0089

# Faces
f 1/1/1 2/2/1 3/3/1 4/4/1
f 5/2/1 6/5/1 7/6/1 8/3/1
f 9/7/1 10/8/1 11/9/1 12/10/1
f 13/11/1 14/12/1 15/2/1 16/1/1
f 17/12/1 18/13/1 19/5/1 20/2/1
f 21/14/1 22/15/1 23/8/1 24/7/1
f 25/16/1 26/17/1 27/15/1 28/14/1
f 29/18/1 30/19/1 31/20/1 32/21/1
f 33/19/1 34/22/1 35/23/1 36/20/1
f 37/24/1 38/18/1 39/21/1 40/25/1
f 41/18/1 42/19/1 43/20/1 44/21/1
f 45/19/1 46/22/1 47/23/1 48/20/1
f 49/26/1 50/27/1 51/28/1 52/29/1
f 53/27/1 54/30/1 55/31/1 56/28/1
f 57/26/1 58/27/1 59/28/1 60/29/1
f 61/27/1 62/30/1 63/31/1 64/28/1
f 65/26/1 66/27/1 67/28/1 68/29/1
f 69/27/1 70/30/1 71/31/1 72/28/1
f 73/32/1 74/33/1 75/19/1 76/18/1
f 77/33/1 78/34/1 79/22/1 80/19/1
f 81/35/1 82/32/1 83/18/1 84/24/1
f 85/32/1 86/33/1 87/19/1 88/18/1
f 89/33/1 90/34/1 91/22/1 92/19/1
f 93/36/1 94/37/1 95/27/1 96/26/1
f 97/37/1 98/38/1 99/30/1 100/27/1
f 101/36/1 102/37/1 103/27/1 104/26/1
f 105/37/1 106/38/1 107/30/1 108/27/1
f 109/36/1 110/37/1 111/27/1 112/26/1
f 113/37/1 114/38/1 115/30/1 116/27/1
f 117/27/1 118/30/1 119/31/1 120/28/1
f 121/26/1 122/27/1 123/28/1 124/29/1
f 125/27/1 126/30/1 127/31/1 128/28/1
f 129/26/1 130/27/1 131/28/1 132/29/1
f 133/27/1 134/30/1 135/31/1 136/28/1
f 137/26/1 138/27/1 139/28/1 140/29/1
f 141/27/1 142/30/1 143/31/1 144/28/1
f 145/26/1 146/27/1 147/28/1 148/29/1
f 149/27/1 150/30/1 151/31/1 152/28/1
f 153/26/1 154/27/1 155/28/1 156/29/1
f 157/27/1 158/30/1 159/31/1 160/28/1
f 161/26/1 162/27/1 163/28/1 164/29/1
f 165/27/1 166/30/1 167/31/1 168/28/1

