# Tiled2Unity generated file. Do not modify by hand.
# Wavefront file for 'escenaNorte_1_mesh_0023.obj'

# Vertices (Count = 248)
v -5 -1 0
v -6 -1 0
v -6 0 0
v -5 0 0
v -6 -1 0
v -7 -1 0
v -7 0 0
v -6 0 0
v -7 -1 0
v -8 -1 0
v -8 0 0
v -7 0 0
v -8 -1 0
v -9 -1 0
v -9 0 0
v -8 0 0
v -9 -1 0
v -10 -1 0
v -10 0 0
v -9 0 0
v -10 -1 0
v -11 -1 0
v -11 0 0
v -10 0 0
v -11 -1 0
v -12 -1 0
v -12 0 0
v -11 0 0
v -12 -1 0
v -13 -1 0
v -13 0 0
v -12 0 0
v -5 -2 0
v -6 -2 0
v -6 -1 0
v -5 -1 0
v -6 -2 0
v -7 -2 0
v -7 -1 0
v -6 -1 0
v -7 -2 0
v -8 -2 0
v -8 -1 0
v -7 -1 0
v -8 -2 0
v -9 -2 0
v -9 -1 0
v -8 -1 0
v -9 -2 0
v -10 -2 0
v -10 -1 0
v -9 -1 0
v -10 -2 0
v -11 -2 0
v -11 -1 0
v -10 -1 0
v -11 -2 0
v -12 -2 0
v -12 -1 0
v -11 -1 0
v -12 -2 0
v -13 -2 0
v -13 -1 0
v -12 -1 0
v -5 -3 0
v -6 -3 0
v -6 -2 0
v -5 -2 0
v -6 -3 0
v -7 -3 0
v -7 -2 0
v -6 -2 0
v -7 -3 0
v -8 -3 0
v -8 -2 0
v -7 -2 0
v -8 -3 0
v -9 -3 0
v -9 -2 0
v -8 -2 0
v -9 -3 0
v -10 -3 0
v -10 -2 0
v -9 -2 0
v -10 -3 0
v -11 -3 0
v -11 -2 0
v -10 -2 0
v -11 -3 0
v -12 -3 0
v -12 -2 0
v -11 -2 0
v -12 -3 0
v -13 -3 0
v -13 -2 0
v -12 -2 0
v -5 -4 0
v -6 -4 0
v -6 -3 0
v -5 -3 0
v -6 -4 0
v -7 -4 0
v -7 -3 0
v -6 -3 0
v -7 -4 0
v -8 -4 0
v -8 -3 0
v -7 -3 0
v -8 -4 0
v -9 -4 0
v -9 -3 0
v -8 -3 0
v -9 -4 0
v -10 -4 0
v -10 -3 0
v -9 -3 0
v -10 -4 0
v -11 -4 0
v -11 -3 0
v -10 -3 0
v -11 -4 0
v -12 -4 0
v -12 -3 0
v -11 -3 0
v -12 -4 0
v -13 -4 0
v -13 -3 0
v -12 -3 0
v -5 -5 0
v -6 -5 0
v -6 -4 0
v -5 -4 0
v -6 -5 0
v -7 -5 0
v -7 -4 0
v -6 -4 0
v -7 -5 0
v -8 -5 0
v -8 -4 0
v -7 -4 0
v -8 -5 0
v -9 -5 0
v -9 -4 0
v -8 -4 0
v -9 -5 0
v -10 -5 0
v -10 -4 0
v -9 -4 0
v -10 -5 0
v -11 -5 0
v -11 -4 0
v -10 -4 0
v -11 -5 0
v -12 -5 0
v -12 -4 0
v -11 -4 0
v -12 -5 0
v -13 -5 0
v -13 -4 0
v -12 -4 0
v -5 -6 0
v -6 -6 0
v -6 -5 0
v -5 -5 0
v -6 -6 0
v -7 -6 0
v -7 -5 0
v -6 -5 0
v -7 -6 0
v -8 -6 0
v -8 -5 0
v -7 -5 0
v -8 -6 0
v -9 -6 0
v -9 -5 0
v -8 -5 0
v -9 -6 0
v -10 -6 0
v -10 -5 0
v -9 -5 0
v -10 -6 0
v -11 -6 0
v -11 -5 0
v -10 -5 0
v -11 -6 0
v -12 -6 0
v -12 -5 0
v -11 -5 0
v -12 -6 0
v -13 -6 0
v -13 -5 0
v -12 -5 0
v 0 -10 0
v -1 -10 0
v -1 -9 0
v 0 -9 0
v -1 -10 0
v -2 -10 0
v -2 -9 0
v -1 -9 0
v 0 -11 0
v -1 -11 0
v -1 -10 0
v 0 -10 0
v -1 -11 0
v -2 -11 0
v -2 -10 0
v -1 -10 0
v 0 -12 0
v -1 -12 0
v -1 -11 0
v 0 -11 0
v -1 -12 0
v -2 -12 0
v -2 -11 0
v -1 -11 0
v 0 -13 0
v -1 -13 0
v -1 -12 0
v 0 -12 0
v -1 -13 0
v -2 -13 0
v -2 -12 0
v -1 -12 0
v 0 -14 0
v -1 -14 0
v -1 -13 0
v 0 -13 0
v -1 -14 0
v -2 -14 0
v -2 -13 0
v -1 -13 0
v 0 -15 0
v -1 -15 0
v -1 -14 0
v 0 -14 0
v -1 -15 0
v -2 -15 0
v -2 -14 0
v -1 -14 0
v 0 -16 0
v -1 -16 0
v -1 -15 0
v 0 -15 0
v -1 -16 0
v -2 -16 0
v -2 -15 0
v -1 -15 0

# Texture cooridinates (Count = 39)
vt 0.7109375 0.890625
vt 0.7382813 0.890625
vt 0.7382813 0.9179688
vt 0.7109375 0.9179688
vt 0.765625 0.890625
vt 0.765625 0.9179688
vt 0.7929688 0.890625
vt 0.7929688 0.9179688
vt 0.7929688 0.9453125
vt 0.765625 0.9453125
vt 0.8203125 0.9179688
vt 0.8203125 0.9453125
vt 0.8203125 0.890625
vt 0.8476563 0.890625
vt 0.8476563 0.9179688
vt 0.7109375 0.8632813
vt 0.7382813 0.8632813
vt 0.765625 0.8632813
vt 0.7929688 0.8632813
vt 0.8203125 0.8632813
vt 0.8476563 0.8632813
vt 0.7109375 0.8359375
vt 0.7382813 0.8359375
vt 0.765625 0.8359375
vt 0.7929688 0.8359375
vt 0.8203125 0.8359375
vt 0.8476563 0.8359375
vt 0.9023438 0.09765625
vt 0.9296875 0.09765625
vt 0.9296875 0.125
vt 0.9023438 0.125
vt 0.9570313 0.09765625
vt 0.9570313 0.125
vt 0.984375 0.09765625
vt 0.984375 0.125
vt 0.8203125 0.9726563
vt 0.7929688 0.9726563
vt 0.8476563 0.9453125
vt 0.8476563 0.9726563

# Normal
vn 0 0 -1

# Mesh description
g escenaNorte_1_mesh_0023

# Faces
f 1/1/1 2/2/1 3/3/1 4/4/1
f 5/2/1 6/5/1 7/6/1 8/3/1
f 9/5/1 10/7/1 11/8/1 12/6/1
f 13/6/1 14/8/1 15/9/1 16/10/1
f 17/6/1 18/8/1 19/9/1 20/10/1
f 21/6/1 22/8/1 23/9/1 24/10/1
f 25/8/1 26/11/1 27/12/1 28/9/1
f 29/13/1 30/14/1 31/15/1 32/11/1
f 33/16/1 34/17/1 35/2/1 36/1/1
f 37/17/1 38/18/1 39/5/1 40/2/1
f 41/18/1 42/19/1 43/7/1 44/5/1
f 45/18/1 46/19/1 47/7/1 48/5/1
f 49/18/1 50/19/1 51/7/1 52/5/1
f 53/18/1 54/19/1 55/7/1 56/5/1
f 57/19/1 58/20/1 59/13/1 60/7/1
f 61/20/1 62/21/1 63/14/1 64/13/1
f 65/22/1 66/23/1 67/17/1 68/16/1
f 69/23/1 70/24/1 71/18/1 72/17/1
f 73/24/1 74/25/1 75/19/1 76/18/1
f 77/24/1 78/25/1 79/19/1 80/18/1
f 81/24/1 82/25/1 83/19/1 84/18/1
f 85/24/1 86/25/1 87/19/1 88/18/1
f 89/25/1 90/26/1 91/20/1 92/19/1
f 93/26/1 94/27/1 95/21/1 96/20/1
f 97/28/1 98/29/1 99/30/1 100/31/1
f 101/28/1 102/29/1 103/30/1 104/31/1
f 105/28/1 106/29/1 107/30/1 108/31/1
f 109/28/1 110/29/1 111/30/1 112/31/1
f 113/28/1 114/29/1 115/30/1 116/31/1
f 117/28/1 118/29/1 119/30/1 120/31/1
f 121/29/1 122/32/1 123/33/1 124/30/1
f 125/32/1 126/34/1 127/35/1 128/33/1
f 129/28/1 130/29/1 131/30/1 132/31/1
f 133/28/1 134/29/1 135/30/1 136/31/1
f 137/28/1 138/29/1 139/30/1 140/31/1
f 141/29/1 142/32/1 143/33/1 144/30/1
f 145/32/1 146/34/1 147/35/1 148/33/1
f 149/28/1 150/29/1 151/30/1 152/31/1
f 153/29/1 154/32/1 155/33/1 156/30/1
f 157/32/1 158/34/1 159/35/1 160/33/1
f 161/28/1 162/29/1 163/30/1 164/31/1
f 165/29/1 166/32/1 167/33/1 168/30/1
f 169/32/1 170/34/1 171/35/1 172/33/1
f 173/32/1 174/34/1 175/35/1 176/33/1
f 177/32/1 178/34/1 179/35/1 180/33/1
f 181/32/1 182/34/1 183/35/1 184/33/1
f 185/32/1 186/34/1 187/35/1 188/33/1
f 189/32/1 190/34/1 191/35/1 192/33/1
f 193/9/1 194/12/1 195/36/1 196/37/1
f 197/12/1 198/38/1 199/39/1 200/36/1
f 201/9/1 202/12/1 203/36/1 204/37/1
f 205/11/1 206/15/1 207/38/1 208/12/1
f 209/8/1 210/11/1 211/12/1 212/9/1
f 213/13/1 214/14/1 215/15/1 216/11/1
f 217/19/1 218/20/1 219/13/1 220/7/1
f 221/20/1 222/21/1 223/14/1 224/13/1
f 225/25/1 226/26/1 227/20/1 228/19/1
f 229/26/1 230/27/1 231/21/1 232/20/1
f 233/29/1 234/32/1 235/33/1 236/30/1
f 237/32/1 238/34/1 239/35/1 240/33/1
f 241/29/1 242/32/1 243/33/1 244/30/1
f 245/32/1 246/34/1 247/35/1 248/33/1

