# Tiled2Unity generated file. Do not modify by hand.
# Wavefront file for 'escenaNorte_1_mesh_0207.obj'

# Vertices (Count = 176)
v 0 -1 0
v -1 -1 0
v -1 0 0
v 0 0 0
v -1 -1 0
v -2 -1 0
v -2 0 0
v -1 0 0
v -2 -1 0
v -3 -1 0
v -3 0 0
v -2 0 0
v -3 -1 0
v -4 -1 0
v -4 0 0
v -3 0 0
v -4 -1 0
v -5 -1 0
v -5 0 0
v -4 0 0
v -5 -1 0
v -6 -1 0
v -6 0 0
v -5 0 0
v -6 -1 0
v -7 -1 0
v -7 0 0
v -6 0 0
v -8 -1 0
v -9 -1 0
v -9 0 0
v -8 0 0
v -9 -1 0
v -10 -1 0
v -10 0 0
v -9 0 0
v -10 -1 0
v -11 -1 0
v -11 0 0
v -10 0 0
v -11 -1 0
v -12 -1 0
v -12 0 0
v -11 0 0
v -12 -1 0
v -13 -1 0
v -13 0 0
v -12 0 0
v -13 -1 0
v -14 -1 0
v -14 0 0
v -13 0 0
v -14 -1 0
v -15 -1 0
v -15 0 0
v -14 0 0
v -15 -1 0
v -16 -1 0
v -16 0 0
v -15 0 0
v -7 -2 0
v -8 -2 0
v -8 -1 0
v -7 -1 0
v -7 -3 0
v -8 -3 0
v -8 -2 0
v -7 -2 0
v -7 -4 0
v -8 -4 0
v -8 -3 0
v -7 -3 0
v -7 -5 0
v -8 -5 0
v -8 -4 0
v -7 -4 0
v -7 -6 0
v -8 -6 0
v -8 -5 0
v -7 -5 0
v -7 -7 0
v -8 -7 0
v -8 -6 0
v -7 -6 0
v -7 -8 0
v -8 -8 0
v -8 -7 0
v -7 -7 0
v -7 -9 0
v -8 -9 0
v -8 -8 0
v -7 -8 0
v -7 -10 0
v -8 -10 0
v -8 -9 0
v -7 -9 0
v -7 -11 0
v -8 -11 0
v -8 -10 0
v -7 -10 0
v 0 -12 0
v -1 -12 0
v -1 -11 0
v 0 -11 0
v -1 -12 0
v -2 -12 0
v -2 -11 0
v -1 -11 0
v -2 -12 0
v -3 -12 0
v -3 -11 0
v -2 -11 0
v -3 -12 0
v -4 -12 0
v -4 -11 0
v -3 -11 0
v -4 -12 0
v -5 -12 0
v -5 -11 0
v -4 -11 0
v -5 -12 0
v -6 -12 0
v -6 -11 0
v -5 -11 0
v -6 -12 0
v -7 -12 0
v -7 -11 0
v -6 -11 0
v -8 -12 0
v -9 -12 0
v -9 -11 0
v -8 -11 0
v -9 -12 0
v -10 -12 0
v -10 -11 0
v -9 -11 0
v -10 -12 0
v -11 -12 0
v -11 -11 0
v -10 -11 0
v -11 -12 0
v -12 -12 0
v -12 -11 0
v -11 -11 0
v -12 -12 0
v -13 -12 0
v -13 -11 0
v -12 -11 0
v -13 -12 0
v -14 -12 0
v -14 -11 0
v -13 -11 0
v -14 -12 0
v -15 -12 0
v -15 -11 0
v -14 -11 0
v -15 -12 0
v -16 -12 0
v -16 -11 0
v -15 -11 0
v -7 -13 0
v -8 -13 0
v -8 -12 0
v -7 -12 0
v -7 -14 0
v -8 -14 0
v -8 -13 0
v -7 -13 0
v -7 -15 0
v -8 -15 0
v -8 -14 0
v -7 -14 0
v -7 -16 0
v -8 -16 0
v -8 -15 0
v -7 -15 0

# Texture cooridinates (Count = 4)
vt 0.5429688 0.9739583
vt 0.5429688 0.8645833
vt 0.5839844 0.8645833
vt 0.5839844 0.9739583

# Normal
vn 0 0 -1

# Mesh description
g escenaNorte_1_mesh_0207

# Faces
f 1/1/1 2/2/1 3/3/1 4/4/1
f 5/1/1 6/2/1 7/3/1 8/4/1
f 9/1/1 10/2/1 11/3/1 12/4/1
f 13/1/1 14/2/1 15/3/1 16/4/1
f 17/1/1 18/2/1 19/3/1 20/4/1
f 21/1/1 22/2/1 23/3/1 24/4/1
f 25/1/1 26/2/1 27/3/1 28/4/1
f 29/1/1 30/2/1 31/3/1 32/4/1
f 33/1/1 34/2/1 35/3/1 36/4/1
f 37/1/1 38/2/1 39/3/1 40/4/1
f 41/1/1 42/2/1 43/3/1 44/4/1
f 45/1/1 46/2/1 47/3/1 48/4/1
f 49/1/1 50/2/1 51/3/1 52/4/1
f 53/1/1 54/2/1 55/3/1 56/4/1
f 57/1/1 58/2/1 59/3/1 60/4/1
f 61/2/1 62/3/1 63/4/1 64/1/1
f 65/2/1 66/3/1 67/4/1 68/1/1
f 69/2/1 70/3/1 71/4/1 72/1/1
f 73/2/1 74/3/1 75/4/1 76/1/1
f 77/2/1 78/3/1 79/4/1 80/1/1
f 81/2/1 82/3/1 83/4/1 84/1/1
f 85/2/1 86/3/1 87/4/1 88/1/1
f 89/2/1 90/3/1 91/4/1 92/1/1
f 93/2/1 94/3/1 95/4/1 96/1/1
f 97/2/1 98/3/1 99/4/1 100/1/1
f 101/3/1 102/4/1 103/1/1 104/2/1
f 105/3/1 106/4/1 107/1/1 108/2/1
f 109/3/1 110/4/1 111/1/1 112/2/1
f 113/3/1 114/4/1 115/1/1 116/2/1
f 117/3/1 118/4/1 119/1/1 120/2/1
f 121/3/1 122/4/1 123/1/1 124/2/1
f 125/3/1 126/4/1 127/1/1 128/2/1
f 129/3/1 130/4/1 131/1/1 132/2/1
f 133/3/1 134/4/1 135/1/1 136/2/1
f 137/3/1 138/4/1 139/1/1 140/2/1
f 141/3/1 142/4/1 143/1/1 144/2/1
f 145/3/1 146/4/1 147/1/1 148/2/1
f 149/3/1 150/4/1 151/1/1 152/2/1
f 153/3/1 154/4/1 155/1/1 156/2/1
f 157/3/1 158/4/1 159/1/1 160/2/1
f 161/2/1 162/3/1 163/4/1 164/1/1
f 165/2/1 166/3/1 167/4/1 168/1/1
f 169/2/1 170/3/1 171/4/1 172/1/1
f 173/2/1 174/3/1 175/4/1 176/1/1

