# Tiled2Unity generated file. Do not modify by hand.
# Wavefront file for 'escenaNorte_1_mesh_0120.obj'

# Vertices (Count = 536)
v -15 -1 0
v -16 -1 0
v -16 0 0
v -15 0 0
v -15 -2 0
v -16 -2 0
v -16 -1 0
v -15 -1 0
v -15 -3 0
v -16 -3 0
v -16 -2 0
v -15 -2 0
v -15 -4 0
v -16 -4 0
v -16 -3 0
v -15 -3 0
v 0 -6 0
v -1 -6 0
v -1 -5 0
v 0 -5 0
v -1 -6 0
v -2 -6 0
v -2 -5 0
v -1 -5 0
v -2 -6 0
v -3 -6 0
v -3 -5 0
v -2 -5 0
v -3 -6 0
v -4 -6 0
v -4 -5 0
v -3 -5 0
v -4 -6 0
v -5 -6 0
v -5 -5 0
v -4 -5 0
v -5 -6 0
v -6 -6 0
v -6 -5 0
v -5 -5 0
v -6 -6 0
v -7 -6 0
v -7 -5 0
v -6 -5 0
v -7 -6 0
v -8 -6 0
v -8 -5 0
v -7 -5 0
v -10 -6 0
v -11 -6 0
v -11 -5 0
v -10 -5 0
v -11 -6 0
v -12 -6 0
v -12 -5 0
v -11 -5 0
v -12 -6 0
v -13 -6 0
v -13 -5 0
v -12 -5 0
v -13 -6 0
v -14 -6 0
v -14 -5 0
v -13 -5 0
v -14 -6 0
v -15 -6 0
v -15 -5 0
v -14 -5 0
v -15 -6 0
v -16 -6 0
v -16 -5 0
v -15 -5 0
v 0 -7 0
v -1 -7 0
v -1 -6 0
v 0 -6 0
v -1 -7 0
v -2 -7 0
v -2 -6 0
v -1 -6 0
v -2 -7 0
v -3 -7 0
v -3 -6 0
v -2 -6 0
v -3 -7 0
v -4 -7 0
v -4 -6 0
v -3 -6 0
v -4 -7 0
v -5 -7 0
v -5 -6 0
v -4 -6 0
v -5 -7 0
v -6 -7 0
v -6 -6 0
v -5 -6 0
v -6 -7 0
v -7 -7 0
v -7 -6 0
v -6 -6 0
v -7 -7 0
v -8 -7 0
v -8 -6 0
v -7 -6 0
v -10 -7 0
v -11 -7 0
v -11 -6 0
v -10 -6 0
v -11 -7 0
v -12 -7 0
v -12 -6 0
v -11 -6 0
v -12 -7 0
v -13 -7 0
v -13 -6 0
v -12 -6 0
v -13 -7 0
v -14 -7 0
v -14 -6 0
v -13 -6 0
v -14 -7 0
v -15 -7 0
v -15 -6 0
v -14 -6 0
v -15 -7 0
v -16 -7 0
v -16 -6 0
v -15 -6 0
v 0 -8 0
v -1 -8 0
v -1 -7 0
v 0 -7 0
v -1 -8 0
v -2 -8 0
v -2 -7 0
v -1 -7 0
v -2 -8 0
v -3 -8 0
v -3 -7 0
v -2 -7 0
v -3 -8 0
v -4 -8 0
v -4 -7 0
v -3 -7 0
v -4 -8 0
v -5 -8 0
v -5 -7 0
v -4 -7 0
v -5 -8 0
v -6 -8 0
v -6 -7 0
v -5 -7 0
v -6 -8 0
v -7 -8 0
v -7 -7 0
v -6 -7 0
v -10 -8 0
v -11 -8 0
v -11 -7 0
v -10 -7 0
v -11 -8 0
v -12 -8 0
v -12 -7 0
v -11 -7 0
v -12 -8 0
v -13 -8 0
v -13 -7 0
v -12 -7 0
v -13 -8 0
v -14 -8 0
v -14 -7 0
v -13 -7 0
v -14 -8 0
v -15 -8 0
v -15 -7 0
v -14 -7 0
v -15 -8 0
v -16 -8 0
v -16 -7 0
v -15 -7 0
v 0 -9 0
v -1 -9 0
v -1 -8 0
v 0 -8 0
v -1 -9 0
v -2 -9 0
v -2 -8 0
v -1 -8 0
v -2 -9 0
v -3 -9 0
v -3 -8 0
v -2 -8 0
v -3 -9 0
v -4 -9 0
v -4 -8 0
v -3 -8 0
v -4 -9 0
v -5 -9 0
v -5 -8 0
v -4 -8 0
v -5 -9 0
v -6 -9 0
v -6 -8 0
v -5 -8 0
v -6 -9 0
v -7 -9 0
v -7 -8 0
v -6 -8 0
v -12 -9 0
v -13 -9 0
v -13 -8 0
v -12 -8 0
v -13 -9 0
v -14 -9 0
v -14 -8 0
v -13 -8 0
v -15 -9 0
v -16 -9 0
v -16 -8 0
v -15 -8 0
v 0 -10 0
v -1 -10 0
v -1 -9 0
v 0 -9 0
v -1 -10 0
v -2 -10 0
v -2 -9 0
v -1 -9 0
v -2 -10 0
v -3 -10 0
v -3 -9 0
v -2 -9 0
v -3 -10 0
v -4 -10 0
v -4 -9 0
v -3 -9 0
v -4 -10 0
v -5 -10 0
v -5 -9 0
v -4 -9 0
v -5 -10 0
v -6 -10 0
v -6 -9 0
v -5 -9 0
v -6 -10 0
v -7 -10 0
v -7 -9 0
v -6 -9 0
v -12 -10 0
v -13 -10 0
v -13 -9 0
v -12 -9 0
v -13 -10 0
v -14 -10 0
v -14 -9 0
v -13 -9 0
v -14 -10 0
v -15 -10 0
v -15 -9 0
v -14 -9 0
v -15 -10 0
v -16 -10 0
v -16 -9 0
v -15 -9 0
v 0 -11 0
v -1 -11 0
v -1 -10 0
v 0 -10 0
v -1 -11 0
v -2 -11 0
v -2 -10 0
v -1 -10 0
v -2 -11 0
v -3 -11 0
v -3 -10 0
v -2 -10 0
v -3 -11 0
v -4 -11 0
v -4 -10 0
v -3 -10 0
v -4 -11 0
v -5 -11 0
v -5 -10 0
v -4 -10 0
v -5 -11 0
v -6 -11 0
v -6 -10 0
v -5 -10 0
v -6 -11 0
v -7 -11 0
v -7 -10 0
v -6 -10 0
v -11 -11 0
v -12 -11 0
v -12 -10 0
v -11 -10 0
v -12 -11 0
v -13 -11 0
v -13 -10 0
v -12 -10 0
v -13 -11 0
v -14 -11 0
v -14 -10 0
v -13 -10 0
v -14 -11 0
v -15 -11 0
v -15 -10 0
v -14 -10 0
v -15 -11 0
v -16 -11 0
v -16 -10 0
v -15 -10 0
v 0 -12 0
v -1 -12 0
v -1 -11 0
v 0 -11 0
v -1 -12 0
v -2 -12 0
v -2 -11 0
v -1 -11 0
v -2 -12 0
v -3 -12 0
v -3 -11 0
v -2 -11 0
v -3 -12 0
v -4 -12 0
v -4 -11 0
v -3 -11 0
v -4 -12 0
v -5 -12 0
v -5 -11 0
v -4 -11 0
v -5 -12 0
v -6 -12 0
v -6 -11 0
v -5 -11 0
v -6 -12 0
v -7 -12 0
v -7 -11 0
v -6 -11 0
v -10 -12 0
v -11 -12 0
v -11 -11 0
v -10 -11 0
v -11 -12 0
v -12 -12 0
v -12 -11 0
v -11 -11 0
v -12 -12 0
v -13 -12 0
v -13 -11 0
v -12 -11 0
v -13 -12 0
v -14 -12 0
v -14 -11 0
v -13 -11 0
v -14 -12 0
v -15 -12 0
v -15 -11 0
v -14 -11 0
v -15 -12 0
v -16 -12 0
v -16 -11 0
v -15 -11 0
v 0 -13 0
v -1 -13 0
v -1 -12 0
v 0 -12 0
v -1 -13 0
v -2 -13 0
v -2 -12 0
v -1 -12 0
v -2 -13 0
v -3 -13 0
v -3 -12 0
v -2 -12 0
v -3 -13 0
v -4 -13 0
v -4 -12 0
v -3 -12 0
v -4 -13 0
v -5 -13 0
v -5 -12 0
v -4 -12 0
v -5 -13 0
v -6 -13 0
v -6 -12 0
v -5 -12 0
v -6 -13 0
v -7 -13 0
v -7 -12 0
v -6 -12 0
v -10 -13 0
v -11 -13 0
v -11 -12 0
v -10 -12 0
v -12 -13 0
v -13 -13 0
v -13 -12 0
v -12 -12 0
v -13 -13 0
v -14 -13 0
v -14 -12 0
v -13 -12 0
v -14 -13 0
v -15 -13 0
v -15 -12 0
v -14 -12 0
v -15 -13 0
v -16 -13 0
v -16 -12 0
v -15 -12 0
v 0 -14 0
v -1 -14 0
v -1 -13 0
v 0 -13 0
v -1 -14 0
v -2 -14 0
v -2 -13 0
v -1 -13 0
v -2 -14 0
v -3 -14 0
v -3 -13 0
v -2 -13 0
v -3 -14 0
v -4 -14 0
v -4 -13 0
v -3 -13 0
v -4 -14 0
v -5 -14 0
v -5 -13 0
v -4 -13 0
v -5 -14 0
v -6 -14 0
v -6 -13 0
v -5 -13 0
v -6 -14 0
v -7 -14 0
v -7 -13 0
v -6 -13 0
v -10 -14 0
v -11 -14 0
v -11 -13 0
v -10 -13 0
v -11 -14 0
v -12 -14 0
v -12 -13 0
v -11 -13 0
v -12 -14 0
v -13 -14 0
v -13 -13 0
v -12 -13 0
v -13 -14 0
v -14 -14 0
v -14 -13 0
v -13 -13 0
v -14 -14 0
v -15 -14 0
v -15 -13 0
v -14 -13 0
v -15 -14 0
v -16 -14 0
v -16 -13 0
v -15 -13 0
v 0 -15 0
v -1 -15 0
v -1 -14 0
v 0 -14 0
v -1 -15 0
v -2 -15 0
v -2 -14 0
v -1 -14 0
v -2 -15 0
v -3 -15 0
v -3 -14 0
v -2 -14 0
v -3 -15 0
v -4 -15 0
v -4 -14 0
v -3 -14 0
v -4 -15 0
v -5 -15 0
v -5 -14 0
v -4 -14 0
v -10 -15 0
v -11 -15 0
v -11 -14 0
v -10 -14 0
v -11 -15 0
v -12 -15 0
v -12 -14 0
v -11 -14 0
v -12 -15 0
v -13 -15 0
v -13 -14 0
v -12 -14 0
v -13 -15 0
v -14 -15 0
v -14 -14 0
v -13 -14 0
v -14 -15 0
v -15 -15 0
v -15 -14 0
v -14 -14 0
v -15 -15 0
v -16 -15 0
v -16 -14 0
v -15 -14 0
v 0 -16 0
v -1 -16 0
v -1 -15 0
v 0 -15 0
v -1 -16 0
v -2 -16 0
v -2 -15 0
v -1 -15 0
v -2 -16 0
v -3 -16 0
v -3 -15 0
v -2 -15 0
v -3 -16 0
v -4 -16 0
v -4 -15 0
v -3 -15 0
v -4 -16 0
v -5 -16 0
v -5 -15 0
v -4 -15 0
v -5 -16 0
v -6 -16 0
v -6 -15 0
v -5 -15 0
v -15 -16 0
v -16 -16 0
v -16 -15 0
v -15 -15 0

# Texture cooridinates (Count = 41)
vt 0.765625 0.9453125
vt 0.7929688 0.9453125
vt 0.7929688 0.9726563
vt 0.765625 0.9726563
vt 0.765625 0.9179688
vt 0.7929688 0.9179688
vt 0.765625 0.8632813
vt 0.7929688 0.8632813
vt 0.7929688 0.890625
vt 0.765625 0.890625
vt 0.765625 0.8359375
vt 0.7929688 0.8359375
vt 0.6015625 0.5898438
vt 0.6289063 0.5898438
vt 0.6289063 0.6171875
vt 0.6015625 0.6171875
vt 0.5742188 0.5898438
vt 0.5742188 0.6171875
vt 0.6015625 0.5625
vt 0.6289063 0.5625
vt 0.5742188 0.5625
vt 0.7929688 1
vt 0.765625 1
vt 0.8203125 0.9726563
vt 0.8203125 1
vt 0.8476563 0.9726563
vt 0.8476563 1
vt 0.7109375 0.9726563
vt 0.7382813 0.9726563
vt 0.7382813 1
vt 0.7109375 1
vt 0.8203125 0.9453125
vt 0.8476563 0.9453125
vt 0.7382813 0.9179688
vt 0.7382813 0.9453125
vt 0.7382813 0.890625
vt 0.8203125 0.9179688
vt 0.8476563 0.9179688
vt 0.7109375 0.8632813
vt 0.7382813 0.8632813
vt 0.7109375 0.890625

# Normal
vn 0 0 -1

# Mesh description
g escenaNorte_1_mesh_0120

# Faces
f 1/1/1 2/2/1 3/3/1 4/4/1
f 5/5/1 6/6/1 7/2/1 8/1/1
f 9/7/1 10/8/1 11/9/1 12/10/1
f 13/11/1 14/12/1 15/8/1 16/7/1
f 17/13/1 18/14/1 19/15/1 20/16/1
f 21/17/1 22/13/1 23/16/1 24/18/1
f 25/13/1 26/14/1 27/15/1 28/16/1
f 29/17/1 30/13/1 31/16/1 32/18/1
f 33/13/1 34/14/1 35/15/1 36/16/1
f 37/17/1 38/13/1 39/16/1 40/18/1
f 41/13/1 42/14/1 43/15/1 44/16/1
f 45/13/1 46/14/1 47/15/1 48/16/1
f 49/17/1 50/13/1 51/16/1 52/18/1
f 53/13/1 54/14/1 55/15/1 56/16/1
f 57/17/1 58/13/1 59/16/1 60/18/1
f 61/13/1 62/14/1 63/15/1 64/16/1
f 65/17/1 66/13/1 67/16/1 68/18/1
f 69/17/1 70/13/1 71/16/1 72/18/1
f 73/19/1 74/20/1 75/14/1 76/13/1
f 77/21/1 78/19/1 79/13/1 80/17/1
f 81/19/1 82/20/1 83/14/1 84/13/1
f 85/21/1 86/19/1 87/13/1 88/17/1
f 89/19/1 90/20/1 91/14/1 92/13/1
f 93/21/1 94/19/1 95/13/1 96/17/1
f 97/19/1 98/20/1 99/14/1 100/13/1
f 101/19/1 102/20/1 103/14/1 104/13/1
f 105/21/1 106/19/1 107/13/1 108/17/1
f 109/19/1 110/20/1 111/14/1 112/13/1
f 113/21/1 114/19/1 115/13/1 116/17/1
f 117/19/1 118/20/1 119/14/1 120/13/1
f 121/21/1 122/19/1 123/13/1 124/17/1
f 125/21/1 126/19/1 127/13/1 128/17/1
f 129/4/1 130/3/1 131/22/1 132/23/1
f 133/4/1 134/3/1 135/22/1 136/23/1
f 137/4/1 138/3/1 139/22/1 140/23/1
f 141/4/1 142/3/1 143/22/1 144/23/1
f 145/4/1 146/3/1 147/22/1 148/23/1
f 149/3/1 150/24/1 151/25/1 152/22/1
f 153/24/1 154/26/1 155/27/1 156/25/1
f 157/28/1 158/29/1 159/30/1 160/31/1
f 161/29/1 162/4/1 163/23/1 164/30/1
f 165/4/1 166/3/1 167/22/1 168/23/1
f 169/4/1 170/3/1 171/22/1 172/23/1
f 173/4/1 174/3/1 175/22/1 176/23/1
f 177/4/1 178/3/1 179/22/1 180/23/1
f 181/1/1 182/2/1 183/3/1 184/4/1
f 185/1/1 186/2/1 187/3/1 188/4/1
f 189/1/1 190/2/1 191/3/1 192/4/1
f 193/1/1 194/2/1 195/3/1 196/4/1
f 197/1/1 198/2/1 199/3/1 200/4/1
f 201/2/1 202/32/1 203/24/1 204/3/1
f 205/32/1 206/33/1 207/26/1 208/24/1
f 209/1/1 210/2/1 211/3/1 212/4/1
f 213/1/1 214/2/1 215/3/1 216/4/1
f 217/5/1 218/6/1 219/2/1 220/1/1
f 221/1/1 222/2/1 223/3/1 224/4/1
f 225/1/1 226/2/1 227/3/1 228/4/1
f 229/5/1 230/6/1 231/2/1 232/1/1
f 233/5/1 234/6/1 235/2/1 236/1/1
f 237/1/1 238/2/1 239/3/1 240/4/1
f 241/2/1 242/32/1 243/24/1 244/3/1
f 245/32/1 246/33/1 247/26/1 248/24/1
f 249/5/1 250/6/1 251/2/1 252/1/1
f 253/1/1 254/2/1 255/3/1 256/4/1
f 257/1/1 258/2/1 259/3/1 260/4/1
f 261/10/1 262/9/1 263/6/1 264/5/1
f 265/1/1 266/2/1 267/3/1 268/4/1
f 269/1/1 270/2/1 271/3/1 272/4/1
f 273/1/1 274/2/1 275/3/1 276/4/1
f 277/10/1 278/9/1 279/6/1 280/5/1
f 281/1/1 282/2/1 283/3/1 284/4/1
f 285/2/1 286/32/1 287/24/1 288/3/1
f 289/32/1 290/33/1 291/26/1 292/24/1
f 293/34/1 294/5/1 295/1/1 296/35/1
f 297/10/1 298/9/1 299/6/1 300/5/1
f 301/5/1 302/6/1 303/2/1 304/1/1
f 305/5/1 306/6/1 307/2/1 308/1/1
f 309/10/1 310/9/1 311/6/1 312/5/1
f 313/5/1 314/6/1 315/2/1 316/1/1
f 317/5/1 318/6/1 319/2/1 320/1/1
f 321/5/1 322/6/1 323/2/1 324/1/1
f 325/10/1 326/9/1 327/6/1 328/5/1
f 329/1/1 330/2/1 331/3/1 332/4/1
f 333/2/1 334/32/1 335/24/1 336/3/1
f 337/32/1 338/33/1 339/26/1 340/24/1
f 341/1/1 342/2/1 343/3/1 344/4/1
f 345/36/1 346/10/1 347/5/1 348/34/1
f 349/1/1 350/2/1 351/3/1 352/4/1
f 353/1/1 354/2/1 355/3/1 356/4/1
f 357/1/1 358/2/1 359/3/1 360/4/1
f 361/1/1 362/2/1 363/3/1 364/4/1
f 365/10/1 366/9/1 367/6/1 368/5/1
f 369/10/1 370/9/1 371/6/1 372/5/1
f 373/10/1 374/9/1 375/6/1 376/5/1
f 377/10/1 378/9/1 379/6/1 380/5/1
f 381/5/1 382/6/1 383/2/1 384/1/1
f 385/2/1 386/32/1 387/24/1 388/3/1
f 389/32/1 390/33/1 391/26/1 392/24/1
f 393/5/1 394/6/1 395/2/1 396/1/1
f 397/5/1 398/6/1 399/2/1 400/1/1
f 401/5/1 402/6/1 403/2/1 404/1/1
f 405/5/1 406/6/1 407/2/1 408/1/1
f 409/5/1 410/6/1 411/2/1 412/1/1
f 413/10/1 414/9/1 415/6/1 416/5/1
f 417/10/1 418/9/1 419/6/1 420/5/1
f 421/10/1 422/9/1 423/6/1 424/5/1
f 425/10/1 426/9/1 427/6/1 428/5/1
f 429/10/1 430/9/1 431/6/1 432/5/1
f 433/6/1 434/37/1 435/32/1 436/2/1
f 437/37/1 438/38/1 439/33/1 440/32/1
f 441/10/1 442/9/1 443/6/1 444/5/1
f 445/36/1 446/10/1 447/5/1 448/34/1
f 449/10/1 450/9/1 451/6/1 452/5/1
f 453/10/1 454/9/1 455/6/1 456/5/1
f 457/10/1 458/9/1 459/6/1 460/5/1
f 461/10/1 462/9/1 463/6/1 464/5/1
f 465/7/1 466/8/1 467/9/1 468/10/1
f 469/7/1 470/8/1 471/9/1 472/10/1
f 473/7/1 474/8/1 475/9/1 476/10/1
f 477/7/1 478/8/1 479/9/1 480/10/1
f 481/7/1 482/8/1 483/9/1 484/10/1
f 485/39/1 486/40/1 487/36/1 488/41/1
f 489/40/1 490/7/1 491/10/1 492/36/1
f 493/7/1 494/8/1 495/9/1 496/10/1
f 497/7/1 498/8/1 499/9/1 500/10/1
f 501/7/1 502/8/1 503/9/1 504/10/1
f 505/7/1 506/8/1 507/9/1 508/10/1
f 509/11/1 510/12/1 511/8/1 512/7/1
f 513/11/1 514/12/1 515/8/1 516/7/1
f 517/11/1 518/12/1 519/8/1 520/7/1
f 521/11/1 522/12/1 523/8/1 524/7/1
f 525/11/1 526/12/1 527/8/1 528/7/1
f 529/11/1 530/12/1 531/8/1 532/7/1
f 533/11/1 534/12/1 535/8/1 536/7/1

