# Tiled2Unity generated file. Do not modify by hand.
# Wavefront file for 'escenaNorte_1_mesh_0040.obj'

# Vertices (Count = 296)
v -11 -1 0
v -12 -1 0
v -12 0 0
v -11 0 0
v -12 -1 0
v -13 -1 0
v -13 0 0
v -12 0 0
v -13 -1 0
v -14 -1 0
v -14 0 0
v -13 0 0
v -14 -1 0
v -15 -1 0
v -15 0 0
v -14 0 0
v -15 -1 0
v -16 -1 0
v -16 0 0
v -15 0 0
v 0 -5 0
v -1 -5 0
v -1 -4 0
v 0 -4 0
v -1 -5 0
v -2 -5 0
v -2 -4 0
v -1 -4 0
v -2 -5 0
v -3 -5 0
v -3 -4 0
v -2 -4 0
v -3 -5 0
v -4 -5 0
v -4 -4 0
v -3 -4 0
v -4 -5 0
v -5 -5 0
v -5 -4 0
v -4 -4 0
v -5 -5 0
v -6 -5 0
v -6 -4 0
v -5 -4 0
v -6 -5 0
v -7 -5 0
v -7 -4 0
v -6 -4 0
v -7 -5 0
v -8 -5 0
v -8 -4 0
v -7 -4 0
v 0 -6 0
v -1 -6 0
v -1 -5 0
v 0 -5 0
v -1 -6 0
v -2 -6 0
v -2 -5 0
v -1 -5 0
v -2 -6 0
v -3 -6 0
v -3 -5 0
v -2 -5 0
v -3 -6 0
v -4 -6 0
v -4 -5 0
v -3 -5 0
v -4 -6 0
v -5 -6 0
v -5 -5 0
v -4 -5 0
v -5 -6 0
v -6 -6 0
v -6 -5 0
v -5 -5 0
v -6 -6 0
v -7 -6 0
v -7 -5 0
v -6 -5 0
v -7 -6 0
v -8 -6 0
v -8 -5 0
v -7 -5 0
v 0 -7 0
v -1 -7 0
v -1 -6 0
v 0 -6 0
v -1 -7 0
v -2 -7 0
v -2 -6 0
v -1 -6 0
v -2 -7 0
v -3 -7 0
v -3 -6 0
v -2 -6 0
v -3 -7 0
v -4 -7 0
v -4 -6 0
v -3 -6 0
v -4 -7 0
v -5 -7 0
v -5 -6 0
v -4 -6 0
v -5 -7 0
v -6 -7 0
v -6 -6 0
v -5 -6 0
v -6 -7 0
v -7 -7 0
v -7 -6 0
v -6 -6 0
v -7 -7 0
v -8 -7 0
v -8 -6 0
v -7 -6 0
v 0 -8 0
v -1 -8 0
v -1 -7 0
v 0 -7 0
v -1 -8 0
v -2 -8 0
v -2 -7 0
v -1 -7 0
v -2 -8 0
v -3 -8 0
v -3 -7 0
v -2 -7 0
v -3 -8 0
v -4 -8 0
v -4 -7 0
v -3 -7 0
v -4 -8 0
v -5 -8 0
v -5 -7 0
v -4 -7 0
v -5 -8 0
v -6 -8 0
v -6 -7 0
v -5 -7 0
v -6 -8 0
v -7 -8 0
v -7 -7 0
v -6 -7 0
v -7 -8 0
v -8 -8 0
v -8 -7 0
v -7 -7 0
v 0 -9 0
v -1 -9 0
v -1 -8 0
v 0 -8 0
v -1 -9 0
v -2 -9 0
v -2 -8 0
v -1 -8 0
v -2 -9 0
v -3 -9 0
v -3 -8 0
v -2 -8 0
v -3 -9 0
v -4 -9 0
v -4 -8 0
v -3 -8 0
v -4 -9 0
v -5 -9 0
v -5 -8 0
v -4 -8 0
v -5 -9 0
v -6 -9 0
v -6 -8 0
v -5 -8 0
v -6 -9 0
v -7 -9 0
v -7 -8 0
v -6 -8 0
v -7 -9 0
v -8 -9 0
v -8 -8 0
v -7 -8 0
v 0 -10 0
v -1 -10 0
v -1 -9 0
v 0 -9 0
v -1 -10 0
v -2 -10 0
v -2 -9 0
v -1 -9 0
v -2 -10 0
v -3 -10 0
v -3 -9 0
v -2 -9 0
v -3 -10 0
v -4 -10 0
v -4 -9 0
v -3 -9 0
v -4 -10 0
v -5 -10 0
v -5 -9 0
v -4 -9 0
v -5 -10 0
v -6 -10 0
v -6 -9 0
v -5 -9 0
v -6 -10 0
v -7 -10 0
v -7 -9 0
v -6 -9 0
v -7 -10 0
v -8 -10 0
v -8 -9 0
v -7 -9 0
v 0 -11 0
v -1 -11 0
v -1 -10 0
v 0 -10 0
v -1 -11 0
v -2 -11 0
v -2 -10 0
v -1 -10 0
v -2 -11 0
v -3 -11 0
v -3 -10 0
v -2 -10 0
v -3 -11 0
v -4 -11 0
v -4 -10 0
v -3 -10 0
v -4 -11 0
v -5 -11 0
v -5 -10 0
v -4 -10 0
v -5 -11 0
v -6 -11 0
v -6 -10 0
v -5 -10 0
v -6 -11 0
v -7 -11 0
v -7 -10 0
v -6 -10 0
v -7 -11 0
v -8 -11 0
v -8 -10 0
v -7 -10 0
v 0 -12 0
v -1 -12 0
v -1 -11 0
v 0 -11 0
v -1 -12 0
v -2 -12 0
v -2 -11 0
v -1 -11 0
v -2 -12 0
v -3 -12 0
v -3 -11 0
v -2 -11 0
v -3 -12 0
v -4 -12 0
v -4 -11 0
v -3 -11 0
v -4 -12 0
v -5 -12 0
v -5 -11 0
v -4 -11 0
v -5 -12 0
v -6 -12 0
v -6 -11 0
v -5 -11 0
v -6 -12 0
v -7 -12 0
v -7 -11 0
v -6 -11 0
v -7 -12 0
v -8 -12 0
v -8 -11 0
v -7 -11 0
v -11 -16 0
v -12 -16 0
v -12 -15 0
v -11 -15 0
v -12 -16 0
v -13 -16 0
v -13 -15 0
v -12 -15 0
v -13 -16 0
v -14 -16 0
v -14 -15 0
v -13 -15 0
v -14 -16 0
v -15 -16 0
v -15 -15 0
v -14 -15 0
v -15 -16 0
v -16 -16 0
v -16 -15 0
v -15 -15 0

# Texture cooridinates (Count = 34)
vt 0.5742188 0.4804688
vt 0.6015625 0.4804688
vt 0.6015625 0.5078125
vt 0.5742188 0.5078125
vt 0.8476563 0.1796875
vt 0.875 0.1796875
vt 0.875 0.2070313
vt 0.8476563 0.2070313
vt 0.9023438 0.2070313
vt 0.9296875 0.2070313
vt 0.9296875 0.234375
vt 0.9023438 0.234375
vt 0.9296875 0.1796875
vt 0.9570313 0.1796875
vt 0.9570313 0.2070313
vt 0.8476563 0.1523438
vt 0.875 0.1523438
vt 0.9023438 0.1796875
vt 0.9570313 0.234375
vt 0.9023438 0.1523438
vt 0.9296875 0.1523438
vt 0.9570313 0.1523438
vt 0.8476563 0.125
vt 0.875 0.125
vt 0.9296875 0.125
vt 0.9570313 0.125
vt 0.8476563 0.09765625
vt 0.875 0.09765625
vt 0.9023438 0.09765625
vt 0.9023438 0.125
vt 0.9296875 0.09765625
vt 0.9570313 0.09765625
vt 0.6015625 0.5351563
vt 0.5742188 0.5351563

# Normal
vn 0 0 -1

# Mesh description
g escenaNorte_1_mesh_0040

# Faces
f 1/1/1 2/2/1 3/3/1 4/4/1
f 5/1/1 6/2/1 7/3/1 8/4/1
f 9/1/1 10/2/1 11/3/1 12/4/1
f 13/1/1 14/2/1 15/3/1 16/4/1
f 17/1/1 18/2/1 19/3/1 20/4/1
f 21/5/1 22/6/1 23/7/1 24/8/1
f 25/9/1 26/10/1 27/11/1 28/12/1
f 29/9/1 30/10/1 31/11/1 32/12/1
f 33/9/1 34/10/1 35/11/1 36/12/1
f 37/9/1 38/10/1 39/11/1 40/12/1
f 41/9/1 42/10/1 43/11/1 44/12/1
f 45/9/1 46/10/1 47/11/1 48/12/1
f 49/13/1 50/14/1 51/15/1 52/10/1
f 53/16/1 54/17/1 55/6/1 56/5/1
f 57/18/1 58/13/1 59/10/1 60/9/1
f 61/18/1 62/13/1 63/10/1 64/9/1
f 65/18/1 66/13/1 67/10/1 68/9/1
f 69/18/1 70/13/1 71/10/1 72/9/1
f 73/18/1 74/13/1 75/10/1 76/9/1
f 77/18/1 78/13/1 79/10/1 80/9/1
f 81/10/1 82/15/1 83/19/1 84/11/1
f 85/16/1 86/17/1 87/6/1 88/5/1
f 89/20/1 90/21/1 91/13/1 92/18/1
f 93/20/1 94/21/1 95/13/1 96/18/1
f 97/20/1 98/21/1 99/13/1 100/18/1
f 101/20/1 102/21/1 103/13/1 104/18/1
f 105/20/1 106/21/1 107/13/1 108/18/1
f 109/20/1 110/21/1 111/13/1 112/18/1
f 113/13/1 114/14/1 115/15/1 116/10/1
f 117/16/1 118/17/1 119/6/1 120/5/1
f 121/18/1 122/13/1 123/10/1 124/9/1
f 125/20/1 126/21/1 127/13/1 128/18/1
f 129/18/1 130/13/1 131/10/1 132/9/1
f 133/20/1 134/21/1 135/13/1 136/18/1
f 137/18/1 138/13/1 139/10/1 140/9/1
f 141/20/1 142/21/1 143/13/1 144/18/1
f 145/21/1 146/22/1 147/14/1 148/13/1
f 149/23/1 150/24/1 151/17/1 152/16/1
f 153/20/1 154/21/1 155/13/1 156/18/1
f 157/20/1 158/21/1 159/13/1 160/18/1
f 161/20/1 162/21/1 163/13/1 164/18/1
f 165/20/1 166/21/1 167/13/1 168/18/1
f 169/20/1 170/21/1 171/13/1 172/18/1
f 173/20/1 174/21/1 175/13/1 176/18/1
f 177/25/1 178/26/1 179/22/1 180/21/1
f 181/27/1 182/28/1 183/24/1 184/23/1
f 185/28/1 186/29/1 187/30/1 188/24/1
f 189/28/1 190/29/1 191/30/1 192/24/1
f 193/28/1 194/29/1 195/30/1 196/24/1
f 197/28/1 198/29/1 199/30/1 200/24/1
f 201/28/1 202/29/1 203/30/1 204/24/1
f 205/29/1 206/31/1 207/25/1 208/30/1
f 209/31/1 210/32/1 211/26/1 212/25/1
f 213/4/1 214/3/1 215/33/1 216/34/1
f 217/4/1 218/3/1 219/33/1 220/34/1
f 221/4/1 222/3/1 223/33/1 224/34/1
f 225/4/1 226/3/1 227/33/1 228/34/1
f 229/4/1 230/3/1 231/33/1 232/34/1
f 233/4/1 234/3/1 235/33/1 236/34/1
f 237/4/1 238/3/1 239/33/1 240/34/1
f 241/4/1 242/3/1 243/33/1 244/34/1
f 245/1/1 246/2/1 247/3/1 248/4/1
f 249/1/1 250/2/1 251/3/1 252/4/1
f 253/1/1 254/2/1 255/3/1 256/4/1
f 257/1/1 258/2/1 259/3/1 260/4/1
f 261/1/1 262/2/1 263/3/1 264/4/1
f 265/1/1 266/2/1 267/3/1 268/4/1
f 269/1/1 270/2/1 271/3/1 272/4/1
f 273/1/1 274/2/1 275/3/1 276/4/1
f 277/5/1 278/6/1 279/7/1 280/8/1
f 281/9/1 282/10/1 283/11/1 284/12/1
f 285/9/1 286/10/1 287/11/1 288/12/1
f 289/9/1 290/10/1 291/11/1 292/12/1
f 293/9/1 294/10/1 295/11/1 296/12/1

