# Tiled2Unity generated file. Do not modify by hand.
# Wavefront file for 'escenaNorte_1_mesh_0097.obj'

# Vertices (Count = 24)
v 0 -1 0
v -1 -1 0
v -1 0 0
v 0 0 0
v 0 -2 0
v -1 -2 0
v -1 -1 0
v 0 -1 0
v 0 -3 0
v -1 -3 0
v -1 -2 0
v 0 -2 0
v -1 -3 0
v -2 -3 0
v -2 -2 0
v -1 -2 0
v 0 -4 0
v -1 -4 0
v -1 -3 0
v 0 -3 0
v -1 -4 0
v -2 -4 0
v -2 -3 0
v -1 -3 0

# Texture cooridinates (Count = 8)
vt 0.9023438 0.1523438
vt 0.9296875 0.1523438
vt 0.9296875 0.1796875
vt 0.9023438 0.1796875
vt 0.9023438 0.125
vt 0.9296875 0.125
vt 0.9023438 0.09765625
vt 0.9296875 0.09765625

# Normal
vn 0 0 -1

# Mesh description
g escenaNorte_1_mesh_0097

# Faces
f 1/1/1 2/2/1 3/3/1 4/4/1
f 5/5/1 6/6/1 7/2/1 8/1/1
f 9/5/1 10/6/1 11/2/1 12/1/1
f 13/5/1 14/6/1 15/2/1 16/1/1
f 17/7/1 18/8/1 19/6/1 20/5/1
f 21/7/1 22/8/1 23/6/1 24/5/1

