# Tiled2Unity generated file. Do not modify by hand.
# Wavefront file for 'escenaNorte_1_mesh_0068.obj'

# Vertices (Count = 16)
v 0 -1 0
v -1 -1 0
v -1 0 0
v 0 0 0
v -1 -1 0
v -2 -1 0
v -2 0 0
v -1 0 0
v 0 -2 0
v -1 -2 0
v -1 -1 0
v 0 -1 0
v -1 -2 0
v -2 -2 0
v -2 -1 0
v -1 -1 0

# Texture cooridinates (Count = 6)
vt 0.5742188 0.5078125
vt 0.6015625 0.5078125
vt 0.6015625 0.5351563
vt 0.5742188 0.5351563
vt 0.5742188 0.4804688
vt 0.6015625 0.4804688

# Normal
vn 0 0 -1

# Mesh description
g escenaNorte_1_mesh_0068

# Faces
f 1/1/1 2/2/1 3/3/1 4/4/1
f 5/1/1 6/2/1 7/3/1 8/4/1
f 9/5/1 10/6/1 11/2/1 12/1/1
f 13/5/1 14/6/1 15/2/1 16/1/1

