# Tiled2Unity generated file. Do not modify by hand.
# Wavefront file for 'escenaNorte_1_mesh_0046.obj'

# Vertices (Count = 236)
v -5 -1 0
v -6 -1 0
v -6 0 0
v -5 0 0
v -10 -1 0
v -11 -1 0
v -11 0 0
v -10 0 0
v -15 -1 0
v -16 -1 0
v -16 0 0
v -15 0 0
v -10 -5 0
v -11 -5 0
v -11 -4 0
v -10 -4 0
v -11 -5 0
v -12 -5 0
v -12 -4 0
v -11 -4 0
v -12 -5 0
v -13 -5 0
v -13 -4 0
v -12 -4 0
v -13 -5 0
v -14 -5 0
v -14 -4 0
v -13 -4 0
v -14 -5 0
v -15 -5 0
v -15 -4 0
v -14 -4 0
v -15 -5 0
v -16 -5 0
v -16 -4 0
v -15 -4 0
v -10 -6 0
v -11 -6 0
v -11 -5 0
v -10 -5 0
v -11 -6 0
v -12 -6 0
v -12 -5 0
v -11 -5 0
v -12 -6 0
v -13 -6 0
v -13 -5 0
v -12 -5 0
v -13 -6 0
v -14 -6 0
v -14 -5 0
v -13 -5 0
v -14 -6 0
v -15 -6 0
v -15 -5 0
v -14 -5 0
v -15 -6 0
v -16 -6 0
v -16 -5 0
v -15 -5 0
v -10 -7 0
v -11 -7 0
v -11 -6 0
v -10 -6 0
v -11 -7 0
v -12 -7 0
v -12 -6 0
v -11 -6 0
v -12 -7 0
v -13 -7 0
v -13 -6 0
v -12 -6 0
v -13 -7 0
v -14 -7 0
v -14 -6 0
v -13 -6 0
v -14 -7 0
v -15 -7 0
v -15 -6 0
v -14 -6 0
v -15 -7 0
v -16 -7 0
v -16 -6 0
v -15 -6 0
v -10 -8 0
v -11 -8 0
v -11 -7 0
v -10 -7 0
v -11 -8 0
v -12 -8 0
v -12 -7 0
v -11 -7 0
v -12 -8 0
v -13 -8 0
v -13 -7 0
v -12 -7 0
v -13 -8 0
v -14 -8 0
v -14 -7 0
v -13 -7 0
v -14 -8 0
v -15 -8 0
v -15 -7 0
v -14 -7 0
v -15 -8 0
v -16 -8 0
v -16 -7 0
v -15 -7 0
v -10 -9 0
v -11 -9 0
v -11 -8 0
v -10 -8 0
v -11 -9 0
v -12 -9 0
v -12 -8 0
v -11 -8 0
v -12 -9 0
v -13 -9 0
v -13 -8 0
v -12 -8 0
v -13 -9 0
v -14 -9 0
v -14 -8 0
v -13 -8 0
v -14 -9 0
v -15 -9 0
v -15 -8 0
v -14 -8 0
v -15 -9 0
v -16 -9 0
v -16 -8 0
v -15 -8 0
v -10 -10 0
v -11 -10 0
v -11 -9 0
v -10 -9 0
v -11 -10 0
v -12 -10 0
v -12 -9 0
v -11 -9 0
v -12 -10 0
v -13 -10 0
v -13 -9 0
v -12 -9 0
v -13 -10 0
v -14 -10 0
v -14 -9 0
v -13 -9 0
v -14 -10 0
v -15 -10 0
v -15 -9 0
v -14 -9 0
v -15 -10 0
v -16 -10 0
v -16 -9 0
v -15 -9 0
v -10 -11 0
v -11 -11 0
v -11 -10 0
v -10 -10 0
v -11 -11 0
v -12 -11 0
v -12 -10 0
v -11 -10 0
v -12 -11 0
v -13 -11 0
v -13 -10 0
v -12 -10 0
v -13 -11 0
v -14 -11 0
v -14 -10 0
v -13 -10 0
v -14 -11 0
v -15 -11 0
v -15 -10 0
v -14 -10 0
v -15 -11 0
v -16 -11 0
v -16 -10 0
v -15 -10 0
v -10 -12 0
v -11 -12 0
v -11 -11 0
v -10 -11 0
v -11 -12 0
v -12 -12 0
v -12 -11 0
v -11 -11 0
v -12 -12 0
v -13 -12 0
v -13 -11 0
v -12 -11 0
v -13 -12 0
v -14 -12 0
v -14 -11 0
v -13 -11 0
v -14 -12 0
v -15 -12 0
v -15 -11 0
v -14 -11 0
v -15 -12 0
v -16 -12 0
v -16 -11 0
v -15 -11 0
v 0 -16 0
v -1 -16 0
v -1 -15 0
v 0 -15 0
v -1 -16 0
v -2 -16 0
v -2 -15 0
v -1 -15 0
v -2 -16 0
v -3 -16 0
v -3 -15 0
v -2 -15 0
v -3 -16 0
v -4 -16 0
v -4 -15 0
v -3 -15 0
v -4 -16 0
v -5 -16 0
v -5 -15 0
v -4 -15 0
v -5 -16 0
v -6 -16 0
v -6 -15 0
v -5 -15 0
v -6 -16 0
v -7 -16 0
v -7 -15 0
v -6 -15 0
v -7 -16 0
v -8 -16 0
v -8 -15 0
v -7 -15 0

# Texture cooridinates (Count = 32)
vt 0.65625 0.4804688
vt 0.6835938 0.4804688
vt 0.6835938 0.5078125
vt 0.65625 0.5078125
vt 0.5742188 0.4804688
vt 0.6015625 0.4804688
vt 0.6015625 0.5078125
vt 0.5742188 0.5078125
vt 0.8476563 0.1796875
vt 0.875 0.1796875
vt 0.875 0.2070313
vt 0.8476563 0.2070313
vt 0.9023438 0.2070313
vt 0.9296875 0.2070313
vt 0.9296875 0.234375
vt 0.9023438 0.234375
vt 0.8476563 0.1523438
vt 0.875 0.1523438
vt 0.9023438 0.1796875
vt 0.9296875 0.1796875
vt 0.9023438 0.1523438
vt 0.9296875 0.1523438
vt 0.8476563 0.125
vt 0.875 0.125
vt 0.8476563 0.09765625
vt 0.875 0.09765625
vt 0.9023438 0.09765625
vt 0.9023438 0.125
vt 0.6015625 0.5351563
vt 0.5742188 0.5351563
vt 0.9570313 0.1796875
vt 0.9570313 0.2070313

# Normal
vn 0 0 -1

# Mesh description
g escenaNorte_1_mesh_0046

# Faces
f 1/1/1 2/2/1 3/3/1 4/4/1
f 5/1/1 6/2/1 7/3/1 8/4/1
f 9/5/1 10/6/1 11/7/1 12/8/1
f 13/9/1 14/10/1 15/11/1 16/12/1
f 17/13/1 18/14/1 19/15/1 20/16/1
f 21/13/1 22/14/1 23/15/1 24/16/1
f 25/13/1 26/14/1 27/15/1 28/16/1
f 29/13/1 30/14/1 31/15/1 32/16/1
f 33/13/1 34/14/1 35/15/1 36/16/1
f 37/17/1 38/18/1 39/10/1 40/9/1
f 41/19/1 42/20/1 43/14/1 44/13/1
f 45/19/1 46/20/1 47/14/1 48/13/1
f 49/19/1 50/20/1 51/14/1 52/13/1
f 53/19/1 54/20/1 55/14/1 56/13/1
f 57/19/1 58/20/1 59/14/1 60/13/1
f 61/17/1 62/18/1 63/10/1 64/9/1
f 65/21/1 66/22/1 67/20/1 68/19/1
f 69/21/1 70/22/1 71/20/1 72/19/1
f 73/21/1 74/22/1 75/20/1 76/19/1
f 77/21/1 78/22/1 79/20/1 80/19/1
f 81/21/1 82/22/1 83/20/1 84/19/1
f 85/17/1 86/18/1 87/10/1 88/9/1
f 89/19/1 90/20/1 91/14/1 92/13/1
f 93/21/1 94/22/1 95/20/1 96/19/1
f 97/19/1 98/20/1 99/14/1 100/13/1
f 101/21/1 102/22/1 103/20/1 104/19/1
f 105/19/1 106/20/1 107/14/1 108/13/1
f 109/23/1 110/24/1 111/18/1 112/17/1
f 113/21/1 114/22/1 115/20/1 116/19/1
f 117/21/1 118/22/1 119/20/1 120/19/1
f 121/21/1 122/22/1 123/20/1 124/19/1
f 125/21/1 126/22/1 127/20/1 128/19/1
f 129/21/1 130/22/1 131/20/1 132/19/1
f 133/25/1 134/26/1 135/24/1 136/23/1
f 137/26/1 138/27/1 139/28/1 140/24/1
f 141/26/1 142/27/1 143/28/1 144/24/1
f 145/26/1 146/27/1 147/28/1 148/24/1
f 149/26/1 150/27/1 151/28/1 152/24/1
f 153/26/1 154/27/1 155/28/1 156/24/1
f 157/8/1 158/7/1 159/29/1 160/30/1
f 161/8/1 162/7/1 163/29/1 164/30/1
f 165/8/1 166/7/1 167/29/1 168/30/1
f 169/8/1 170/7/1 171/29/1 172/30/1
f 173/8/1 174/7/1 175/29/1 176/30/1
f 177/8/1 178/7/1 179/29/1 180/30/1
f 181/5/1 182/6/1 183/7/1 184/8/1
f 185/5/1 186/6/1 187/7/1 188/8/1
f 189/5/1 190/6/1 191/7/1 192/8/1
f 193/5/1 194/6/1 195/7/1 196/8/1
f 197/5/1 198/6/1 199/7/1 200/8/1
f 201/5/1 202/6/1 203/7/1 204/8/1
f 205/13/1 206/14/1 207/15/1 208/16/1
f 209/13/1 210/14/1 211/15/1 212/16/1
f 213/13/1 214/14/1 215/15/1 216/16/1
f 217/13/1 218/14/1 219/15/1 220/16/1
f 221/13/1 222/14/1 223/15/1 224/16/1
f 225/13/1 226/14/1 227/15/1 228/16/1
f 229/20/1 230/31/1 231/32/1 232/14/1
f 233/20/1 234/31/1 235/32/1 236/14/1

