# Tiled2Unity generated file. Do not modify by hand.
# Wavefront file for 'escenaNorte_1_mesh_0253.obj'

# Vertices (Count = 244)
v -13 -1 0
v -14 -1 0
v -14 0 0
v -13 0 0
v -10 -2 0
v -11 -2 0
v -11 -1 0
v -10 -1 0
v -11 -2 0
v -12 -2 0
v -12 -1 0
v -11 -1 0
v -12 -2 0
v -13 -2 0
v -13 -1 0
v -12 -1 0
v -13 -2 0
v -14 -2 0
v -14 -1 0
v -13 -1 0
v -10 -3 0
v -11 -3 0
v -11 -2 0
v -10 -2 0
v -11 -3 0
v -12 -3 0
v -12 -2 0
v -11 -2 0
v -12 -3 0
v -13 -3 0
v -13 -2 0
v -12 -2 0
v -13 -3 0
v -14 -3 0
v -14 -2 0
v -13 -2 0
v -10 -4 0
v -11 -4 0
v -11 -3 0
v -10 -3 0
v -11 -4 0
v -12 -4 0
v -12 -3 0
v -11 -3 0
v -12 -4 0
v -13 -4 0
v -13 -3 0
v -12 -3 0
v -13 -4 0
v -14 -4 0
v -14 -3 0
v -13 -3 0
v -10 -5 0
v -11 -5 0
v -11 -4 0
v -10 -4 0
v -11 -5 0
v -12 -5 0
v -12 -4 0
v -11 -4 0
v -12 -5 0
v -13 -5 0
v -13 -4 0
v -12 -4 0
v -13 -5 0
v -14 -5 0
v -14 -4 0
v -13 -4 0
v -10 -6 0
v -11 -6 0
v -11 -5 0
v -10 -5 0
v -11 -6 0
v -12 -6 0
v -12 -5 0
v -11 -5 0
v -12 -6 0
v -13 -6 0
v -13 -5 0
v -12 -5 0
v -13 -6 0
v -14 -6 0
v -14 -5 0
v -13 -5 0
v -10 -7 0
v -11 -7 0
v -11 -6 0
v -10 -6 0
v -11 -7 0
v -12 -7 0
v -12 -6 0
v -11 -6 0
v -12 -7 0
v -13 -7 0
v -13 -6 0
v -12 -6 0
v -13 -7 0
v -14 -7 0
v -14 -6 0
v -13 -6 0
v -10 -8 0
v -11 -8 0
v -11 -7 0
v -10 -7 0
v -11 -8 0
v -12 -8 0
v -12 -7 0
v -11 -7 0
v -12 -8 0
v -13 -8 0
v -13 -7 0
v -12 -7 0
v -13 -8 0
v -14 -8 0
v -14 -7 0
v -13 -7 0
v -10 -9 0
v -11 -9 0
v -11 -8 0
v -10 -8 0
v -11 -9 0
v -12 -9 0
v -12 -8 0
v -11 -8 0
v -12 -9 0
v -13 -9 0
v -13 -8 0
v -12 -8 0
v -13 -9 0
v -14 -9 0
v -14 -8 0
v -13 -8 0
v -10 -10 0
v -11 -10 0
v -11 -9 0
v -10 -9 0
v -11 -10 0
v -12 -10 0
v -12 -9 0
v -11 -9 0
v -12 -10 0
v -13 -10 0
v -13 -9 0
v -12 -9 0
v -13 -10 0
v -14 -10 0
v -14 -9 0
v -13 -9 0
v -10 -11 0
v -11 -11 0
v -11 -10 0
v -10 -10 0
v -11 -11 0
v -12 -11 0
v -12 -10 0
v -11 -10 0
v -12 -11 0
v -13 -11 0
v -13 -10 0
v -12 -10 0
v -13 -11 0
v -14 -11 0
v -14 -10 0
v -13 -10 0
v -10 -12 0
v -11 -12 0
v -11 -11 0
v -10 -11 0
v -11 -12 0
v -12 -12 0
v -12 -11 0
v -11 -11 0
v -12 -12 0
v -13 -12 0
v -13 -11 0
v -12 -11 0
v -13 -12 0
v -14 -12 0
v -14 -11 0
v -13 -11 0
v -10 -13 0
v -11 -13 0
v -11 -12 0
v -10 -12 0
v -11 -13 0
v -12 -13 0
v -12 -12 0
v -11 -12 0
v -12 -13 0
v -13 -13 0
v -13 -12 0
v -12 -12 0
v -13 -13 0
v -14 -13 0
v -14 -12 0
v -13 -12 0
v -10 -14 0
v -11 -14 0
v -11 -13 0
v -10 -13 0
v -11 -14 0
v -12 -14 0
v -12 -13 0
v -11 -13 0
v -12 -14 0
v -13 -14 0
v -13 -13 0
v -12 -13 0
v -13 -14 0
v -14 -14 0
v -14 -13 0
v -13 -13 0
v -10 -15 0
v -11 -15 0
v -11 -14 0
v -10 -14 0
v -11 -15 0
v -12 -15 0
v -12 -14 0
v -11 -14 0
v -12 -15 0
v -13 -15 0
v -13 -14 0
v -12 -14 0
v -13 -15 0
v -14 -15 0
v -14 -14 0
v -13 -14 0
v -10 -16 0
v -11 -16 0
v -11 -15 0
v -10 -15 0
v -11 -16 0
v -12 -16 0
v -12 -15 0
v -11 -15 0
v -12 -16 0
v -13 -16 0
v -13 -15 0
v -12 -15 0
v -13 -16 0
v -14 -16 0
v -14 -15 0
v -13 -15 0

# Texture cooridinates (Count = 16)
vt 0.328125 0.34375
vt 0.65625 0.34375
vt 0.65625 0.671875
vt 0.328125 0.671875
vt 0.65625 1
vt 0.328125 1
vt 0 0.34375
vt 0 0.671875
vt 0.65625 0.015625
vt 0.984375 0.015625
vt 0.984375 0.34375
vt 0 1
vt 0.328125 0.015625
vt 0.984375 0.671875
vt 0.984375 1
vt 0 0.015625

# Normal
vn 0 0 -1

# Mesh description
g escenaNorte_1_mesh_0253

# Faces
f 1/1/1 2/2/1 3/3/1 4/4/1
f 5/4/1 6/3/1 7/5/1 8/6/1
f 9/7/1 10/1/1 11/4/1 12/8/1
f 13/9/1 14/10/1 15/11/1 16/2/1
f 17/9/1 18/10/1 19/11/1 20/2/1
f 21/8/1 22/4/1 23/6/1 24/12/1
f 25/13/1 26/9/1 27/2/1 28/1/1
f 29/8/1 30/4/1 31/6/1 32/12/1
f 33/4/1 34/3/1 35/5/1 36/6/1
f 37/4/1 38/3/1 39/5/1 40/6/1
f 41/8/1 42/4/1 43/6/1 44/12/1
f 45/8/1 46/4/1 47/6/1 48/12/1
f 49/9/1 50/10/1 51/11/1 52/2/1
f 53/13/1 54/9/1 55/2/1 56/1/1
f 57/2/1 58/11/1 59/14/1 60/3/1
f 61/2/1 62/11/1 63/14/1 64/3/1
f 65/2/1 66/11/1 67/14/1 68/3/1
f 69/7/1 70/1/1 71/4/1 72/8/1
f 73/8/1 74/4/1 75/6/1 76/12/1
f 77/2/1 78/11/1 79/14/1 80/3/1
f 81/3/1 82/14/1 83/15/1 84/5/1
f 85/7/1 86/1/1 87/4/1 88/8/1
f 89/1/1 90/2/1 91/3/1 92/4/1
f 93/2/1 94/11/1 95/14/1 96/3/1
f 97/8/1 98/4/1 99/6/1 100/12/1
f 101/3/1 102/14/1 103/15/1 104/5/1
f 105/3/1 106/14/1 107/15/1 108/5/1
f 109/1/1 110/2/1 111/3/1 112/4/1
f 113/16/1 114/13/1 115/1/1 116/7/1
f 117/16/1 118/13/1 119/1/1 120/7/1
f 121/16/1 122/13/1 123/1/1 124/7/1
f 125/3/1 126/14/1 127/15/1 128/5/1
f 129/4/1 130/3/1 131/5/1 132/6/1
f 133/4/1 134/3/1 135/5/1 136/6/1
f 137/1/1 138/2/1 139/3/1 140/4/1
f 141/1/1 142/2/1 143/3/1 144/4/1
f 145/7/1 146/1/1 147/4/1 148/8/1
f 149/8/1 150/4/1 151/6/1 152/12/1
f 153/9/1 154/10/1 155/11/1 156/2/1
f 157/2/1 158/11/1 159/14/1 160/3/1
f 161/4/1 162/3/1 163/5/1 164/6/1
f 165/3/1 166/14/1 167/15/1 168/5/1
f 169/8/1 170/4/1 171/6/1 172/12/1
f 173/2/1 174/11/1 175/14/1 176/3/1
f 177/9/1 178/10/1 179/11/1 180/2/1
f 181/1/1 182/2/1 183/3/1 184/4/1
f 185/4/1 186/3/1 187/5/1 188/6/1
f 189/9/1 190/10/1 191/11/1 192/2/1
f 193/9/1 194/10/1 195/11/1 196/2/1
f 197/4/1 198/3/1 199/5/1 200/6/1
f 201/1/1 202/2/1 203/3/1 204/4/1
f 205/4/1 206/3/1 207/5/1 208/6/1
f 209/1/1 210/2/1 211/3/1 212/4/1
f 213/1/1 214/2/1 215/3/1 216/4/1
f 217/7/1 218/1/1 219/4/1 220/8/1
f 221/8/1 222/4/1 223/6/1 224/12/1
f 225/13/1 226/9/1 227/2/1 228/1/1
f 229/16/1 230/13/1 231/1/1 232/7/1
f 233/7/1 234/1/1 235/4/1 236/8/1
f 237/4/1 238/3/1 239/5/1 240/6/1
f 241/4/1 242/3/1 243/5/1 244/6/1

