# Tiled2Unity generated file. Do not modify by hand.
# Wavefront file for 'escenaNorte_1_mesh_0060.obj'

# Vertices (Count = 128)
v 0 -15 0
v -1 -15 0
v -1 -14 0
v 0 -14 0
v -1 -15 0
v -2 -15 0
v -2 -14 0
v -1 -14 0
v -2 -15 0
v -3 -15 0
v -3 -14 0
v -2 -14 0
v -3 -15 0
v -4 -15 0
v -4 -14 0
v -3 -14 0
v -4 -15 0
v -5 -15 0
v -5 -14 0
v -4 -14 0
v -5 -15 0
v -6 -15 0
v -6 -14 0
v -5 -14 0
v -6 -15 0
v -7 -15 0
v -7 -14 0
v -6 -14 0
v -7 -15 0
v -8 -15 0
v -8 -14 0
v -7 -14 0
v -8 -15 0
v -9 -15 0
v -9 -14 0
v -8 -14 0
v -9 -15 0
v -10 -15 0
v -10 -14 0
v -9 -14 0
v -10 -15 0
v -11 -15 0
v -11 -14 0
v -10 -14 0
v -11 -15 0
v -12 -15 0
v -12 -14 0
v -11 -14 0
v -12 -15 0
v -13 -15 0
v -13 -14 0
v -12 -14 0
v -13 -15 0
v -14 -15 0
v -14 -14 0
v -13 -14 0
v -14 -15 0
v -15 -15 0
v -15 -14 0
v -14 -14 0
v -15 -15 0
v -16 -15 0
v -16 -14 0
v -15 -14 0
v 0 -16 0
v -1 -16 0
v -1 -15 0
v 0 -15 0
v -1 -16 0
v -2 -16 0
v -2 -15 0
v -1 -15 0
v -2 -16 0
v -3 -16 0
v -3 -15 0
v -2 -15 0
v -3 -16 0
v -4 -16 0
v -4 -15 0
v -3 -15 0
v -4 -16 0
v -5 -16 0
v -5 -15 0
v -4 -15 0
v -5 -16 0
v -6 -16 0
v -6 -15 0
v -5 -15 0
v -6 -16 0
v -7 -16 0
v -7 -15 0
v -6 -15 0
v -7 -16 0
v -8 -16 0
v -8 -15 0
v -7 -15 0
v -8 -16 0
v -9 -16 0
v -9 -15 0
v -8 -15 0
v -9 -16 0
v -10 -16 0
v -10 -15 0
v -9 -15 0
v -10 -16 0
v -11 -16 0
v -11 -15 0
v -10 -15 0
v -11 -16 0
v -12 -16 0
v -12 -15 0
v -11 -15 0
v -12 -16 0
v -13 -16 0
v -13 -15 0
v -12 -15 0
v -13 -16 0
v -14 -16 0
v -14 -15 0
v -13 -15 0
v -14 -16 0
v -15 -16 0
v -15 -15 0
v -14 -15 0
v -15 -16 0
v -16 -16 0
v -16 -15 0
v -15 -15 0

# Texture cooridinates (Count = 26)
vt 0.765625 0.8632813
vt 0.7929688 0.8632813
vt 0.7929688 0.890625
vt 0.765625 0.890625
vt 0.8203125 0.8632813
vt 0.8203125 0.890625
vt 0.8476563 0.8632813
vt 0.8476563 0.890625
vt 0.7109375 0.8632813
vt 0.7382813 0.8632813
vt 0.7382813 0.890625
vt 0.7109375 0.890625
vt 0.765625 0.8359375
vt 0.7929688 0.8359375
vt 0.875 0.2890625
vt 0.9023438 0.2890625
vt 0.9023438 0.3164063
vt 0.875 0.3164063
vt 0.9296875 0.2890625
vt 0.9296875 0.3164063
vt 0.9570313 0.2890625
vt 0.9570313 0.3164063
vt 0.984375 0.2890625
vt 0.984375 0.3164063
vt 0.7382813 0.8359375
vt 0.7109375 0.8359375

# Normal
vn 0 0 -1

# Mesh description
g escenaNorte_1_mesh_0060

# Faces
f 1/1/1 2/2/1 3/3/1 4/4/1
f 5/1/1 6/2/1 7/3/1 8/4/1
f 9/1/1 10/2/1 11/3/1 12/4/1
f 13/1/1 14/2/1 15/3/1 16/4/1
f 17/2/1 18/5/1 19/6/1 20/3/1
f 21/5/1 22/7/1 23/8/1 24/6/1
f 25/9/1 26/10/1 27/11/1 28/12/1
f 29/10/1 30/1/1 31/4/1 32/11/1
f 33/1/1 34/2/1 35/3/1 36/4/1
f 37/1/1 38/2/1 39/3/1 40/4/1
f 41/1/1 42/2/1 43/3/1 44/4/1
f 45/1/1 46/2/1 47/3/1 48/4/1
f 49/9/1 50/10/1 51/11/1 52/12/1
f 53/10/1 54/1/1 55/4/1 56/11/1
f 57/1/1 58/2/1 59/3/1 60/4/1
f 61/1/1 62/2/1 63/3/1 64/4/1
f 65/13/1 66/14/1 67/2/1 68/1/1
f 69/13/1 70/14/1 71/2/1 72/1/1
f 73/13/1 74/14/1 75/2/1 76/1/1
f 77/15/1 78/16/1 79/17/1 80/18/1
f 81/16/1 82/19/1 83/20/1 84/17/1
f 85/19/1 86/21/1 87/22/1 88/20/1
f 89/21/1 90/23/1 91/24/1 92/22/1
f 93/25/1 94/13/1 95/1/1 96/10/1
f 97/13/1 98/14/1 99/2/1 100/1/1
f 101/13/1 102/14/1 103/2/1 104/1/1
f 105/13/1 106/14/1 107/2/1 108/1/1
f 109/13/1 110/14/1 111/2/1 112/1/1
f 113/26/1 114/25/1 115/10/1 116/9/1
f 117/25/1 118/13/1 119/1/1 120/10/1
f 121/13/1 122/14/1 123/2/1 124/1/1
f 125/13/1 126/14/1 127/2/1 128/1/1

