# Tiled2Unity generated file. Do not modify by hand.
# Wavefront file for 'escenaNorte_1_mesh_0189.obj'

# Vertices (Count = 176)
v -2 -1 0
v -3 -1 0
v -3 0 0
v -2 0 0
v -13 -1 0
v -14 -1 0
v -14 0 0
v -13 0 0
v -2 -2 0
v -3 -2 0
v -3 -1 0
v -2 -1 0
v -13 -2 0
v -14 -2 0
v -14 -1 0
v -13 -1 0
v -2 -3 0
v -3 -3 0
v -3 -2 0
v -2 -2 0
v -13 -3 0
v -14 -3 0
v -14 -2 0
v -13 -2 0
v -2 -4 0
v -3 -4 0
v -3 -3 0
v -2 -3 0
v -13 -4 0
v -14 -4 0
v -14 -3 0
v -13 -3 0
v -2 -5 0
v -3 -5 0
v -3 -4 0
v -2 -4 0
v -13 -5 0
v -14 -5 0
v -14 -4 0
v -13 -4 0
v 0 -6 0
v -1 -6 0
v -1 -5 0
v 0 -5 0
v -1 -6 0
v -2 -6 0
v -2 -5 0
v -1 -5 0
v -3 -6 0
v -4 -6 0
v -4 -5 0
v -3 -5 0
v -4 -6 0
v -5 -6 0
v -5 -5 0
v -4 -5 0
v -5 -6 0
v -6 -6 0
v -6 -5 0
v -5 -5 0
v -6 -6 0
v -7 -6 0
v -7 -5 0
v -6 -5 0
v -7 -6 0
v -8 -6 0
v -8 -5 0
v -7 -5 0
v -8 -6 0
v -9 -6 0
v -9 -5 0
v -8 -5 0
v -9 -6 0
v -10 -6 0
v -10 -5 0
v -9 -5 0
v -10 -6 0
v -11 -6 0
v -11 -5 0
v -10 -5 0
v -11 -6 0
v -12 -6 0
v -12 -5 0
v -11 -5 0
v -12 -6 0
v -13 -6 0
v -13 -5 0
v -12 -5 0
v -14 -6 0
v -15 -6 0
v -15 -5 0
v -14 -5 0
v -15 -6 0
v -16 -6 0
v -16 -5 0
v -15 -5 0
v -2 -7 0
v -3 -7 0
v -3 -6 0
v -2 -6 0
v -13 -7 0
v -14 -7 0
v -14 -6 0
v -13 -6 0
v -2 -8 0
v -3 -8 0
v -3 -7 0
v -2 -7 0
v -13 -8 0
v -14 -8 0
v -14 -7 0
v -13 -7 0
v -2 -9 0
v -3 -9 0
v -3 -8 0
v -2 -8 0
v -13 -9 0
v -14 -9 0
v -14 -8 0
v -13 -8 0
v -2 -10 0
v -3 -10 0
v -3 -9 0
v -2 -9 0
v -13 -10 0
v -14 -10 0
v -14 -9 0
v -13 -9 0
v -2 -11 0
v -3 -11 0
v -3 -10 0
v -2 -10 0
v -13 -11 0
v -14 -11 0
v -14 -10 0
v -13 -10 0
v -2 -12 0
v -3 -12 0
v -3 -11 0
v -2 -11 0
v -13 -12 0
v -14 -12 0
v -14 -11 0
v -13 -11 0
v -2 -13 0
v -3 -13 0
v -3 -12 0
v -2 -12 0
v -13 -13 0
v -14 -13 0
v -14 -12 0
v -13 -12 0
v -2 -14 0
v -3 -14 0
v -3 -13 0
v -2 -13 0
v -13 -14 0
v -14 -14 0
v -14 -13 0
v -13 -13 0
v -2 -15 0
v -3 -15 0
v -3 -14 0
v -2 -14 0
v -13 -15 0
v -14 -15 0
v -14 -14 0
v -13 -14 0
v -2 -16 0
v -3 -16 0
v -3 -15 0
v -2 -15 0
v -13 -16 0
v -14 -16 0
v -14 -15 0
v -13 -15 0

# Texture cooridinates (Count = 4)
vt 0.5839844 0.9739583
vt 0.5429688 0.9739583
vt 0.5429688 0.8645833
vt 0.5839844 0.8645833

# Normal
vn 0 0 -1

# Mesh description
g escenaNorte_1_mesh_0189

# Faces
f 1/1/1 2/2/1 3/3/1 4/4/1
f 5/1/1 6/2/1 7/3/1 8/4/1
f 9/1/1 10/2/1 11/3/1 12/4/1
f 13/1/1 14/2/1 15/3/1 16/4/1
f 17/1/1 18/2/1 19/3/1 20/4/1
f 21/1/1 22/2/1 23/3/1 24/4/1
f 25/1/1 26/2/1 27/3/1 28/4/1
f 29/1/1 30/2/1 31/3/1 32/4/1
f 33/1/1 34/2/1 35/3/1 36/4/1
f 37/1/1 38/2/1 39/3/1 40/4/1
f 41/2/1 42/3/1 43/4/1 44/1/1
f 45/2/1 46/3/1 47/4/1 48/1/1
f 49/2/1 50/3/1 51/4/1 52/1/1
f 53/2/1 54/3/1 55/4/1 56/1/1
f 57/2/1 58/3/1 59/4/1 60/1/1
f 61/2/1 62/3/1 63/4/1 64/1/1
f 65/2/1 66/3/1 67/4/1 68/1/1
f 69/2/1 70/3/1 71/4/1 72/1/1
f 73/2/1 74/3/1 75/4/1 76/1/1
f 77/2/1 78/3/1 79/4/1 80/1/1
f 81/2/1 82/3/1 83/4/1 84/1/1
f 85/2/1 86/3/1 87/4/1 88/1/1
f 89/2/1 90/3/1 91/4/1 92/1/1
f 93/2/1 94/3/1 95/4/1 96/1/1
f 97/1/1 98/2/1 99/3/1 100/4/1
f 101/1/1 102/2/1 103/3/1 104/4/1
f 105/1/1 106/2/1 107/3/1 108/4/1
f 109/1/1 110/2/1 111/3/1 112/4/1
f 113/1/1 114/2/1 115/3/1 116/4/1
f 117/1/1 118/2/1 119/3/1 120/4/1
f 121/1/1 122/2/1 123/3/1 124/4/1
f 125/1/1 126/2/1 127/3/1 128/4/1
f 129/1/1 130/2/1 131/3/1 132/4/1
f 133/1/1 134/2/1 135/3/1 136/4/1
f 137/1/1 138/2/1 139/3/1 140/4/1
f 141/1/1 142/2/1 143/3/1 144/4/1
f 145/1/1 146/2/1 147/3/1 148/4/1
f 149/1/1 150/2/1 151/3/1 152/4/1
f 153/1/1 154/2/1 155/3/1 156/4/1
f 157/1/1 158/2/1 159/3/1 160/4/1
f 161/1/1 162/2/1 163/3/1 164/4/1
f 165/1/1 166/2/1 167/3/1 168/4/1
f 169/1/1 170/2/1 171/3/1 172/4/1
f 173/1/1 174/2/1 175/3/1 176/4/1

