# Tiled2Unity generated file. Do not modify by hand.
# Wavefront file for 'escenaNorte_1_mesh_0099.obj'

# Vertices (Count = 76)
v -15 -1 0
v -16 -1 0
v -16 0 0
v -15 0 0
v -4 -11 0
v -5 -11 0
v -5 -10 0
v -4 -10 0
v -5 -11 0
v -6 -11 0
v -6 -10 0
v -5 -10 0
v -6 -11 0
v -7 -11 0
v -7 -10 0
v -6 -10 0
v -7 -11 0
v -8 -11 0
v -8 -10 0
v -7 -10 0
v -8 -11 0
v -9 -11 0
v -9 -10 0
v -8 -10 0
v -9 -11 0
v -10 -11 0
v -10 -10 0
v -9 -10 0
v -10 -11 0
v -11 -11 0
v -11 -10 0
v -10 -10 0
v -11 -11 0
v -12 -11 0
v -12 -10 0
v -11 -10 0
v -15 -11 0
v -16 -11 0
v -16 -10 0
v -15 -10 0
v -4 -12 0
v -5 -12 0
v -5 -11 0
v -4 -11 0
v -5 -12 0
v -6 -12 0
v -6 -11 0
v -5 -11 0
v -6 -12 0
v -7 -12 0
v -7 -11 0
v -6 -11 0
v -7 -12 0
v -8 -12 0
v -8 -11 0
v -7 -11 0
v -8 -12 0
v -9 -12 0
v -9 -11 0
v -8 -11 0
v -9 -12 0
v -10 -12 0
v -10 -11 0
v -9 -11 0
v -10 -12 0
v -11 -12 0
v -11 -11 0
v -10 -11 0
v -11 -12 0
v -12 -12 0
v -12 -11 0
v -11 -11 0
v -15 -12 0
v -16 -12 0
v -16 -11 0
v -15 -11 0

# Texture cooridinates (Count = 9)
vt 0.5742188 0.5625
vt 0.6015625 0.5625
vt 0.6015625 0.5898438
vt 0.5742188 0.5898438
vt 0.6015625 0.6171875
vt 0.5742188 0.6171875
vt 0.6289063 0.5898438
vt 0.6289063 0.6171875
vt 0.6289063 0.5625

# Normal
vn 0 0 -1

# Mesh description
g escenaNorte_1_mesh_0099

# Faces
f 1/1/1 2/2/1 3/3/1 4/4/1
f 5/4/1 6/3/1 7/5/1 8/6/1
f 9/3/1 10/7/1 11/8/1 12/5/1
f 13/4/1 14/3/1 15/5/1 16/6/1
f 17/3/1 18/7/1 19/8/1 20/5/1
f 21/4/1 22/3/1 23/5/1 24/6/1
f 25/3/1 26/7/1 27/8/1 28/5/1
f 29/4/1 30/3/1 31/5/1 32/6/1
f 33/3/1 34/7/1 35/8/1 36/5/1
f 37/4/1 38/3/1 39/5/1 40/6/1
f 41/1/1 42/2/1 43/3/1 44/4/1
f 45/2/1 46/9/1 47/7/1 48/3/1
f 49/1/1 50/2/1 51/3/1 52/4/1
f 53/2/1 54/9/1 55/7/1 56/3/1
f 57/1/1 58/2/1 59/3/1 60/4/1
f 61/2/1 62/9/1 63/7/1 64/3/1
f 65/1/1 66/2/1 67/3/1 68/4/1
f 69/2/1 70/9/1 71/7/1 72/3/1
f 73/1/1 74/2/1 75/3/1 76/4/1

