# Tiled2Unity generated file. Do not modify by hand.
# Wavefront file for 'escenaNorte_1_mesh_0005.obj'

# Vertices (Count = 128)
v 0 -4 0
v -1 -4 0
v -1 -3 0
v 0 -3 0
v -1 -4 0
v -2 -4 0
v -2 -3 0
v -1 -3 0
v 0 -5 0
v -1 -5 0
v -1 -4 0
v 0 -4 0
v -1 -5 0
v -2 -5 0
v -2 -4 0
v -1 -4 0
v 0 -6 0
v -1 -6 0
v -1 -5 0
v 0 -5 0
v -1 -6 0
v -2 -6 0
v -2 -5 0
v -1 -5 0
v 0 -7 0
v -1 -7 0
v -1 -6 0
v 0 -6 0
v -1 -7 0
v -2 -7 0
v -2 -6 0
v -1 -6 0
v 0 -8 0
v -1 -8 0
v -1 -7 0
v 0 -7 0
v -1 -8 0
v -2 -8 0
v -2 -7 0
v -1 -7 0
v 0 -9 0
v -1 -9 0
v -1 -8 0
v 0 -8 0
v -1 -9 0
v -2 -9 0
v -2 -8 0
v -1 -8 0
v 0 -10 0
v -1 -10 0
v -1 -9 0
v 0 -9 0
v -1 -10 0
v -2 -10 0
v -2 -9 0
v -1 -9 0
v 0 -11 0
v -1 -11 0
v -1 -10 0
v 0 -10 0
v -1 -11 0
v -2 -11 0
v -2 -10 0
v -1 -10 0
v -5 -15 0
v -6 -15 0
v -6 -14 0
v -5 -14 0
v -6 -15 0
v -7 -15 0
v -7 -14 0
v -6 -14 0
v -7 -15 0
v -8 -15 0
v -8 -14 0
v -7 -14 0
v -8 -15 0
v -9 -15 0
v -9 -14 0
v -8 -14 0
v -9 -15 0
v -10 -15 0
v -10 -14 0
v -9 -14 0
v -10 -15 0
v -11 -15 0
v -11 -14 0
v -10 -14 0
v -11 -15 0
v -12 -15 0
v -12 -14 0
v -11 -14 0
v -12 -15 0
v -13 -15 0
v -13 -14 0
v -12 -14 0
v -5 -16 0
v -6 -16 0
v -6 -15 0
v -5 -15 0
v -6 -16 0
v -7 -16 0
v -7 -15 0
v -6 -15 0
v -7 -16 0
v -8 -16 0
v -8 -15 0
v -7 -15 0
v -8 -16 0
v -9 -16 0
v -9 -15 0
v -8 -15 0
v -9 -16 0
v -10 -16 0
v -10 -15 0
v -9 -15 0
v -10 -16 0
v -11 -16 0
v -11 -15 0
v -10 -15 0
v -11 -16 0
v -12 -16 0
v -12 -15 0
v -11 -15 0
v -12 -16 0
v -13 -16 0
v -13 -15 0
v -12 -15 0

# Texture cooridinates (Count = 31)
vt 0.7929688 0.9453125
vt 0.8203125 0.9453125
vt 0.8203125 0.9726563
vt 0.7929688 0.9726563
vt 0.8476563 0.9453125
vt 0.8476563 0.9726563
vt 0.8203125 0.9179688
vt 0.8476563 0.9179688
vt 0.7929688 0.9179688
vt 0.8203125 0.890625
vt 0.8476563 0.890625
vt 0.7929688 0.8632813
vt 0.8203125 0.8632813
vt 0.7929688 0.890625
vt 0.8476563 0.8632813
vt 0.7929688 0.8359375
vt 0.8203125 0.8359375
vt 0.8476563 0.8359375
vt 0.9296875 0.09765625
vt 0.9570313 0.09765625
vt 0.9570313 0.125
vt 0.9296875 0.125
vt 0.984375 0.09765625
vt 0.984375 0.125
vt 0.7109375 0.9179688
vt 0.7382813 0.9179688
vt 0.7382813 0.9453125
vt 0.7109375 0.9453125
vt 0.765625 0.9179688
vt 0.765625 0.9453125
vt 0.765625 0.9726563

# Normal
vn 0 0 -1

# Mesh description
g escenaNorte_1_mesh_0005

# Faces
f 1/1/1 2/2/1 3/3/1 4/4/1
f 5/2/1 6/5/1 7/6/1 8/3/1
f 9/1/1 10/2/1 11/3/1 12/4/1
f 13/7/1 14/8/1 15/5/1 16/2/1
f 17/9/1 18/7/1 19/2/1 20/1/1
f 21/10/1 22/11/1 23/8/1 24/7/1
f 25/12/1 26/13/1 27/10/1 28/14/1
f 29/13/1 30/15/1 31/11/1 32/10/1
f 33/16/1 34/17/1 35/13/1 36/12/1
f 37/17/1 38/18/1 39/15/1 40/13/1
f 41/19/1 42/20/1 43/21/1 44/22/1
f 45/20/1 46/23/1 47/24/1 48/21/1
f 49/19/1 50/20/1 51/21/1 52/22/1
f 53/20/1 54/23/1 55/24/1 56/21/1
f 57/20/1 58/23/1 59/24/1 60/21/1
f 61/20/1 62/23/1 63/24/1 64/21/1
f 65/25/1 66/26/1 67/27/1 68/28/1
f 69/26/1 70/29/1 71/30/1 72/27/1
f 73/29/1 74/9/1 75/1/1 76/30/1
f 77/30/1 78/1/1 79/4/1 80/31/1
f 81/30/1 82/1/1 83/4/1 84/31/1
f 85/30/1 86/1/1 87/4/1 88/31/1
f 89/1/1 90/2/1 91/3/1 92/4/1
f 93/2/1 94/5/1 95/6/1 96/3/1
f 97/25/1 98/26/1 99/27/1 100/28/1
f 101/26/1 102/29/1 103/30/1 104/27/1
f 105/29/1 106/9/1 107/1/1 108/30/1
f 109/29/1 110/9/1 111/1/1 112/30/1
f 113/29/1 114/9/1 115/1/1 116/30/1
f 117/30/1 118/1/1 119/4/1 120/31/1
f 121/1/1 122/2/1 123/3/1 124/4/1
f 125/7/1 126/8/1 127/5/1 128/2/1

