# Tiled2Unity generated file. Do not modify by hand.
# Wavefront file for 'escenaNorte_1_mesh_0055.obj'

# Vertices (Count = 344)
v 0 -1 0
v -1 -1 0
v -1 0 0
v 0 0 0
v -1 -1 0
v -2 -1 0
v -2 0 0
v -1 0 0
v -2 -1 0
v -3 -1 0
v -3 0 0
v -2 0 0
v -3 -1 0
v -4 -1 0
v -4 0 0
v -3 0 0
v -4 -1 0
v -5 -1 0
v -5 0 0
v -4 0 0
v -5 -1 0
v -6 -1 0
v -6 0 0
v -5 0 0
v -6 -1 0
v -7 -1 0
v -7 0 0
v -6 0 0
v -7 -1 0
v -8 -1 0
v -8 0 0
v -7 0 0
v 0 -2 0
v -1 -2 0
v -1 -1 0
v 0 -1 0
v -1 -2 0
v -2 -2 0
v -2 -1 0
v -1 -1 0
v -2 -2 0
v -3 -2 0
v -3 -1 0
v -2 -1 0
v -3 -2 0
v -4 -2 0
v -4 -1 0
v -3 -1 0
v -4 -2 0
v -5 -2 0
v -5 -1 0
v -4 -1 0
v -5 -2 0
v -6 -2 0
v -6 -1 0
v -5 -1 0
v -6 -2 0
v -7 -2 0
v -7 -1 0
v -6 -1 0
v -7 -2 0
v -8 -2 0
v -8 -1 0
v -7 -1 0
v 0 -3 0
v -1 -3 0
v -1 -2 0
v 0 -2 0
v -1 -3 0
v -2 -3 0
v -2 -2 0
v -1 -2 0
v -2 -3 0
v -3 -3 0
v -3 -2 0
v -2 -2 0
v -3 -3 0
v -4 -3 0
v -4 -2 0
v -3 -2 0
v -4 -3 0
v -5 -3 0
v -5 -2 0
v -4 -2 0
v -5 -3 0
v -6 -3 0
v -6 -2 0
v -5 -2 0
v -6 -3 0
v -7 -3 0
v -7 -2 0
v -6 -2 0
v -7 -3 0
v -8 -3 0
v -8 -2 0
v -7 -2 0
v 0 -4 0
v -1 -4 0
v -1 -3 0
v 0 -3 0
v -1 -4 0
v -2 -4 0
v -2 -3 0
v -1 -3 0
v -2 -4 0
v -3 -4 0
v -3 -3 0
v -2 -3 0
v -3 -4 0
v -4 -4 0
v -4 -3 0
v -3 -3 0
v -4 -4 0
v -5 -4 0
v -5 -3 0
v -4 -3 0
v -5 -4 0
v -6 -4 0
v -6 -3 0
v -5 -3 0
v -6 -4 0
v -7 -4 0
v -7 -3 0
v -6 -3 0
v -7 -4 0
v -8 -4 0
v -8 -3 0
v -7 -3 0
v 0 -5 0
v -1 -5 0
v -1 -4 0
v 0 -4 0
v -1 -5 0
v -2 -5 0
v -2 -4 0
v -1 -4 0
v -2 -5 0
v -3 -5 0
v -3 -4 0
v -2 -4 0
v -3 -5 0
v -4 -5 0
v -4 -4 0
v -3 -4 0
v -4 -5 0
v -5 -5 0
v -5 -4 0
v -4 -4 0
v -5 -5 0
v -6 -5 0
v -6 -4 0
v -5 -4 0
v -6 -5 0
v -7 -5 0
v -7 -4 0
v -6 -4 0
v -7 -5 0
v -8 -5 0
v -8 -4 0
v -7 -4 0
v 0 -6 0
v -1 -6 0
v -1 -5 0
v 0 -5 0
v -1 -6 0
v -2 -6 0
v -2 -5 0
v -1 -5 0
v -2 -6 0
v -3 -6 0
v -3 -5 0
v -2 -5 0
v -3 -6 0
v -4 -6 0
v -4 -5 0
v -3 -5 0
v -4 -6 0
v -5 -6 0
v -5 -5 0
v -4 -5 0
v -5 -6 0
v -6 -6 0
v -6 -5 0
v -5 -5 0
v -6 -6 0
v -7 -6 0
v -7 -5 0
v -6 -5 0
v -7 -6 0
v -8 -6 0
v -8 -5 0
v -7 -5 0
v 0 -7 0
v -1 -7 0
v -1 -6 0
v 0 -6 0
v -1 -7 0
v -2 -7 0
v -2 -6 0
v -1 -6 0
v -2 -7 0
v -3 -7 0
v -3 -6 0
v -2 -6 0
v -3 -7 0
v -4 -7 0
v -4 -6 0
v -3 -6 0
v -4 -7 0
v -5 -7 0
v -5 -6 0
v -4 -6 0
v -5 -7 0
v -6 -7 0
v -6 -6 0
v -5 -6 0
v -6 -7 0
v -7 -7 0
v -7 -6 0
v -6 -6 0
v -7 -7 0
v -8 -7 0
v -8 -6 0
v -7 -6 0
v -11 -11 0
v -12 -11 0
v -12 -10 0
v -11 -10 0
v -12 -11 0
v -13 -11 0
v -13 -10 0
v -12 -10 0
v -13 -11 0
v -14 -11 0
v -14 -10 0
v -13 -10 0
v -14 -11 0
v -15 -11 0
v -15 -10 0
v -14 -10 0
v -15 -11 0
v -16 -11 0
v -16 -10 0
v -15 -10 0
v -11 -12 0
v -12 -12 0
v -12 -11 0
v -11 -11 0
v -12 -12 0
v -13 -12 0
v -13 -11 0
v -12 -11 0
v -13 -12 0
v -14 -12 0
v -14 -11 0
v -13 -11 0
v -14 -12 0
v -15 -12 0
v -15 -11 0
v -14 -11 0
v -15 -12 0
v -16 -12 0
v -16 -11 0
v -15 -11 0
v -11 -13 0
v -12 -13 0
v -12 -12 0
v -11 -12 0
v -12 -13 0
v -13 -13 0
v -13 -12 0
v -12 -12 0
v -13 -13 0
v -14 -13 0
v -14 -12 0
v -13 -12 0
v -14 -13 0
v -15 -13 0
v -15 -12 0
v -14 -12 0
v -15 -13 0
v -16 -13 0
v -16 -12 0
v -15 -12 0
v -11 -14 0
v -12 -14 0
v -12 -13 0
v -11 -13 0
v -12 -14 0
v -13 -14 0
v -13 -13 0
v -12 -13 0
v -13 -14 0
v -14 -14 0
v -14 -13 0
v -13 -13 0
v -14 -14 0
v -15 -14 0
v -15 -13 0
v -14 -13 0
v -15 -14 0
v -16 -14 0
v -16 -13 0
v -15 -13 0
v -11 -15 0
v -12 -15 0
v -12 -14 0
v -11 -14 0
v -12 -15 0
v -13 -15 0
v -13 -14 0
v -12 -14 0
v -13 -15 0
v -14 -15 0
v -14 -14 0
v -13 -14 0
v -14 -15 0
v -15 -15 0
v -15 -14 0
v -14 -14 0
v -15 -15 0
v -16 -15 0
v -16 -14 0
v -15 -14 0
v -11 -16 0
v -12 -16 0
v -12 -15 0
v -11 -15 0
v -12 -16 0
v -13 -16 0
v -13 -15 0
v -12 -15 0
v -13 -16 0
v -14 -16 0
v -14 -15 0
v -13 -15 0
v -14 -16 0
v -15 -16 0
v -15 -15 0
v -14 -15 0
v -15 -16 0
v -16 -16 0
v -16 -15 0
v -15 -15 0

# Texture cooridinates (Count = 41)
vt 0.7109375 0.9179688
vt 0.7382813 0.9179688
vt 0.7382813 0.9453125
vt 0.7109375 0.9453125
vt 0.765625 0.9179688
vt 0.765625 0.9453125
vt 0.7929688 0.9179688
vt 0.7929688 0.9453125
vt 0.7929688 0.9726563
vt 0.765625 0.9726563
vt 0.8203125 0.9453125
vt 0.8203125 0.9726563
vt 0.8203125 0.9179688
vt 0.8476563 0.9179688
vt 0.8476563 0.9453125
vt 0.7109375 0.890625
vt 0.7382813 0.890625
vt 0.765625 0.890625
vt 0.7929688 0.890625
vt 0.8203125 0.890625
vt 0.8476563 0.890625
vt 0.7109375 0.8632813
vt 0.7382813 0.8632813
vt 0.765625 0.8632813
vt 0.7929688 0.8632813
vt 0.8203125 0.8632813
vt 0.8476563 0.8632813
vt 0.7109375 0.8359375
vt 0.7382813 0.8359375
vt 0.765625 0.8359375
vt 0.7929688 0.8359375
vt 0.8203125 0.8359375
vt 0.8476563 0.8359375
vt 0.9023438 0.09765625
vt 0.9296875 0.09765625
vt 0.9296875 0.125
vt 0.9023438 0.125
vt 0.9570313 0.09765625
vt 0.9570313 0.125
vt 0.984375 0.09765625
vt 0.984375 0.125

# Normal
vn 0 0 -1

# Mesh description
g escenaNorte_1_mesh_0055

# Faces
f 1/1/1 2/2/1 3/3/1 4/4/1
f 5/2/1 6/5/1 7/6/1 8/3/1
f 9/5/1 10/7/1 11/8/1 12/6/1
f 13/5/1 14/7/1 15/8/1 16/6/1
f 17/5/1 18/7/1 19/8/1 20/6/1
f 21/6/1 22/8/1 23/9/1 24/10/1
f 25/8/1 26/11/1 27/12/1 28/9/1
f 29/13/1 30/14/1 31/15/1 32/11/1
f 33/16/1 34/17/1 35/2/1 36/1/1
f 37/17/1 38/18/1 39/5/1 40/2/1
f 41/18/1 42/19/1 43/7/1 44/5/1
f 45/5/1 46/7/1 47/8/1 48/6/1
f 49/5/1 50/7/1 51/8/1 52/6/1
f 53/5/1 54/7/1 55/8/1 56/6/1
f 57/7/1 58/13/1 59/11/1 60/8/1
f 61/20/1 62/21/1 63/14/1 64/13/1
f 65/22/1 66/23/1 67/17/1 68/16/1
f 69/23/1 70/24/1 71/18/1 72/17/1
f 73/24/1 74/25/1 75/19/1 76/18/1
f 77/24/1 78/25/1 79/19/1 80/18/1
f 81/24/1 82/25/1 83/19/1 84/18/1
f 85/24/1 86/25/1 87/19/1 88/18/1
f 89/25/1 90/26/1 91/20/1 92/19/1
f 93/26/1 94/27/1 95/21/1 96/20/1
f 97/28/1 98/29/1 99/23/1 100/22/1
f 101/29/1 102/30/1 103/24/1 104/23/1
f 105/30/1 106/31/1 107/25/1 108/24/1
f 109/30/1 110/31/1 111/25/1 112/24/1
f 113/30/1 114/31/1 115/25/1 116/24/1
f 117/30/1 118/31/1 119/25/1 120/24/1
f 121/31/1 122/32/1 123/26/1 124/25/1
f 125/32/1 126/33/1 127/27/1 128/26/1
f 129/34/1 130/35/1 131/36/1 132/37/1
f 133/34/1 134/35/1 135/36/1 136/37/1
f 137/34/1 138/35/1 139/36/1 140/37/1
f 141/34/1 142/35/1 143/36/1 144/37/1
f 145/34/1 146/35/1 147/36/1 148/37/1
f 149/34/1 150/35/1 151/36/1 152/37/1
f 153/35/1 154/38/1 155/39/1 156/36/1
f 157/38/1 158/40/1 159/41/1 160/39/1
f 161/34/1 162/35/1 163/36/1 164/37/1
f 165/34/1 166/35/1 167/36/1 168/37/1
f 169/34/1 170/35/1 171/36/1 172/37/1
f 173/35/1 174/38/1 175/39/1 176/36/1
f 177/38/1 178/40/1 179/41/1 180/39/1
f 181/34/1 182/35/1 183/36/1 184/37/1
f 185/35/1 186/38/1 187/39/1 188/36/1
f 189/38/1 190/40/1 191/41/1 192/39/1
f 193/34/1 194/35/1 195/36/1 196/37/1
f 197/35/1 198/38/1 199/39/1 200/36/1
f 201/38/1 202/40/1 203/41/1 204/39/1
f 205/38/1 206/40/1 207/41/1 208/39/1
f 209/38/1 210/40/1 211/41/1 212/39/1
f 213/38/1 214/40/1 215/41/1 216/39/1
f 217/38/1 218/40/1 219/41/1 220/39/1
f 221/38/1 222/40/1 223/41/1 224/39/1
f 225/1/1 226/2/1 227/3/1 228/4/1
f 229/2/1 230/5/1 231/6/1 232/3/1
f 233/5/1 234/7/1 235/8/1 236/6/1
f 237/6/1 238/8/1 239/9/1 240/10/1
f 241/6/1 242/8/1 243/9/1 244/10/1
f 245/1/1 246/2/1 247/3/1 248/4/1
f 249/2/1 250/5/1 251/6/1 252/3/1
f 253/5/1 254/7/1 255/8/1 256/6/1
f 257/5/1 258/7/1 259/8/1 260/6/1
f 261/5/1 262/7/1 263/8/1 264/6/1
f 265/16/1 266/17/1 267/2/1 268/1/1
f 269/17/1 270/18/1 271/5/1 272/2/1
f 273/18/1 274/19/1 275/7/1 276/5/1
f 277/5/1 278/7/1 279/8/1 280/6/1
f 281/5/1 282/7/1 283/8/1 284/6/1
f 285/22/1 286/23/1 287/17/1 288/16/1
f 289/23/1 290/24/1 291/18/1 292/17/1
f 293/24/1 294/25/1 295/19/1 296/18/1
f 297/24/1 298/25/1 299/19/1 300/18/1
f 301/24/1 302/25/1 303/19/1 304/18/1
f 305/28/1 306/29/1 307/23/1 308/22/1
f 309/29/1 310/30/1 311/24/1 312/23/1
f 313/30/1 314/31/1 315/25/1 316/24/1
f 317/30/1 318/31/1 319/25/1 320/24/1
f 321/30/1 322/31/1 323/25/1 324/24/1
f 325/34/1 326/35/1 327/36/1 328/37/1
f 329/34/1 330/35/1 331/36/1 332/37/1
f 333/34/1 334/35/1 335/36/1 336/37/1
f 337/34/1 338/35/1 339/36/1 340/37/1
f 341/34/1 342/35/1 343/36/1 344/37/1

