# Tiled2Unity generated file. Do not modify by hand.
# Wavefront file for 'escenaNorte_1_mesh_0201.obj'

# Vertices (Count = 176)
v 0 -1 0
v -1 -1 0
v -1 0 0
v 0 0 0
v -1 -1 0
v -2 -1 0
v -2 0 0
v -1 0 0
v -2 -1 0
v -3 -1 0
v -3 0 0
v -2 0 0
v -3 -1 0
v -4 -1 0
v -4 0 0
v -3 0 0
v -4 -1 0
v -5 -1 0
v -5 0 0
v -4 0 0
v -5 -1 0
v -6 -1 0
v -6 0 0
v -5 0 0
v -7 -1 0
v -8 -1 0
v -8 0 0
v -7 0 0
v -8 -1 0
v -9 -1 0
v -9 0 0
v -8 0 0
v -9 -1 0
v -10 -1 0
v -10 0 0
v -9 0 0
v -10 -1 0
v -11 -1 0
v -11 0 0
v -10 0 0
v -11 -1 0
v -12 -1 0
v -12 0 0
v -11 0 0
v -12 -1 0
v -13 -1 0
v -13 0 0
v -12 0 0
v -13 -1 0
v -14 -1 0
v -14 0 0
v -13 0 0
v -14 -1 0
v -15 -1 0
v -15 0 0
v -14 0 0
v -15 -1 0
v -16 -1 0
v -16 0 0
v -15 0 0
v -6 -2 0
v -7 -2 0
v -7 -1 0
v -6 -1 0
v -6 -3 0
v -7 -3 0
v -7 -2 0
v -6 -2 0
v -6 -4 0
v -7 -4 0
v -7 -3 0
v -6 -3 0
v -6 -5 0
v -7 -5 0
v -7 -4 0
v -6 -4 0
v -6 -6 0
v -7 -6 0
v -7 -5 0
v -6 -5 0
v -6 -7 0
v -7 -7 0
v -7 -6 0
v -6 -6 0
v -6 -8 0
v -7 -8 0
v -7 -7 0
v -6 -7 0
v -6 -9 0
v -7 -9 0
v -7 -8 0
v -6 -8 0
v -6 -10 0
v -7 -10 0
v -7 -9 0
v -6 -9 0
v -6 -11 0
v -7 -11 0
v -7 -10 0
v -6 -10 0
v 0 -12 0
v -1 -12 0
v -1 -11 0
v 0 -11 0
v -1 -12 0
v -2 -12 0
v -2 -11 0
v -1 -11 0
v -2 -12 0
v -3 -12 0
v -3 -11 0
v -2 -11 0
v -3 -12 0
v -4 -12 0
v -4 -11 0
v -3 -11 0
v -4 -12 0
v -5 -12 0
v -5 -11 0
v -4 -11 0
v -5 -12 0
v -6 -12 0
v -6 -11 0
v -5 -11 0
v -7 -12 0
v -8 -12 0
v -8 -11 0
v -7 -11 0
v -8 -12 0
v -9 -12 0
v -9 -11 0
v -8 -11 0
v -9 -12 0
v -10 -12 0
v -10 -11 0
v -9 -11 0
v -10 -12 0
v -11 -12 0
v -11 -11 0
v -10 -11 0
v -11 -12 0
v -12 -12 0
v -12 -11 0
v -11 -11 0
v -12 -12 0
v -13 -12 0
v -13 -11 0
v -12 -11 0
v -13 -12 0
v -14 -12 0
v -14 -11 0
v -13 -11 0
v -14 -12 0
v -15 -12 0
v -15 -11 0
v -14 -11 0
v -15 -12 0
v -16 -12 0
v -16 -11 0
v -15 -11 0
v -6 -13 0
v -7 -13 0
v -7 -12 0
v -6 -12 0
v -6 -14 0
v -7 -14 0
v -7 -13 0
v -6 -13 0
v -6 -15 0
v -7 -15 0
v -7 -14 0
v -6 -14 0
v -6 -16 0
v -7 -16 0
v -7 -15 0
v -6 -15 0

# Texture cooridinates (Count = 4)
vt 0.5839844 0.8645833
vt 0.5839844 0.9739583
vt 0.5429688 0.9739583
vt 0.5429688 0.8645833

# Normal
vn 0 0 -1

# Mesh description
g escenaNorte_1_mesh_0201

# Faces
f 1/1/1 2/2/1 3/3/1 4/4/1
f 5/1/1 6/2/1 7/3/1 8/4/1
f 9/1/1 10/2/1 11/3/1 12/4/1
f 13/1/1 14/2/1 15/3/1 16/4/1
f 17/1/1 18/2/1 19/3/1 20/4/1
f 21/1/1 22/2/1 23/3/1 24/4/1
f 25/1/1 26/2/1 27/3/1 28/4/1
f 29/1/1 30/2/1 31/3/1 32/4/1
f 33/1/1 34/2/1 35/3/1 36/4/1
f 37/1/1 38/2/1 39/3/1 40/4/1
f 41/1/1 42/2/1 43/3/1 44/4/1
f 45/1/1 46/2/1 47/3/1 48/4/1
f 49/1/1 50/2/1 51/3/1 52/4/1
f 53/1/1 54/2/1 55/3/1 56/4/1
f 57/1/1 58/2/1 59/3/1 60/4/1
f 61/4/1 62/1/1 63/2/1 64/3/1
f 65/4/1 66/1/1 67/2/1 68/3/1
f 69/4/1 70/1/1 71/2/1 72/3/1
f 73/4/1 74/1/1 75/2/1 76/3/1
f 77/4/1 78/1/1 79/2/1 80/3/1
f 81/4/1 82/1/1 83/2/1 84/3/1
f 85/4/1 86/1/1 87/2/1 88/3/1
f 89/4/1 90/1/1 91/2/1 92/3/1
f 93/4/1 94/1/1 95/2/1 96/3/1
f 97/4/1 98/1/1 99/2/1 100/3/1
f 101/1/1 102/2/1 103/3/1 104/4/1
f 105/1/1 106/2/1 107/3/1 108/4/1
f 109/1/1 110/2/1 111/3/1 112/4/1
f 113/1/1 114/2/1 115/3/1 116/4/1
f 117/1/1 118/2/1 119/3/1 120/4/1
f 121/1/1 122/2/1 123/3/1 124/4/1
f 125/1/1 126/2/1 127/3/1 128/4/1
f 129/1/1 130/2/1 131/3/1 132/4/1
f 133/1/1 134/2/1 135/3/1 136/4/1
f 137/1/1 138/2/1 139/3/1 140/4/1
f 141/1/1 142/2/1 143/3/1 144/4/1
f 145/1/1 146/2/1 147/3/1 148/4/1
f 149/1/1 150/2/1 151/3/1 152/4/1
f 153/1/1 154/2/1 155/3/1 156/4/1
f 157/1/1 158/2/1 159/3/1 160/4/1
f 161/4/1 162/1/1 163/2/1 164/3/1
f 165/4/1 166/1/1 167/2/1 168/3/1
f 169/4/1 170/1/1 171/2/1 172/3/1
f 173/4/1 174/1/1 175/2/1 176/3/1

