# Tiled2Unity generated file. Do not modify by hand.
# Wavefront file for 'escenaNorte_1_mesh_0031.obj'

# Vertices (Count = 300)
v 0 -10 0
v -1 -10 0
v -1 -9 0
v 0 -9 0
v -1 -10 0
v -2 -10 0
v -2 -9 0
v -1 -9 0
v -2 -10 0
v -3 -10 0
v -3 -9 0
v -2 -9 0
v -3 -10 0
v -4 -10 0
v -4 -9 0
v -3 -9 0
v -4 -10 0
v -5 -10 0
v -5 -9 0
v -4 -9 0
v -11 -10 0
v -12 -10 0
v -12 -9 0
v -11 -9 0
v -14 -10 0
v -15 -10 0
v -15 -9 0
v -14 -9 0
v 0 -11 0
v -1 -11 0
v -1 -10 0
v 0 -10 0
v -1 -11 0
v -2 -11 0
v -2 -10 0
v -1 -10 0
v -2 -11 0
v -3 -11 0
v -3 -10 0
v -2 -10 0
v -3 -11 0
v -4 -11 0
v -4 -10 0
v -3 -10 0
v -4 -11 0
v -5 -11 0
v -5 -10 0
v -4 -10 0
v -11 -11 0
v -12 -11 0
v -12 -10 0
v -11 -10 0
v -14 -11 0
v -15 -11 0
v -15 -10 0
v -14 -10 0
v 0 -12 0
v -1 -12 0
v -1 -11 0
v 0 -11 0
v -1 -12 0
v -2 -12 0
v -2 -11 0
v -1 -11 0
v -2 -12 0
v -3 -12 0
v -3 -11 0
v -2 -11 0
v -3 -12 0
v -4 -12 0
v -4 -11 0
v -3 -11 0
v -4 -12 0
v -5 -12 0
v -5 -11 0
v -4 -11 0
v -11 -12 0
v -12 -12 0
v -12 -11 0
v -11 -11 0
v -12 -12 0
v -13 -12 0
v -13 -11 0
v -12 -11 0
v -13 -12 0
v -14 -12 0
v -14 -11 0
v -13 -11 0
v -14 -12 0
v -15 -12 0
v -15 -11 0
v -14 -11 0
v 0 -13 0
v -1 -13 0
v -1 -12 0
v 0 -12 0
v -1 -13 0
v -2 -13 0
v -2 -12 0
v -1 -12 0
v -2 -13 0
v -3 -13 0
v -3 -12 0
v -2 -12 0
v -3 -13 0
v -4 -13 0
v -4 -12 0
v -3 -12 0
v -4 -13 0
v -5 -13 0
v -5 -12 0
v -4 -12 0
v -6 -13 0
v -7 -13 0
v -7 -12 0
v -6 -12 0
v -7 -13 0
v -8 -13 0
v -8 -12 0
v -7 -12 0
v -8 -13 0
v -9 -13 0
v -9 -12 0
v -8 -12 0
v -9 -13 0
v -10 -13 0
v -10 -12 0
v -9 -12 0
v -11 -13 0
v -12 -13 0
v -12 -12 0
v -11 -12 0
v -12 -13 0
v -13 -13 0
v -13 -12 0
v -12 -12 0
v -13 -13 0
v -14 -13 0
v -14 -12 0
v -13 -12 0
v -14 -13 0
v -15 -13 0
v -15 -12 0
v -14 -12 0
v 0 -14 0
v -1 -14 0
v -1 -13 0
v 0 -13 0
v -1 -14 0
v -2 -14 0
v -2 -13 0
v -1 -13 0
v -2 -14 0
v -3 -14 0
v -3 -13 0
v -2 -13 0
v -3 -14 0
v -4 -14 0
v -4 -13 0
v -3 -13 0
v -4 -14 0
v -5 -14 0
v -5 -13 0
v -4 -13 0
v -6 -14 0
v -7 -14 0
v -7 -13 0
v -6 -13 0
v -7 -14 0
v -8 -14 0
v -8 -13 0
v -7 -13 0
v -8 -14 0
v -9 -14 0
v -9 -13 0
v -8 -13 0
v -9 -14 0
v -10 -14 0
v -10 -13 0
v -9 -13 0
v -11 -14 0
v -12 -14 0
v -12 -13 0
v -11 -13 0
v -12 -14 0
v -13 -14 0
v -13 -13 0
v -12 -13 0
v -13 -14 0
v -14 -14 0
v -14 -13 0
v -13 -13 0
v -14 -14 0
v -15 -14 0
v -15 -13 0
v -14 -13 0
v 0 -15 0
v -1 -15 0
v -1 -14 0
v 0 -14 0
v -1 -15 0
v -2 -15 0
v -2 -14 0
v -1 -14 0
v -2 -15 0
v -3 -15 0
v -3 -14 0
v -2 -14 0
v -3 -15 0
v -4 -15 0
v -4 -14 0
v -3 -14 0
v -4 -15 0
v -5 -15 0
v -5 -14 0
v -4 -14 0
v -6 -15 0
v -7 -15 0
v -7 -14 0
v -6 -14 0
v -7 -15 0
v -8 -15 0
v -8 -14 0
v -7 -14 0
v -8 -15 0
v -9 -15 0
v -9 -14 0
v -8 -14 0
v -9 -15 0
v -10 -15 0
v -10 -14 0
v -9 -14 0
v -11 -15 0
v -12 -15 0
v -12 -14 0
v -11 -14 0
v -12 -15 0
v -13 -15 0
v -13 -14 0
v -12 -14 0
v -13 -15 0
v -14 -15 0
v -14 -14 0
v -13 -14 0
v -14 -15 0
v -15 -15 0
v -15 -14 0
v -14 -14 0
v 0 -16 0
v -1 -16 0
v -1 -15 0
v 0 -15 0
v -1 -16 0
v -2 -16 0
v -2 -15 0
v -1 -15 0
v -2 -16 0
v -3 -16 0
v -3 -15 0
v -2 -15 0
v -3 -16 0
v -4 -16 0
v -4 -15 0
v -3 -15 0
v -4 -16 0
v -5 -16 0
v -5 -15 0
v -4 -15 0
v -6 -16 0
v -7 -16 0
v -7 -15 0
v -6 -15 0
v -7 -16 0
v -8 -16 0
v -8 -15 0
v -7 -15 0
v -8 -16 0
v -9 -16 0
v -9 -15 0
v -8 -15 0
v -9 -16 0
v -10 -16 0
v -10 -15 0
v -9 -15 0
v -11 -16 0
v -12 -16 0
v -12 -15 0
v -11 -15 0
v -12 -16 0
v -13 -16 0
v -13 -15 0
v -12 -15 0
v -13 -16 0
v -14 -16 0
v -14 -15 0
v -13 -15 0
v -14 -16 0
v -15 -16 0
v -15 -15 0
v -14 -15 0

# Texture cooridinates (Count = 50)
vt 0.9296875 0.09765625
vt 0.9570313 0.09765625
vt 0.9570313 0.125
vt 0.9296875 0.125
vt 0.65625 0.78125
vt 0.6835938 0.78125
vt 0.6835938 0.8085938
vt 0.65625 0.8085938
vt 0.7382813 1
vt 0.7382813 0.9726563
vt 0.765625 0.9726563
vt 0.765625 1
vt 0.7382813 0.9453125
vt 0.765625 0.9453125
vt 0.7382813 0.9179688
vt 0.765625 0.9179688
vt 0.7382813 0.890625
vt 0.765625 0.890625
vt 0.7382813 0.8632813
vt 0.765625 0.8632813
vt 0.65625 0.7539063
vt 0.6835938 0.7539063
vt 0.9023438 0.7265625
vt 0.9023438 0.6992188
vt 0.9296875 0.6992188
vt 0.9296875 0.7265625
vt 0.875 0.7265625
vt 0.875 0.6992188
vt 0.9023438 0.09765625
vt 0.9023438 0.125
vt 0.765625 0.04296875
vt 0.7929688 0.04296875
vt 0.7929688 0.0703125
vt 0.765625 0.0703125
vt 0.8203125 0.04296875
vt 0.8203125 0.0703125
vt 0.7382813 0.04296875
vt 0.7382813 0.0703125
vt 0.765625 0.015625
vt 0.7929688 0.015625
vt 0.8203125 0.015625
vt 0.7382813 0.015625
vt 0.7929688 0.2890625
vt 0.8203125 0.2890625
vt 0.8203125 0.3164063
vt 0.7929688 0.3164063
vt 0.8476563 0.2890625
vt 0.8476563 0.3164063
vt 0.875 0.2890625
vt 0.875 0.3164063

# Normal
vn 0 0 -1

# Mesh description
g escenaNorte_1_mesh_0031

# Faces
f 1/1/1 2/2/1 3/3/1 4/4/1
f 5/1/1 6/2/1 7/3/1 8/4/1
f 9/1/1 10/2/1 11/3/1 12/4/1
f 13/1/1 14/2/1 15/3/1 16/4/1
f 17/1/1 18/2/1 19/3/1 20/4/1
f 21/5/1 22/6/1 23/7/1 24/8/1
f 25/1/1 26/2/1 27/3/1 28/4/1
f 29/9/1 30/10/1 31/11/1 32/12/1
f 33/10/1 34/13/1 35/14/1 36/11/1
f 37/13/1 38/15/1 39/16/1 40/14/1
f 41/15/1 42/17/1 43/18/1 44/16/1
f 45/17/1 46/19/1 47/20/1 48/18/1
f 49/21/1 50/22/1 51/6/1 52/5/1
f 53/1/1 54/2/1 55/3/1 56/4/1
f 57/23/1 58/24/1 59/25/1 60/26/1
f 61/23/1 62/24/1 63/25/1 64/26/1
f 65/23/1 66/24/1 67/25/1 68/26/1
f 69/23/1 70/24/1 71/25/1 72/26/1
f 73/23/1 74/24/1 75/25/1 76/26/1
f 77/23/1 78/24/1 79/25/1 80/26/1
f 81/23/1 82/24/1 83/25/1 84/26/1
f 85/23/1 86/24/1 87/25/1 88/26/1
f 89/23/1 90/24/1 91/25/1 92/26/1
f 93/27/1 94/28/1 95/24/1 96/23/1
f 97/27/1 98/28/1 99/24/1 100/23/1
f 101/27/1 102/28/1 103/24/1 104/23/1
f 105/27/1 106/28/1 107/24/1 108/23/1
f 109/27/1 110/28/1 111/24/1 112/23/1
f 113/1/1 114/2/1 115/3/1 116/4/1
f 117/1/1 118/2/1 119/3/1 120/4/1
f 121/1/1 122/2/1 123/3/1 124/4/1
f 125/29/1 126/1/1 127/4/1 128/30/1
f 129/27/1 130/28/1 131/24/1 132/23/1
f 133/27/1 134/28/1 135/24/1 136/23/1
f 137/27/1 138/28/1 139/24/1 140/23/1
f 141/27/1 142/28/1 143/24/1 144/23/1
f 145/31/1 146/32/1 147/33/1 148/34/1
f 149/32/1 150/35/1 151/36/1 152/33/1
f 153/37/1 154/31/1 155/34/1 156/38/1
f 157/31/1 158/32/1 159/33/1 160/34/1
f 161/32/1 162/35/1 163/36/1 164/33/1
f 165/29/1 166/1/1 167/4/1 168/30/1
f 169/29/1 170/1/1 171/4/1 172/30/1
f 173/29/1 174/1/1 175/4/1 176/30/1
f 177/29/1 178/1/1 179/4/1 180/30/1
f 181/37/1 182/31/1 183/34/1 184/38/1
f 185/31/1 186/32/1 187/33/1 188/34/1
f 189/32/1 190/35/1 191/36/1 192/33/1
f 193/37/1 194/31/1 195/34/1 196/38/1
f 197/39/1 198/40/1 199/32/1 200/31/1
f 201/40/1 202/41/1 203/35/1 204/32/1
f 205/42/1 206/39/1 207/31/1 208/37/1
f 209/39/1 210/40/1 211/32/1 212/31/1
f 213/40/1 214/41/1 215/35/1 216/32/1
f 217/1/1 218/2/1 219/3/1 220/4/1
f 221/1/1 222/2/1 223/3/1 224/4/1
f 225/1/1 226/2/1 227/3/1 228/4/1
f 229/1/1 230/2/1 231/3/1 232/4/1
f 233/42/1 234/39/1 235/31/1 236/37/1
f 237/39/1 238/40/1 239/32/1 240/31/1
f 241/40/1 242/41/1 243/35/1 244/32/1
f 245/42/1 246/39/1 247/31/1 248/37/1
f 249/43/1 250/44/1 251/45/1 252/46/1
f 253/44/1 254/47/1 255/48/1 256/45/1
f 257/47/1 258/49/1 259/50/1 260/48/1
f 261/1/1 262/2/1 263/3/1 264/4/1
f 265/1/1 266/2/1 267/3/1 268/4/1
f 269/29/1 270/1/1 271/4/1 272/30/1
f 273/1/1 274/2/1 275/3/1 276/4/1
f 277/29/1 278/1/1 279/4/1 280/30/1
f 281/29/1 282/1/1 283/4/1 284/30/1
f 285/29/1 286/1/1 287/4/1 288/30/1
f 289/1/1 290/2/1 291/3/1 292/4/1
f 293/1/1 294/2/1 295/3/1 296/4/1
f 297/29/1 298/1/1 299/4/1 300/30/1

