# Tiled2Unity generated file. Do not modify by hand.
# Wavefront file for 'escenaNorte_1_mesh_0025.obj'

# Vertices (Count = 344)
v -11 -1 0
v -12 -1 0
v -12 0 0
v -11 0 0
v -12 -1 0
v -13 -1 0
v -13 0 0
v -12 0 0
v -13 -1 0
v -14 -1 0
v -14 0 0
v -13 0 0
v -14 -1 0
v -15 -1 0
v -15 0 0
v -14 0 0
v -15 -1 0
v -16 -1 0
v -16 0 0
v -15 0 0
v -11 -2 0
v -12 -2 0
v -12 -1 0
v -11 -1 0
v -12 -2 0
v -13 -2 0
v -13 -1 0
v -12 -1 0
v -13 -2 0
v -14 -2 0
v -14 -1 0
v -13 -1 0
v -14 -2 0
v -15 -2 0
v -15 -1 0
v -14 -1 0
v -15 -2 0
v -16 -2 0
v -16 -1 0
v -15 -1 0
v -11 -3 0
v -12 -3 0
v -12 -2 0
v -11 -2 0
v -12 -3 0
v -13 -3 0
v -13 -2 0
v -12 -2 0
v -13 -3 0
v -14 -3 0
v -14 -2 0
v -13 -2 0
v -14 -3 0
v -15 -3 0
v -15 -2 0
v -14 -2 0
v -15 -3 0
v -16 -3 0
v -16 -2 0
v -15 -2 0
v -11 -4 0
v -12 -4 0
v -12 -3 0
v -11 -3 0
v -12 -4 0
v -13 -4 0
v -13 -3 0
v -12 -3 0
v -13 -4 0
v -14 -4 0
v -14 -3 0
v -13 -3 0
v -14 -4 0
v -15 -4 0
v -15 -3 0
v -14 -3 0
v -15 -4 0
v -16 -4 0
v -16 -3 0
v -15 -3 0
v -11 -5 0
v -12 -5 0
v -12 -4 0
v -11 -4 0
v -12 -5 0
v -13 -5 0
v -13 -4 0
v -12 -4 0
v -13 -5 0
v -14 -5 0
v -14 -4 0
v -13 -4 0
v -14 -5 0
v -15 -5 0
v -15 -4 0
v -14 -4 0
v -15 -5 0
v -16 -5 0
v -16 -4 0
v -15 -4 0
v -11 -6 0
v -12 -6 0
v -12 -5 0
v -11 -5 0
v -12 -6 0
v -13 -6 0
v -13 -5 0
v -12 -5 0
v -13 -6 0
v -14 -6 0
v -14 -5 0
v -13 -5 0
v -14 -6 0
v -15 -6 0
v -15 -5 0
v -14 -5 0
v -15 -6 0
v -16 -6 0
v -16 -5 0
v -15 -5 0
v 0 -10 0
v -1 -10 0
v -1 -9 0
v 0 -9 0
v -1 -10 0
v -2 -10 0
v -2 -9 0
v -1 -9 0
v -2 -10 0
v -3 -10 0
v -3 -9 0
v -2 -9 0
v -3 -10 0
v -4 -10 0
v -4 -9 0
v -3 -9 0
v -4 -10 0
v -5 -10 0
v -5 -9 0
v -4 -9 0
v -5 -10 0
v -6 -10 0
v -6 -9 0
v -5 -9 0
v -6 -10 0
v -7 -10 0
v -7 -9 0
v -6 -9 0
v -7 -10 0
v -8 -10 0
v -8 -9 0
v -7 -9 0
v 0 -11 0
v -1 -11 0
v -1 -10 0
v 0 -10 0
v -1 -11 0
v -2 -11 0
v -2 -10 0
v -1 -10 0
v -2 -11 0
v -3 -11 0
v -3 -10 0
v -2 -10 0
v -3 -11 0
v -4 -11 0
v -4 -10 0
v -3 -10 0
v -4 -11 0
v -5 -11 0
v -5 -10 0
v -4 -10 0
v -5 -11 0
v -6 -11 0
v -6 -10 0
v -5 -10 0
v -6 -11 0
v -7 -11 0
v -7 -10 0
v -6 -10 0
v -7 -11 0
v -8 -11 0
v -8 -10 0
v -7 -10 0
v 0 -12 0
v -1 -12 0
v -1 -11 0
v 0 -11 0
v -1 -12 0
v -2 -12 0
v -2 -11 0
v -1 -11 0
v -2 -12 0
v -3 -12 0
v -3 -11 0
v -2 -11 0
v -3 -12 0
v -4 -12 0
v -4 -11 0
v -3 -11 0
v -4 -12 0
v -5 -12 0
v -5 -11 0
v -4 -11 0
v -5 -12 0
v -6 -12 0
v -6 -11 0
v -5 -11 0
v -6 -12 0
v -7 -12 0
v -7 -11 0
v -6 -11 0
v -7 -12 0
v -8 -12 0
v -8 -11 0
v -7 -11 0
v 0 -13 0
v -1 -13 0
v -1 -12 0
v 0 -12 0
v -1 -13 0
v -2 -13 0
v -2 -12 0
v -1 -12 0
v -2 -13 0
v -3 -13 0
v -3 -12 0
v -2 -12 0
v -3 -13 0
v -4 -13 0
v -4 -12 0
v -3 -12 0
v -4 -13 0
v -5 -13 0
v -5 -12 0
v -4 -12 0
v -5 -13 0
v -6 -13 0
v -6 -12 0
v -5 -12 0
v -6 -13 0
v -7 -13 0
v -7 -12 0
v -6 -12 0
v -7 -13 0
v -8 -13 0
v -8 -12 0
v -7 -12 0
v 0 -14 0
v -1 -14 0
v -1 -13 0
v 0 -13 0
v -1 -14 0
v -2 -14 0
v -2 -13 0
v -1 -13 0
v -2 -14 0
v -3 -14 0
v -3 -13 0
v -2 -13 0
v -3 -14 0
v -4 -14 0
v -4 -13 0
v -3 -13 0
v -4 -14 0
v -5 -14 0
v -5 -13 0
v -4 -13 0
v -5 -14 0
v -6 -14 0
v -6 -13 0
v -5 -13 0
v -6 -14 0
v -7 -14 0
v -7 -13 0
v -6 -13 0
v -7 -14 0
v -8 -14 0
v -8 -13 0
v -7 -13 0
v 0 -15 0
v -1 -15 0
v -1 -14 0
v 0 -14 0
v -1 -15 0
v -2 -15 0
v -2 -14 0
v -1 -14 0
v -2 -15 0
v -3 -15 0
v -3 -14 0
v -2 -14 0
v -3 -15 0
v -4 -15 0
v -4 -14 0
v -3 -14 0
v -4 -15 0
v -5 -15 0
v -5 -14 0
v -4 -14 0
v -5 -15 0
v -6 -15 0
v -6 -14 0
v -5 -14 0
v -6 -15 0
v -7 -15 0
v -7 -14 0
v -6 -14 0
v -7 -15 0
v -8 -15 0
v -8 -14 0
v -7 -14 0
v 0 -16 0
v -1 -16 0
v -1 -15 0
v 0 -15 0
v -1 -16 0
v -2 -16 0
v -2 -15 0
v -1 -15 0
v -2 -16 0
v -3 -16 0
v -3 -15 0
v -2 -15 0
v -3 -16 0
v -4 -16 0
v -4 -15 0
v -3 -15 0
v -4 -16 0
v -5 -16 0
v -5 -15 0
v -4 -15 0
v -5 -16 0
v -6 -16 0
v -6 -15 0
v -5 -15 0
v -6 -16 0
v -7 -16 0
v -7 -15 0
v -6 -15 0
v -7 -16 0
v -8 -16 0
v -8 -15 0
v -7 -15 0

# Texture cooridinates (Count = 42)
vt 0.7109375 0.890625
vt 0.7382813 0.890625
vt 0.7382813 0.9179688
vt 0.7109375 0.9179688
vt 0.765625 0.890625
vt 0.765625 0.9179688
vt 0.7929688 0.890625
vt 0.7929688 0.9179688
vt 0.7929688 0.9453125
vt 0.765625 0.9453125
vt 0.7109375 0.8632813
vt 0.7382813 0.8632813
vt 0.765625 0.8632813
vt 0.7929688 0.8632813
vt 0.7109375 0.8359375
vt 0.7382813 0.8359375
vt 0.765625 0.8359375
vt 0.7929688 0.8359375
vt 0.9023438 0.09765625
vt 0.9296875 0.09765625
vt 0.9296875 0.125
vt 0.9023438 0.125
vt 0.9570313 0.09765625
vt 0.9570313 0.125
vt 0.984375 0.09765625
vt 0.984375 0.125
vt 0.7382813 0.9453125
vt 0.7109375 0.9453125
vt 0.7929688 0.9726563
vt 0.765625 0.9726563
vt 0.8203125 0.9453125
vt 0.8203125 0.9726563
vt 0.8476563 0.9453125
vt 0.8476563 0.9726563
vt 0.8203125 0.9179688
vt 0.8476563 0.9179688
vt 0.8203125 0.890625
vt 0.8476563 0.890625
vt 0.8203125 0.8632813
vt 0.8476563 0.8632813
vt 0.8203125 0.8359375
vt 0.8476563 0.8359375

# Normal
vn 0 0 -1

# Mesh description
g escenaNorte_1_mesh_0025

# Faces
f 1/1/1 2/2/1 3/3/1 4/4/1
f 5/2/1 6/5/1 7/6/1 8/3/1
f 9/5/1 10/7/1 11/8/1 12/6/1
f 13/6/1 14/8/1 15/9/1 16/10/1
f 17/6/1 18/8/1 19/9/1 20/10/1
f 21/11/1 22/12/1 23/2/1 24/1/1
f 25/12/1 26/13/1 27/5/1 28/2/1
f 29/13/1 30/14/1 31/7/1 32/5/1
f 33/13/1 34/14/1 35/7/1 36/5/1
f 37/13/1 38/14/1 39/7/1 40/5/1
f 41/15/1 42/16/1 43/12/1 44/11/1
f 45/16/1 46/17/1 47/13/1 48/12/1
f 49/17/1 50/18/1 51/14/1 52/13/1
f 53/17/1 54/18/1 55/14/1 56/13/1
f 57/17/1 58/18/1 59/14/1 60/13/1
f 61/19/1 62/20/1 63/21/1 64/22/1
f 65/19/1 66/20/1 67/21/1 68/22/1
f 69/19/1 70/20/1 71/21/1 72/22/1
f 73/19/1 74/20/1 75/21/1 76/22/1
f 77/19/1 78/20/1 79/21/1 80/22/1
f 81/19/1 82/20/1 83/21/1 84/22/1
f 85/19/1 86/20/1 87/21/1 88/22/1
f 89/19/1 90/20/1 91/21/1 92/22/1
f 93/20/1 94/23/1 95/24/1 96/21/1
f 97/23/1 98/25/1 99/26/1 100/24/1
f 101/19/1 102/20/1 103/21/1 104/22/1
f 105/20/1 106/23/1 107/24/1 108/21/1
f 109/23/1 110/25/1 111/26/1 112/24/1
f 113/23/1 114/25/1 115/26/1 116/24/1
f 117/23/1 118/25/1 119/26/1 120/24/1
f 121/4/1 122/3/1 123/27/1 124/28/1
f 125/3/1 126/6/1 127/10/1 128/27/1
f 129/6/1 130/8/1 131/9/1 132/10/1
f 133/10/1 134/9/1 135/29/1 136/30/1
f 137/10/1 138/9/1 139/29/1 140/30/1
f 141/10/1 142/9/1 143/29/1 144/30/1
f 145/9/1 146/31/1 147/32/1 148/29/1
f 149/31/1 150/33/1 151/34/1 152/32/1
f 153/4/1 154/3/1 155/27/1 156/28/1
f 157/3/1 158/6/1 159/10/1 160/27/1
f 161/6/1 162/8/1 163/9/1 164/10/1
f 165/6/1 166/8/1 167/9/1 168/10/1
f 169/6/1 170/8/1 171/9/1 172/10/1
f 173/10/1 174/9/1 175/29/1 176/30/1
f 177/9/1 178/31/1 179/32/1 180/29/1
f 181/35/1 182/36/1 183/33/1 184/31/1
f 185/1/1 186/2/1 187/3/1 188/4/1
f 189/2/1 190/5/1 191/6/1 192/3/1
f 193/5/1 194/7/1 195/8/1 196/6/1
f 197/6/1 198/8/1 199/9/1 200/10/1
f 201/6/1 202/8/1 203/9/1 204/10/1
f 205/6/1 206/8/1 207/9/1 208/10/1
f 209/8/1 210/35/1 211/31/1 212/9/1
f 213/37/1 214/38/1 215/36/1 216/35/1
f 217/11/1 218/12/1 219/2/1 220/1/1
f 221/12/1 222/13/1 223/5/1 224/2/1
f 225/13/1 226/14/1 227/7/1 228/5/1
f 229/13/1 230/14/1 231/7/1 232/5/1
f 233/13/1 234/14/1 235/7/1 236/5/1
f 237/13/1 238/14/1 239/7/1 240/5/1
f 241/14/1 242/39/1 243/37/1 244/7/1
f 245/39/1 246/40/1 247/38/1 248/37/1
f 249/15/1 250/16/1 251/12/1 252/11/1
f 253/16/1 254/17/1 255/13/1 256/12/1
f 257/17/1 258/18/1 259/14/1 260/13/1
f 261/17/1 262/18/1 263/14/1 264/13/1
f 265/17/1 266/18/1 267/14/1 268/13/1
f 269/17/1 270/18/1 271/14/1 272/13/1
f 273/18/1 274/41/1 275/39/1 276/14/1
f 277/41/1 278/42/1 279/40/1 280/39/1
f 281/19/1 282/20/1 283/21/1 284/22/1
f 285/19/1 286/20/1 287/21/1 288/22/1
f 289/19/1 290/20/1 291/21/1 292/22/1
f 293/19/1 294/20/1 295/21/1 296/22/1
f 297/19/1 298/20/1 299/21/1 300/22/1
f 301/19/1 302/20/1 303/21/1 304/22/1
f 305/20/1 306/23/1 307/24/1 308/21/1
f 309/23/1 310/25/1 311/26/1 312/24/1
f 313/19/1 314/20/1 315/21/1 316/22/1
f 317/19/1 318/20/1 319/21/1 320/22/1
f 321/19/1 322/20/1 323/21/1 324/22/1
f 325/20/1 326/23/1 327/24/1 328/21/1
f 329/23/1 330/25/1 331/26/1 332/24/1
f 333/19/1 334/20/1 335/21/1 336/22/1
f 337/20/1 338/23/1 339/24/1 340/21/1
f 341/23/1 342/25/1 343/26/1 344/24/1

