# Tiled2Unity generated file. Do not modify by hand.
# Wavefront file for 'escenaNorte_1_mesh_0144.obj'

# Vertices (Count = 184)
v 0 -6 0
v -1 -6 0
v -1 -5 0
v 0 -5 0
v -1 -6 0
v -2 -6 0
v -2 -5 0
v -1 -5 0
v -2 -6 0
v -3 -6 0
v -3 -5 0
v -2 -5 0
v -3 -6 0
v -4 -6 0
v -4 -5 0
v -3 -5 0
v -4 -6 0
v -5 -6 0
v -5 -5 0
v -4 -5 0
v -5 -6 0
v -6 -6 0
v -6 -5 0
v -5 -5 0
v -6 -6 0
v -7 -6 0
v -7 -5 0
v -6 -5 0
v -7 -6 0
v -8 -6 0
v -8 -5 0
v -7 -5 0
v -8 -6 0
v -9 -6 0
v -9 -5 0
v -8 -5 0
v -9 -6 0
v -10 -6 0
v -10 -5 0
v -9 -5 0
v -10 -6 0
v -11 -6 0
v -11 -5 0
v -10 -5 0
v -11 -6 0
v -12 -6 0
v -12 -5 0
v -11 -5 0
v -12 -6 0
v -13 -6 0
v -13 -5 0
v -12 -5 0
v -14 -6 0
v -15 -6 0
v -15 -5 0
v -14 -5 0
v -15 -6 0
v -16 -6 0
v -16 -5 0
v -15 -5 0
v -12 -7 0
v -13 -7 0
v -13 -6 0
v -12 -6 0
v -14 -7 0
v -15 -7 0
v -15 -6 0
v -14 -6 0
v -12 -8 0
v -13 -8 0
v -13 -7 0
v -12 -7 0
v -14 -8 0
v -15 -8 0
v -15 -7 0
v -14 -7 0
v -12 -9 0
v -13 -9 0
v -13 -8 0
v -12 -8 0
v -14 -9 0
v -15 -9 0
v -15 -8 0
v -14 -8 0
v -12 -10 0
v -13 -10 0
v -13 -9 0
v -12 -9 0
v -14 -10 0
v -15 -10 0
v -15 -9 0
v -14 -9 0
v -12 -11 0
v -13 -11 0
v -13 -10 0
v -12 -10 0
v -14 -11 0
v -15 -11 0
v -15 -10 0
v -14 -10 0
v -12 -12 0
v -13 -12 0
v -13 -11 0
v -12 -11 0
v -14 -12 0
v -15 -12 0
v -15 -11 0
v -14 -11 0
v -12 -13 0
v -13 -13 0
v -13 -12 0
v -12 -12 0
v -14 -13 0
v -15 -13 0
v -15 -12 0
v -14 -12 0
v -12 -14 0
v -13 -14 0
v -13 -13 0
v -12 -13 0
v -14 -14 0
v -15 -14 0
v -15 -13 0
v -14 -13 0
v 0 -15 0
v -1 -15 0
v -1 -14 0
v 0 -14 0
v -1 -15 0
v -2 -15 0
v -2 -14 0
v -1 -14 0
v -2 -15 0
v -3 -15 0
v -3 -14 0
v -2 -14 0
v -3 -15 0
v -4 -15 0
v -4 -14 0
v -3 -14 0
v -4 -15 0
v -5 -15 0
v -5 -14 0
v -4 -14 0
v -5 -15 0
v -6 -15 0
v -6 -14 0
v -5 -14 0
v -6 -15 0
v -7 -15 0
v -7 -14 0
v -6 -14 0
v -7 -15 0
v -8 -15 0
v -8 -14 0
v -7 -14 0
v -8 -15 0
v -9 -15 0
v -9 -14 0
v -8 -14 0
v -9 -15 0
v -10 -15 0
v -10 -14 0
v -9 -14 0
v -10 -15 0
v -11 -15 0
v -11 -14 0
v -10 -14 0
v -11 -15 0
v -12 -15 0
v -12 -14 0
v -11 -14 0
v -12 -15 0
v -13 -15 0
v -13 -14 0
v -12 -14 0
v -14 -15 0
v -15 -15 0
v -15 -14 0
v -14 -14 0
v -15 -15 0
v -16 -15 0
v -16 -14 0
v -15 -14 0

# Texture cooridinates (Count = 4)
vt 0.5859375 0.5245535
vt 0.5039063 0.5245535
vt 0.5039063 0.5714285
vt 0.5859375 0.5714285

# Normal
vn 0 0 -1

# Mesh description
g escenaNorte_1_mesh_0144

# Faces
f 1/1/1 2/2/1 3/3/1 4/4/1
f 5/1/1 6/2/1 7/3/1 8/4/1
f 9/1/1 10/2/1 11/3/1 12/4/1
f 13/2/1 14/1/1 15/4/1 16/3/1
f 17/2/1 18/1/1 19/4/1 20/3/1
f 21/2/1 22/1/1 23/4/1 24/3/1
f 25/2/1 26/1/1 27/4/1 28/3/1
f 29/2/1 30/1/1 31/4/1 32/3/1
f 33/2/1 34/1/1 35/4/1 36/3/1
f 37/2/1 38/1/1 39/4/1 40/3/1
f 41/2/1 42/1/1 43/4/1 44/3/1
f 45/2/1 46/1/1 47/4/1 48/3/1
f 49/2/1 50/1/1 51/4/1 52/3/1
f 53/2/1 54/1/1 55/4/1 56/3/1
f 57/2/1 58/1/1 59/4/1 60/3/1
f 61/3/1 62/2/1 63/1/1 64/4/1
f 65/3/1 66/2/1 67/1/1 68/4/1
f 69/3/1 70/2/1 71/1/1 72/4/1
f 73/3/1 74/2/1 75/1/1 76/4/1
f 77/3/1 78/2/1 79/1/1 80/4/1
f 81/3/1 82/2/1 83/1/1 84/4/1
f 85/3/1 86/2/1 87/1/1 88/4/1
f 89/3/1 90/2/1 91/1/1 92/4/1
f 93/3/1 94/2/1 95/1/1 96/4/1
f 97/3/1 98/2/1 99/1/1 100/4/1
f 101/3/1 102/2/1 103/1/1 104/4/1
f 105/3/1 106/2/1 107/1/1 108/4/1
f 109/3/1 110/2/1 111/1/1 112/4/1
f 113/3/1 114/2/1 115/1/1 116/4/1
f 117/3/1 118/2/1 119/1/1 120/4/1
f 121/3/1 122/2/1 123/1/1 124/4/1
f 125/1/1 126/2/1 127/3/1 128/4/1
f 129/1/1 130/2/1 131/3/1 132/4/1
f 133/1/1 134/2/1 135/3/1 136/4/1
f 137/2/1 138/1/1 139/4/1 140/3/1
f 141/2/1 142/1/1 143/4/1 144/3/1
f 145/2/1 146/1/1 147/4/1 148/3/1
f 149/2/1 150/1/1 151/4/1 152/3/1
f 153/2/1 154/1/1 155/4/1 156/3/1
f 157/2/1 158/1/1 159/4/1 160/3/1
f 161/2/1 162/1/1 163/4/1 164/3/1
f 165/2/1 166/1/1 167/4/1 168/3/1
f 169/2/1 170/1/1 171/4/1 172/3/1
f 173/2/1 174/1/1 175/4/1 176/3/1
f 177/2/1 178/1/1 179/4/1 180/3/1
f 181/2/1 182/1/1 183/4/1 184/3/1

