# Tiled2Unity generated file. Do not modify by hand.
# Wavefront file for 'escenaNorte_1_mesh_0014.obj'

# Vertices (Count = 384)
v -7 -4 0
v -8 -4 0
v -8 -3 0
v -7 -3 0
v -8 -4 0
v -9 -4 0
v -9 -3 0
v -8 -3 0
v -9 -4 0
v -10 -4 0
v -10 -3 0
v -9 -3 0
v -10 -4 0
v -11 -4 0
v -11 -3 0
v -10 -3 0
v -11 -4 0
v -12 -4 0
v -12 -3 0
v -11 -3 0
v -12 -4 0
v -13 -4 0
v -13 -3 0
v -12 -3 0
v -13 -4 0
v -14 -4 0
v -14 -3 0
v -13 -3 0
v -14 -4 0
v -15 -4 0
v -15 -3 0
v -14 -3 0
v -7 -5 0
v -8 -5 0
v -8 -4 0
v -7 -4 0
v -8 -5 0
v -9 -5 0
v -9 -4 0
v -8 -4 0
v -9 -5 0
v -10 -5 0
v -10 -4 0
v -9 -4 0
v -10 -5 0
v -11 -5 0
v -11 -4 0
v -10 -4 0
v -11 -5 0
v -12 -5 0
v -12 -4 0
v -11 -4 0
v -12 -5 0
v -13 -5 0
v -13 -4 0
v -12 -4 0
v -13 -5 0
v -14 -5 0
v -14 -4 0
v -13 -4 0
v -14 -5 0
v -15 -5 0
v -15 -4 0
v -14 -4 0
v -7 -6 0
v -8 -6 0
v -8 -5 0
v -7 -5 0
v -8 -6 0
v -9 -6 0
v -9 -5 0
v -8 -5 0
v -9 -6 0
v -10 -6 0
v -10 -5 0
v -9 -5 0
v -10 -6 0
v -11 -6 0
v -11 -5 0
v -10 -5 0
v -11 -6 0
v -12 -6 0
v -12 -5 0
v -11 -5 0
v -12 -6 0
v -13 -6 0
v -13 -5 0
v -12 -5 0
v -13 -6 0
v -14 -6 0
v -14 -5 0
v -13 -5 0
v -14 -6 0
v -15 -6 0
v -15 -5 0
v -14 -5 0
v -7 -7 0
v -8 -7 0
v -8 -6 0
v -7 -6 0
v -8 -7 0
v -9 -7 0
v -9 -6 0
v -8 -6 0
v -9 -7 0
v -10 -7 0
v -10 -6 0
v -9 -6 0
v -10 -7 0
v -11 -7 0
v -11 -6 0
v -10 -6 0
v -11 -7 0
v -12 -7 0
v -12 -6 0
v -11 -6 0
v -12 -7 0
v -13 -7 0
v -13 -6 0
v -12 -6 0
v -13 -7 0
v -14 -7 0
v -14 -6 0
v -13 -6 0
v -14 -7 0
v -15 -7 0
v -15 -6 0
v -14 -6 0
v -7 -8 0
v -8 -8 0
v -8 -7 0
v -7 -7 0
v -8 -8 0
v -9 -8 0
v -9 -7 0
v -8 -7 0
v -9 -8 0
v -10 -8 0
v -10 -7 0
v -9 -7 0
v -10 -8 0
v -11 -8 0
v -11 -7 0
v -10 -7 0
v -11 -8 0
v -12 -8 0
v -12 -7 0
v -11 -7 0
v -12 -8 0
v -13 -8 0
v -13 -7 0
v -12 -7 0
v -13 -8 0
v -14 -8 0
v -14 -7 0
v -13 -7 0
v -14 -8 0
v -15 -8 0
v -15 -7 0
v -14 -7 0
v -7 -9 0
v -8 -9 0
v -8 -8 0
v -7 -8 0
v -8 -9 0
v -9 -9 0
v -9 -8 0
v -8 -8 0
v -9 -9 0
v -10 -9 0
v -10 -8 0
v -9 -8 0
v -10 -9 0
v -11 -9 0
v -11 -8 0
v -10 -8 0
v -11 -9 0
v -12 -9 0
v -12 -8 0
v -11 -8 0
v -12 -9 0
v -13 -9 0
v -13 -8 0
v -12 -8 0
v -13 -9 0
v -14 -9 0
v -14 -8 0
v -13 -8 0
v -14 -9 0
v -15 -9 0
v -15 -8 0
v -14 -8 0
v -7 -10 0
v -8 -10 0
v -8 -9 0
v -7 -9 0
v -8 -10 0
v -9 -10 0
v -9 -9 0
v -8 -9 0
v -9 -10 0
v -10 -10 0
v -10 -9 0
v -9 -9 0
v -10 -10 0
v -11 -10 0
v -11 -9 0
v -10 -9 0
v -11 -10 0
v -12 -10 0
v -12 -9 0
v -11 -9 0
v -12 -10 0
v -13 -10 0
v -13 -9 0
v -12 -9 0
v -13 -10 0
v -14 -10 0
v -14 -9 0
v -13 -9 0
v -14 -10 0
v -15 -10 0
v -15 -9 0
v -14 -9 0
v -7 -11 0
v -8 -11 0
v -8 -10 0
v -7 -10 0
v -8 -11 0
v -9 -11 0
v -9 -10 0
v -8 -10 0
v -9 -11 0
v -10 -11 0
v -10 -10 0
v -9 -10 0
v -10 -11 0
v -11 -11 0
v -11 -10 0
v -10 -10 0
v -11 -11 0
v -12 -11 0
v -12 -10 0
v -11 -10 0
v -12 -11 0
v -13 -11 0
v -13 -10 0
v -12 -10 0
v -13 -11 0
v -14 -11 0
v -14 -10 0
v -13 -10 0
v -14 -11 0
v -15 -11 0
v -15 -10 0
v -14 -10 0
v 0 -15 0
v -1 -15 0
v -1 -14 0
v 0 -14 0
v -1 -15 0
v -2 -15 0
v -2 -14 0
v -1 -14 0
v -2 -15 0
v -3 -15 0
v -3 -14 0
v -2 -14 0
v -3 -15 0
v -4 -15 0
v -4 -14 0
v -3 -14 0
v -4 -15 0
v -5 -15 0
v -5 -14 0
v -4 -14 0
v -5 -15 0
v -6 -15 0
v -6 -14 0
v -5 -14 0
v -6 -15 0
v -7 -15 0
v -7 -14 0
v -6 -14 0
v -7 -15 0
v -8 -15 0
v -8 -14 0
v -7 -14 0
v -8 -15 0
v -9 -15 0
v -9 -14 0
v -8 -14 0
v -9 -15 0
v -10 -15 0
v -10 -14 0
v -9 -14 0
v -10 -15 0
v -11 -15 0
v -11 -14 0
v -10 -14 0
v -11 -15 0
v -12 -15 0
v -12 -14 0
v -11 -14 0
v -12 -15 0
v -13 -15 0
v -13 -14 0
v -12 -14 0
v -13 -15 0
v -14 -15 0
v -14 -14 0
v -13 -14 0
v -14 -15 0
v -15 -15 0
v -15 -14 0
v -14 -14 0
v -15 -15 0
v -16 -15 0
v -16 -14 0
v -15 -14 0
v 0 -16 0
v -1 -16 0
v -1 -15 0
v 0 -15 0
v -1 -16 0
v -2 -16 0
v -2 -15 0
v -1 -15 0
v -2 -16 0
v -3 -16 0
v -3 -15 0
v -2 -15 0
v -3 -16 0
v -4 -16 0
v -4 -15 0
v -3 -15 0
v -4 -16 0
v -5 -16 0
v -5 -15 0
v -4 -15 0
v -5 -16 0
v -6 -16 0
v -6 -15 0
v -5 -15 0
v -6 -16 0
v -7 -16 0
v -7 -15 0
v -6 -15 0
v -7 -16 0
v -8 -16 0
v -8 -15 0
v -7 -15 0
v -8 -16 0
v -9 -16 0
v -9 -15 0
v -8 -15 0
v -9 -16 0
v -10 -16 0
v -10 -15 0
v -9 -15 0
v -10 -16 0
v -11 -16 0
v -11 -15 0
v -10 -15 0
v -11 -16 0
v -12 -16 0
v -12 -15 0
v -11 -15 0
v -12 -16 0
v -13 -16 0
v -13 -15 0
v -12 -15 0
v -13 -16 0
v -14 -16 0
v -14 -15 0
v -13 -15 0
v -14 -16 0
v -15 -16 0
v -15 -15 0
v -14 -15 0
v -15 -16 0
v -16 -16 0
v -16 -15 0
v -15 -15 0

# Texture cooridinates (Count = 34)
vt 0.8476563 0.1796875
vt 0.875 0.1796875
vt 0.875 0.2070313
vt 0.8476563 0.2070313
vt 0.9023438 0.2070313
vt 0.9296875 0.2070313
vt 0.9296875 0.234375
vt 0.9023438 0.234375
vt 0.9296875 0.1796875
vt 0.9570313 0.1796875
vt 0.9570313 0.2070313
vt 0.8476563 0.1523438
vt 0.875 0.1523438
vt 0.9023438 0.1796875
vt 0.9570313 0.234375
vt 0.9023438 0.1523438
vt 0.9296875 0.1523438
vt 0.9570313 0.1523438
vt 0.8476563 0.125
vt 0.875 0.125
vt 0.9296875 0.125
vt 0.9570313 0.125
vt 0.8476563 0.09765625
vt 0.875 0.09765625
vt 0.9023438 0.09765625
vt 0.9023438 0.125
vt 0.9296875 0.09765625
vt 0.9570313 0.09765625
vt 0.5742188 0.5078125
vt 0.6015625 0.5078125
vt 0.6015625 0.5351563
vt 0.5742188 0.5351563
vt 0.5742188 0.4804688
vt 0.6015625 0.4804688

# Normal
vn 0 0 -1

# Mesh description
g escenaNorte_1_mesh_0014

# Faces
f 1/1/1 2/2/1 3/3/1 4/4/1
f 5/5/1 6/6/1 7/7/1 8/8/1
f 9/5/1 10/6/1 11/7/1 12/8/1
f 13/5/1 14/6/1 15/7/1 16/8/1
f 17/5/1 18/6/1 19/7/1 20/8/1
f 21/5/1 22/6/1 23/7/1 24/8/1
f 25/5/1 26/6/1 27/7/1 28/8/1
f 29/9/1 30/10/1 31/11/1 32/6/1
f 33/12/1 34/13/1 35/2/1 36/1/1
f 37/14/1 38/9/1 39/6/1 40/5/1
f 41/14/1 42/9/1 43/6/1 44/5/1
f 45/14/1 46/9/1 47/6/1 48/5/1
f 49/14/1 50/9/1 51/6/1 52/5/1
f 53/14/1 54/9/1 55/6/1 56/5/1
f 57/14/1 58/9/1 59/6/1 60/5/1
f 61/6/1 62/11/1 63/15/1 64/7/1
f 65/12/1 66/13/1 67/2/1 68/1/1
f 69/16/1 70/17/1 71/9/1 72/14/1
f 73/16/1 74/17/1 75/9/1 76/14/1
f 77/16/1 78/17/1 79/9/1 80/14/1
f 81/16/1 82/17/1 83/9/1 84/14/1
f 85/16/1 86/17/1 87/9/1 88/14/1
f 89/16/1 90/17/1 91/9/1 92/14/1
f 93/9/1 94/10/1 95/11/1 96/6/1
f 97/12/1 98/13/1 99/2/1 100/1/1
f 101/14/1 102/9/1 103/6/1 104/5/1
f 105/16/1 106/17/1 107/9/1 108/14/1
f 109/14/1 110/9/1 111/6/1 112/5/1
f 113/16/1 114/17/1 115/9/1 116/14/1
f 117/14/1 118/9/1 119/6/1 120/5/1
f 121/16/1 122/17/1 123/9/1 124/14/1
f 125/17/1 126/18/1 127/10/1 128/9/1
f 129/19/1 130/20/1 131/13/1 132/12/1
f 133/16/1 134/17/1 135/9/1 136/14/1
f 137/16/1 138/17/1 139/9/1 140/14/1
f 141/16/1 142/17/1 143/9/1 144/14/1
f 145/16/1 146/17/1 147/9/1 148/14/1
f 149/16/1 150/17/1 151/9/1 152/14/1
f 153/16/1 154/17/1 155/9/1 156/14/1
f 157/21/1 158/22/1 159/18/1 160/17/1
f 161/23/1 162/24/1 163/20/1 164/19/1
f 165/24/1 166/25/1 167/26/1 168/20/1
f 169/24/1 170/25/1 171/26/1 172/20/1
f 173/24/1 174/25/1 175/26/1 176/20/1
f 177/24/1 178/25/1 179/26/1 180/20/1
f 181/24/1 182/25/1 183/26/1 184/20/1
f 185/25/1 186/27/1 187/21/1 188/26/1
f 189/27/1 190/28/1 191/22/1 192/21/1
f 193/29/1 194/30/1 195/31/1 196/32/1
f 197/29/1 198/30/1 199/31/1 200/32/1
f 201/29/1 202/30/1 203/31/1 204/32/1
f 205/29/1 206/30/1 207/31/1 208/32/1
f 209/29/1 210/30/1 211/31/1 212/32/1
f 213/29/1 214/30/1 215/31/1 216/32/1
f 217/29/1 218/30/1 219/31/1 220/32/1
f 221/29/1 222/30/1 223/31/1 224/32/1
f 225/33/1 226/34/1 227/30/1 228/29/1
f 229/33/1 230/34/1 231/30/1 232/29/1
f 233/33/1 234/34/1 235/30/1 236/29/1
f 237/33/1 238/34/1 239/30/1 240/29/1
f 241/33/1 242/34/1 243/30/1 244/29/1
f 245/33/1 246/34/1 247/30/1 248/29/1
f 249/33/1 250/34/1 251/30/1 252/29/1
f 253/33/1 254/34/1 255/30/1 256/29/1
f 257/5/1 258/6/1 259/7/1 260/8/1
f 261/5/1 262/6/1 263/7/1 264/8/1
f 265/1/1 266/2/1 267/3/1 268/4/1
f 269/5/1 270/6/1 271/7/1 272/8/1
f 273/5/1 274/6/1 275/7/1 276/8/1
f 277/5/1 278/6/1 279/7/1 280/8/1
f 281/5/1 282/6/1 283/7/1 284/8/1
f 285/5/1 286/6/1 287/7/1 288/8/1
f 289/1/1 290/2/1 291/3/1 292/4/1
f 293/5/1 294/6/1 295/7/1 296/8/1
f 297/1/1 298/2/1 299/3/1 300/4/1
f 301/5/1 302/6/1 303/7/1 304/8/1
f 305/5/1 306/6/1 307/7/1 308/8/1
f 309/5/1 310/6/1 311/7/1 312/8/1
f 313/5/1 314/6/1 315/7/1 316/8/1
f 317/1/1 318/2/1 319/3/1 320/4/1
f 321/14/1 322/9/1 323/6/1 324/5/1
f 325/14/1 326/9/1 327/6/1 328/5/1
f 329/12/1 330/13/1 331/2/1 332/1/1
f 333/14/1 334/9/1 335/6/1 336/5/1
f 337/14/1 338/9/1 339/6/1 340/5/1
f 341/14/1 342/9/1 343/6/1 344/5/1
f 345/14/1 346/9/1 347/6/1 348/5/1
f 349/14/1 350/9/1 351/6/1 352/5/1
f 353/12/1 354/13/1 355/2/1 356/1/1
f 357/14/1 358/9/1 359/6/1 360/5/1
f 361/12/1 362/13/1 363/2/1 364/1/1
f 365/14/1 366/9/1 367/6/1 368/5/1
f 369/14/1 370/9/1 371/6/1 372/5/1
f 373/14/1 374/9/1 375/6/1 376/5/1
f 377/14/1 378/9/1 379/6/1 380/5/1
f 381/12/1 382/13/1 383/2/1 384/1/1

