# Tiled2Unity generated file. Do not modify by hand.
# Wavefront file for 'escenaNorte_1_mesh_0254.obj'

# Vertices (Count = 128)
v -1 -1 0
v -2 -1 0
v -2 0 0
v -1 0 0
v -2 -1 0
v -3 -1 0
v -3 0 0
v -2 0 0
v -1 -2 0
v -2 -2 0
v -2 -1 0
v -1 -1 0
v -2 -2 0
v -3 -2 0
v -3 -1 0
v -2 -1 0
v -1 -3 0
v -2 -3 0
v -2 -2 0
v -1 -2 0
v -2 -3 0
v -3 -3 0
v -3 -2 0
v -2 -2 0
v -1 -4 0
v -2 -4 0
v -2 -3 0
v -1 -3 0
v -2 -4 0
v -3 -4 0
v -3 -3 0
v -2 -3 0
v -1 -5 0
v -2 -5 0
v -2 -4 0
v -1 -4 0
v -2 -5 0
v -3 -5 0
v -3 -4 0
v -2 -4 0
v -1 -6 0
v -2 -6 0
v -2 -5 0
v -1 -5 0
v -2 -6 0
v -3 -6 0
v -3 -5 0
v -2 -5 0
v -1 -7 0
v -2 -7 0
v -2 -6 0
v -1 -6 0
v -2 -7 0
v -3 -7 0
v -3 -6 0
v -2 -6 0
v -1 -8 0
v -2 -8 0
v -2 -7 0
v -1 -7 0
v -2 -8 0
v -3 -8 0
v -3 -7 0
v -2 -7 0
v -1 -9 0
v -2 -9 0
v -2 -8 0
v -1 -8 0
v -2 -9 0
v -3 -9 0
v -3 -8 0
v -2 -8 0
v -1 -10 0
v -2 -10 0
v -2 -9 0
v -1 -9 0
v -2 -10 0
v -3 -10 0
v -3 -9 0
v -2 -9 0
v -1 -11 0
v -2 -11 0
v -2 -10 0
v -1 -10 0
v -2 -11 0
v -3 -11 0
v -3 -10 0
v -2 -10 0
v -1 -12 0
v -2 -12 0
v -2 -11 0
v -1 -11 0
v -2 -12 0
v -3 -12 0
v -3 -11 0
v -2 -11 0
v -1 -13 0
v -2 -13 0
v -2 -12 0
v -1 -12 0
v -2 -13 0
v -3 -13 0
v -3 -12 0
v -2 -12 0
v -1 -14 0
v -2 -14 0
v -2 -13 0
v -1 -13 0
v -2 -14 0
v -3 -14 0
v -3 -13 0
v -2 -13 0
v -1 -15 0
v -2 -15 0
v -2 -14 0
v -1 -14 0
v -2 -15 0
v -3 -15 0
v -3 -14 0
v -2 -14 0
v -1 -16 0
v -2 -16 0
v -2 -15 0
v -1 -15 0
v -2 -16 0
v -3 -16 0
v -3 -15 0
v -2 -15 0

# Texture cooridinates (Count = 15)
vt 0.328125 0.34375
vt 0.65625 0.34375
vt 0.65625 0.671875
vt 0.328125 0.671875
vt 0.984375 0.34375
vt 0.984375 0.671875
vt 0.65625 0.015625
vt 0.984375 0.015625
vt 0 0.34375
vt 0 0.671875
vt 0.328125 0.015625
vt 0 0.015625
vt 0.65625 1
vt 0.328125 1
vt 0 1

# Normal
vn 0 0 -1

# Mesh description
g escenaNorte_1_mesh_0254

# Faces
f 1/1/1 2/2/1 3/3/1 4/4/1
f 5/2/1 6/5/1 7/6/1 8/3/1
f 9/1/1 10/2/1 11/3/1 12/4/1
f 13/7/1 14/8/1 15/5/1 16/2/1
f 17/7/1 18/8/1 19/5/1 20/2/1
f 21/9/1 22/1/1 23/4/1 24/10/1
f 25/11/1 26/7/1 27/2/1 28/1/1
f 29/2/1 30/5/1 31/6/1 32/3/1
f 33/2/1 34/5/1 35/6/1 36/3/1
f 37/1/1 38/2/1 39/3/1 40/4/1
f 41/12/1 42/11/1 43/1/1 44/9/1
f 45/12/1 46/11/1 47/1/1 48/9/1
f 49/1/1 50/2/1 51/3/1 52/4/1
f 53/2/1 54/5/1 55/6/1 56/3/1
f 57/2/1 58/5/1 59/6/1 60/3/1
f 61/12/1 62/11/1 63/1/1 64/9/1
f 65/1/1 66/2/1 67/3/1 68/4/1
f 69/12/1 70/11/1 71/1/1 72/9/1
f 73/4/1 74/3/1 75/13/1 76/14/1
f 77/2/1 78/5/1 79/6/1 80/3/1
f 81/9/1 82/1/1 83/4/1 84/10/1
f 85/9/1 86/1/1 87/4/1 88/10/1
f 89/11/1 90/7/1 91/2/1 92/1/1
f 93/10/1 94/4/1 95/14/1 96/15/1
f 97/11/1 98/7/1 99/2/1 100/1/1
f 101/1/1 102/2/1 103/3/1 104/4/1
f 105/11/1 106/7/1 107/2/1 108/1/1
f 109/11/1 110/7/1 111/2/1 112/1/1
f 113/10/1 114/4/1 115/14/1 116/15/1
f 117/2/1 118/5/1 119/6/1 120/3/1
f 121/10/1 122/4/1 123/14/1 124/15/1
f 125/12/1 126/11/1 127/1/1 128/9/1

