# Tiled2Unity generated file. Do not modify by hand.
# Wavefront file for 'escenaNorte_1_mesh_0246.obj'

# Vertices (Count = 64)
v 0 -5 0
v -1 -5 0
v -1 -4 0
v 0 -4 0
v -1 -5 0
v -2 -5 0
v -2 -4 0
v -1 -4 0
v -2 -5 0
v -3 -5 0
v -3 -4 0
v -2 -4 0
v -3 -5 0
v -4 -5 0
v -4 -4 0
v -3 -4 0
v -4 -5 0
v -5 -5 0
v -5 -4 0
v -4 -4 0
v -5 -5 0
v -6 -5 0
v -6 -4 0
v -5 -4 0
v -6 -5 0
v -7 -5 0
v -7 -4 0
v -6 -4 0
v -7 -5 0
v -8 -5 0
v -8 -4 0
v -7 -4 0
v -8 -5 0
v -9 -5 0
v -9 -4 0
v -8 -4 0
v -9 -5 0
v -10 -5 0
v -10 -4 0
v -9 -4 0
v -10 -5 0
v -11 -5 0
v -11 -4 0
v -10 -4 0
v -11 -5 0
v -12 -5 0
v -12 -4 0
v -11 -4 0
v -12 -5 0
v -13 -5 0
v -13 -4 0
v -12 -4 0
v -13 -5 0
v -14 -5 0
v -14 -4 0
v -13 -4 0
v -14 -5 0
v -15 -5 0
v -15 -4 0
v -14 -4 0
v -15 -5 0
v -16 -5 0
v -16 -4 0
v -15 -4 0

# Texture cooridinates (Count = 15)
vt 0.328125 0.015625
vt 0.65625 0.015625
vt 0.65625 0.34375
vt 0.328125 0.34375
vt 0.328125 0.671875
vt 0.65625 0.671875
vt 0.65625 1
vt 0.328125 1
vt 0 0.015625
vt 0 0.34375
vt 0 0.671875
vt 0 1
vt 0.984375 0.015625
vt 0.984375 0.34375
vt 0.984375 0.671875

# Normal
vn 0 0 -1

# Mesh description
g escenaNorte_1_mesh_0246

# Faces
f 1/1/1 2/2/1 3/3/1 4/4/1
f 5/5/1 6/6/1 7/7/1 8/8/1
f 9/4/1 10/3/1 11/6/1 12/5/1
f 13/9/1 14/1/1 15/4/1 16/10/1
f 17/10/1 18/4/1 19/5/1 20/11/1
f 21/11/1 22/5/1 23/8/1 24/12/1
f 25/2/1 26/13/1 27/14/1 28/3/1
f 29/5/1 30/6/1 31/7/1 32/8/1
f 33/4/1 34/3/1 35/6/1 36/5/1
f 37/1/1 38/2/1 39/3/1 40/4/1
f 41/10/1 42/4/1 43/5/1 44/11/1
f 45/1/1 46/2/1 47/3/1 48/4/1
f 49/9/1 50/1/1 51/4/1 52/10/1
f 53/1/1 54/2/1 55/3/1 56/4/1
f 57/3/1 58/14/1 59/15/1 60/6/1
f 61/3/1 62/14/1 63/15/1 64/6/1

