# Tiled2Unity generated file. Do not modify by hand.
# Wavefront file for 'escenaNorte_1_mesh_0038.obj'

# Vertices (Count = 128)
v -5 -1 0
v -6 -1 0
v -6 0 0
v -5 0 0
v -6 -1 0
v -7 -1 0
v -7 0 0
v -6 0 0
v -7 -1 0
v -8 -1 0
v -8 0 0
v -7 0 0
v -8 -1 0
v -9 -1 0
v -9 0 0
v -8 0 0
v -9 -1 0
v -10 -1 0
v -10 0 0
v -9 0 0
v -10 -1 0
v -11 -1 0
v -11 0 0
v -10 0 0
v -11 -1 0
v -12 -1 0
v -12 0 0
v -11 0 0
v -12 -1 0
v -13 -1 0
v -13 0 0
v -12 0 0
v 0 -5 0
v -1 -5 0
v -1 -4 0
v 0 -4 0
v -1 -5 0
v -2 -5 0
v -2 -4 0
v -1 -4 0
v 0 -6 0
v -1 -6 0
v -1 -5 0
v 0 -5 0
v -1 -6 0
v -2 -6 0
v -2 -5 0
v -1 -5 0
v 0 -7 0
v -1 -7 0
v -1 -6 0
v 0 -6 0
v -1 -7 0
v -2 -7 0
v -2 -6 0
v -1 -6 0
v 0 -8 0
v -1 -8 0
v -1 -7 0
v 0 -7 0
v -1 -8 0
v -2 -8 0
v -2 -7 0
v -1 -7 0
v 0 -9 0
v -1 -9 0
v -1 -8 0
v 0 -8 0
v -1 -9 0
v -2 -9 0
v -2 -8 0
v -1 -8 0
v 0 -10 0
v -1 -10 0
v -1 -9 0
v 0 -9 0
v -1 -10 0
v -2 -10 0
v -2 -9 0
v -1 -9 0
v 0 -11 0
v -1 -11 0
v -1 -10 0
v 0 -10 0
v -1 -11 0
v -2 -11 0
v -2 -10 0
v -1 -10 0
v 0 -12 0
v -1 -12 0
v -1 -11 0
v 0 -11 0
v -1 -12 0
v -2 -12 0
v -2 -11 0
v -1 -11 0
v -5 -16 0
v -6 -16 0
v -6 -15 0
v -5 -15 0
v -6 -16 0
v -7 -16 0
v -7 -15 0
v -6 -15 0
v -7 -16 0
v -8 -16 0
v -8 -15 0
v -7 -15 0
v -8 -16 0
v -9 -16 0
v -9 -15 0
v -8 -15 0
v -9 -16 0
v -10 -16 0
v -10 -15 0
v -9 -15 0
v -10 -16 0
v -11 -16 0
v -11 -15 0
v -10 -15 0
v -11 -16 0
v -12 -16 0
v -12 -15 0
v -11 -15 0
v -12 -16 0
v -13 -16 0
v -13 -15 0
v -12 -15 0

# Texture cooridinates (Count = 28)
vt 0.5742188 0.4804688
vt 0.6015625 0.4804688
vt 0.6015625 0.5078125
vt 0.5742188 0.5078125
vt 0.9023438 0.2070313
vt 0.9296875 0.2070313
vt 0.9296875 0.234375
vt 0.9023438 0.234375
vt 0.9296875 0.1796875
vt 0.9570313 0.1796875
vt 0.9570313 0.2070313
vt 0.9023438 0.1796875
vt 0.9570313 0.234375
vt 0.9023438 0.1523438
vt 0.9296875 0.1523438
vt 0.9570313 0.1523438
vt 0.9296875 0.125
vt 0.9570313 0.125
vt 0.9023438 0.09765625
vt 0.9296875 0.09765625
vt 0.9023438 0.125
vt 0.9570313 0.09765625
vt 0.6015625 0.5351563
vt 0.5742188 0.5351563
vt 0.8476563 0.1796875
vt 0.875 0.1796875
vt 0.875 0.2070313
vt 0.8476563 0.2070313

# Normal
vn 0 0 -1

# Mesh description
g escenaNorte_1_mesh_0038

# Faces
f 1/1/1 2/2/1 3/3/1 4/4/1
f 5/1/1 6/2/1 7/3/1 8/4/1
f 9/1/1 10/2/1 11/3/1 12/4/1
f 13/1/1 14/2/1 15/3/1 16/4/1
f 17/1/1 18/2/1 19/3/1 20/4/1
f 21/1/1 22/2/1 23/3/1 24/4/1
f 25/1/1 26/2/1 27/3/1 28/4/1
f 29/1/1 30/2/1 31/3/1 32/4/1
f 33/5/1 34/6/1 35/7/1 36/8/1
f 37/9/1 38/10/1 39/11/1 40/6/1
f 41/12/1 42/9/1 43/6/1 44/5/1
f 45/6/1 46/11/1 47/13/1 48/7/1
f 49/14/1 50/15/1 51/9/1 52/12/1
f 53/9/1 54/10/1 55/11/1 56/6/1
f 57/14/1 58/15/1 59/9/1 60/12/1
f 61/15/1 62/16/1 63/10/1 64/9/1
f 65/14/1 66/15/1 67/9/1 68/12/1
f 69/17/1 70/18/1 71/16/1 72/15/1
f 73/19/1 74/20/1 75/17/1 76/21/1
f 77/20/1 78/22/1 79/18/1 80/17/1
f 81/4/1 82/3/1 83/23/1 84/24/1
f 85/4/1 86/3/1 87/23/1 88/24/1
f 89/1/1 90/2/1 91/3/1 92/4/1
f 93/1/1 94/2/1 95/3/1 96/4/1
f 97/25/1 98/26/1 99/27/1 100/28/1
f 101/5/1 102/6/1 103/7/1 104/8/1
f 105/5/1 106/6/1 107/7/1 108/8/1
f 109/5/1 110/6/1 111/7/1 112/8/1
f 113/5/1 114/6/1 115/7/1 116/8/1
f 117/5/1 118/6/1 119/7/1 120/8/1
f 121/5/1 122/6/1 123/7/1 124/8/1
f 125/9/1 126/10/1 127/11/1 128/6/1

