# Tiled2Unity generated file. Do not modify by hand.
# Wavefront file for 'escenaNorte_1_mesh_0053.obj'

# Vertices (Count = 248)
v 0 -1 0
v -1 -1 0
v -1 0 0
v 0 0 0
v -1 -1 0
v -2 -1 0
v -2 0 0
v -1 0 0
v 0 -2 0
v -1 -2 0
v -1 -1 0
v 0 -1 0
v -1 -2 0
v -2 -2 0
v -2 -1 0
v -1 -1 0
v 0 -3 0
v -1 -3 0
v -1 -2 0
v 0 -2 0
v -1 -3 0
v -2 -3 0
v -2 -2 0
v -1 -2 0
v 0 -4 0
v -1 -4 0
v -1 -3 0
v 0 -3 0
v -1 -4 0
v -2 -4 0
v -2 -3 0
v -1 -3 0
v 0 -5 0
v -1 -5 0
v -1 -4 0
v 0 -4 0
v -1 -5 0
v -2 -5 0
v -2 -4 0
v -1 -4 0
v 0 -6 0
v -1 -6 0
v -1 -5 0
v 0 -5 0
v -1 -6 0
v -2 -6 0
v -2 -5 0
v -1 -5 0
v 0 -7 0
v -1 -7 0
v -1 -6 0
v 0 -6 0
v -1 -7 0
v -2 -7 0
v -2 -6 0
v -1 -6 0
v -5 -11 0
v -6 -11 0
v -6 -10 0
v -5 -10 0
v -6 -11 0
v -7 -11 0
v -7 -10 0
v -6 -10 0
v -7 -11 0
v -8 -11 0
v -8 -10 0
v -7 -10 0
v -8 -11 0
v -9 -11 0
v -9 -10 0
v -8 -10 0
v -9 -11 0
v -10 -11 0
v -10 -10 0
v -9 -10 0
v -10 -11 0
v -11 -11 0
v -11 -10 0
v -10 -10 0
v -11 -11 0
v -12 -11 0
v -12 -10 0
v -11 -10 0
v -12 -11 0
v -13 -11 0
v -13 -10 0
v -12 -10 0
v -5 -12 0
v -6 -12 0
v -6 -11 0
v -5 -11 0
v -6 -12 0
v -7 -12 0
v -7 -11 0
v -6 -11 0
v -7 -12 0
v -8 -12 0
v -8 -11 0
v -7 -11 0
v -8 -12 0
v -9 -12 0
v -9 -11 0
v -8 -11 0
v -9 -12 0
v -10 -12 0
v -10 -11 0
v -9 -11 0
v -10 -12 0
v -11 -12 0
v -11 -11 0
v -10 -11 0
v -11 -12 0
v -12 -12 0
v -12 -11 0
v -11 -11 0
v -12 -12 0
v -13 -12 0
v -13 -11 0
v -12 -11 0
v -5 -13 0
v -6 -13 0
v -6 -12 0
v -5 -12 0
v -6 -13 0
v -7 -13 0
v -7 -12 0
v -6 -12 0
v -7 -13 0
v -8 -13 0
v -8 -12 0
v -7 -12 0
v -8 -13 0
v -9 -13 0
v -9 -12 0
v -8 -12 0
v -9 -13 0
v -10 -13 0
v -10 -12 0
v -9 -12 0
v -10 -13 0
v -11 -13 0
v -11 -12 0
v -10 -12 0
v -11 -13 0
v -12 -13 0
v -12 -12 0
v -11 -12 0
v -12 -13 0
v -13 -13 0
v -13 -12 0
v -12 -12 0
v -5 -14 0
v -6 -14 0
v -6 -13 0
v -5 -13 0
v -6 -14 0
v -7 -14 0
v -7 -13 0
v -6 -13 0
v -7 -14 0
v -8 -14 0
v -8 -13 0
v -7 -13 0
v -8 -14 0
v -9 -14 0
v -9 -13 0
v -8 -13 0
v -9 -14 0
v -10 -14 0
v -10 -13 0
v -9 -13 0
v -10 -14 0
v -11 -14 0
v -11 -13 0
v -10 -13 0
v -11 -14 0
v -12 -14 0
v -12 -13 0
v -11 -13 0
v -12 -14 0
v -13 -14 0
v -13 -13 0
v -12 -13 0
v -5 -15 0
v -6 -15 0
v -6 -14 0
v -5 -14 0
v -6 -15 0
v -7 -15 0
v -7 -14 0
v -6 -14 0
v -7 -15 0
v -8 -15 0
v -8 -14 0
v -7 -14 0
v -8 -15 0
v -9 -15 0
v -9 -14 0
v -8 -14 0
v -9 -15 0
v -10 -15 0
v -10 -14 0
v -9 -14 0
v -10 -15 0
v -11 -15 0
v -11 -14 0
v -10 -14 0
v -11 -15 0
v -12 -15 0
v -12 -14 0
v -11 -14 0
v -12 -15 0
v -13 -15 0
v -13 -14 0
v -12 -14 0
v -5 -16 0
v -6 -16 0
v -6 -15 0
v -5 -15 0
v -6 -16 0
v -7 -16 0
v -7 -15 0
v -6 -15 0
v -7 -16 0
v -8 -16 0
v -8 -15 0
v -7 -15 0
v -8 -16 0
v -9 -16 0
v -9 -15 0
v -8 -15 0
v -9 -16 0
v -10 -16 0
v -10 -15 0
v -9 -15 0
v -10 -16 0
v -11 -16 0
v -11 -15 0
v -10 -15 0
v -11 -16 0
v -12 -16 0
v -12 -15 0
v -11 -15 0
v -12 -16 0
v -13 -16 0
v -13 -15 0
v -12 -15 0

# Texture cooridinates (Count = 42)
vt 0.7929688 0.9453125
vt 0.8203125 0.9453125
vt 0.8203125 0.9726563
vt 0.7929688 0.9726563
vt 0.8203125 0.9179688
vt 0.8476563 0.9179688
vt 0.8476563 0.9453125
vt 0.7929688 0.9179688
vt 0.8203125 0.890625
vt 0.8476563 0.890625
vt 0.7929688 0.8632813
vt 0.8203125 0.8632813
vt 0.7929688 0.890625
vt 0.8476563 0.8632813
vt 0.7929688 0.8359375
vt 0.8203125 0.8359375
vt 0.8476563 0.8359375
vt 0.9296875 0.09765625
vt 0.9570313 0.09765625
vt 0.9570313 0.125
vt 0.9296875 0.125
vt 0.984375 0.09765625
vt 0.984375 0.125
vt 0.7109375 0.9179688
vt 0.7382813 0.9179688
vt 0.7382813 0.9453125
vt 0.7109375 0.9453125
vt 0.765625 0.9179688
vt 0.765625 0.9453125
vt 0.765625 0.9726563
vt 0.8476563 0.9726563
vt 0.7109375 0.890625
vt 0.7382813 0.890625
vt 0.765625 0.890625
vt 0.7109375 0.8632813
vt 0.7382813 0.8632813
vt 0.765625 0.8632813
vt 0.7109375 0.8359375
vt 0.7382813 0.8359375
vt 0.765625 0.8359375
vt 0.9023438 0.09765625
vt 0.9023438 0.125

# Normal
vn 0 0 -1

# Mesh description
g escenaNorte_1_mesh_0053

# Faces
f 1/1/1 2/2/1 3/3/1 4/4/1
f 5/5/1 6/6/1 7/7/1 8/2/1
f 9/8/1 10/5/1 11/2/1 12/1/1
f 13/9/1 14/10/1 15/6/1 16/5/1
f 17/11/1 18/12/1 19/9/1 20/13/1
f 21/12/1 22/14/1 23/10/1 24/9/1
f 25/15/1 26/16/1 27/12/1 28/11/1
f 29/16/1 30/17/1 31/14/1 32/12/1
f 33/18/1 34/19/1 35/20/1 36/21/1
f 37/19/1 38/22/1 39/23/1 40/20/1
f 41/18/1 42/19/1 43/20/1 44/21/1
f 45/19/1 46/22/1 47/23/1 48/20/1
f 49/19/1 50/22/1 51/23/1 52/20/1
f 53/19/1 54/22/1 55/23/1 56/20/1
f 57/24/1 58/25/1 59/26/1 60/27/1
f 61/25/1 62/28/1 63/29/1 64/26/1
f 65/28/1 66/8/1 67/1/1 68/29/1
f 69/29/1 70/1/1 71/4/1 72/30/1
f 73/29/1 74/1/1 75/4/1 76/30/1
f 77/29/1 78/1/1 79/4/1 80/30/1
f 81/1/1 82/2/1 83/3/1 84/4/1
f 85/2/1 86/7/1 87/31/1 88/3/1
f 89/24/1 90/25/1 91/26/1 92/27/1
f 93/25/1 94/28/1 95/29/1 96/26/1
f 97/28/1 98/8/1 99/1/1 100/29/1
f 101/28/1 102/8/1 103/1/1 104/29/1
f 105/28/1 106/8/1 107/1/1 108/29/1
f 109/29/1 110/1/1 111/4/1 112/30/1
f 113/1/1 114/2/1 115/3/1 116/4/1
f 117/5/1 118/6/1 119/7/1 120/2/1
f 121/32/1 122/33/1 123/25/1 124/24/1
f 125/33/1 126/34/1 127/28/1 128/25/1
f 129/34/1 130/13/1 131/8/1 132/28/1
f 133/28/1 134/8/1 135/1/1 136/29/1
f 137/28/1 138/8/1 139/1/1 140/29/1
f 141/28/1 142/8/1 143/1/1 144/29/1
f 145/8/1 146/5/1 147/2/1 148/1/1
f 149/9/1 150/10/1 151/6/1 152/5/1
f 153/35/1 154/36/1 155/33/1 156/32/1
f 157/36/1 158/37/1 159/34/1 160/33/1
f 161/37/1 162/11/1 163/13/1 164/34/1
f 165/37/1 166/11/1 167/13/1 168/34/1
f 169/37/1 170/11/1 171/13/1 172/34/1
f 173/37/1 174/11/1 175/13/1 176/34/1
f 177/11/1 178/12/1 179/9/1 180/13/1
f 181/12/1 182/14/1 183/10/1 184/9/1
f 185/38/1 186/39/1 187/36/1 188/35/1
f 189/39/1 190/40/1 191/37/1 192/36/1
f 193/40/1 194/15/1 195/11/1 196/37/1
f 197/40/1 198/15/1 199/11/1 200/37/1
f 201/40/1 202/15/1 203/11/1 204/37/1
f 205/40/1 206/15/1 207/11/1 208/37/1
f 209/15/1 210/16/1 211/12/1 212/11/1
f 213/16/1 214/17/1 215/14/1 216/12/1
f 217/41/1 218/18/1 219/21/1 220/42/1
f 221/41/1 222/18/1 223/21/1 224/42/1
f 225/41/1 226/18/1 227/21/1 228/42/1
f 229/41/1 230/18/1 231/21/1 232/42/1
f 233/41/1 234/18/1 235/21/1 236/42/1
f 237/41/1 238/18/1 239/21/1 240/42/1
f 241/18/1 242/19/1 243/20/1 244/21/1
f 245/19/1 246/22/1 247/23/1 248/20/1

