# Tiled2Unity generated file. Do not modify by hand.
# Wavefront file for 'escenaNorte_1_mesh_0127.obj'

# Vertices (Count = 128)
v -5 -1 0
v -6 -1 0
v -6 0 0
v -5 0 0
v -6 -1 0
v -7 -1 0
v -7 0 0
v -6 0 0
v 0 -2 0
v -1 -2 0
v -1 -1 0
v 0 -1 0
v -1 -2 0
v -2 -2 0
v -2 -1 0
v -1 -1 0
v -2 -2 0
v -3 -2 0
v -3 -1 0
v -2 -1 0
v -3 -2 0
v -4 -2 0
v -4 -1 0
v -3 -1 0
v -5 -2 0
v -6 -2 0
v -6 -1 0
v -5 -1 0
v -6 -2 0
v -7 -2 0
v -7 -1 0
v -6 -1 0
v -7 -2 0
v -8 -2 0
v -8 -1 0
v -7 -1 0
v -8 -2 0
v -9 -2 0
v -9 -1 0
v -8 -1 0
v -9 -2 0
v -10 -2 0
v -10 -1 0
v -9 -1 0
v -10 -2 0
v -11 -2 0
v -11 -1 0
v -10 -1 0
v -11 -2 0
v -12 -2 0
v -12 -1 0
v -11 -1 0
v -12 -2 0
v -13 -2 0
v -13 -1 0
v -12 -1 0
v -13 -2 0
v -14 -2 0
v -14 -1 0
v -13 -1 0
v -14 -2 0
v -15 -2 0
v -15 -1 0
v -14 -1 0
v -15 -2 0
v -16 -2 0
v -16 -1 0
v -15 -1 0
v 0 -3 0
v -1 -3 0
v -1 -2 0
v 0 -2 0
v -1 -3 0
v -2 -3 0
v -2 -2 0
v -1 -2 0
v -2 -3 0
v -3 -3 0
v -3 -2 0
v -2 -2 0
v -3 -3 0
v -4 -3 0
v -4 -2 0
v -3 -2 0
v -5 -3 0
v -6 -3 0
v -6 -2 0
v -5 -2 0
v -6 -3 0
v -7 -3 0
v -7 -2 0
v -6 -2 0
v -7 -3 0
v -8 -3 0
v -8 -2 0
v -7 -2 0
v -8 -3 0
v -9 -3 0
v -9 -2 0
v -8 -2 0
v -9 -3 0
v -10 -3 0
v -10 -2 0
v -9 -2 0
v -10 -3 0
v -11 -3 0
v -11 -2 0
v -10 -2 0
v -11 -3 0
v -12 -3 0
v -12 -2 0
v -11 -2 0
v -12 -3 0
v -13 -3 0
v -13 -2 0
v -12 -2 0
v -13 -3 0
v -14 -3 0
v -14 -2 0
v -13 -2 0
v -14 -3 0
v -15 -3 0
v -15 -2 0
v -14 -2 0
v -15 -3 0
v -16 -3 0
v -16 -2 0
v -15 -2 0

# Texture cooridinates (Count = 21)
vt 0.9296875 0.2617188
vt 0.9023438 0.2617188
vt 0.9023438 0.2890625
vt 0.9296875 0.2890625
vt 0.875 0.2617188
vt 0.875 0.2890625
vt 0.5742188 0.5898438
vt 0.6015625 0.5898438
vt 0.6015625 0.6171875
vt 0.5742188 0.6171875
vt 0.6289063 0.5898438
vt 0.6289063 0.6171875
vt 0.9296875 0.234375
vt 0.9023438 0.234375
vt 0.875 0.234375
vt 0.5742188 0.5625
vt 0.6015625 0.5625
vt 0.6289063 0.5625
vt 0.9296875 0.2070313
vt 0.9023438 0.2070313
vt 0.875 0.2070313

# Normal
vn 0 0 -1

# Mesh description
g escenaNorte_1_mesh_0127

# Faces
f 1/1/1 2/2/1 3/3/1 4/4/1
f 5/2/1 6/5/1 7/6/1 8/3/1
f 9/7/1 10/8/1 11/9/1 12/10/1
f 13/8/1 14/11/1 15/12/1 16/9/1
f 17/7/1 18/8/1 19/9/1 20/10/1
f 21/8/1 22/11/1 23/12/1 24/9/1
f 25/13/1 26/14/1 27/2/1 28/1/1
f 29/14/1 30/15/1 31/5/1 32/2/1
f 33/8/1 34/11/1 35/12/1 36/9/1
f 37/7/1 38/8/1 39/9/1 40/10/1
f 41/8/1 42/11/1 43/12/1 44/9/1
f 45/7/1 46/8/1 47/9/1 48/10/1
f 49/8/1 50/11/1 51/12/1 52/9/1
f 53/7/1 54/8/1 55/9/1 56/10/1
f 57/8/1 58/11/1 59/12/1 60/9/1
f 61/7/1 62/8/1 63/9/1 64/10/1
f 65/8/1 66/11/1 67/12/1 68/9/1
f 69/16/1 70/17/1 71/8/1 72/7/1
f 73/17/1 74/18/1 75/11/1 76/8/1
f 77/16/1 78/17/1 79/8/1 80/7/1
f 81/17/1 82/18/1 83/11/1 84/8/1
f 85/19/1 86/20/1 87/14/1 88/13/1
f 89/20/1 90/21/1 91/15/1 92/14/1
f 93/17/1 94/18/1 95/11/1 96/8/1
f 97/16/1 98/17/1 99/8/1 100/7/1
f 101/17/1 102/18/1 103/11/1 104/8/1
f 105/16/1 106/17/1 107/8/1 108/7/1
f 109/17/1 110/18/1 111/11/1 112/8/1
f 113/16/1 114/17/1 115/8/1 116/7/1
f 117/17/1 118/18/1 119/11/1 120/8/1
f 121/16/1 122/17/1 123/8/1 124/7/1
f 125/17/1 126/18/1 127/11/1 128/8/1

