# Tiled2Unity generated file. Do not modify by hand.
# Wavefront file for 'escenaNorte_1_mesh_0137.obj'

# Vertices (Count = 172)
v -2 -5 0
v -3 -5 0
v -3 -4 0
v -2 -4 0
v -3 -5 0
v -4 -5 0
v -4 -4 0
v -3 -4 0
v -4 -5 0
v -5 -5 0
v -5 -4 0
v -4 -4 0
v -5 -5 0
v -6 -5 0
v -6 -4 0
v -5 -4 0
v -6 -5 0
v -7 -5 0
v -7 -4 0
v -6 -4 0
v -7 -5 0
v -8 -5 0
v -8 -4 0
v -7 -4 0
v -8 -5 0
v -9 -5 0
v -9 -4 0
v -8 -4 0
v -9 -5 0
v -10 -5 0
v -10 -4 0
v -9 -4 0
v -10 -5 0
v -11 -5 0
v -11 -4 0
v -10 -4 0
v -11 -5 0
v -12 -5 0
v -12 -4 0
v -11 -4 0
v -1 -6 0
v -2 -6 0
v -2 -5 0
v -1 -5 0
v -12 -6 0
v -13 -6 0
v -13 -5 0
v -12 -5 0
v -1 -7 0
v -2 -7 0
v -2 -6 0
v -1 -6 0
v -12 -7 0
v -13 -7 0
v -13 -6 0
v -12 -6 0
v -1 -8 0
v -2 -8 0
v -2 -7 0
v -1 -7 0
v -12 -8 0
v -13 -8 0
v -13 -7 0
v -12 -7 0
v -1 -9 0
v -2 -9 0
v -2 -8 0
v -1 -8 0
v -12 -9 0
v -13 -9 0
v -13 -8 0
v -12 -8 0
v -1 -10 0
v -2 -10 0
v -2 -9 0
v -1 -9 0
v -12 -10 0
v -13 -10 0
v -13 -9 0
v -12 -9 0
v -1 -11 0
v -2 -11 0
v -2 -10 0
v -1 -10 0
v -12 -11 0
v -13 -11 0
v -13 -10 0
v -12 -10 0
v -1 -12 0
v -2 -12 0
v -2 -11 0
v -1 -11 0
v -12 -12 0
v -13 -12 0
v -13 -11 0
v -12 -11 0
v -1 -13 0
v -2 -13 0
v -2 -12 0
v -1 -12 0
v -12 -13 0
v -13 -13 0
v -13 -12 0
v -12 -12 0
v -1 -14 0
v -2 -14 0
v -2 -13 0
v -1 -13 0
v -12 -14 0
v -13 -14 0
v -13 -13 0
v -12 -13 0
v -1 -15 0
v -2 -15 0
v -2 -14 0
v -1 -14 0
v -12 -15 0
v -13 -15 0
v -13 -14 0
v -12 -14 0
v -2 -16 0
v -3 -16 0
v -3 -15 0
v -2 -15 0
v -3 -16 0
v -4 -16 0
v -4 -15 0
v -3 -15 0
v -4 -16 0
v -5 -16 0
v -5 -15 0
v -4 -15 0
v -5 -16 0
v -6 -16 0
v -6 -15 0
v -5 -15 0
v -6 -16 0
v -7 -16 0
v -7 -15 0
v -6 -15 0
v -7 -16 0
v -8 -16 0
v -8 -15 0
v -7 -15 0
v -8 -16 0
v -9 -16 0
v -9 -15 0
v -8 -15 0
v -9 -16 0
v -10 -16 0
v -10 -15 0
v -9 -15 0
v -10 -16 0
v -11 -16 0
v -11 -15 0
v -10 -15 0
v -11 -16 0
v -12 -16 0
v -12 -15 0
v -11 -15 0
v -13 -16 0
v -14 -16 0
v -14 -15 0
v -13 -15 0
v -14 -16 0
v -15 -16 0
v -15 -15 0
v -14 -15 0
v -15 -16 0
v -16 -16 0
v -16 -15 0
v -15 -15 0

# Texture cooridinates (Count = 4)
vt 0.5429688 0.9739583
vt 0.5429688 0.8645833
vt 0.5839844 0.8645833
vt 0.5839844 0.9739583

# Normal
vn 0 0 -1

# Mesh description
g escenaNorte_1_mesh_0137

# Faces
f 1/1/1 2/2/1 3/3/1 4/4/1
f 5/1/1 6/2/1 7/3/1 8/4/1
f 9/1/1 10/2/1 11/3/1 12/4/1
f 13/1/1 14/2/1 15/3/1 16/4/1
f 17/1/1 18/2/1 19/3/1 20/4/1
f 21/1/1 22/2/1 23/3/1 24/4/1
f 25/1/1 26/2/1 27/3/1 28/4/1
f 29/1/1 30/2/1 31/3/1 32/4/1
f 33/1/1 34/2/1 35/3/1 36/4/1
f 37/1/1 38/2/1 39/3/1 40/4/1
f 41/4/1 42/1/1 43/2/1 44/3/1
f 45/3/1 46/2/1 47/1/1 48/4/1
f 49/4/1 50/1/1 51/2/1 52/3/1
f 53/3/1 54/2/1 55/1/1 56/4/1
f 57/4/1 58/1/1 59/2/1 60/3/1
f 61/3/1 62/2/1 63/1/1 64/4/1
f 65/4/1 66/1/1 67/2/1 68/3/1
f 69/3/1 70/2/1 71/1/1 72/4/1
f 73/4/1 74/1/1 75/2/1 76/3/1
f 77/3/1 78/2/1 79/1/1 80/4/1
f 81/4/1 82/1/1 83/2/1 84/3/1
f 85/3/1 86/2/1 87/1/1 88/4/1
f 89/4/1 90/1/1 91/2/1 92/3/1
f 93/3/1 94/2/1 95/1/1 96/4/1
f 97/4/1 98/1/1 99/2/1 100/3/1
f 101/3/1 102/2/1 103/1/1 104/4/1
f 105/4/1 106/1/1 107/2/1 108/3/1
f 109/3/1 110/2/1 111/1/1 112/4/1
f 113/4/1 114/1/1 115/2/1 116/3/1
f 117/3/1 118/2/1 119/1/1 120/4/1
f 121/1/1 122/2/1 123/3/1 124/4/1
f 125/1/1 126/2/1 127/3/1 128/4/1
f 129/1/1 130/2/1 131/3/1 132/4/1
f 133/1/1 134/2/1 135/3/1 136/4/1
f 137/1/1 138/2/1 139/3/1 140/4/1
f 141/1/1 142/2/1 143/3/1 144/4/1
f 145/1/1 146/2/1 147/3/1 148/4/1
f 149/1/1 150/2/1 151/3/1 152/4/1
f 153/1/1 154/2/1 155/3/1 156/4/1
f 157/1/1 158/2/1 159/3/1 160/4/1
f 161/4/1 162/3/1 163/2/1 164/1/1
f 165/4/1 166/3/1 167/2/1 168/1/1
f 169/4/1 170/3/1 171/2/1 172/1/1

