# Tiled2Unity generated file. Do not modify by hand.
# Wavefront file for 'escenaNorte_2_mesh_0193.obj'

# Vertices (Count = 68)
v -1 -3 0
v -2 -3 0
v -2 -2 0
v -1 -2 0
v -2 -3 0
v -3 -3 0
v -3 -2 0
v -2 -2 0
v -3 -3 0
v -4 -3 0
v -4 -2 0
v -3 -2 0
v -4 -3 0
v -5 -3 0
v -5 -2 0
v -4 -2 0
v 0 -4 0
v -1 -4 0
v -1 -3 0
v 0 -3 0
v -1 -4 0
v -2 -4 0
v -2 -3 0
v -1 -3 0
v -2 -4 0
v -3 -4 0
v -3 -3 0
v -2 -3 0
v -3 -4 0
v -4 -4 0
v -4 -3 0
v -3 -3 0
v -4 -4 0
v -5 -4 0
v -5 -3 0
v -4 -3 0
v 0 -5 0
v -1 -5 0
v -1 -4 0
v 0 -4 0
v 0 -6 0
v -1 -6 0
v -1 -5 0
v 0 -5 0
v 0 -7 0
v -1 -7 0
v -1 -6 0
v 0 -6 0
v 0 -8 0
v -1 -8 0
v -1 -7 0
v 0 -7 0
v -2 -11 0
v -3 -11 0
v -3 -10 0
v -2 -10 0
v -3 -11 0
v -4 -11 0
v -4 -10 0
v -3 -10 0
v -2 -12 0
v -3 -12 0
v -3 -11 0
v -2 -11 0
v -3 -12 0
v -4 -12 0
v -4 -11 0
v -3 -11 0

# Texture cooridinates (Count = 30)
vt 0.7382813 0.04296875
vt 0.765625 0.04296875
vt 0.765625 0.0703125
vt 0.7382813 0.0703125
vt 0.7929688 0.04296875
vt 0.7929688 0.0703125
vt 0.4648438 0.4804688
vt 0.4921875 0.4804688
vt 0.4921875 0.5078125
vt 0.4648438 0.5078125
vt 0.7382813 0.015625
vt 0.765625 0.015625
vt 0.7929688 0.015625
vt 0.4648438 0.453125
vt 0.4921875 0.453125
vt 0.4648438 0.4257813
vt 0.4921875 0.4257813
vt 0.4648438 0.3984375
vt 0.4921875 0.3984375
vt 0.4648438 0.3710938
vt 0.4921875 0.3710938
vt 0.5742188 0.1523438
vt 0.6015625 0.1523438
vt 0.6015625 0.1796875
vt 0.5742188 0.1796875
vt 0.6289063 0.1523438
vt 0.6289063 0.1796875
vt 0.5742188 0.125
vt 0.6015625 0.125
vt 0.6289063 0.125

# Normal
vn 0 0 -1

# Mesh description
g escenaNorte_2_mesh_0193

# Faces
f 1/1/1 2/2/1 3/3/1 4/4/1
f 5/2/1 6/5/1 7/6/1 8/3/1
f 9/1/1 10/2/1 11/3/1 12/4/1
f 13/2/1 14/5/1 15/6/1 16/3/1
f 17/7/1 18/8/1 19/9/1 20/10/1
f 21/11/1 22/12/1 23/2/1 24/1/1
f 25/12/1 26/13/1 27/5/1 28/2/1
f 29/11/1 30/12/1 31/2/1 32/1/1
f 33/12/1 34/13/1 35/5/1 36/2/1
f 37/14/1 38/15/1 39/8/1 40/7/1
f 41/16/1 42/17/1 43/15/1 44/14/1
f 45/18/1 46/19/1 47/17/1 48/16/1
f 49/20/1 50/21/1 51/19/1 52/18/1
f 53/22/1 54/23/1 55/24/1 56/25/1
f 57/23/1 58/26/1 59/27/1 60/24/1
f 61/28/1 62/29/1 63/23/1 64/22/1
f 65/29/1 66/30/1 67/26/1 68/23/1

