# Tiled2Unity generated file. Do not modify by hand.
# Wavefront file for 'escenaNorte_2_mesh_0112.obj'

# Vertices (Count = 168)
v -13 -3 0
v -14 -3 0
v -14 -2 0
v -13 -2 0
v -14 -3 0
v -15 -3 0
v -15 -2 0
v -14 -2 0
v -15 -3 0
v -16 -3 0
v -16 -2 0
v -15 -2 0
v -13 -4 0
v -14 -4 0
v -14 -3 0
v -13 -3 0
v -14 -4 0
v -15 -4 0
v -15 -3 0
v -14 -3 0
v -15 -4 0
v -16 -4 0
v -16 -3 0
v -15 -3 0
v -13 -5 0
v -14 -5 0
v -14 -4 0
v -13 -4 0
v -14 -5 0
v -15 -5 0
v -15 -4 0
v -14 -4 0
v -15 -5 0
v -16 -5 0
v -16 -4 0
v -15 -4 0
v -13 -6 0
v -14 -6 0
v -14 -5 0
v -13 -5 0
v -14 -6 0
v -15 -6 0
v -15 -5 0
v -14 -5 0
v -15 -6 0
v -16 -6 0
v -16 -5 0
v -15 -5 0
v -13 -7 0
v -14 -7 0
v -14 -6 0
v -13 -6 0
v -14 -7 0
v -15 -7 0
v -15 -6 0
v -14 -6 0
v -15 -7 0
v -16 -7 0
v -16 -6 0
v -15 -6 0
v -13 -8 0
v -14 -8 0
v -14 -7 0
v -13 -7 0
v -14 -8 0
v -15 -8 0
v -15 -7 0
v -14 -7 0
v -15 -8 0
v -16 -8 0
v -16 -7 0
v -15 -7 0
v -13 -9 0
v -14 -9 0
v -14 -8 0
v -13 -8 0
v -14 -9 0
v -15 -9 0
v -15 -8 0
v -14 -8 0
v -15 -9 0
v -16 -9 0
v -16 -8 0
v -15 -8 0
v -13 -10 0
v -14 -10 0
v -14 -9 0
v -13 -9 0
v -14 -10 0
v -15 -10 0
v -15 -9 0
v -14 -9 0
v -15 -10 0
v -16 -10 0
v -16 -9 0
v -15 -9 0
v -13 -11 0
v -14 -11 0
v -14 -10 0
v -13 -10 0
v -14 -11 0
v -15 -11 0
v -15 -10 0
v -14 -10 0
v -15 -11 0
v -16 -11 0
v -16 -10 0
v -15 -10 0
v -13 -12 0
v -14 -12 0
v -14 -11 0
v -13 -11 0
v -14 -12 0
v -15 -12 0
v -15 -11 0
v -14 -11 0
v -15 -12 0
v -16 -12 0
v -16 -11 0
v -15 -11 0
v -13 -13 0
v -14 -13 0
v -14 -12 0
v -13 -12 0
v -14 -13 0
v -15 -13 0
v -15 -12 0
v -14 -12 0
v -15 -13 0
v -16 -13 0
v -16 -12 0
v -15 -12 0
v -13 -14 0
v -14 -14 0
v -14 -13 0
v -13 -13 0
v -14 -14 0
v -15 -14 0
v -15 -13 0
v -14 -13 0
v -15 -14 0
v -16 -14 0
v -16 -13 0
v -15 -13 0
v -13 -15 0
v -14 -15 0
v -14 -14 0
v -13 -14 0
v -14 -15 0
v -15 -15 0
v -15 -14 0
v -14 -14 0
v -15 -15 0
v -16 -15 0
v -16 -14 0
v -15 -14 0
v -13 -16 0
v -14 -16 0
v -14 -15 0
v -13 -15 0
v -14 -16 0
v -15 -16 0
v -15 -15 0
v -14 -15 0
v -15 -16 0
v -16 -16 0
v -16 -15 0
v -15 -15 0

# Texture cooridinates (Count = 17)
vt 0.8476563 0.2070313
vt 0.875 0.2070313
vt 0.875 0.234375
vt 0.8476563 0.234375
vt 0.875 0.1796875
vt 0.9023438 0.1796875
vt 0.9023438 0.2070313
vt 0.8476563 0.1796875
vt 0.875 0.1523438
vt 0.9023438 0.1523438
vt 0.8476563 0.1523438
vt 0.875 0.125
vt 0.9023438 0.125
vt 0.9296875 0.125
vt 0.9296875 0.1523438
vt 0.8476563 0.125
vt 0.9296875 0.1796875

# Normal
vn 0 0 -1

# Mesh description
g escenaNorte_2_mesh_0112

# Faces
f 1/1/1 2/2/1 3/3/1 4/4/1
f 5/5/1 6/6/1 7/7/1 8/2/1
f 9/5/1 10/6/1 11/7/1 12/2/1
f 13/8/1 14/5/1 15/2/1 16/1/1
f 17/9/1 18/10/1 19/6/1 20/5/1
f 21/5/1 22/6/1 23/7/1 24/2/1
f 25/11/1 26/9/1 27/5/1 28/8/1
f 29/12/1 30/13/1 31/10/1 32/9/1
f 33/5/1 34/6/1 35/7/1 36/2/1
f 37/11/1 38/9/1 39/5/1 40/8/1
f 41/12/1 42/13/1 43/10/1 44/9/1
f 45/5/1 46/6/1 47/7/1 48/2/1
f 49/11/1 50/9/1 51/5/1 52/8/1
f 53/12/1 54/13/1 55/10/1 56/9/1
f 57/9/1 58/10/1 59/6/1 60/5/1
f 61/11/1 62/9/1 63/5/1 64/8/1
f 65/9/1 66/10/1 67/6/1 68/5/1
f 69/5/1 70/6/1 71/7/1 72/2/1
f 73/11/1 74/9/1 75/5/1 76/8/1
f 77/12/1 78/13/1 79/10/1 80/9/1
f 81/5/1 82/6/1 83/7/1 84/2/1
f 85/11/1 86/9/1 87/5/1 88/8/1
f 89/12/1 90/13/1 91/10/1 92/9/1
f 93/5/1 94/6/1 95/7/1 96/2/1
f 97/11/1 98/9/1 99/5/1 100/8/1
f 101/12/1 102/13/1 103/10/1 104/9/1
f 105/9/1 106/10/1 107/6/1 108/5/1
f 109/11/1 110/9/1 111/5/1 112/8/1
f 113/12/1 114/13/1 115/10/1 116/9/1
f 117/12/1 118/13/1 119/10/1 120/9/1
f 121/8/1 122/5/1 123/2/1 124/1/1
f 125/12/1 126/13/1 127/10/1 128/9/1
f 129/13/1 130/14/1 131/15/1 132/10/1
f 133/11/1 134/9/1 135/5/1 136/8/1
f 137/12/1 138/13/1 139/10/1 140/9/1
f 141/13/1 142/14/1 143/15/1 144/10/1
f 145/16/1 146/12/1 147/9/1 148/11/1
f 149/12/1 150/13/1 151/10/1 152/9/1
f 153/12/1 154/13/1 155/10/1 156/9/1
f 157/11/1 158/9/1 159/5/1 160/8/1
f 161/9/1 162/10/1 163/6/1 164/5/1
f 165/10/1 166/15/1 167/17/1 168/6/1

