# Tiled2Unity generated file. Do not modify by hand.
# Wavefront file for 'escenaNorte_2_mesh_0230.obj'

# Vertices (Count = 44)
v -15 -3 0
v -16 -3 0
v -16 -2 0
v -15 -2 0
v -15 -4 0
v -16 -4 0
v -16 -3 0
v -15 -3 0
v -15 -5 0
v -16 -5 0
v -16 -4 0
v -15 -4 0
v -2 -6 0
v -3 -6 0
v -3 -5 0
v -2 -5 0
v -3 -6 0
v -4 -6 0
v -4 -5 0
v -3 -5 0
v -15 -6 0
v -16 -6 0
v -16 -5 0
v -15 -5 0
v -2 -7 0
v -3 -7 0
v -3 -6 0
v -2 -6 0
v -3 -7 0
v -4 -7 0
v -4 -6 0
v -3 -6 0
v -4 -8 0
v -5 -8 0
v -5 -7 0
v -4 -7 0
v -4 -9 0
v -5 -9 0
v -5 -8 0
v -4 -8 0
v -4 -10 0
v -5 -10 0
v -5 -9 0
v -4 -9 0

# Texture cooridinates (Count = 23)
vt 0.4648438 0.8359375
vt 0.4921875 0.8359375
vt 0.4921875 0.8632813
vt 0.4648438 0.8632813
vt 0.4648438 0.8085938
vt 0.4921875 0.8085938
vt 0.4648438 0.78125
vt 0.4921875 0.78125
vt 0 0.6445313
vt 0.02734375 0.6445313
vt 0.02734375 0.671875
vt 0 0.671875
vt 0.0546875 0.6445313
vt 0.0546875 0.671875
vt 0.4648438 0.7539063
vt 0.4921875 0.7539063
vt 0 0.6171875
vt 0.02734375 0.6171875
vt 0.0546875 0.6171875
vt 0.65625 0.3710938
vt 0.6835938 0.3710938
vt 0.6835938 0.3984375
vt 0.65625 0.3984375

# Normal
vn 0 0 -1

# Mesh description
g escenaNorte_2_mesh_0230

# Faces
f 1/1/1 2/2/1 3/3/1 4/4/1
f 5/5/1 6/6/1 7/2/1 8/1/1
f 9/7/1 10/8/1 11/6/1 12/5/1
f 13/9/1 14/10/1 15/11/1 16/12/1
f 17/10/1 18/13/1 19/14/1 20/11/1
f 21/15/1 22/16/1 23/8/1 24/7/1
f 25/17/1 26/18/1 27/10/1 28/9/1
f 29/18/1 30/19/1 31/13/1 32/10/1
f 33/20/1 34/21/1 35/22/1 36/23/1
f 37/20/1 38/21/1 39/22/1 40/23/1
f 41/20/1 42/21/1 43/22/1 44/23/1

