# Tiled2Unity generated file. Do not modify by hand.
# Wavefront file for 'escenaNorte_2_mesh_0161.obj'

# Vertices (Count = 276)
v 0 -4 0
v -1 -4 0
v -1 -3 0
v 0 -3 0
v -1 -4 0
v -2 -4 0
v -2 -3 0
v -1 -3 0
v -2 -4 0
v -3 -4 0
v -3 -3 0
v -2 -3 0
v -3 -4 0
v -4 -4 0
v -4 -3 0
v -3 -3 0
v -4 -4 0
v -5 -4 0
v -5 -3 0
v -4 -3 0
v -5 -4 0
v -6 -4 0
v -6 -3 0
v -5 -3 0
v -6 -4 0
v -7 -4 0
v -7 -3 0
v -6 -3 0
v -7 -4 0
v -8 -4 0
v -8 -3 0
v -7 -3 0
v -8 -4 0
v -9 -4 0
v -9 -3 0
v -8 -3 0
v -9 -4 0
v -10 -4 0
v -10 -3 0
v -9 -3 0
v -10 -4 0
v -11 -4 0
v -11 -3 0
v -10 -3 0
v -11 -4 0
v -12 -4 0
v -12 -3 0
v -11 -3 0
v -12 -4 0
v -13 -4 0
v -13 -3 0
v -12 -3 0
v -13 -4 0
v -14 -4 0
v -14 -3 0
v -13 -3 0
v -14 -4 0
v -15 -4 0
v -15 -3 0
v -14 -3 0
v -15 -4 0
v -16 -4 0
v -16 -3 0
v -15 -3 0
v 0 -5 0
v -1 -5 0
v -1 -4 0
v 0 -4 0
v -1 -5 0
v -2 -5 0
v -2 -4 0
v -1 -4 0
v -2 -5 0
v -3 -5 0
v -3 -4 0
v -2 -4 0
v -3 -5 0
v -4 -5 0
v -4 -4 0
v -3 -4 0
v -4 -5 0
v -5 -5 0
v -5 -4 0
v -4 -4 0
v -5 -5 0
v -6 -5 0
v -6 -4 0
v -5 -4 0
v -6 -5 0
v -7 -5 0
v -7 -4 0
v -6 -4 0
v -7 -5 0
v -8 -5 0
v -8 -4 0
v -7 -4 0
v -8 -5 0
v -9 -5 0
v -9 -4 0
v -8 -4 0
v -9 -5 0
v -10 -5 0
v -10 -4 0
v -9 -4 0
v -10 -5 0
v -11 -5 0
v -11 -4 0
v -10 -4 0
v -11 -5 0
v -12 -5 0
v -12 -4 0
v -11 -4 0
v -12 -5 0
v -13 -5 0
v -13 -4 0
v -12 -4 0
v -13 -5 0
v -14 -5 0
v -14 -4 0
v -13 -4 0
v -14 -5 0
v -15 -5 0
v -15 -4 0
v -14 -4 0
v -15 -5 0
v -16 -5 0
v -16 -4 0
v -15 -4 0
v 0 -6 0
v -1 -6 0
v -1 -5 0
v 0 -5 0
v -1 -6 0
v -2 -6 0
v -2 -5 0
v -1 -5 0
v -2 -6 0
v -3 -6 0
v -3 -5 0
v -2 -5 0
v -3 -6 0
v -4 -6 0
v -4 -5 0
v -3 -5 0
v -4 -6 0
v -5 -6 0
v -5 -5 0
v -4 -5 0
v -5 -6 0
v -6 -6 0
v -6 -5 0
v -5 -5 0
v -6 -6 0
v -7 -6 0
v -7 -5 0
v -6 -5 0
v -7 -6 0
v -8 -6 0
v -8 -5 0
v -7 -5 0
v -8 -6 0
v -9 -6 0
v -9 -5 0
v -8 -5 0
v -9 -6 0
v -10 -6 0
v -10 -5 0
v -9 -5 0
v -10 -6 0
v -11 -6 0
v -11 -5 0
v -10 -5 0
v -11 -6 0
v -12 -6 0
v -12 -5 0
v -11 -5 0
v -12 -6 0
v -13 -6 0
v -13 -5 0
v -12 -5 0
v -13 -6 0
v -14 -6 0
v -14 -5 0
v -13 -5 0
v -14 -6 0
v -15 -6 0
v -15 -5 0
v -14 -5 0
v -15 -6 0
v -16 -6 0
v -16 -5 0
v -15 -5 0
v 0 -7 0
v -1 -7 0
v -1 -6 0
v 0 -6 0
v -1 -7 0
v -2 -7 0
v -2 -6 0
v -1 -6 0
v -2 -7 0
v -3 -7 0
v -3 -6 0
v -2 -6 0
v -3 -7 0
v -4 -7 0
v -4 -6 0
v -3 -6 0
v -4 -7 0
v -5 -7 0
v -5 -6 0
v -4 -6 0
v -5 -7 0
v -6 -7 0
v -6 -6 0
v -5 -6 0
v -6 -7 0
v -7 -7 0
v -7 -6 0
v -6 -6 0
v -7 -7 0
v -8 -7 0
v -8 -6 0
v -7 -6 0
v -8 -7 0
v -9 -7 0
v -9 -6 0
v -8 -6 0
v -9 -7 0
v -10 -7 0
v -10 -6 0
v -9 -6 0
v -10 -7 0
v -11 -7 0
v -11 -6 0
v -10 -6 0
v -11 -7 0
v -12 -7 0
v -12 -6 0
v -11 -6 0
v -12 -7 0
v -13 -7 0
v -13 -6 0
v -12 -6 0
v -3 -10 0
v -4 -10 0
v -4 -9 0
v -3 -9 0
v -4 -10 0
v -5 -10 0
v -5 -9 0
v -4 -9 0
v -5 -10 0
v -6 -10 0
v -6 -9 0
v -5 -9 0
v -6 -10 0
v -7 -10 0
v -7 -9 0
v -6 -9 0
v -3 -11 0
v -4 -11 0
v -4 -10 0
v -3 -10 0
v -4 -11 0
v -5 -11 0
v -5 -10 0
v -4 -10 0
v -5 -11 0
v -6 -11 0
v -6 -10 0
v -5 -10 0
v -6 -11 0
v -7 -11 0
v -7 -10 0
v -6 -10 0

# Texture cooridinates (Count = 38)
vt 0.765625 0.9179688
vt 0.7929688 0.9179688
vt 0.7929688 0.9453125
vt 0.765625 0.9453125
vt 0.8203125 0.9179688
vt 0.8203125 0.9453125
vt 0.8476563 0.9179688
vt 0.8476563 0.9453125
vt 0.7109375 0.890625
vt 0.7382813 0.890625
vt 0.7382813 0.9179688
vt 0.7109375 0.9179688
vt 0.765625 0.890625
vt 0.7929688 0.890625
vt 0.8203125 0.890625
vt 0.8476563 0.890625
vt 0.7109375 0.8632813
vt 0.7382813 0.8632813
vt 0.765625 0.8632813
vt 0.7929688 0.8632813
vt 0.8203125 0.8632813
vt 0.8476563 0.8632813
vt 0.7109375 0.8359375
vt 0.7382813 0.8359375
vt 0.765625 0.8359375
vt 0.7929688 0.8359375
vt 0.8203125 0.8359375
vt 0.8476563 0.8359375
vt 0.3828125 0.5351563
vt 0.4101563 0.5351563
vt 0.4101563 0.5625
vt 0.3828125 0.5625
vt 0.4375 0.5351563
vt 0.4375 0.5625
vt 0.4648438 0.5351563
vt 0.4648438 0.5625
vt 0.4921875 0.5351563
vt 0.4921875 0.5625

# Normal
vn 0 0 -1

# Mesh description
g escenaNorte_2_mesh_0161

# Faces
f 1/1/1 2/2/1 3/3/1 4/4/1
f 5/1/1 6/2/1 7/3/1 8/4/1
f 9/1/1 10/2/1 11/3/1 12/4/1
f 13/1/1 14/2/1 15/3/1 16/4/1
f 17/1/1 18/2/1 19/3/1 20/4/1
f 21/1/1 22/2/1 23/3/1 24/4/1
f 25/1/1 26/2/1 27/3/1 28/4/1
f 29/1/1 30/2/1 31/3/1 32/4/1
f 33/1/1 34/2/1 35/3/1 36/4/1
f 37/1/1 38/2/1 39/3/1 40/4/1
f 41/1/1 42/2/1 43/3/1 44/4/1
f 45/2/1 46/5/1 47/6/1 48/3/1
f 49/5/1 50/7/1 51/8/1 52/6/1
f 53/9/1 54/10/1 55/11/1 56/12/1
f 57/10/1 58/13/1 59/1/1 60/11/1
f 61/13/1 62/14/1 63/2/1 64/1/1
f 65/13/1 66/14/1 67/2/1 68/1/1
f 69/13/1 70/14/1 71/2/1 72/1/1
f 73/13/1 74/14/1 75/2/1 76/1/1
f 77/13/1 78/14/1 79/2/1 80/1/1
f 81/13/1 82/14/1 83/2/1 84/1/1
f 85/13/1 86/14/1 87/2/1 88/1/1
f 89/13/1 90/14/1 91/2/1 92/1/1
f 93/13/1 94/14/1 95/2/1 96/1/1
f 97/13/1 98/14/1 99/2/1 100/1/1
f 101/13/1 102/14/1 103/2/1 104/1/1
f 105/13/1 106/14/1 107/2/1 108/1/1
f 109/14/1 110/15/1 111/5/1 112/2/1
f 113/15/1 114/16/1 115/7/1 116/5/1
f 117/17/1 118/18/1 119/10/1 120/9/1
f 121/18/1 122/19/1 123/13/1 124/10/1
f 125/19/1 126/20/1 127/14/1 128/13/1
f 129/19/1 130/20/1 131/14/1 132/13/1
f 133/19/1 134/20/1 135/14/1 136/13/1
f 137/19/1 138/20/1 139/14/1 140/13/1
f 141/19/1 142/20/1 143/14/1 144/13/1
f 145/19/1 146/20/1 147/14/1 148/13/1
f 149/19/1 150/20/1 151/14/1 152/13/1
f 153/19/1 154/20/1 155/14/1 156/13/1
f 157/19/1 158/20/1 159/14/1 160/13/1
f 161/19/1 162/20/1 163/14/1 164/13/1
f 165/19/1 166/20/1 167/14/1 168/13/1
f 169/19/1 170/20/1 171/14/1 172/13/1
f 173/20/1 174/21/1 175/15/1 176/14/1
f 177/21/1 178/22/1 179/16/1 180/15/1
f 181/23/1 182/24/1 183/18/1 184/17/1
f 185/24/1 186/25/1 187/19/1 188/18/1
f 189/25/1 190/26/1 191/20/1 192/19/1
f 193/25/1 194/26/1 195/20/1 196/19/1
f 197/25/1 198/26/1 199/20/1 200/19/1
f 201/25/1 202/26/1 203/20/1 204/19/1
f 205/25/1 206/26/1 207/20/1 208/19/1
f 209/25/1 210/26/1 211/20/1 212/19/1
f 213/25/1 214/26/1 215/20/1 216/19/1
f 217/25/1 218/26/1 219/20/1 220/19/1
f 221/25/1 222/26/1 223/20/1 224/19/1
f 225/25/1 226/26/1 227/20/1 228/19/1
f 229/25/1 230/26/1 231/20/1 232/19/1
f 233/25/1 234/26/1 235/20/1 236/19/1
f 237/26/1 238/27/1 239/21/1 240/20/1
f 241/27/1 242/28/1 243/22/1 244/21/1
f 245/29/1 246/30/1 247/31/1 248/32/1
f 249/30/1 250/33/1 251/34/1 252/31/1
f 253/33/1 254/35/1 255/36/1 256/34/1
f 257/35/1 258/37/1 259/38/1 260/36/1
f 261/32/1 262/31/1 263/30/1 264/29/1
f 265/31/1 266/34/1 267/33/1 268/30/1
f 269/34/1 270/36/1 271/35/1 272/33/1
f 273/36/1 274/38/1 275/37/1 276/35/1

