# Tiled2Unity generated file. Do not modify by hand.
# Wavefront file for 'escenaNorte_2_mesh_0217.obj'

# Vertices (Count = 120)
v -4 -4 0
v -5 -4 0
v -5 -3 0
v -4 -3 0
v -5 -4 0
v -6 -4 0
v -6 -3 0
v -5 -3 0
v -4 -5 0
v -5 -5 0
v -5 -4 0
v -4 -4 0
v -5 -5 0
v -6 -5 0
v -6 -4 0
v -5 -4 0
v -1 -6 0
v -2 -6 0
v -2 -5 0
v -1 -5 0
v -8 -6 0
v -9 -6 0
v -9 -5 0
v -8 -5 0
v -12 -7 0
v -13 -7 0
v -13 -6 0
v -12 -6 0
v -15 -7 0
v -16 -7 0
v -16 -6 0
v -15 -6 0
v -2 -8 0
v -3 -8 0
v -3 -7 0
v -2 -7 0
v -3 -8 0
v -4 -8 0
v -4 -7 0
v -3 -7 0
v -7 -8 0
v -8 -8 0
v -8 -7 0
v -7 -7 0
v -8 -8 0
v -9 -8 0
v -9 -7 0
v -8 -7 0
v -2 -9 0
v -3 -9 0
v -3 -8 0
v -2 -8 0
v -3 -9 0
v -4 -9 0
v -4 -8 0
v -3 -8 0
v -4 -9 0
v -5 -9 0
v -5 -8 0
v -4 -8 0
v -5 -9 0
v -6 -9 0
v -6 -8 0
v -5 -8 0
v -7 -9 0
v -8 -9 0
v -8 -8 0
v -7 -8 0
v -8 -9 0
v -9 -9 0
v -9 -8 0
v -8 -8 0
v -13 -9 0
v -14 -9 0
v -14 -8 0
v -13 -8 0
v -14 -9 0
v -15 -9 0
v -15 -8 0
v -14 -8 0
v -15 -9 0
v -16 -9 0
v -16 -8 0
v -15 -8 0
v -3 -10 0
v -4 -10 0
v -4 -9 0
v -3 -9 0
v -4 -10 0
v -5 -10 0
v -5 -9 0
v -4 -9 0
v -5 -10 0
v -6 -10 0
v -6 -9 0
v -5 -9 0
v -13 -10 0
v -14 -10 0
v -14 -9 0
v -13 -9 0
v -14 -10 0
v -15 -10 0
v -15 -9 0
v -14 -9 0
v -15 -10 0
v -16 -10 0
v -16 -9 0
v -15 -9 0
v -3 -11 0
v -4 -11 0
v -4 -10 0
v -3 -10 0
v -4 -11 0
v -5 -11 0
v -5 -10 0
v -4 -10 0
v -5 -11 0
v -6 -11 0
v -6 -10 0
v -5 -10 0

# Texture cooridinates (Count = 44)
vt 0.6289063 0.8359375
vt 0.65625 0.8359375
vt 0.65625 0.8632813
vt 0.6289063 0.8632813
vt 0.6835938 0.8359375
vt 0.6835938 0.8632813
vt 0.6289063 0.8085938
vt 0.65625 0.8085938
vt 0.6835938 0.8085938
vt 0.5742188 0.7539063
vt 0.6015625 0.7539063
vt 0.6015625 0.78125
vt 0.5742188 0.78125
vt 0.5742188 0.6445313
vt 0.6015625 0.6445313
vt 0.6015625 0.671875
vt 0.5742188 0.671875
vt 0.6289063 0.6445313
vt 0.6289063 0.671875
vt 0.5742188 0.6171875
vt 0.6015625 0.6171875
vt 0.6289063 0.6171875
vt 0.5195313 0.5898438
vt 0.546875 0.5898438
vt 0.546875 0.6171875
vt 0.5195313 0.6171875
vt 0.5742188 0.5898438
vt 0.6289063 0.5898438
vt 0.65625 0.5898438
vt 0.65625 0.6171875
vt 0.6835938 0.5898438
vt 0.6835938 0.6171875
vt 0.4921875 0.5625
vt 0.5195313 0.5625
vt 0.4921875 0.5898438
vt 0.546875 0.5625
vt 0.5742188 0.5625
vt 0.6289063 0.5625
vt 0.65625 0.5625
vt 0.6835938 0.5625
vt 0.4921875 0.5351563
vt 0.5195313 0.5351563
vt 0.546875 0.5351563
vt 0.5742188 0.5351563

# Normal
vn 0 0 -1

# Mesh description
g escenaNorte_2_mesh_0217

# Faces
f 1/1/1 2/2/1 3/3/1 4/4/1
f 5/2/1 6/5/1 7/6/1 8/3/1
f 9/7/1 10/8/1 11/2/1 12/1/1
f 13/8/1 14/9/1 15/5/1 16/2/1
f 17/10/1 18/11/1 19/12/1 20/13/1
f 21/10/1 22/11/1 23/12/1 24/13/1
f 25/10/1 26/11/1 27/12/1 28/13/1
f 29/10/1 30/11/1 31/12/1 32/13/1
f 33/14/1 34/15/1 35/16/1 36/17/1
f 37/15/1 38/18/1 39/19/1 40/16/1
f 41/14/1 42/15/1 43/16/1 44/17/1
f 45/15/1 46/18/1 47/19/1 48/16/1
f 49/20/1 50/21/1 51/15/1 52/14/1
f 53/21/1 54/22/1 55/18/1 56/15/1
f 57/23/1 58/24/1 59/25/1 60/26/1
f 61/24/1 62/27/1 63/20/1 64/25/1
f 65/20/1 66/21/1 67/15/1 68/14/1
f 69/21/1 70/22/1 71/18/1 72/15/1
f 73/28/1 74/29/1 75/30/1 76/22/1
f 77/29/1 78/31/1 79/32/1 80/30/1
f 81/28/1 82/29/1 83/30/1 84/22/1
f 85/33/1 86/34/1 87/23/1 88/35/1
f 89/34/1 90/36/1 91/24/1 92/23/1
f 93/36/1 94/37/1 95/27/1 96/24/1
f 97/38/1 98/39/1 99/29/1 100/28/1
f 101/39/1 102/40/1 103/31/1 104/29/1
f 105/38/1 106/39/1 107/29/1 108/28/1
f 109/41/1 110/42/1 111/34/1 112/33/1
f 113/42/1 114/43/1 115/36/1 116/34/1
f 117/43/1 118/44/1 119/37/1 120/36/1

