# Tiled2Unity generated file. Do not modify by hand.
# Wavefront file for 'escenaNorte_2_mesh_0047.obj'

# Vertices (Count = 64)
v -7 -1 0
v -8 -1 0
v -8 0 0
v -7 0 0
v -7 -2 0
v -8 -2 0
v -8 -1 0
v -7 -1 0
v -7 -3 0
v -8 -3 0
v -8 -2 0
v -7 -2 0
v -7 -4 0
v -8 -4 0
v -8 -3 0
v -7 -3 0
v -7 -5 0
v -8 -5 0
v -8 -4 0
v -7 -4 0
v -7 -6 0
v -8 -6 0
v -8 -5 0
v -7 -5 0
v -7 -7 0
v -8 -7 0
v -8 -6 0
v -7 -6 0
v -7 -8 0
v -8 -8 0
v -8 -7 0
v -7 -7 0
v -7 -9 0
v -8 -9 0
v -8 -8 0
v -7 -8 0
v -7 -10 0
v -8 -10 0
v -8 -9 0
v -7 -9 0
v -7 -11 0
v -8 -11 0
v -8 -10 0
v -7 -10 0
v -7 -12 0
v -8 -12 0
v -8 -11 0
v -7 -11 0
v -7 -13 0
v -8 -13 0
v -8 -12 0
v -7 -12 0
v -7 -14 0
v -8 -14 0
v -8 -13 0
v -7 -13 0
v -7 -15 0
v -8 -15 0
v -8 -14 0
v -7 -14 0
v -7 -16 0
v -8 -16 0
v -8 -15 0
v -7 -15 0

# Texture cooridinates (Count = 4)
vt 0.6660156 0.7552083
vt 0.7070313 0.7552083
vt 0.7070313 0.8645833
vt 0.6660156 0.8645833

# Normal
vn 0 0 -1

# Mesh description
g escenaNorte_2_mesh_0047

# Faces
f 1/1/1 2/2/1 3/3/1 4/4/1
f 5/1/1 6/2/1 7/3/1 8/4/1
f 9/1/1 10/2/1 11/3/1 12/4/1
f 13/1/1 14/2/1 15/3/1 16/4/1
f 17/1/1 18/2/1 19/3/1 20/4/1
f 21/1/1 22/2/1 23/3/1 24/4/1
f 25/1/1 26/2/1 27/3/1 28/4/1
f 29/1/1 30/2/1 31/3/1 32/4/1
f 33/1/1 34/2/1 35/3/1 36/4/1
f 37/1/1 38/2/1 39/3/1 40/4/1
f 41/1/1 42/2/1 43/3/1 44/4/1
f 45/1/1 46/2/1 47/3/1 48/4/1
f 49/1/1 50/2/1 51/3/1 52/4/1
f 53/1/1 54/2/1 55/3/1 56/4/1
f 57/1/1 58/2/1 59/3/1 60/4/1
f 61/1/1 62/2/1 63/3/1 64/4/1

