# Tiled2Unity generated file. Do not modify by hand.
# Wavefront file for 'escenaNorte_2_mesh_0029.obj'

# Vertices (Count = 68)
v 0 -2 0
v -1 -2 0
v -1 -1 0
v 0 -1 0
v -1 -2 0
v -2 -2 0
v -2 -1 0
v -1 -1 0
v -2 -2 0
v -3 -2 0
v -3 -1 0
v -2 -1 0
v -2 -3 0
v -3 -3 0
v -3 -2 0
v -2 -2 0
v -2 -4 0
v -3 -4 0
v -3 -3 0
v -2 -3 0
v -2 -5 0
v -3 -5 0
v -3 -4 0
v -2 -4 0
v -2 -6 0
v -3 -6 0
v -3 -5 0
v -2 -5 0
v -2 -7 0
v -3 -7 0
v -3 -6 0
v -2 -6 0
v -2 -8 0
v -3 -8 0
v -3 -7 0
v -2 -7 0
v -2 -9 0
v -3 -9 0
v -3 -8 0
v -2 -8 0
v -2 -10 0
v -3 -10 0
v -3 -9 0
v -2 -9 0
v -2 -11 0
v -3 -11 0
v -3 -10 0
v -2 -10 0
v -2 -12 0
v -3 -12 0
v -3 -11 0
v -2 -11 0
v -2 -13 0
v -3 -13 0
v -3 -12 0
v -2 -12 0
v -2 -14 0
v -3 -14 0
v -3 -13 0
v -2 -13 0
v -2 -15 0
v -3 -15 0
v -3 -14 0
v -2 -14 0
v -2 -16 0
v -3 -16 0
v -3 -15 0
v -2 -15 0

# Texture cooridinates (Count = 4)
vt 0.5039063 0.5245535
vt 0.5859375 0.5245535
vt 0.5859375 0.5714285
vt 0.5039063 0.5714285

# Normal
vn 0 0 -1

# Mesh description
g escenaNorte_2_mesh_0029

# Faces
f 1/1/1 2/2/1 3/3/1 4/4/1
f 5/1/1 6/2/1 7/3/1 8/4/1
f 9/1/1 10/2/1 11/3/1 12/4/1
f 13/2/1 14/3/1 15/4/1 16/1/1
f 17/2/1 18/3/1 19/4/1 20/1/1
f 21/2/1 22/3/1 23/4/1 24/1/1
f 25/2/1 26/3/1 27/4/1 28/1/1
f 29/2/1 30/3/1 31/4/1 32/1/1
f 33/2/1 34/3/1 35/4/1 36/1/1
f 37/2/1 38/3/1 39/4/1 40/1/1
f 41/2/1 42/3/1 43/4/1 44/1/1
f 45/2/1 46/3/1 47/4/1 48/1/1
f 49/2/1 50/3/1 51/4/1 52/1/1
f 53/2/1 54/3/1 55/4/1 56/1/1
f 57/2/1 58/3/1 59/4/1 60/1/1
f 61/2/1 62/3/1 63/4/1 64/1/1
f 65/2/1 66/3/1 67/4/1 68/1/1

