# Tiled2Unity generated file. Do not modify by hand.
# Wavefront file for 'escenaNorte_2_mesh_0198.obj'

# Vertices (Count = 200)
v -2 -1 0
v -3 -1 0
v -3 0 0
v -2 0 0
v -3 -1 0
v -4 -1 0
v -4 0 0
v -3 0 0
v -4 -1 0
v -5 -1 0
v -5 0 0
v -4 0 0
v -5 -1 0
v -6 -1 0
v -6 0 0
v -5 0 0
v -6 -1 0
v -7 -1 0
v -7 0 0
v -6 0 0
v -7 -1 0
v -8 -1 0
v -8 0 0
v -7 0 0
v -8 -1 0
v -9 -1 0
v -9 0 0
v -8 0 0
v -12 -1 0
v -13 -1 0
v -13 0 0
v -12 0 0
v -15 -1 0
v -16 -1 0
v -16 0 0
v -15 0 0
v -2 -2 0
v -3 -2 0
v -3 -1 0
v -2 -1 0
v -3 -2 0
v -4 -2 0
v -4 -1 0
v -3 -1 0
v -4 -2 0
v -5 -2 0
v -5 -1 0
v -4 -1 0
v -5 -2 0
v -6 -2 0
v -6 -1 0
v -5 -1 0
v -6 -2 0
v -7 -2 0
v -7 -1 0
v -6 -1 0
v -7 -2 0
v -8 -2 0
v -8 -1 0
v -7 -1 0
v -8 -2 0
v -9 -2 0
v -9 -1 0
v -8 -1 0
v -13 -2 0
v -14 -2 0
v -14 -1 0
v -13 -1 0
v -14 -2 0
v -15 -2 0
v -15 -1 0
v -14 -1 0
v -1 -3 0
v -2 -3 0
v -2 -2 0
v -1 -2 0
v -2 -3 0
v -3 -3 0
v -3 -2 0
v -2 -2 0
v -3 -3 0
v -4 -3 0
v -4 -2 0
v -3 -2 0
v -6 -3 0
v -7 -3 0
v -7 -2 0
v -6 -2 0
v -7 -3 0
v -8 -3 0
v -8 -2 0
v -7 -2 0
v -8 -3 0
v -9 -3 0
v -9 -2 0
v -8 -2 0
v -13 -3 0
v -14 -3 0
v -14 -2 0
v -13 -2 0
v -14 -3 0
v -15 -3 0
v -15 -2 0
v -14 -2 0
v -1 -4 0
v -2 -4 0
v -2 -3 0
v -1 -3 0
v -2 -4 0
v -3 -4 0
v -3 -3 0
v -2 -3 0
v -3 -4 0
v -4 -4 0
v -4 -3 0
v -3 -3 0
v -6 -4 0
v -7 -4 0
v -7 -3 0
v -6 -3 0
v -7 -4 0
v -8 -4 0
v -8 -3 0
v -7 -3 0
v -8 -4 0
v -9 -4 0
v -9 -3 0
v -8 -3 0
v -1 -5 0
v -2 -5 0
v -2 -4 0
v -1 -4 0
v -2 -5 0
v -3 -5 0
v -3 -4 0
v -2 -4 0
v -7 -5 0
v -8 -5 0
v -8 -4 0
v -7 -4 0
v -8 -5 0
v -9 -5 0
v -9 -4 0
v -8 -4 0
v -13 -12 0
v -14 -12 0
v -14 -11 0
v -13 -11 0
v -14 -12 0
v -15 -12 0
v -15 -11 0
v -14 -11 0
v -13 -13 0
v -14 -13 0
v -14 -12 0
v -13 -12 0
v -14 -13 0
v -15 -13 0
v -15 -12 0
v -14 -12 0
v -13 -14 0
v -14 -14 0
v -14 -13 0
v -13 -13 0
v -14 -14 0
v -15 -14 0
v -15 -13 0
v -14 -13 0
v -12 -15 0
v -13 -15 0
v -13 -14 0
v -12 -14 0
v -13 -15 0
v -14 -15 0
v -14 -14 0
v -13 -14 0
v -14 -15 0
v -15 -15 0
v -15 -14 0
v -14 -14 0
v -15 -15 0
v -16 -15 0
v -16 -14 0
v -15 -14 0
v -12 -16 0
v -13 -16 0
v -13 -15 0
v -12 -15 0
v -13 -16 0
v -14 -16 0
v -14 -15 0
v -13 -15 0
v -14 -16 0
v -15 -16 0
v -15 -15 0
v -14 -15 0
v -15 -16 0
v -16 -16 0
v -16 -15 0
v -15 -15 0

# Texture cooridinates (Count = 52)
vt 0.5742188 0.78125
vt 0.6015625 0.78125
vt 0.6015625 0.8085938
vt 0.5742188 0.8085938
vt 0.6289063 0.78125
vt 0.6289063 0.8085938
vt 0.5742188 0.7539063
vt 0.6015625 0.7539063
vt 0.6289063 0.7539063
vt 0.5742188 0.5898438
vt 0.6015625 0.5898438
vt 0.6015625 0.6171875
vt 0.5742188 0.6171875
vt 0.6289063 0.5898438
vt 0.6289063 0.6171875
vt 0.4921875 0.9179688
vt 0.4648438 0.9179688
vt 0.4648438 0.9453125
vt 0.4921875 0.9453125
vt 0.5742188 0.6445313
vt 0.6015625 0.6445313
vt 0.6015625 0.671875
vt 0.5742188 0.671875
vt 0.6289063 0.6445313
vt 0.6289063 0.671875
vt 0.5742188 0.5625
vt 0.6015625 0.5625
vt 0.6289063 0.5625
vt 0.4921875 0.890625
vt 0.4648438 0.890625
vt 0.4921875 0.8632813
vt 0.4648438 0.8632813
vt 0.4375 0.8632813
vt 0.4375 0.890625
vt 0.7382813 0.04296875
vt 0.765625 0.04296875
vt 0.765625 0.0703125
vt 0.7382813 0.0703125
vt 0.7929688 0.04296875
vt 0.7929688 0.0703125
vt 0.8203125 0.04296875
vt 0.8203125 0.0703125
vt 0.6835938 0.2890625
vt 0.7109375 0.2890625
vt 0.7109375 0.3164063
vt 0.6835938 0.3164063
vt 0.7382813 0.015625
vt 0.765625 0.015625
vt 0.7929688 0.015625
vt 0.8203125 0.015625
vt 0.6835938 0.2617188
vt 0.7109375 0.2617188

# Normal
vn 0 0 -1

# Mesh description
g escenaNorte_2_mesh_0198

# Faces
f 1/1/1 2/2/1 3/3/1 4/4/1
f 5/2/1 6/5/1 7/6/1 8/3/1
f 9/1/1 10/2/1 11/3/1 12/4/1
f 13/2/1 14/5/1 15/6/1 16/3/1
f 17/1/1 18/2/1 19/3/1 20/4/1
f 21/2/1 22/5/1 23/6/1 24/3/1
f 25/1/1 26/2/1 27/3/1 28/4/1
f 29/7/1 30/8/1 31/2/1 32/1/1
f 33/7/1 34/8/1 35/2/1 36/1/1
f 37/7/1 38/8/1 39/2/1 40/1/1
f 41/8/1 42/9/1 43/5/1 44/2/1
f 45/7/1 46/8/1 47/2/1 48/1/1
f 49/8/1 50/9/1 51/5/1 52/2/1
f 53/7/1 54/8/1 55/2/1 56/1/1
f 57/8/1 58/9/1 59/5/1 60/2/1
f 61/7/1 62/8/1 63/2/1 64/1/1
f 65/10/1 66/11/1 67/12/1 68/13/1
f 69/11/1 70/14/1 71/15/1 72/12/1
f 73/16/1 74/17/1 75/18/1 76/19/1
f 77/20/1 78/21/1 79/22/1 80/23/1
f 81/21/1 82/24/1 83/25/1 84/22/1
f 85/20/1 86/21/1 87/22/1 88/23/1
f 89/21/1 90/24/1 91/25/1 92/22/1
f 93/17/1 94/16/1 95/19/1 96/18/1
f 97/26/1 98/27/1 99/11/1 100/10/1
f 101/27/1 102/28/1 103/14/1 104/11/1
f 105/29/1 106/30/1 107/17/1 108/16/1
f 109/13/1 110/12/1 111/21/1 112/20/1
f 113/12/1 114/15/1 115/24/1 116/21/1
f 117/13/1 118/12/1 119/21/1 120/20/1
f 121/12/1 122/15/1 123/24/1 124/21/1
f 125/30/1 126/29/1 127/16/1 128/17/1
f 129/31/1 130/32/1 131/30/1 132/29/1
f 133/32/1 134/33/1 135/34/1 136/30/1
f 137/33/1 138/32/1 139/30/1 140/34/1
f 141/32/1 142/31/1 143/29/1 144/30/1
f 145/20/1 146/21/1 147/22/1 148/23/1
f 149/21/1 150/24/1 151/25/1 152/22/1
f 153/13/1 154/12/1 155/21/1 156/20/1
f 157/12/1 158/15/1 159/24/1 160/21/1
f 161/20/1 162/21/1 163/22/1 164/23/1
f 165/21/1 166/24/1 167/25/1 168/22/1
f 169/35/1 170/36/1 171/37/1 172/38/1
f 173/36/1 174/39/1 175/40/1 176/37/1
f 177/39/1 178/41/1 179/42/1 180/40/1
f 181/43/1 182/44/1 183/45/1 184/46/1
f 185/47/1 186/48/1 187/36/1 188/35/1
f 189/48/1 190/49/1 191/39/1 192/36/1
f 193/49/1 194/50/1 195/41/1 196/39/1
f 197/51/1 198/52/1 199/44/1 200/43/1

