# Tiled2Unity generated file. Do not modify by hand.
# Wavefront file for 'escenaNorte_2_mesh_0216.obj'

# Vertices (Count = 108)
v -2 -1 0
v -3 -1 0
v -3 0 0
v -2 0 0
v -3 -1 0
v -4 -1 0
v -4 0 0
v -3 0 0
v -2 -2 0
v -3 -2 0
v -3 -1 0
v -2 -1 0
v -3 -2 0
v -4 -2 0
v -4 -1 0
v -3 -1 0
v -2 -3 0
v -3 -3 0
v -3 -2 0
v -2 -2 0
v -3 -3 0
v -4 -3 0
v -4 -2 0
v -3 -2 0
v -6 -4 0
v -7 -4 0
v -7 -3 0
v -6 -3 0
v -7 -4 0
v -8 -4 0
v -8 -3 0
v -7 -3 0
v -13 -4 0
v -14 -4 0
v -14 -3 0
v -13 -3 0
v -14 -4 0
v -15 -4 0
v -15 -3 0
v -14 -3 0
v -15 -4 0
v -16 -4 0
v -16 -3 0
v -15 -3 0
v -6 -5 0
v -7 -5 0
v -7 -4 0
v -6 -4 0
v -7 -5 0
v -8 -5 0
v -8 -4 0
v -7 -4 0
v -13 -5 0
v -14 -5 0
v -14 -4 0
v -13 -4 0
v -14 -5 0
v -15 -5 0
v -15 -4 0
v -14 -4 0
v -15 -5 0
v -16 -5 0
v -16 -4 0
v -15 -4 0
v -3 -7 0
v -4 -7 0
v -4 -6 0
v -3 -6 0
v -4 -7 0
v -5 -7 0
v -5 -6 0
v -4 -6 0
v -5 -7 0
v -6 -7 0
v -6 -6 0
v -5 -6 0
v -4 -8 0
v -5 -8 0
v -5 -7 0
v -4 -7 0
v -5 -8 0
v -6 -8 0
v -6 -7 0
v -5 -7 0
v -12 -8 0
v -13 -8 0
v -13 -7 0
v -12 -7 0
v -12 -9 0
v -13 -9 0
v -13 -8 0
v -12 -8 0
v -2 -10 0
v -3 -10 0
v -3 -9 0
v -2 -9 0
v -7 -10 0
v -8 -10 0
v -8 -9 0
v -7 -9 0
v -12 -10 0
v -13 -10 0
v -13 -9 0
v -12 -9 0
v -12 -11 0
v -13 -11 0
v -13 -10 0
v -12 -10 0

# Texture cooridinates (Count = 40)
vt 0.3007813 0.7539063
vt 0.3007813 0.7265625
vt 0.328125 0.7265625
vt 0.328125 0.7539063
vt 0.3007813 0.6992188
vt 0.328125 0.6992188
vt 0.2734375 0.7539063
vt 0.2734375 0.7265625
vt 0.2734375 0.6992188
vt 0.2460938 0.7539063
vt 0.2460938 0.7265625
vt 0.2460938 0.6992188
vt 0 0.6445313
vt 0.02734375 0.6445313
vt 0.02734375 0.671875
vt 0 0.671875
vt 0.0546875 0.6445313
vt 0.0546875 0.671875
vt 0 0.6171875
vt 0.02734375 0.6171875
vt 0.0546875 0.6171875
vt 0.546875 0.34375
vt 0.5742188 0.34375
vt 0.5742188 0.3710938
vt 0.546875 0.3710938
vt 0.6015625 0.34375
vt 0.6015625 0.3710938
vt 0.6289063 0.34375
vt 0.6289063 0.3710938
vt 0.5742188 0.3164063
vt 0.6015625 0.3164063
vt 0.6289063 0.3164063
vt 0.65625 0.3710938
vt 0.6835938 0.3710938
vt 0.6835938 0.3984375
vt 0.65625 0.3984375
vt 0.1367188 0.5351563
vt 0.1640625 0.5351563
vt 0.1640625 0.5625
vt 0.1367188 0.5625

# Normal
vn 0 0 -1

# Mesh description
g escenaNorte_2_mesh_0216

# Faces
f 1/1/1 2/2/1 3/3/1 4/4/1
f 5/2/1 6/5/1 7/6/1 8/3/1
f 9/7/1 10/8/1 11/2/1 12/1/1
f 13/8/1 14/9/1 15/5/1 16/2/1
f 17/10/1 18/11/1 19/8/1 20/7/1
f 21/11/1 22/12/1 23/9/1 24/8/1
f 25/13/1 26/14/1 27/15/1 28/16/1
f 29/14/1 30/17/1 31/18/1 32/15/1
f 33/11/1 34/8/1 35/7/1 36/10/1
f 37/8/1 38/2/1 39/1/1 40/7/1
f 41/2/1 42/3/1 43/4/1 44/1/1
f 45/19/1 46/20/1 47/14/1 48/13/1
f 49/20/1 50/21/1 51/17/1 52/14/1
f 53/12/1 54/9/1 55/8/1 56/11/1
f 57/9/1 58/5/1 59/2/1 60/8/1
f 61/5/1 62/6/1 63/3/1 64/2/1
f 65/22/1 66/23/1 67/24/1 68/25/1
f 69/23/1 70/26/1 71/27/1 72/24/1
f 73/26/1 74/28/1 75/29/1 76/27/1
f 77/30/1 78/31/1 79/26/1 80/23/1
f 81/31/1 82/32/1 83/28/1 84/26/1
f 85/33/1 86/34/1 87/35/1 88/36/1
f 89/33/1 90/34/1 91/35/1 92/36/1
f 93/37/1 94/38/1 95/39/1 96/40/1
f 97/38/1 98/37/1 99/40/1 100/39/1
f 101/33/1 102/34/1 103/35/1 104/36/1
f 105/33/1 106/34/1 107/35/1 108/36/1

