# Tiled2Unity generated file. Do not modify by hand.
# Wavefront file for 'escenaNorte_2_mesh_0200.obj'

# Vertices (Count = 236)
v -1 -1 0
v -2 -1 0
v -2 0 0
v -1 0 0
v -3 -1 0
v -4 -1 0
v -4 0 0
v -3 0 0
v 0 -2 0
v -1 -2 0
v -1 -1 0
v 0 -1 0
v -1 -2 0
v -2 -2 0
v -2 -1 0
v -1 -1 0
v 0 -3 0
v -1 -3 0
v -1 -2 0
v 0 -2 0
v -1 -3 0
v -2 -3 0
v -2 -2 0
v -1 -2 0
v -2 -3 0
v -3 -3 0
v -3 -2 0
v -2 -2 0
v -3 -3 0
v -4 -3 0
v -4 -2 0
v -3 -2 0
v -8 -3 0
v -9 -3 0
v -9 -2 0
v -8 -2 0
v -9 -3 0
v -10 -3 0
v -10 -2 0
v -9 -2 0
v -10 -3 0
v -11 -3 0
v -11 -2 0
v -10 -2 0
v -11 -3 0
v -12 -3 0
v -12 -2 0
v -11 -2 0
v -12 -3 0
v -13 -3 0
v -13 -2 0
v -12 -2 0
v -13 -3 0
v -14 -3 0
v -14 -2 0
v -13 -2 0
v -14 -3 0
v -15 -3 0
v -15 -2 0
v -14 -2 0
v -2 -4 0
v -3 -4 0
v -3 -3 0
v -2 -3 0
v -3 -4 0
v -4 -4 0
v -4 -3 0
v -3 -3 0
v -8 -4 0
v -9 -4 0
v -9 -3 0
v -8 -3 0
v -9 -4 0
v -10 -4 0
v -10 -3 0
v -9 -3 0
v -10 -4 0
v -11 -4 0
v -11 -3 0
v -10 -3 0
v -11 -4 0
v -12 -4 0
v -12 -3 0
v -11 -3 0
v -12 -4 0
v -13 -4 0
v -13 -3 0
v -12 -3 0
v -13 -4 0
v -14 -4 0
v -14 -3 0
v -13 -3 0
v -14 -4 0
v -15 -4 0
v -15 -3 0
v -14 -3 0
v -10 -5 0
v -11 -5 0
v -11 -4 0
v -10 -4 0
v -11 -5 0
v -12 -5 0
v -12 -4 0
v -11 -4 0
v -12 -5 0
v -13 -5 0
v -13 -4 0
v -12 -4 0
v -8 -9 0
v -9 -9 0
v -9 -8 0
v -8 -8 0
v -9 -9 0
v -10 -9 0
v -10 -8 0
v -9 -8 0
v -8 -10 0
v -9 -10 0
v -9 -9 0
v -8 -9 0
v -9 -10 0
v -10 -10 0
v -10 -9 0
v -9 -9 0
v -1 -12 0
v -2 -12 0
v -2 -11 0
v -1 -11 0
v -2 -12 0
v -3 -12 0
v -3 -11 0
v -2 -11 0
v -10 -12 0
v -11 -12 0
v -11 -11 0
v -10 -11 0
v -11 -12 0
v -12 -12 0
v -12 -11 0
v -11 -11 0
v -1 -13 0
v -2 -13 0
v -2 -12 0
v -1 -12 0
v -2 -13 0
v -3 -13 0
v -3 -12 0
v -2 -12 0
v -10 -13 0
v -11 -13 0
v -11 -12 0
v -10 -12 0
v -11 -13 0
v -12 -13 0
v -12 -12 0
v -11 -12 0
v -1 -14 0
v -2 -14 0
v -2 -13 0
v -1 -13 0
v -2 -14 0
v -3 -14 0
v -3 -13 0
v -2 -13 0
v -8 -14 0
v -9 -14 0
v -9 -13 0
v -8 -13 0
v -13 -14 0
v -14 -14 0
v -14 -13 0
v -13 -13 0
v 0 -15 0
v -1 -15 0
v -1 -14 0
v 0 -14 0
v -1 -15 0
v -2 -15 0
v -2 -14 0
v -1 -14 0
v -2 -15 0
v -3 -15 0
v -3 -14 0
v -2 -14 0
v -3 -15 0
v -4 -15 0
v -4 -14 0
v -3 -14 0
v -8 -15 0
v -9 -15 0
v -9 -14 0
v -8 -14 0
v -10 -15 0
v -11 -15 0
v -11 -14 0
v -10 -14 0
v -11 -15 0
v -12 -15 0
v -12 -14 0
v -11 -14 0
v -13 -15 0
v -14 -15 0
v -14 -14 0
v -13 -14 0
v 0 -16 0
v -1 -16 0
v -1 -15 0
v 0 -15 0
v -1 -16 0
v -2 -16 0
v -2 -15 0
v -1 -15 0
v -2 -16 0
v -3 -16 0
v -3 -15 0
v -2 -15 0
v -3 -16 0
v -4 -16 0
v -4 -15 0
v -3 -15 0
v -8 -16 0
v -9 -16 0
v -9 -15 0
v -8 -15 0
v -10 -16 0
v -11 -16 0
v -11 -15 0
v -10 -15 0
v -11 -16 0
v -12 -16 0
v -12 -15 0
v -11 -15 0
v -13 -16 0
v -14 -16 0
v -14 -15 0
v -13 -15 0

# Texture cooridinates (Count = 81)
vt 0.5742188 0.7539063
vt 0.6015625 0.7539063
vt 0.6015625 0.78125
vt 0.5742188 0.78125
vt 0.5742188 0.5898438
vt 0.6015625 0.5898438
vt 0.6015625 0.6171875
vt 0.5742188 0.6171875
vt 0.6289063 0.5898438
vt 0.6289063 0.6171875
vt 0.5742188 0.5625
vt 0.6015625 0.5625
vt 0.6289063 0.5625
vt 0.65625 0.5898438
vt 0.65625 0.6171875
vt 0.6835938 0.5898438
vt 0.6835938 0.6171875
vt 0.4921875 0.6445313
vt 0.5195313 0.6445313
vt 0.5195313 0.671875
vt 0.4921875 0.671875
vt 0.546875 0.6445313
vt 0.546875 0.671875
vt 0.5742188 0.6445313
vt 0.5742188 0.671875
vt 0.65625 0.5625
vt 0.6835938 0.5625
vt 0.4921875 0.5625
vt 0.5195313 0.5625
vt 0.5195313 0.5898438
vt 0.4921875 0.5898438
vt 0.546875 0.5625
vt 0.546875 0.5898438
vt 0.4921875 0.5351563
vt 0.5195313 0.5351563
vt 0.546875 0.5351563
vt 0.5742188 0.5351563
vt 0.3828125 0.34375
vt 0.4101563 0.34375
vt 0.4101563 0.3710938
vt 0.3828125 0.3710938
vt 0.4375 0.34375
vt 0.4375 0.3710938
vt 0.3828125 0.3164063
vt 0.4101563 0.3164063
vt 0.4375 0.3164063
vt 0.6015625 0.6445313
vt 0.6015625 0.671875
vt 0.6289063 0.6445313
vt 0.6289063 0.671875
vt 0.6289063 0.78125
vt 0.65625 0.78125
vt 0.65625 0.8085938
vt 0.6289063 0.8085938
vt 0.6835938 0.78125
vt 0.6835938 0.8085938
vt 0.6289063 0.7539063
vt 0.65625 0.7539063
vt 0.6835938 0.7539063
vt 0.7109375 0.2890625
vt 0.6835938 0.2890625
vt 0.6835938 0.3164063
vt 0.7109375 0.3164063
vt 0.7382813 0.04296875
vt 0.765625 0.04296875
vt 0.765625 0.0703125
vt 0.7382813 0.0703125
vt 0.7929688 0.04296875
vt 0.7929688 0.0703125
vt 0.8203125 0.04296875
vt 0.8203125 0.0703125
vt 0.7109375 0.2617188
vt 0.6835938 0.2617188
vt 0.7382813 0.015625
vt 0.765625 0.015625
vt 0.7929688 0.015625
vt 0.8203125 0.015625
vt 0.3554688 0.5078125
vt 0.328125 0.5078125
vt 0.328125 0.5351563
vt 0.3554688 0.5351563

# Normal
vn 0 0 -1

# Mesh description
g escenaNorte_2_mesh_0200

# Faces
f 1/1/1 2/2/1 3/3/1 4/4/1
f 5/1/1 6/2/1 7/3/1 8/4/1
f 9/5/1 10/6/1 11/7/1 12/8/1
f 13/6/1 14/9/1 15/10/1 16/7/1
f 17/11/1 18/12/1 19/6/1 20/5/1
f 21/12/1 22/13/1 23/9/1 24/6/1
f 25/9/1 26/14/1 27/15/1 28/10/1
f 29/14/1 30/16/1 31/17/1 32/15/1
f 33/9/1 34/14/1 35/15/1 36/10/1
f 37/14/1 38/16/1 39/17/1 40/15/1
f 41/18/1 42/19/1 43/20/1 44/21/1
f 45/19/1 46/22/1 47/23/1 48/20/1
f 49/22/1 50/24/1 51/25/1 52/23/1
f 53/9/1 54/14/1 55/15/1 56/10/1
f 57/14/1 58/16/1 59/17/1 60/15/1
f 61/13/1 62/26/1 63/14/1 64/9/1
f 65/26/1 66/27/1 67/16/1 68/14/1
f 69/13/1 70/26/1 71/14/1 72/9/1
f 73/26/1 74/27/1 75/16/1 76/14/1
f 77/28/1 78/29/1 79/30/1 80/31/1
f 81/29/1 82/32/1 83/33/1 84/30/1
f 85/32/1 86/11/1 87/5/1 88/33/1
f 89/13/1 90/26/1 91/14/1 92/9/1
f 93/26/1 94/27/1 95/16/1 96/14/1
f 97/34/1 98/35/1 99/29/1 100/28/1
f 101/35/1 102/36/1 103/32/1 104/29/1
f 105/36/1 106/37/1 107/11/1 108/32/1
f 109/38/1 110/39/1 111/40/1 112/41/1
f 113/39/1 114/42/1 115/43/1 116/40/1
f 117/44/1 118/45/1 119/39/1 120/38/1
f 121/45/1 122/46/1 123/42/1 124/39/1
f 125/24/1 126/47/1 127/48/1 128/25/1
f 129/47/1 130/49/1 131/50/1 132/48/1
f 133/51/1 134/52/1 135/53/1 136/54/1
f 137/52/1 138/55/1 139/56/1 140/53/1
f 141/8/1 142/7/1 143/47/1 144/24/1
f 145/7/1 146/10/1 147/49/1 148/47/1
f 149/57/1 150/58/1 151/52/1 152/51/1
f 153/58/1 154/59/1 155/55/1 156/52/1
f 157/24/1 158/47/1 159/48/1 160/25/1
f 161/47/1 162/49/1 163/50/1 164/48/1
f 165/24/1 166/47/1 167/48/1 168/25/1
f 169/47/1 170/24/1 171/25/1 172/48/1
f 173/60/1 174/61/1 175/62/1 176/63/1
f 177/64/1 178/65/1 179/66/1 180/67/1
f 181/65/1 182/68/1 183/69/1 184/66/1
f 185/68/1 186/70/1 187/71/1 188/69/1
f 189/8/1 190/7/1 191/47/1 192/24/1
f 193/9/1 194/14/1 195/15/1 196/10/1
f 197/14/1 198/16/1 199/17/1 200/15/1
f 201/7/1 202/8/1 203/24/1 204/47/1
f 205/72/1 206/73/1 207/61/1 208/60/1
f 209/74/1 210/75/1 211/65/1 212/64/1
f 213/75/1 214/76/1 215/68/1 216/65/1
f 217/76/1 218/77/1 219/70/1 220/68/1
f 221/78/1 222/79/1 223/80/1 224/81/1
f 225/13/1 226/26/1 227/14/1 228/9/1
f 229/26/1 230/27/1 231/16/1 232/14/1
f 233/79/1 234/78/1 235/81/1 236/80/1

