# Tiled2Unity generated file. Do not modify by hand.
# Wavefront file for 'escenaNorte_2_mesh_0218.obj'

# Vertices (Count = 68)
v 0 -4 0
v -1 -4 0
v -1 -3 0
v 0 -3 0
v -1 -4 0
v -2 -4 0
v -2 -3 0
v -1 -3 0
v -2 -4 0
v -3 -4 0
v -3 -3 0
v -2 -3 0
v -3 -4 0
v -4 -4 0
v -4 -3 0
v -3 -3 0
v 0 -5 0
v -1 -5 0
v -1 -4 0
v 0 -4 0
v -1 -5 0
v -2 -5 0
v -2 -4 0
v -1 -4 0
v -2 -5 0
v -3 -5 0
v -3 -4 0
v -2 -4 0
v -3 -5 0
v -4 -5 0
v -4 -4 0
v -3 -4 0
v -9 -5 0
v -10 -5 0
v -10 -4 0
v -9 -4 0
v -10 -5 0
v -11 -5 0
v -11 -4 0
v -10 -4 0
v -9 -6 0
v -10 -6 0
v -10 -5 0
v -9 -5 0
v -10 -6 0
v -11 -6 0
v -11 -5 0
v -10 -5 0
v -13 -7 0
v -14 -7 0
v -14 -6 0
v -13 -6 0
v -13 -8 0
v -14 -8 0
v -14 -7 0
v -13 -7 0
v -13 -9 0
v -14 -9 0
v -14 -8 0
v -13 -8 0
v -13 -10 0
v -14 -10 0
v -14 -9 0
v -13 -9 0
v -13 -11 0
v -14 -11 0
v -14 -10 0
v -13 -10 0

# Texture cooridinates (Count = 28)
vt 0.328125 0.7265625
vt 0.3554688 0.7265625
vt 0.3554688 0.7539063
vt 0.328125 0.7539063
vt 0.3828125 0.7265625
vt 0.3828125 0.7539063
vt 0.4101563 0.7265625
vt 0.4101563 0.7539063
vt 0.4375 0.7265625
vt 0.4375 0.7539063
vt 0.328125 0.6992188
vt 0.3554688 0.6992188
vt 0.3828125 0.6992188
vt 0.4101563 0.6992188
vt 0.4375 0.6992188
vt 0 0.6445313
vt 0.02734375 0.6445313
vt 0.02734375 0.671875
vt 0 0.671875
vt 0.0546875 0.6445313
vt 0.0546875 0.671875
vt 0 0.6171875
vt 0.02734375 0.6171875
vt 0.0546875 0.6171875
vt 0.65625 0.3710938
vt 0.6835938 0.3710938
vt 0.6835938 0.3984375
vt 0.65625 0.3984375

# Normal
vn 0 0 -1

# Mesh description
g escenaNorte_2_mesh_0218

# Faces
f 1/1/1 2/2/1 3/3/1 4/4/1
f 5/2/1 6/5/1 7/6/1 8/3/1
f 9/5/1 10/7/1 11/8/1 12/6/1
f 13/7/1 14/9/1 15/10/1 16/8/1
f 17/11/1 18/12/1 19/2/1 20/1/1
f 21/12/1 22/13/1 23/5/1 24/2/1
f 25/13/1 26/14/1 27/7/1 28/5/1
f 29/14/1 30/15/1 31/9/1 32/7/1
f 33/16/1 34/17/1 35/18/1 36/19/1
f 37/17/1 38/20/1 39/21/1 40/18/1
f 41/22/1 42/23/1 43/17/1 44/16/1
f 45/23/1 46/24/1 47/20/1 48/17/1
f 49/25/1 50/26/1 51/27/1 52/28/1
f 53/25/1 54/26/1 55/27/1 56/28/1
f 57/25/1 58/26/1 59/27/1 60/28/1
f 61/25/1 62/26/1 63/27/1 64/28/1
f 65/25/1 66/26/1 67/27/1 68/28/1

