# Tiled2Unity generated file. Do not modify by hand.
# Wavefront file for 'escenaNorte_2_mesh_0191.obj'

# Vertices (Count = 20)
v -15 -4 0
v -16 -4 0
v -16 -3 0
v -15 -3 0
v -15 -5 0
v -16 -5 0
v -16 -4 0
v -15 -4 0
v -15 -6 0
v -16 -6 0
v -16 -5 0
v -15 -5 0
v -15 -7 0
v -16 -7 0
v -16 -6 0
v -15 -6 0
v -15 -8 0
v -16 -8 0
v -16 -7 0
v -15 -7 0

# Texture cooridinates (Count = 12)
vt 0.4375 0.4804688
vt 0.4648438 0.4804688
vt 0.4648438 0.5078125
vt 0.4375 0.5078125
vt 0.4375 0.453125
vt 0.4648438 0.453125
vt 0.4375 0.4257813
vt 0.4648438 0.4257813
vt 0.4375 0.3984375
vt 0.4648438 0.3984375
vt 0.4375 0.3710938
vt 0.4648438 0.3710938

# Normal
vn 0 0 -1

# Mesh description
g escenaNorte_2_mesh_0191

# Faces
f 1/1/1 2/2/1 3/3/1 4/4/1
f 5/5/1 6/6/1 7/2/1 8/1/1
f 9/7/1 10/8/1 11/6/1 12/5/1
f 13/9/1 14/10/1 15/8/1 16/7/1
f 17/11/1 18/12/1 19/10/1 20/9/1

