# Tiled2Unity generated file. Do not modify by hand.
# Wavefront file for 'mapa_sur_oeste_mesh_0011.obj'

# Vertices (Count = 132)
v -29 -3 0
v -30 -3 0
v -30 -2 0
v -29 -2 0
v -29 -4 0
v -30 -4 0
v -30 -3 0
v -29 -3 0
v -2 -13 0
v -3 -13 0
v -3 -12 0
v -2 -12 0
v -3 -13 0
v -4 -13 0
v -4 -12 0
v -3 -12 0
v -43 -13 0
v -44 -13 0
v -44 -12 0
v -43 -12 0
v -2 -14 0
v -3 -14 0
v -3 -13 0
v -2 -13 0
v -3 -14 0
v -4 -14 0
v -4 -13 0
v -3 -13 0
v -10 -15 0
v -11 -15 0
v -11 -14 0
v -10 -14 0
v -8 -16 0
v -9 -16 0
v -9 -15 0
v -8 -15 0
v -10 -16 0
v -11 -16 0
v -11 -15 0
v -10 -15 0
v -22 -16 0
v -23 -16 0
v -23 -15 0
v -22 -15 0
v -43 -18 0
v -44 -18 0
v -44 -17 0
v -43 -17 0
v -25 -20 0
v -26 -20 0
v -26 -19 0
v -25 -19 0
v -46 -25 0
v -47 -25 0
v -47 -24 0
v -46 -24 0
v -46 -26 0
v -47 -26 0
v -47 -25 0
v -46 -25 0
v -47 -26 0
v -48 -26 0
v -48 -25 0
v -47 -25 0
v -23 -28 0
v -24 -28 0
v -24 -27 0
v -23 -27 0
v -46 -28 0
v -47 -28 0
v -47 -27 0
v -46 -27 0
v -21 -29 0
v -22 -29 0
v -22 -28 0
v -21 -28 0
v -23 -29 0
v -24 -29 0
v -24 -28 0
v -23 -28 0
v -46 -29 0
v -47 -29 0
v -47 -28 0
v -46 -28 0
v -47 -29 0
v -48 -29 0
v -48 -28 0
v -47 -28 0
v -26 -30 0
v -27 -30 0
v -27 -29 0
v -26 -29 0
v -26 -31 0
v -27 -31 0
v -27 -30 0
v -26 -30 0
v -26 -33 0
v -27 -33 0
v -27 -32 0
v -26 -32 0
v -27 -35 0
v -28 -35 0
v -28 -34 0
v -27 -34 0
v -37 -35 0
v -38 -35 0
v -38 -34 0
v -37 -34 0
v -27 -36 0
v -28 -36 0
v -28 -35 0
v -27 -35 0
v -29 -36 0
v -30 -36 0
v -30 -35 0
v -29 -35 0
v -37 -36 0
v -38 -36 0
v -38 -35 0
v -37 -35 0
v -44 -41 0
v -45 -41 0
v -45 -40 0
v -44 -40 0
v -43 -42 0
v -44 -42 0
v -44 -41 0
v -43 -41 0
v -44 -42 0
v -45 -42 0
v -45 -41 0
v -44 -41 0

# Texture cooridinates (Count = 20)
vt 0.7773438 0.2361111
vt 0.859375 0.2361111
vt 0.859375 0.2543403
vt 0.7773438 0.2543403
vt 0.7773438 0.2170139
vt 0.859375 0.2170139
vt 0.859375 0.2352431
vt 0.7773438 0.2352431
vt 0.8632813 0.2361111
vt 0.9453125 0.2361111
vt 0.9453125 0.2543403
vt 0.8632813 0.2543403
vt 0.5195313 0.5034722
vt 0.6015625 0.5034722
vt 0.6015625 0.5217014
vt 0.5195313 0.5217014
vt 0.8632813 0.2170139
vt 0.9453125 0.2170139
vt 0.9453125 0.2352431
vt 0.8632813 0.2352431

# Normal
vn 0 0 -1

# Mesh description
g mapa_sur_oeste_mesh_0011

# Faces
f 1/1/1 2/2/1 3/3/1 4/4/1
f 5/5/1 6/6/1 7/7/1 8/8/1
f 9/1/1 10/2/1 11/3/1 12/4/1
f 13/9/1 14/10/1 15/11/1 16/12/1
f 17/13/1 18/14/1 19/15/1 20/16/1
f 21/5/1 22/6/1 23/7/1 24/8/1
f 25/17/1 26/18/1 27/19/1 28/20/1
f 29/1/1 30/2/1 31/3/1 32/4/1
f 33/13/1 34/14/1 35/15/1 36/16/1
f 37/5/1 38/6/1 39/7/1 40/8/1
f 41/13/1 42/14/1 43/15/1 44/16/1
f 45/13/1 46/14/1 47/15/1 48/16/1
f 49/13/1 50/14/1 51/15/1 52/16/1
f 53/1/1 54/2/1 55/3/1 56/4/1
f 57/5/1 58/6/1 59/7/1 60/8/1
f 61/13/1 62/14/1 63/15/1 64/16/1
f 65/1/1 66/2/1 67/3/1 68/4/1
f 69/1/1 70/2/1 71/3/1 72/4/1
f 73/13/1 74/14/1 75/15/1 76/16/1
f 77/5/1 78/6/1 79/7/1 80/8/1
f 81/5/1 82/6/1 83/7/1 84/8/1
f 85/13/1 86/14/1 87/15/1 88/16/1
f 89/1/1 90/2/1 91/3/1 92/4/1
f 93/5/1 94/6/1 95/7/1 96/8/1
f 97/13/1 98/14/1 99/15/1 100/16/1
f 101/1/1 102/2/1 103/3/1 104/4/1
f 105/1/1 106/2/1 107/3/1 108/4/1
f 109/5/1 110/6/1 111/7/1 112/8/1
f 113/13/1 114/14/1 115/15/1 116/16/1
f 117/5/1 118/6/1 119/7/1 120/8/1
f 121/1/1 122/2/1 123/3/1 124/4/1
f 125/13/1 126/14/1 127/15/1 128/16/1
f 129/5/1 130/6/1 131/7/1 132/8/1

