# Tiled2Unity generated file. Do not modify by hand.
# Wavefront file for 'escenaNorte_2_mesh_0202.obj'

# Vertices (Count = 264)
v -2 -1 0
v -3 -1 0
v -3 0 0
v -2 0 0
v -5 -1 0
v -6 -1 0
v -6 0 0
v -5 0 0
v -7 -1 0
v -8 -1 0
v -8 0 0
v -7 0 0
v -9 -1 0
v -10 -1 0
v -10 0 0
v -9 0 0
v -2 -2 0
v -3 -2 0
v -3 -1 0
v -2 -1 0
v -3 -2 0
v -4 -2 0
v -4 -1 0
v -3 -1 0
v -4 -2 0
v -5 -2 0
v -5 -1 0
v -4 -1 0
v -5 -2 0
v -6 -2 0
v -6 -1 0
v -5 -1 0
v -6 -2 0
v -7 -2 0
v -7 -1 0
v -6 -1 0
v -7 -2 0
v -8 -2 0
v -8 -1 0
v -7 -1 0
v -2 -3 0
v -3 -3 0
v -3 -2 0
v -2 -2 0
v -3 -3 0
v -4 -3 0
v -4 -2 0
v -3 -2 0
v -4 -3 0
v -5 -3 0
v -5 -2 0
v -4 -2 0
v -5 -3 0
v -6 -3 0
v -6 -2 0
v -5 -2 0
v -6 -3 0
v -7 -3 0
v -7 -2 0
v -6 -2 0
v -7 -3 0
v -8 -3 0
v -8 -2 0
v -7 -2 0
v -8 -3 0
v -9 -3 0
v -9 -2 0
v -8 -2 0
v -9 -3 0
v -10 -3 0
v -10 -2 0
v -9 -2 0
v -14 -3 0
v -15 -3 0
v -15 -2 0
v -14 -2 0
v -8 -4 0
v -9 -4 0
v -9 -3 0
v -8 -3 0
v -9 -4 0
v -10 -4 0
v -10 -3 0
v -9 -3 0
v -14 -4 0
v -15 -4 0
v -15 -3 0
v -14 -3 0
v -14 -5 0
v -15 -5 0
v -15 -4 0
v -14 -4 0
v -8 -9 0
v -9 -9 0
v -9 -8 0
v -8 -8 0
v -9 -9 0
v -10 -9 0
v -10 -8 0
v -9 -8 0
v -8 -10 0
v -9 -10 0
v -9 -9 0
v -8 -9 0
v -9 -10 0
v -10 -10 0
v -10 -9 0
v -9 -9 0
v -8 -11 0
v -9 -11 0
v -9 -10 0
v -8 -10 0
v -9 -11 0
v -10 -11 0
v -10 -10 0
v -9 -10 0
v -15 -11 0
v -16 -11 0
v -16 -10 0
v -15 -10 0
v -3 -12 0
v -4 -12 0
v -4 -11 0
v -3 -11 0
v -4 -12 0
v -5 -12 0
v -5 -11 0
v -4 -11 0
v -5 -12 0
v -6 -12 0
v -6 -11 0
v -5 -11 0
v -6 -12 0
v -7 -12 0
v -7 -11 0
v -6 -11 0
v -7 -12 0
v -8 -12 0
v -8 -11 0
v -7 -11 0
v -8 -12 0
v -9 -12 0
v -9 -11 0
v -8 -11 0
v -9 -12 0
v -10 -12 0
v -10 -11 0
v -9 -11 0
v -10 -12 0
v -11 -12 0
v -11 -11 0
v -10 -11 0
v -3 -13 0
v -4 -13 0
v -4 -12 0
v -3 -12 0
v -4 -13 0
v -5 -13 0
v -5 -12 0
v -4 -12 0
v -5 -13 0
v -6 -13 0
v -6 -12 0
v -5 -12 0
v -6 -13 0
v -7 -13 0
v -7 -12 0
v -6 -12 0
v -7 -13 0
v -8 -13 0
v -8 -12 0
v -7 -12 0
v -8 -13 0
v -9 -13 0
v -9 -12 0
v -8 -12 0
v -9 -13 0
v -10 -13 0
v -10 -12 0
v -9 -12 0
v -10 -13 0
v -11 -13 0
v -11 -12 0
v -10 -12 0
v -2 -14 0
v -3 -14 0
v -3 -13 0
v -2 -13 0
v -3 -14 0
v -4 -14 0
v -4 -13 0
v -3 -13 0
v -4 -14 0
v -5 -14 0
v -5 -13 0
v -4 -13 0
v -7 -14 0
v -8 -14 0
v -8 -13 0
v -7 -13 0
v -8 -14 0
v -9 -14 0
v -9 -13 0
v -8 -13 0
v -9 -14 0
v -10 -14 0
v -10 -13 0
v -9 -13 0
v -14 -14 0
v -15 -14 0
v -15 -13 0
v -14 -13 0
v -15 -14 0
v -16 -14 0
v -16 -13 0
v -15 -13 0
v -2 -15 0
v -3 -15 0
v -3 -14 0
v -2 -14 0
v -3 -15 0
v -4 -15 0
v -4 -14 0
v -3 -14 0
v -4 -15 0
v -5 -15 0
v -5 -14 0
v -4 -14 0
v -7 -15 0
v -8 -15 0
v -8 -14 0
v -7 -14 0
v -8 -15 0
v -9 -15 0
v -9 -14 0
v -8 -14 0
v -9 -15 0
v -10 -15 0
v -10 -14 0
v -9 -14 0
v -14 -15 0
v -15 -15 0
v -15 -14 0
v -14 -14 0
v -15 -15 0
v -16 -15 0
v -16 -14 0
v -15 -14 0
v -2 -16 0
v -3 -16 0
v -3 -15 0
v -2 -15 0
v -3 -16 0
v -4 -16 0
v -4 -15 0
v -3 -15 0
v -8 -16 0
v -9 -16 0
v -9 -15 0
v -8 -15 0
v -9 -16 0
v -10 -16 0
v -10 -15 0
v -9 -15 0

# Texture cooridinates (Count = 46)
vt 0.5742188 0.7539063
vt 0.6015625 0.7539063
vt 0.6015625 0.78125
vt 0.5742188 0.78125
vt 0.5742188 0.5898438
vt 0.6015625 0.5898438
vt 0.6015625 0.6171875
vt 0.5742188 0.6171875
vt 0.6289063 0.5898438
vt 0.6289063 0.6171875
vt 0.5742188 0.5625
vt 0.6015625 0.5625
vt 0.6289063 0.5625
vt 0.65625 0.5898438
vt 0.65625 0.6171875
vt 0.6835938 0.5898438
vt 0.6835938 0.6171875
vt 0.5742188 0.6445313
vt 0.6015625 0.6445313
vt 0.6015625 0.671875
vt 0.5742188 0.671875
vt 0.65625 0.5625
vt 0.6835938 0.5625
vt 0.3554688 0.5078125
vt 0.328125 0.5078125
vt 0.328125 0.5351563
vt 0.3554688 0.5351563
vt 0.4375 0.9179688
vt 0.4648438 0.9179688
vt 0.4648438 0.9453125
vt 0.4375 0.9453125
vt 0.4921875 0.9179688
vt 0.4921875 0.9453125
vt 0.4375 0.890625
vt 0.4648438 0.890625
vt 0.4921875 0.890625
vt 0.4375 0.8632813
vt 0.4648438 0.8632813
vt 0.4921875 0.8632813
vt 0.6015625 0.8085938
vt 0.5742188 0.8085938
vt 0.6289063 0.78125
vt 0.6289063 0.8085938
vt 0.6289063 0.7539063
vt 0.6289063 0.6445313
vt 0.6289063 0.671875

# Normal
vn 0 0 -1

# Mesh description
g escenaNorte_2_mesh_0202

# Faces
f 1/1/1 2/2/1 3/3/1 4/4/1
f 5/1/1 6/2/1 7/3/1 8/4/1
f 9/1/1 10/2/1 11/3/1 12/4/1
f 13/1/1 14/2/1 15/3/1 16/4/1
f 17/5/1 18/6/1 19/7/1 20/8/1
f 21/5/1 22/6/1 23/7/1 24/8/1
f 25/6/1 26/9/1 27/10/1 28/7/1
f 29/5/1 30/6/1 31/7/1 32/8/1
f 33/5/1 34/6/1 35/7/1 36/8/1
f 37/6/1 38/9/1 39/10/1 40/7/1
f 41/11/1 42/12/1 43/6/1 44/5/1
f 45/11/1 46/12/1 47/6/1 48/5/1
f 49/12/1 50/13/1 51/9/1 52/6/1
f 53/11/1 54/12/1 55/6/1 56/5/1
f 57/11/1 58/12/1 59/6/1 60/5/1
f 61/12/1 62/13/1 63/9/1 64/6/1
f 65/9/1 66/14/1 67/15/1 68/10/1
f 69/14/1 70/16/1 71/17/1 72/15/1
f 73/18/1 74/19/1 75/20/1 76/21/1
f 77/13/1 78/22/1 79/14/1 80/9/1
f 81/22/1 82/23/1 83/16/1 84/14/1
f 85/8/1 86/7/1 87/19/1 88/18/1
f 89/24/1 90/25/1 91/26/1 92/27/1
f 93/28/1 94/29/1 95/30/1 96/31/1
f 97/29/1 98/32/1 99/33/1 100/30/1
f 101/34/1 102/35/1 103/29/1 104/28/1
f 105/35/1 106/36/1 107/32/1 108/29/1
f 109/37/1 110/38/1 111/35/1 112/34/1
f 113/38/1 114/39/1 115/36/1 116/35/1
f 117/1/1 118/2/1 119/3/1 120/4/1
f 121/4/1 122/3/1 123/40/1 124/41/1
f 125/3/1 126/42/1 127/43/1 128/40/1
f 129/4/1 130/3/1 131/40/1 132/41/1
f 133/3/1 134/42/1 135/43/1 136/40/1
f 137/4/1 138/3/1 139/40/1 140/41/1
f 141/3/1 142/42/1 143/43/1 144/40/1
f 145/4/1 146/3/1 147/40/1 148/41/1
f 149/3/1 150/42/1 151/43/1 152/40/1
f 153/1/1 154/2/1 155/3/1 156/4/1
f 157/2/1 158/44/1 159/42/1 160/3/1
f 161/1/1 162/2/1 163/3/1 164/4/1
f 165/2/1 166/44/1 167/42/1 168/3/1
f 169/1/1 170/2/1 171/3/1 172/4/1
f 173/2/1 174/44/1 175/42/1 176/3/1
f 177/1/1 178/2/1 179/3/1 180/4/1
f 181/2/1 182/44/1 183/42/1 184/3/1
f 185/32/1 186/29/1 187/30/1 188/33/1
f 189/18/1 190/19/1 191/20/1 192/21/1
f 193/19/1 194/45/1 195/46/1 196/20/1
f 197/18/1 198/19/1 199/20/1 200/21/1
f 201/19/1 202/45/1 203/46/1 204/20/1
f 205/29/1 206/32/1 207/33/1 208/30/1
f 209/9/1 210/14/1 211/15/1 212/10/1
f 213/14/1 214/16/1 215/17/1 216/15/1
f 217/36/1 218/35/1 219/29/1 220/32/1
f 221/8/1 222/7/1 223/19/1 224/18/1
f 225/7/1 226/10/1 227/45/1 228/19/1
f 229/8/1 230/7/1 231/19/1 232/18/1
f 233/7/1 234/10/1 235/45/1 236/19/1
f 237/35/1 238/36/1 239/32/1 240/29/1
f 241/13/1 242/22/1 243/14/1 244/9/1
f 245/22/1 246/23/1 247/16/1 248/14/1
f 249/39/1 250/38/1 251/35/1 252/36/1
f 253/38/1 254/37/1 255/34/1 256/35/1
f 257/37/1 258/38/1 259/35/1 260/34/1
f 261/38/1 262/39/1 263/36/1 264/35/1

