# Tiled2Unity generated file. Do not modify by hand.
# Wavefront file for 'escenaNorte_2_mesh_0196.obj'

# Vertices (Count = 216)
v 0 -3 0
v -1 -3 0
v -1 -2 0
v 0 -2 0
v -1 -3 0
v -2 -3 0
v -2 -2 0
v -1 -2 0
v -5 -3 0
v -6 -3 0
v -6 -2 0
v -5 -2 0
v -6 -3 0
v -7 -3 0
v -7 -2 0
v -6 -2 0
v 0 -4 0
v -1 -4 0
v -1 -3 0
v 0 -3 0
v -1 -4 0
v -2 -4 0
v -2 -3 0
v -1 -3 0
v -3 -4 0
v -4 -4 0
v -4 -3 0
v -3 -3 0
v -4 -4 0
v -5 -4 0
v -5 -3 0
v -4 -3 0
v -5 -4 0
v -6 -4 0
v -6 -3 0
v -5 -3 0
v -6 -4 0
v -7 -4 0
v -7 -3 0
v -6 -3 0
v 0 -5 0
v -1 -5 0
v -1 -4 0
v 0 -4 0
v -1 -5 0
v -2 -5 0
v -2 -4 0
v -1 -4 0
v -3 -5 0
v -4 -5 0
v -4 -4 0
v -3 -4 0
v -4 -5 0
v -5 -5 0
v -5 -4 0
v -4 -4 0
v -5 -5 0
v -6 -5 0
v -6 -4 0
v -5 -4 0
v -6 -5 0
v -7 -5 0
v -7 -4 0
v -6 -4 0
v 0 -6 0
v -1 -6 0
v -1 -5 0
v 0 -5 0
v -1 -6 0
v -2 -6 0
v -2 -5 0
v -1 -5 0
v -5 -6 0
v -6 -6 0
v -6 -5 0
v -5 -5 0
v -6 -6 0
v -7 -6 0
v -7 -5 0
v -6 -5 0
v 0 -7 0
v -1 -7 0
v -1 -6 0
v 0 -6 0
v -1 -7 0
v -2 -7 0
v -2 -6 0
v -1 -6 0
v -5 -7 0
v -6 -7 0
v -6 -6 0
v -5 -6 0
v -6 -7 0
v -7 -7 0
v -7 -6 0
v -6 -6 0
v 0 -8 0
v -1 -8 0
v -1 -7 0
v 0 -7 0
v -1 -8 0
v -2 -8 0
v -2 -7 0
v -1 -7 0
v -5 -8 0
v -6 -8 0
v -6 -7 0
v -5 -7 0
v -6 -8 0
v -7 -8 0
v -7 -7 0
v -6 -7 0
v -3 -9 0
v -4 -9 0
v -4 -8 0
v -3 -8 0
v -4 -9 0
v -5 -9 0
v -5 -8 0
v -4 -8 0
v -3 -10 0
v -4 -10 0
v -4 -9 0
v -3 -9 0
v -4 -10 0
v -5 -10 0
v -5 -9 0
v -4 -9 0
v 0 -12 0
v -1 -12 0
v -1 -11 0
v 0 -11 0
v -1 -12 0
v -2 -12 0
v -2 -11 0
v -1 -11 0
v -5 -12 0
v -6 -12 0
v -6 -11 0
v -5 -11 0
v -6 -12 0
v -7 -12 0
v -7 -11 0
v -6 -11 0
v 0 -13 0
v -1 -13 0
v -1 -12 0
v 0 -12 0
v -1 -13 0
v -2 -13 0
v -2 -12 0
v -1 -12 0
v -5 -13 0
v -6 -13 0
v -6 -12 0
v -5 -12 0
v -6 -13 0
v -7 -13 0
v -7 -12 0
v -6 -12 0
v 0 -14 0
v -1 -14 0
v -1 -13 0
v 0 -13 0
v -1 -14 0
v -2 -14 0
v -2 -13 0
v -1 -13 0
v -5 -14 0
v -6 -14 0
v -6 -13 0
v -5 -13 0
v -6 -14 0
v -7 -14 0
v -7 -13 0
v -6 -13 0
v 0 -15 0
v -1 -15 0
v -1 -14 0
v 0 -14 0
v -1 -15 0
v -2 -15 0
v -2 -14 0
v -1 -14 0
v -5 -15 0
v -6 -15 0
v -6 -14 0
v -5 -14 0
v -6 -15 0
v -7 -15 0
v -7 -14 0
v -6 -14 0
v 0 -16 0
v -1 -16 0
v -1 -15 0
v 0 -15 0
v -1 -16 0
v -2 -16 0
v -2 -15 0
v -1 -15 0
v -3 -16 0
v -4 -16 0
v -4 -15 0
v -3 -15 0
v -4 -16 0
v -5 -16 0
v -5 -15 0
v -4 -15 0
v -5 -16 0
v -6 -16 0
v -6 -15 0
v -5 -15 0
v -6 -16 0
v -7 -16 0
v -7 -15 0
v -6 -15 0

# Texture cooridinates (Count = 33)
vt 0.5742188 0.78125
vt 0.6015625 0.78125
vt 0.6015625 0.8085938
vt 0.5742188 0.8085938
vt 0.6289063 0.78125
vt 0.6289063 0.8085938
vt 0.5742188 0.7539063
vt 0.6015625 0.7539063
vt 0.6289063 0.7539063
vt 0.328125 0.34375
vt 0.3554688 0.34375
vt 0.3554688 0.3710938
vt 0.328125 0.3710938
vt 0.3828125 0.34375
vt 0.3828125 0.3710938
vt 0.6289063 0.9453125
vt 0.65625 0.9453125
vt 0.65625 0.9726563
vt 0.6289063 0.9726563
vt 0.6835938 0.9453125
vt 0.6835938 0.9726563
vt 0.328125 0.3164063
vt 0.3554688 0.3164063
vt 0.3828125 0.3164063
vt 0.6289063 0.9179688
vt 0.65625 0.9179688
vt 0.6835938 0.9179688
vt 0.6289063 0.890625
vt 0.65625 0.890625
vt 0.6835938 0.890625
vt 0.6289063 0.8632813
vt 0.65625 0.8632813
vt 0.6835938 0.8632813

# Normal
vn 0 0 -1

# Mesh description
g escenaNorte_2_mesh_0196

# Faces
f 1/1/1 2/2/1 3/3/1 4/4/1
f 5/2/1 6/5/1 7/6/1 8/3/1
f 9/1/1 10/2/1 11/3/1 12/4/1
f 13/2/1 14/5/1 15/6/1 16/3/1
f 17/7/1 18/8/1 19/2/1 20/1/1
f 21/8/1 22/9/1 23/5/1 24/2/1
f 25/10/1 26/11/1 27/12/1 28/13/1
f 29/11/1 30/14/1 31/15/1 32/12/1
f 33/7/1 34/8/1 35/2/1 36/1/1
f 37/8/1 38/9/1 39/5/1 40/2/1
f 41/16/1 42/17/1 43/18/1 44/19/1
f 45/17/1 46/20/1 47/21/1 48/18/1
f 49/22/1 50/23/1 51/11/1 52/10/1
f 53/23/1 54/24/1 55/14/1 56/11/1
f 57/16/1 58/17/1 59/18/1 60/19/1
f 61/17/1 62/20/1 63/21/1 64/18/1
f 65/25/1 66/26/1 67/17/1 68/16/1
f 69/26/1 70/27/1 71/20/1 72/17/1
f 73/25/1 74/26/1 75/17/1 76/16/1
f 77/26/1 78/27/1 79/20/1 80/17/1
f 81/28/1 82/29/1 83/26/1 84/25/1
f 85/29/1 86/30/1 87/27/1 88/26/1
f 89/28/1 90/29/1 91/26/1 92/25/1
f 93/29/1 94/30/1 95/27/1 96/26/1
f 97/31/1 98/32/1 99/29/1 100/28/1
f 101/32/1 102/33/1 103/30/1 104/29/1
f 105/31/1 106/32/1 107/29/1 108/28/1
f 109/32/1 110/33/1 111/30/1 112/29/1
f 113/10/1 114/11/1 115/12/1 116/13/1
f 117/11/1 118/14/1 119/15/1 120/12/1
f 121/22/1 122/23/1 123/11/1 124/10/1
f 125/23/1 126/24/1 127/14/1 128/11/1
f 129/1/1 130/2/1 131/3/1 132/4/1
f 133/2/1 134/5/1 135/6/1 136/3/1
f 137/1/1 138/2/1 139/3/1 140/4/1
f 141/2/1 142/5/1 143/6/1 144/3/1
f 145/7/1 146/8/1 147/2/1 148/1/1
f 149/8/1 150/9/1 151/5/1 152/2/1
f 153/7/1 154/8/1 155/2/1 156/1/1
f 157/8/1 158/9/1 159/5/1 160/2/1
f 161/16/1 162/17/1 163/18/1 164/19/1
f 165/17/1 166/20/1 167/21/1 168/18/1
f 169/16/1 170/17/1 171/18/1 172/19/1
f 173/17/1 174/20/1 175/21/1 176/18/1
f 177/25/1 178/26/1 179/17/1 180/16/1
f 181/26/1 182/27/1 183/20/1 184/17/1
f 185/25/1 186/26/1 187/17/1 188/16/1
f 189/26/1 190/27/1 191/20/1 192/17/1
f 193/28/1 194/29/1 195/26/1 196/25/1
f 197/29/1 198/30/1 199/27/1 200/26/1
f 201/10/1 202/11/1 203/12/1 204/13/1
f 205/11/1 206/14/1 207/15/1 208/12/1
f 209/28/1 210/29/1 211/26/1 212/25/1
f 213/29/1 214/30/1 215/27/1 216/26/1

