# Tiled2Unity generated file. Do not modify by hand.
# Wavefront file for 'escenaNorte_2_mesh_0124.obj'

# Vertices (Count = 416)
v -1 -1 0
v -2 -1 0
v -2 0 0
v -1 0 0
v -2 -1 0
v -3 -1 0
v -3 0 0
v -2 0 0
v -3 -1 0
v -4 -1 0
v -4 0 0
v -3 0 0
v -4 -1 0
v -5 -1 0
v -5 0 0
v -4 0 0
v -5 -1 0
v -6 -1 0
v -6 0 0
v -5 0 0
v -6 -1 0
v -7 -1 0
v -7 0 0
v -6 0 0
v -7 -1 0
v -8 -1 0
v -8 0 0
v -7 0 0
v -8 -1 0
v -9 -1 0
v -9 0 0
v -8 0 0
v -1 -2 0
v -2 -2 0
v -2 -1 0
v -1 -1 0
v -2 -2 0
v -3 -2 0
v -3 -1 0
v -2 -1 0
v -3 -2 0
v -4 -2 0
v -4 -1 0
v -3 -1 0
v -4 -2 0
v -5 -2 0
v -5 -1 0
v -4 -1 0
v -5 -2 0
v -6 -2 0
v -6 -1 0
v -5 -1 0
v -6 -2 0
v -7 -2 0
v -7 -1 0
v -6 -1 0
v -7 -2 0
v -8 -2 0
v -8 -1 0
v -7 -1 0
v -8 -2 0
v -9 -2 0
v -9 -1 0
v -8 -1 0
v -1 -3 0
v -2 -3 0
v -2 -2 0
v -1 -2 0
v -2 -3 0
v -3 -3 0
v -3 -2 0
v -2 -2 0
v -3 -3 0
v -4 -3 0
v -4 -2 0
v -3 -2 0
v -4 -3 0
v -5 -3 0
v -5 -2 0
v -4 -2 0
v -5 -3 0
v -6 -3 0
v -6 -2 0
v -5 -2 0
v -6 -3 0
v -7 -3 0
v -7 -2 0
v -6 -2 0
v -7 -3 0
v -8 -3 0
v -8 -2 0
v -7 -2 0
v -8 -3 0
v -9 -3 0
v -9 -2 0
v -8 -2 0
v -1 -4 0
v -2 -4 0
v -2 -3 0
v -1 -3 0
v -2 -4 0
v -3 -4 0
v -3 -3 0
v -2 -3 0
v -3 -4 0
v -4 -4 0
v -4 -3 0
v -3 -3 0
v -4 -4 0
v -5 -4 0
v -5 -3 0
v -4 -3 0
v -5 -4 0
v -6 -4 0
v -6 -3 0
v -5 -3 0
v -6 -4 0
v -7 -4 0
v -7 -3 0
v -6 -3 0
v -7 -4 0
v -8 -4 0
v -8 -3 0
v -7 -3 0
v -8 -4 0
v -9 -4 0
v -9 -3 0
v -8 -3 0
v -1 -5 0
v -2 -5 0
v -2 -4 0
v -1 -4 0
v -2 -5 0
v -3 -5 0
v -3 -4 0
v -2 -4 0
v -3 -5 0
v -4 -5 0
v -4 -4 0
v -3 -4 0
v -4 -5 0
v -5 -5 0
v -5 -4 0
v -4 -4 0
v -5 -5 0
v -6 -5 0
v -6 -4 0
v -5 -4 0
v -6 -5 0
v -7 -5 0
v -7 -4 0
v -6 -4 0
v -7 -5 0
v -8 -5 0
v -8 -4 0
v -7 -4 0
v -8 -5 0
v -9 -5 0
v -9 -4 0
v -8 -4 0
v -1 -9 0
v -2 -9 0
v -2 -8 0
v -1 -8 0
v -2 -9 0
v -3 -9 0
v -3 -8 0
v -2 -8 0
v -3 -9 0
v -4 -9 0
v -4 -8 0
v -3 -8 0
v -4 -9 0
v -5 -9 0
v -5 -8 0
v -4 -8 0
v -5 -9 0
v -6 -9 0
v -6 -8 0
v -5 -8 0
v -6 -9 0
v -7 -9 0
v -7 -8 0
v -6 -8 0
v -7 -9 0
v -8 -9 0
v -8 -8 0
v -7 -8 0
v -8 -9 0
v -9 -9 0
v -9 -8 0
v -8 -8 0
v -1 -10 0
v -2 -10 0
v -2 -9 0
v -1 -9 0
v -2 -10 0
v -3 -10 0
v -3 -9 0
v -2 -9 0
v -3 -10 0
v -4 -10 0
v -4 -9 0
v -3 -9 0
v -4 -10 0
v -5 -10 0
v -5 -9 0
v -4 -9 0
v -5 -10 0
v -6 -10 0
v -6 -9 0
v -5 -9 0
v -6 -10 0
v -7 -10 0
v -7 -9 0
v -6 -9 0
v -7 -10 0
v -8 -10 0
v -8 -9 0
v -7 -9 0
v -8 -10 0
v -9 -10 0
v -9 -9 0
v -8 -9 0
v -1 -11 0
v -2 -11 0
v -2 -10 0
v -1 -10 0
v -2 -11 0
v -3 -11 0
v -3 -10 0
v -2 -10 0
v -3 -11 0
v -4 -11 0
v -4 -10 0
v -3 -10 0
v -4 -11 0
v -5 -11 0
v -5 -10 0
v -4 -10 0
v -5 -11 0
v -6 -11 0
v -6 -10 0
v -5 -10 0
v -6 -11 0
v -7 -11 0
v -7 -10 0
v -6 -10 0
v -7 -11 0
v -8 -11 0
v -8 -10 0
v -7 -10 0
v -8 -11 0
v -9 -11 0
v -9 -10 0
v -8 -10 0
v -1 -12 0
v -2 -12 0
v -2 -11 0
v -1 -11 0
v -2 -12 0
v -3 -12 0
v -3 -11 0
v -2 -11 0
v -3 -12 0
v -4 -12 0
v -4 -11 0
v -3 -11 0
v -4 -12 0
v -5 -12 0
v -5 -11 0
v -4 -11 0
v -5 -12 0
v -6 -12 0
v -6 -11 0
v -5 -11 0
v -6 -12 0
v -7 -12 0
v -7 -11 0
v -6 -11 0
v -7 -12 0
v -8 -12 0
v -8 -11 0
v -7 -11 0
v -8 -12 0
v -9 -12 0
v -9 -11 0
v -8 -11 0
v -1 -13 0
v -2 -13 0
v -2 -12 0
v -1 -12 0
v -2 -13 0
v -3 -13 0
v -3 -12 0
v -2 -12 0
v -3 -13 0
v -4 -13 0
v -4 -12 0
v -3 -12 0
v -4 -13 0
v -5 -13 0
v -5 -12 0
v -4 -12 0
v -5 -13 0
v -6 -13 0
v -6 -12 0
v -5 -12 0
v -6 -13 0
v -7 -13 0
v -7 -12 0
v -6 -12 0
v -7 -13 0
v -8 -13 0
v -8 -12 0
v -7 -12 0
v -8 -13 0
v -9 -13 0
v -9 -12 0
v -8 -12 0
v -1 -14 0
v -2 -14 0
v -2 -13 0
v -1 -13 0
v -2 -14 0
v -3 -14 0
v -3 -13 0
v -2 -13 0
v -3 -14 0
v -4 -14 0
v -4 -13 0
v -3 -13 0
v -4 -14 0
v -5 -14 0
v -5 -13 0
v -4 -13 0
v -5 -14 0
v -6 -14 0
v -6 -13 0
v -5 -13 0
v -6 -14 0
v -7 -14 0
v -7 -13 0
v -6 -13 0
v -7 -14 0
v -8 -14 0
v -8 -13 0
v -7 -13 0
v -8 -14 0
v -9 -14 0
v -9 -13 0
v -8 -13 0
v -1 -15 0
v -2 -15 0
v -2 -14 0
v -1 -14 0
v -2 -15 0
v -3 -15 0
v -3 -14 0
v -2 -14 0
v -3 -15 0
v -4 -15 0
v -4 -14 0
v -3 -14 0
v -4 -15 0
v -5 -15 0
v -5 -14 0
v -4 -14 0
v -5 -15 0
v -6 -15 0
v -6 -14 0
v -5 -14 0
v -6 -15 0
v -7 -15 0
v -7 -14 0
v -6 -14 0
v -7 -15 0
v -8 -15 0
v -8 -14 0
v -7 -14 0
v -8 -15 0
v -9 -15 0
v -9 -14 0
v -8 -14 0
v -1 -16 0
v -2 -16 0
v -2 -15 0
v -1 -15 0
v -2 -16 0
v -3 -16 0
v -3 -15 0
v -2 -15 0
v -3 -16 0
v -4 -16 0
v -4 -15 0
v -3 -15 0
v -4 -16 0
v -5 -16 0
v -5 -15 0
v -4 -15 0
v -5 -16 0
v -6 -16 0
v -6 -15 0
v -5 -15 0
v -6 -16 0
v -7 -16 0
v -7 -15 0
v -6 -15 0
v -7 -16 0
v -8 -16 0
v -8 -15 0
v -7 -15 0
v -8 -16 0
v -9 -16 0
v -9 -15 0
v -8 -15 0

# Texture cooridinates (Count = 64)
vt 0.546875 0.5898438
vt 0.5742188 0.5898438
vt 0.5742188 0.6171875
vt 0.546875 0.6171875
vt 0.6015625 0.5898438
vt 0.6015625 0.6171875
vt 0.546875 0.5625
vt 0.5742188 0.5625
vt 0.6015625 0.5625
vt 0.7109375 0.5078125
vt 0.7382813 0.5078125
vt 0.7382813 0.5351563
vt 0.7109375 0.5351563
vt 0.7109375 0.5898438
vt 0.7382813 0.5898438
vt 0.7382813 0.6171875
vt 0.7109375 0.6171875
vt 0.2734375 0.6992188
vt 0.3007813 0.6992188
vt 0.3007813 0.7265625
vt 0.2734375 0.7265625
vt 0.328125 0.6992188
vt 0.328125 0.7265625
vt 0.3554688 0.6992188
vt 0.3554688 0.7265625
vt 0.7109375 0.5625
vt 0.7382813 0.5625
vt 0.8476563 0.2070313
vt 0.875 0.2070313
vt 0.875 0.234375
vt 0.8476563 0.234375
vt 0.875 0.1796875
vt 0.9023438 0.1796875
vt 0.9023438 0.2070313
vt 0.9296875 0.1796875
vt 0.9296875 0.2070313
vt 0.1914063 0.3984375
vt 0.21875 0.3984375
vt 0.21875 0.4257813
vt 0.1914063 0.4257813
vt 0.2460938 0.3984375
vt 0.2460938 0.4257813
vt 0.9570313 0.2070313
vt 0.9570313 0.234375
vt 0.9296875 0.234375
vt 0.8476563 0.1796875
vt 0.875 0.1523438
vt 0.9023438 0.1523438
vt 0.1914063 0.3710938
vt 0.21875 0.3710938
vt 0.2460938 0.3710938
vt 0.9570313 0.1796875
vt 0.8476563 0.1523438
vt 0.875 0.125
vt 0.9023438 0.125
vt 0.1914063 0.34375
vt 0.21875 0.34375
vt 0.2460938 0.34375
vt 0.9296875 0.1523438
vt 0.9570313 0.1523438
vt 0.1914063 0.3164063
vt 0.21875 0.3164063
vt 0.2460938 0.3164063
vt 0.9296875 0.125

# Normal
vn 0 0 -1

# Mesh description
g escenaNorte_2_mesh_0124

# Faces
f 1/1/1 2/2/1 3/3/1 4/4/1
f 5/2/1 6/5/1 7/6/1 8/3/1
f 9/1/1 10/2/1 11/3/1 12/4/1
f 13/2/1 14/5/1 15/6/1 16/3/1
f 17/1/1 18/2/1 19/3/1 20/4/1
f 21/2/1 22/5/1 23/6/1 24/3/1
f 25/1/1 26/2/1 27/3/1 28/4/1
f 29/2/1 30/5/1 31/6/1 32/3/1
f 33/7/1 34/8/1 35/2/1 36/1/1
f 37/8/1 38/9/1 39/5/1 40/2/1
f 41/7/1 42/8/1 43/2/1 44/1/1
f 45/8/1 46/9/1 47/5/1 48/2/1
f 49/7/1 50/8/1 51/2/1 52/1/1
f 53/8/1 54/9/1 55/5/1 56/2/1
f 57/7/1 58/8/1 59/2/1 60/1/1
f 61/8/1 62/9/1 63/5/1 64/2/1
f 65/10/1 66/11/1 67/12/1 68/13/1
f 69/10/1 70/11/1 71/12/1 72/13/1
f 73/10/1 74/11/1 75/12/1 76/13/1
f 77/10/1 78/11/1 79/12/1 80/13/1
f 81/10/1 82/11/1 83/12/1 84/13/1
f 85/10/1 86/11/1 87/12/1 88/13/1
f 89/10/1 90/11/1 91/12/1 92/13/1
f 93/10/1 94/11/1 95/12/1 96/13/1
f 97/10/1 98/11/1 99/12/1 100/13/1
f 101/10/1 102/11/1 103/12/1 104/13/1
f 105/10/1 106/11/1 107/12/1 108/13/1
f 109/10/1 110/11/1 111/12/1 112/13/1
f 113/14/1 114/15/1 115/16/1 116/17/1
f 117/10/1 118/11/1 119/12/1 120/13/1
f 121/10/1 122/11/1 123/12/1 124/13/1
f 125/10/1 126/11/1 127/12/1 128/13/1
f 129/18/1 130/19/1 131/20/1 132/21/1
f 133/19/1 134/22/1 135/23/1 136/20/1
f 137/22/1 138/24/1 139/25/1 140/23/1
f 141/10/1 142/11/1 143/12/1 144/13/1
f 145/26/1 146/27/1 147/15/1 148/14/1
f 149/18/1 150/19/1 151/20/1 152/21/1
f 153/19/1 154/22/1 155/23/1 156/20/1
f 157/22/1 158/24/1 159/25/1 160/23/1
f 161/28/1 162/29/1 163/30/1 164/31/1
f 165/32/1 166/33/1 167/34/1 168/29/1
f 169/32/1 170/33/1 171/34/1 172/29/1
f 173/33/1 174/35/1 175/36/1 176/34/1
f 177/32/1 178/33/1 179/34/1 180/29/1
f 181/37/1 182/38/1 183/39/1 184/40/1
f 185/38/1 186/41/1 187/42/1 188/39/1
f 189/36/1 190/43/1 191/44/1 192/45/1
f 193/46/1 194/32/1 195/29/1 196/28/1
f 197/47/1 198/48/1 199/33/1 200/32/1
f 201/32/1 202/33/1 203/34/1 204/29/1
f 205/33/1 206/35/1 207/36/1 208/34/1
f 209/47/1 210/48/1 211/33/1 212/32/1
f 213/49/1 214/50/1 215/38/1 216/37/1
f 217/50/1 218/51/1 219/41/1 220/38/1
f 221/35/1 222/52/1 223/43/1 224/36/1
f 225/53/1 226/47/1 227/32/1 228/46/1
f 229/54/1 230/55/1 231/48/1 232/47/1
f 233/32/1 234/33/1 235/34/1 236/29/1
f 237/33/1 238/35/1 239/36/1 240/34/1
f 241/54/1 242/55/1 243/48/1 244/47/1
f 245/56/1 246/57/1 247/50/1 248/49/1
f 249/57/1 250/58/1 251/51/1 252/50/1
f 253/59/1 254/60/1 255/52/1 256/35/1
f 257/53/1 258/47/1 259/32/1 260/46/1
f 261/54/1 262/55/1 263/48/1 264/47/1
f 265/32/1 266/33/1 267/34/1 268/29/1
f 269/32/1 270/33/1 271/34/1 272/29/1
f 273/33/1 274/35/1 275/36/1 276/34/1
f 277/61/1 278/62/1 279/57/1 280/56/1
f 281/62/1 282/63/1 283/58/1 284/57/1
f 285/59/1 286/60/1 287/52/1 288/35/1
f 289/53/1 290/47/1 291/32/1 292/46/1
f 293/54/1 294/55/1 295/48/1 296/47/1
f 297/47/1 298/48/1 299/33/1 300/32/1
f 301/32/1 302/33/1 303/34/1 304/29/1
f 305/33/1 306/35/1 307/36/1 308/34/1
f 309/47/1 310/48/1 311/33/1 312/32/1
f 313/48/1 314/59/1 315/35/1 316/33/1
f 317/59/1 318/60/1 319/52/1 320/35/1
f 321/53/1 322/47/1 323/32/1 324/46/1
f 325/47/1 326/48/1 327/33/1 328/32/1
f 329/32/1 330/33/1 331/34/1 332/29/1
f 333/33/1 334/35/1 335/36/1 336/34/1
f 337/33/1 338/35/1 339/36/1 340/34/1
f 341/54/1 342/55/1 343/48/1 344/47/1
f 345/55/1 346/64/1 347/59/1 348/48/1
f 349/59/1 350/60/1 351/52/1 352/35/1
f 353/53/1 354/47/1 355/32/1 356/46/1
f 357/54/1 358/55/1 359/48/1 360/47/1
f 361/32/1 362/33/1 363/34/1 364/29/1
f 365/33/1 366/35/1 367/36/1 368/34/1
f 369/48/1 370/59/1 371/35/1 372/33/1
f 373/54/1 374/55/1 375/48/1 376/47/1
f 377/55/1 378/64/1 379/59/1 380/48/1
f 381/59/1 382/60/1 383/52/1 384/35/1
f 385/53/1 386/47/1 387/32/1 388/46/1
f 389/54/1 390/55/1 391/48/1 392/47/1
f 393/32/1 394/33/1 395/34/1 396/29/1
f 397/32/1 398/33/1 399/34/1 400/29/1
f 401/32/1 402/33/1 403/34/1 404/29/1
f 405/54/1 406/55/1 407/48/1 408/47/1
f 409/55/1 410/64/1 411/59/1 412/48/1
f 413/59/1 414/60/1 415/52/1 416/35/1

