# Tiled2Unity generated file. Do not modify by hand.
# Wavefront file for 'escenaNorte_2_mesh_0157.obj'

# Vertices (Count = 192)
v -1 -1 0
v -2 -1 0
v -2 0 0
v -1 0 0
v -2 -1 0
v -3 -1 0
v -3 0 0
v -2 0 0
v -3 -1 0
v -4 -1 0
v -4 0 0
v -3 0 0
v -4 -1 0
v -5 -1 0
v -5 0 0
v -4 0 0
v -5 -1 0
v -6 -1 0
v -6 0 0
v -5 0 0
v -6 -1 0
v -7 -1 0
v -7 0 0
v -6 0 0
v -7 -1 0
v -8 -1 0
v -8 0 0
v -7 0 0
v -8 -1 0
v -9 -1 0
v -9 0 0
v -8 0 0
v -1 -2 0
v -2 -2 0
v -2 -1 0
v -1 -1 0
v -2 -2 0
v -3 -2 0
v -3 -1 0
v -2 -1 0
v -3 -2 0
v -4 -2 0
v -4 -1 0
v -3 -1 0
v -4 -2 0
v -5 -2 0
v -5 -1 0
v -4 -1 0
v -5 -2 0
v -6 -2 0
v -6 -1 0
v -5 -1 0
v -6 -2 0
v -7 -2 0
v -7 -1 0
v -6 -1 0
v -7 -2 0
v -8 -2 0
v -8 -1 0
v -7 -1 0
v -8 -2 0
v -9 -2 0
v -9 -1 0
v -8 -1 0
v -1 -3 0
v -2 -3 0
v -2 -2 0
v -1 -2 0
v -2 -3 0
v -3 -3 0
v -3 -2 0
v -2 -2 0
v -3 -3 0
v -4 -3 0
v -4 -2 0
v -3 -2 0
v -4 -3 0
v -5 -3 0
v -5 -2 0
v -4 -2 0
v -5 -3 0
v -6 -3 0
v -6 -2 0
v -5 -2 0
v -6 -3 0
v -7 -3 0
v -7 -2 0
v -6 -2 0
v -7 -3 0
v -8 -3 0
v -8 -2 0
v -7 -2 0
v -8 -3 0
v -9 -3 0
v -9 -2 0
v -8 -2 0
v -1 -4 0
v -2 -4 0
v -2 -3 0
v -1 -3 0
v -2 -4 0
v -3 -4 0
v -3 -3 0
v -2 -3 0
v -3 -4 0
v -4 -4 0
v -4 -3 0
v -3 -3 0
v -4 -4 0
v -5 -4 0
v -5 -3 0
v -4 -3 0
v -5 -4 0
v -6 -4 0
v -6 -3 0
v -5 -3 0
v -6 -4 0
v -7 -4 0
v -7 -3 0
v -6 -3 0
v -7 -4 0
v -8 -4 0
v -8 -3 0
v -7 -3 0
v -8 -4 0
v -9 -4 0
v -9 -3 0
v -8 -3 0
v -1 -5 0
v -2 -5 0
v -2 -4 0
v -1 -4 0
v -2 -5 0
v -3 -5 0
v -3 -4 0
v -2 -4 0
v -3 -5 0
v -4 -5 0
v -4 -4 0
v -3 -4 0
v -4 -5 0
v -5 -5 0
v -5 -4 0
v -4 -4 0
v -5 -5 0
v -6 -5 0
v -6 -4 0
v -5 -4 0
v -6 -5 0
v -7 -5 0
v -7 -4 0
v -6 -4 0
v -7 -5 0
v -8 -5 0
v -8 -4 0
v -7 -4 0
v -8 -5 0
v -9 -5 0
v -9 -4 0
v -8 -4 0
v -1 -6 0
v -2 -6 0
v -2 -5 0
v -1 -5 0
v -2 -6 0
v -3 -6 0
v -3 -5 0
v -2 -5 0
v -3 -6 0
v -4 -6 0
v -4 -5 0
v -3 -5 0
v -4 -6 0
v -5 -6 0
v -5 -5 0
v -4 -5 0
v -5 -6 0
v -6 -6 0
v -6 -5 0
v -5 -5 0
v -6 -6 0
v -7 -6 0
v -7 -5 0
v -6 -5 0
v -7 -6 0
v -8 -6 0
v -8 -5 0
v -7 -5 0
v -8 -6 0
v -9 -6 0
v -9 -5 0
v -8 -5 0

# Texture cooridinates (Count = 23)
vt 0.8476563 0.1523438
vt 0.875 0.1523438
vt 0.875 0.1796875
vt 0.8476563 0.1796875
vt 0.875 0.125
vt 0.9023438 0.125
vt 0.9023438 0.1523438
vt 0.9023438 0.1796875
vt 0.9023438 0.2070313
vt 0.875 0.2070313
vt 0.9296875 0.125
vt 0.9296875 0.1523438
vt 0.9570313 0.1523438
vt 0.9570313 0.1796875
vt 0.9296875 0.1796875
vt 0.8476563 0.2070313
vt 0.8476563 0.125
vt 0.9570313 0.125
vt 0.8476563 0.09765625
vt 0.875 0.09765625
vt 0.9023438 0.09765625
vt 0.9296875 0.09765625
vt 0.9570313 0.09765625

# Normal
vn 0 0 -1

# Mesh description
g escenaNorte_2_mesh_0157

# Faces
f 1/1/1 2/2/1 3/3/1 4/4/1
f 5/5/1 6/6/1 7/7/1 8/2/1
f 9/2/1 10/7/1 11/8/1 12/3/1
f 13/3/1 14/8/1 15/9/1 16/10/1
f 17/2/1 18/7/1 19/8/1 20/3/1
f 21/5/1 22/6/1 23/7/1 24/2/1
f 25/6/1 26/11/1 27/12/1 28/7/1
f 29/12/1 30/13/1 31/14/1 32/15/1
f 33/1/1 34/2/1 35/3/1 36/4/1
f 37/5/1 38/6/1 39/7/1 40/2/1
f 41/5/1 42/6/1 43/7/1 44/2/1
f 45/3/1 46/8/1 47/9/1 48/10/1
f 49/5/1 50/6/1 51/7/1 52/2/1
f 53/6/1 54/11/1 55/12/1 56/7/1
f 57/7/1 58/12/1 59/15/1 60/8/1
f 61/12/1 62/13/1 63/14/1 64/15/1
f 65/4/1 66/3/1 67/10/1 68/16/1
f 69/5/1 70/6/1 71/7/1 72/2/1
f 73/6/1 74/11/1 75/12/1 76/7/1
f 77/2/1 78/7/1 79/8/1 80/3/1
f 81/5/1 82/6/1 83/7/1 84/2/1
f 85/6/1 86/11/1 87/12/1 88/7/1
f 89/6/1 90/11/1 91/12/1 92/7/1
f 93/12/1 94/13/1 95/14/1 96/15/1
f 97/1/1 98/2/1 99/3/1 100/4/1
f 101/5/1 102/6/1 103/7/1 104/2/1
f 105/6/1 106/11/1 107/12/1 108/7/1
f 109/5/1 110/6/1 111/7/1 112/2/1
f 113/5/1 114/6/1 115/7/1 116/2/1
f 117/5/1 118/6/1 119/7/1 120/2/1
f 121/6/1 122/11/1 123/12/1 124/7/1
f 125/12/1 126/13/1 127/14/1 128/15/1
f 129/17/1 130/5/1 131/2/1 132/1/1
f 133/5/1 134/6/1 135/7/1 136/2/1
f 137/5/1 138/6/1 139/7/1 140/2/1
f 141/5/1 142/6/1 143/7/1 144/2/1
f 145/6/1 146/11/1 147/12/1 148/7/1
f 149/5/1 150/6/1 151/7/1 152/2/1
f 153/6/1 154/11/1 155/12/1 156/7/1
f 157/11/1 158/18/1 159/13/1 160/12/1
f 161/19/1 162/20/1 163/5/1 164/17/1
f 165/20/1 166/21/1 167/6/1 168/5/1
f 169/20/1 170/21/1 171/6/1 172/5/1
f 173/20/1 174/21/1 175/6/1 176/5/1
f 177/21/1 178/22/1 179/11/1 180/6/1
f 181/20/1 182/21/1 183/6/1 184/5/1
f 185/21/1 186/22/1 187/11/1 188/6/1
f 189/22/1 190/23/1 191/18/1 192/11/1

