# Tiled2Unity generated file. Do not modify by hand.
# Wavefront file for 'escenaNorte_2_mesh_0100.obj'

# Vertices (Count = 128)
v 0 -14 0
v -1 -14 0
v -1 -13 0
v 0 -13 0
v -1 -14 0
v -2 -14 0
v -2 -13 0
v -1 -13 0
v -2 -14 0
v -3 -14 0
v -3 -13 0
v -2 -13 0
v -3 -14 0
v -4 -14 0
v -4 -13 0
v -3 -13 0
v -4 -14 0
v -5 -14 0
v -5 -13 0
v -4 -13 0
v -5 -14 0
v -6 -14 0
v -6 -13 0
v -5 -13 0
v -6 -14 0
v -7 -14 0
v -7 -13 0
v -6 -13 0
v -7 -14 0
v -8 -14 0
v -8 -13 0
v -7 -13 0
v -8 -14 0
v -9 -14 0
v -9 -13 0
v -8 -13 0
v -9 -14 0
v -10 -14 0
v -10 -13 0
v -9 -13 0
v -10 -14 0
v -11 -14 0
v -11 -13 0
v -10 -13 0
v -11 -14 0
v -12 -14 0
v -12 -13 0
v -11 -13 0
v -12 -14 0
v -13 -14 0
v -13 -13 0
v -12 -13 0
v -13 -14 0
v -14 -14 0
v -14 -13 0
v -13 -13 0
v -14 -14 0
v -15 -14 0
v -15 -13 0
v -14 -13 0
v -15 -14 0
v -16 -14 0
v -16 -13 0
v -15 -13 0
v 0 -15 0
v -1 -15 0
v -1 -14 0
v 0 -14 0
v -1 -15 0
v -2 -15 0
v -2 -14 0
v -1 -14 0
v -2 -15 0
v -3 -15 0
v -3 -14 0
v -2 -14 0
v -3 -15 0
v -4 -15 0
v -4 -14 0
v -3 -14 0
v -4 -15 0
v -5 -15 0
v -5 -14 0
v -4 -14 0
v -5 -15 0
v -6 -15 0
v -6 -14 0
v -5 -14 0
v -6 -15 0
v -7 -15 0
v -7 -14 0
v -6 -14 0
v -7 -15 0
v -8 -15 0
v -8 -14 0
v -7 -14 0
v -8 -15 0
v -9 -15 0
v -9 -14 0
v -8 -14 0
v -9 -15 0
v -10 -15 0
v -10 -14 0
v -9 -14 0
v -10 -15 0
v -11 -15 0
v -11 -14 0
v -10 -14 0
v -11 -15 0
v -12 -15 0
v -12 -14 0
v -11 -14 0
v -12 -15 0
v -13 -15 0
v -13 -14 0
v -12 -14 0
v -13 -15 0
v -14 -15 0
v -14 -14 0
v -13 -14 0
v -14 -15 0
v -15 -15 0
v -15 -14 0
v -14 -14 0
v -15 -15 0
v -16 -15 0
v -16 -14 0
v -15 -14 0

# Texture cooridinates (Count = 16)
vt 0.328125 0.015625
vt 0.65625 0.015625
vt 0.65625 0.34375
vt 0.328125 0.34375
vt 0.328125 0.671875
vt 0.65625 0.671875
vt 0.65625 1
vt 0.328125 1
vt 0.984375 0.015625
vt 0.984375 0.34375
vt 0.984375 0.671875
vt 0 0.671875
vt 0 1
vt 0.984375 1
vt 0 0.015625
vt 0 0.34375

# Normal
vn 0 0 -1

# Mesh description
g escenaNorte_2_mesh_0100

# Faces
f 1/1/1 2/2/1 3/3/1 4/4/1
f 5/5/1 6/6/1 7/7/1 8/8/1
f 9/2/1 10/9/1 11/10/1 12/3/1
f 13/3/1 14/10/1 15/11/1 16/6/1
f 17/12/1 18/5/1 19/8/1 20/13/1
f 21/12/1 22/5/1 23/8/1 24/13/1
f 25/4/1 26/3/1 27/6/1 28/5/1
f 29/3/1 30/10/1 31/11/1 32/6/1
f 33/6/1 34/11/1 35/14/1 36/7/1
f 37/1/1 38/2/1 39/3/1 40/4/1
f 41/15/1 42/1/1 43/4/1 44/16/1
f 45/12/1 46/5/1 47/8/1 48/13/1
f 49/16/1 50/4/1 51/5/1 52/12/1
f 53/3/1 54/10/1 55/11/1 56/6/1
f 57/5/1 58/6/1 59/7/1 60/8/1
f 61/5/1 62/6/1 63/7/1 64/8/1
f 65/2/1 66/9/1 67/10/1 68/3/1
f 69/15/1 70/1/1 71/4/1 72/16/1
f 73/1/1 74/2/1 75/3/1 76/4/1
f 77/12/1 78/5/1 79/8/1 80/13/1
f 81/1/1 82/2/1 83/3/1 84/4/1
f 85/12/1 86/5/1 87/8/1 88/13/1
f 89/6/1 90/11/1 91/14/1 92/7/1
f 93/6/1 94/11/1 95/14/1 96/7/1
f 97/3/1 98/10/1 99/11/1 100/6/1
f 101/6/1 102/11/1 103/14/1 104/7/1
f 105/12/1 106/5/1 107/8/1 108/13/1
f 109/15/1 110/1/1 111/4/1 112/16/1
f 113/6/1 114/11/1 115/14/1 116/7/1
f 117/12/1 118/5/1 119/8/1 120/13/1
f 121/4/1 122/3/1 123/6/1 124/5/1
f 125/1/1 126/2/1 127/3/1 128/4/1

