# Tiled2Unity generated file. Do not modify by hand.
# Wavefront file for 'escenaNorte_2_mesh_0136.obj'

# Vertices (Count = 476)
v -8 -1 0
v -9 -1 0
v -9 0 0
v -8 0 0
v -9 -1 0
v -10 -1 0
v -10 0 0
v -9 0 0
v -10 -1 0
v -11 -1 0
v -11 0 0
v -10 0 0
v -11 -1 0
v -12 -1 0
v -12 0 0
v -11 0 0
v -12 -1 0
v -13 -1 0
v -13 0 0
v -12 0 0
v -13 -1 0
v -14 -1 0
v -14 0 0
v -13 0 0
v -14 -1 0
v -15 -1 0
v -15 0 0
v -14 0 0
v -15 -1 0
v -16 -1 0
v -16 0 0
v -15 0 0
v -8 -2 0
v -9 -2 0
v -9 -1 0
v -8 -1 0
v -9 -2 0
v -10 -2 0
v -10 -1 0
v -9 -1 0
v -10 -2 0
v -11 -2 0
v -11 -1 0
v -10 -1 0
v -11 -2 0
v -12 -2 0
v -12 -1 0
v -11 -1 0
v -12 -2 0
v -13 -2 0
v -13 -1 0
v -12 -1 0
v -13 -2 0
v -14 -2 0
v -14 -1 0
v -13 -1 0
v -14 -2 0
v -15 -2 0
v -15 -1 0
v -14 -1 0
v -15 -2 0
v -16 -2 0
v -16 -1 0
v -15 -1 0
v -8 -3 0
v -9 -3 0
v -9 -2 0
v -8 -2 0
v -9 -3 0
v -10 -3 0
v -10 -2 0
v -9 -2 0
v -10 -3 0
v -11 -3 0
v -11 -2 0
v -10 -2 0
v -11 -3 0
v -12 -3 0
v -12 -2 0
v -11 -2 0
v -12 -3 0
v -13 -3 0
v -13 -2 0
v -12 -2 0
v -13 -3 0
v -14 -3 0
v -14 -2 0
v -13 -2 0
v -14 -3 0
v -15 -3 0
v -15 -2 0
v -14 -2 0
v -15 -3 0
v -16 -3 0
v -16 -2 0
v -15 -2 0
v -8 -4 0
v -9 -4 0
v -9 -3 0
v -8 -3 0
v -9 -4 0
v -10 -4 0
v -10 -3 0
v -9 -3 0
v -10 -4 0
v -11 -4 0
v -11 -3 0
v -10 -3 0
v -11 -4 0
v -12 -4 0
v -12 -3 0
v -11 -3 0
v -12 -4 0
v -13 -4 0
v -13 -3 0
v -12 -3 0
v -13 -4 0
v -14 -4 0
v -14 -3 0
v -13 -3 0
v -14 -4 0
v -15 -4 0
v -15 -3 0
v -14 -3 0
v -15 -4 0
v -16 -4 0
v -16 -3 0
v -15 -3 0
v -8 -5 0
v -9 -5 0
v -9 -4 0
v -8 -4 0
v -9 -5 0
v -10 -5 0
v -10 -4 0
v -9 -4 0
v -10 -5 0
v -11 -5 0
v -11 -4 0
v -10 -4 0
v -11 -5 0
v -12 -5 0
v -12 -4 0
v -11 -4 0
v -12 -5 0
v -13 -5 0
v -13 -4 0
v -12 -4 0
v -13 -5 0
v -14 -5 0
v -14 -4 0
v -13 -4 0
v -14 -5 0
v -15 -5 0
v -15 -4 0
v -14 -4 0
v -15 -5 0
v -16 -5 0
v -16 -4 0
v -15 -4 0
v -8 -6 0
v -9 -6 0
v -9 -5 0
v -8 -5 0
v -9 -6 0
v -10 -6 0
v -10 -5 0
v -9 -5 0
v -10 -6 0
v -11 -6 0
v -11 -5 0
v -10 -5 0
v -11 -6 0
v -12 -6 0
v -12 -5 0
v -11 -5 0
v -12 -6 0
v -13 -6 0
v -13 -5 0
v -12 -5 0
v -13 -6 0
v -14 -6 0
v -14 -5 0
v -13 -5 0
v -14 -6 0
v -15 -6 0
v -15 -5 0
v -14 -5 0
v -15 -6 0
v -16 -6 0
v -16 -5 0
v -15 -5 0
v -8 -7 0
v -9 -7 0
v -9 -6 0
v -8 -6 0
v -9 -7 0
v -10 -7 0
v -10 -6 0
v -9 -6 0
v -10 -7 0
v -11 -7 0
v -11 -6 0
v -10 -6 0
v -11 -7 0
v -12 -7 0
v -12 -6 0
v -11 -6 0
v -12 -7 0
v -13 -7 0
v -13 -6 0
v -12 -6 0
v -13 -7 0
v -14 -7 0
v -14 -6 0
v -13 -6 0
v -14 -7 0
v -15 -7 0
v -15 -6 0
v -14 -6 0
v -15 -7 0
v -16 -7 0
v -16 -6 0
v -15 -6 0
v -8 -8 0
v -9 -8 0
v -9 -7 0
v -8 -7 0
v -9 -8 0
v -10 -8 0
v -10 -7 0
v -9 -7 0
v -10 -8 0
v -11 -8 0
v -11 -7 0
v -10 -7 0
v -11 -8 0
v -12 -8 0
v -12 -7 0
v -11 -7 0
v -12 -8 0
v -13 -8 0
v -13 -7 0
v -12 -7 0
v -13 -8 0
v -14 -8 0
v -14 -7 0
v -13 -7 0
v -14 -8 0
v -15 -8 0
v -15 -7 0
v -14 -7 0
v -15 -8 0
v -16 -8 0
v -16 -7 0
v -15 -7 0
v 0 -9 0
v -1 -9 0
v -1 -8 0
v 0 -8 0
v -1 -9 0
v -2 -9 0
v -2 -8 0
v -1 -8 0
v -2 -9 0
v -3 -9 0
v -3 -8 0
v -2 -8 0
v -3 -9 0
v -4 -9 0
v -4 -8 0
v -3 -8 0
v -4 -9 0
v -5 -9 0
v -5 -8 0
v -4 -8 0
v -8 -9 0
v -9 -9 0
v -9 -8 0
v -8 -8 0
v -9 -9 0
v -10 -9 0
v -10 -8 0
v -9 -8 0
v -10 -9 0
v -11 -9 0
v -11 -8 0
v -10 -8 0
v -11 -9 0
v -12 -9 0
v -12 -8 0
v -11 -8 0
v -12 -9 0
v -13 -9 0
v -13 -8 0
v -12 -8 0
v -13 -9 0
v -14 -9 0
v -14 -8 0
v -13 -8 0
v -14 -9 0
v -15 -9 0
v -15 -8 0
v -14 -8 0
v -15 -9 0
v -16 -9 0
v -16 -8 0
v -15 -8 0
v 0 -10 0
v -1 -10 0
v -1 -9 0
v 0 -9 0
v -1 -10 0
v -2 -10 0
v -2 -9 0
v -1 -9 0
v -2 -10 0
v -3 -10 0
v -3 -9 0
v -2 -9 0
v -3 -10 0
v -4 -10 0
v -4 -9 0
v -3 -9 0
v -4 -10 0
v -5 -10 0
v -5 -9 0
v -4 -9 0
v -8 -10 0
v -9 -10 0
v -9 -9 0
v -8 -9 0
v -9 -10 0
v -10 -10 0
v -10 -9 0
v -9 -9 0
v -10 -10 0
v -11 -10 0
v -11 -9 0
v -10 -9 0
v -11 -10 0
v -12 -10 0
v -12 -9 0
v -11 -9 0
v -12 -10 0
v -13 -10 0
v -13 -9 0
v -12 -9 0
v -13 -10 0
v -14 -10 0
v -14 -9 0
v -13 -9 0
v -14 -10 0
v -15 -10 0
v -15 -9 0
v -14 -9 0
v -15 -10 0
v -16 -10 0
v -16 -9 0
v -15 -9 0
v 0 -11 0
v -1 -11 0
v -1 -10 0
v 0 -10 0
v -1 -11 0
v -2 -11 0
v -2 -10 0
v -1 -10 0
v -2 -11 0
v -3 -11 0
v -3 -10 0
v -2 -10 0
v -3 -11 0
v -4 -11 0
v -4 -10 0
v -3 -10 0
v -4 -11 0
v -5 -11 0
v -5 -10 0
v -4 -10 0
v -8 -11 0
v -9 -11 0
v -9 -10 0
v -8 -10 0
v -9 -11 0
v -10 -11 0
v -10 -10 0
v -9 -10 0
v -10 -11 0
v -11 -11 0
v -11 -10 0
v -10 -10 0
v -11 -11 0
v -12 -11 0
v -12 -10 0
v -11 -10 0
v -12 -11 0
v -13 -11 0
v -13 -10 0
v -12 -10 0
v -13 -11 0
v -14 -11 0
v -14 -10 0
v -13 -10 0
v -14 -11 0
v -15 -11 0
v -15 -10 0
v -14 -10 0
v -15 -11 0
v -16 -11 0
v -16 -10 0
v -15 -10 0
v -8 -12 0
v -9 -12 0
v -9 -11 0
v -8 -11 0
v -9 -12 0
v -10 -12 0
v -10 -11 0
v -9 -11 0
v -10 -12 0
v -11 -12 0
v -11 -11 0
v -10 -11 0
v -11 -12 0
v -12 -12 0
v -12 -11 0
v -11 -11 0
v -12 -12 0
v -13 -12 0
v -13 -11 0
v -12 -11 0
v -13 -12 0
v -14 -12 0
v -14 -11 0
v -13 -11 0
v -14 -12 0
v -15 -12 0
v -15 -11 0
v -14 -11 0
v -15 -12 0
v -16 -12 0
v -16 -11 0
v -15 -11 0
v -10 -15 0
v -11 -15 0
v -11 -14 0
v -10 -14 0
v -11 -15 0
v -12 -15 0
v -12 -14 0
v -11 -14 0
v -12 -15 0
v -13 -15 0
v -13 -14 0
v -12 -14 0
v -13 -15 0
v -14 -15 0
v -14 -14 0
v -13 -14 0
v -10 -16 0
v -11 -16 0
v -11 -15 0
v -10 -15 0
v -11 -16 0
v -12 -16 0
v -12 -15 0
v -11 -15 0
v -12 -16 0
v -13 -16 0
v -13 -15 0
v -12 -15 0
v -13 -16 0
v -14 -16 0
v -14 -15 0
v -13 -15 0

# Texture cooridinates (Count = 44)
vt 0.7109375 0.890625
vt 0.7382813 0.890625
vt 0.7382813 0.9179688
vt 0.7109375 0.9179688
vt 0.765625 0.890625
vt 0.765625 0.9179688
vt 0.765625 0.9453125
vt 0.7929688 0.9453125
vt 0.7929688 0.9726563
vt 0.765625 0.9726563
vt 0.7929688 0.9179688
vt 0.8203125 0.9453125
vt 0.8476563 0.9453125
vt 0.8476563 0.9726563
vt 0.8203125 0.9726563
vt 0.7109375 0.9453125
vt 0.7382813 0.9453125
vt 0.7382813 0.9726563
vt 0.7109375 0.9726563
vt 0.7929688 0.890625
vt 0.8203125 0.890625
vt 0.8203125 0.9179688
vt 0.8476563 0.9179688
vt 0.765625 0.8632813
vt 0.7929688 0.8632813
vt 0.8203125 0.8632813
vt 0.8476563 0.890625
vt 0.765625 0.8359375
vt 0.7929688 0.8359375
vt 0.8203125 0.8359375
vt 0.7109375 0.8632813
vt 0.7382813 0.8632813
vt 0.8476563 0.8632813
vt 0.8476563 0.8359375
vt 0.3828125 0.5351563
vt 0.4101563 0.5351563
vt 0.4101563 0.5625
vt 0.3828125 0.5625
vt 0.4375 0.5351563
vt 0.4375 0.5625
vt 0.4648438 0.5351563
vt 0.4648438 0.5625
vt 0.4921875 0.5351563
vt 0.4921875 0.5625

# Normal
vn 0 0 -1

# Mesh description
g escenaNorte_2_mesh_0136

# Faces
f 1/1/1 2/2/1 3/3/1 4/4/1
f 5/2/1 6/5/1 7/6/1 8/3/1
f 9/7/1 10/8/1 11/9/1 12/10/1
f 13/6/1 14/11/1 15/8/1 16/7/1
f 17/7/1 18/8/1 19/9/1 20/10/1
f 21/7/1 22/8/1 23/9/1 24/10/1
f 25/6/1 26/11/1 27/8/1 28/7/1
f 29/12/1 30/13/1 31/14/1 32/15/1
f 33/16/1 34/17/1 35/18/1 36/19/1
f 37/17/1 38/7/1 39/10/1 40/18/1
f 41/7/1 42/8/1 43/9/1 44/10/1
f 45/7/1 46/8/1 47/9/1 48/10/1
f 49/7/1 50/8/1 51/9/1 52/10/1
f 53/7/1 54/8/1 55/9/1 56/10/1
f 57/7/1 58/8/1 59/9/1 60/10/1
f 61/12/1 62/13/1 63/14/1 64/15/1
f 65/16/1 66/17/1 67/18/1 68/19/1
f 69/17/1 70/7/1 71/10/1 72/18/1
f 73/7/1 74/8/1 75/9/1 76/10/1
f 77/7/1 78/8/1 79/9/1 80/10/1
f 81/7/1 82/8/1 83/9/1 84/10/1
f 85/7/1 86/8/1 87/9/1 88/10/1
f 89/6/1 90/11/1 91/8/1 92/7/1
f 93/12/1 94/13/1 95/14/1 96/15/1
f 97/4/1 98/3/1 99/17/1 100/16/1
f 101/3/1 102/6/1 103/7/1 104/17/1
f 105/7/1 106/8/1 107/9/1 108/10/1
f 109/7/1 110/8/1 111/9/1 112/10/1
f 113/6/1 114/11/1 115/8/1 116/7/1
f 117/6/1 118/11/1 119/8/1 120/7/1
f 121/5/1 122/20/1 123/11/1 124/6/1
f 125/12/1 126/13/1 127/14/1 128/15/1
f 129/1/1 130/2/1 131/3/1 132/4/1
f 133/2/1 134/5/1 135/6/1 136/3/1
f 137/6/1 138/11/1 139/8/1 140/7/1
f 141/7/1 142/8/1 143/9/1 144/10/1
f 145/7/1 146/8/1 147/9/1 148/10/1
f 149/7/1 150/8/1 151/9/1 152/10/1
f 153/5/1 154/20/1 155/11/1 156/6/1
f 157/12/1 158/13/1 159/14/1 160/15/1
f 161/1/1 162/2/1 163/3/1 164/4/1
f 165/2/1 166/5/1 167/6/1 168/3/1
f 169/7/1 170/8/1 171/9/1 172/10/1
f 173/7/1 174/8/1 175/9/1 176/10/1
f 177/7/1 178/8/1 179/9/1 180/10/1
f 181/7/1 182/8/1 183/9/1 184/10/1
f 185/7/1 186/8/1 187/9/1 188/10/1
f 189/12/1 190/13/1 191/14/1 192/15/1
f 193/16/1 194/17/1 195/18/1 196/19/1
f 197/17/1 198/7/1 199/10/1 200/18/1
f 201/6/1 202/11/1 203/8/1 204/7/1
f 205/6/1 206/11/1 207/8/1 208/7/1
f 209/7/1 210/8/1 211/9/1 212/10/1
f 213/7/1 214/8/1 215/9/1 216/10/1
f 217/6/1 218/11/1 219/8/1 220/7/1
f 221/12/1 222/13/1 223/14/1 224/15/1
f 225/4/1 226/3/1 227/17/1 228/16/1
f 229/3/1 230/6/1 231/7/1 232/17/1
f 233/5/1 234/20/1 235/11/1 236/6/1
f 237/5/1 238/20/1 239/11/1 240/6/1
f 241/6/1 242/11/1 243/8/1 244/7/1
f 245/6/1 246/11/1 247/8/1 248/7/1
f 249/5/1 250/20/1 251/11/1 252/6/1
f 253/12/1 254/13/1 255/14/1 256/15/1
f 257/5/1 258/20/1 259/11/1 260/6/1
f 261/5/1 262/20/1 263/11/1 264/6/1
f 265/5/1 266/20/1 267/11/1 268/6/1
f 269/5/1 270/20/1 271/11/1 272/6/1
f 273/20/1 274/21/1 275/22/1 276/11/1
f 277/1/1 278/2/1 279/3/1 280/4/1
f 281/2/1 282/5/1 283/6/1 284/3/1
f 285/6/1 286/11/1 287/8/1 288/7/1
f 289/6/1 290/11/1 291/8/1 292/7/1
f 293/5/1 294/20/1 295/11/1 296/6/1
f 297/5/1 298/20/1 299/11/1 300/6/1
f 301/5/1 302/20/1 303/11/1 304/6/1
f 305/22/1 306/23/1 307/13/1 308/12/1
f 309/24/1 310/25/1 311/20/1 312/5/1
f 313/24/1 314/25/1 315/20/1 316/5/1
f 317/24/1 318/25/1 319/20/1 320/5/1
f 321/24/1 322/25/1 323/20/1 324/5/1
f 325/25/1 326/26/1 327/21/1 328/20/1
f 329/1/1 330/2/1 331/3/1 332/4/1
f 333/2/1 334/5/1 335/6/1 336/3/1
f 337/5/1 338/20/1 339/11/1 340/6/1
f 341/5/1 342/20/1 343/11/1 344/6/1
f 345/5/1 346/20/1 347/11/1 348/6/1
f 349/5/1 350/20/1 351/11/1 352/6/1
f 353/5/1 354/20/1 355/11/1 356/6/1
f 357/21/1 358/27/1 359/23/1 360/22/1
f 361/28/1 362/29/1 363/25/1 364/24/1
f 365/28/1 366/29/1 367/25/1 368/24/1
f 369/28/1 370/29/1 371/25/1 372/24/1
f 373/28/1 374/29/1 375/25/1 376/24/1
f 377/29/1 378/30/1 379/26/1 380/25/1
f 381/31/1 382/32/1 383/2/1 384/1/1
f 385/32/1 386/24/1 387/5/1 388/2/1
f 389/24/1 390/25/1 391/20/1 392/5/1
f 393/24/1 394/25/1 395/20/1 396/5/1
f 397/24/1 398/25/1 399/20/1 400/5/1
f 401/24/1 402/25/1 403/20/1 404/5/1
f 405/24/1 406/25/1 407/20/1 408/5/1
f 409/26/1 410/33/1 411/27/1 412/21/1
f 413/28/1 414/29/1 415/25/1 416/24/1
f 417/28/1 418/29/1 419/25/1 420/24/1
f 421/28/1 422/29/1 423/25/1 424/24/1
f 425/28/1 426/29/1 427/25/1 428/24/1
f 429/28/1 430/29/1 431/25/1 432/24/1
f 433/28/1 434/29/1 435/25/1 436/24/1
f 437/28/1 438/29/1 439/25/1 440/24/1
f 441/30/1 442/34/1 443/33/1 444/26/1
f 445/35/1 446/36/1 447/37/1 448/38/1
f 449/36/1 450/39/1 451/40/1 452/37/1
f 453/39/1 454/41/1 455/42/1 456/40/1
f 457/41/1 458/43/1 459/44/1 460/42/1
f 461/38/1 462/37/1 463/36/1 464/35/1
f 465/37/1 466/40/1 467/39/1 468/36/1
f 469/40/1 470/42/1 471/41/1 472/39/1
f 473/42/1 474/44/1 475/43/1 476/41/1

