# Tiled2Unity generated file. Do not modify by hand.
# Wavefront file for 'escenaNorte_2_mesh_0164.obj'

# Vertices (Count = 160)
v -6 -4 0
v -7 -4 0
v -7 -3 0
v -6 -3 0
v -7 -4 0
v -8 -4 0
v -8 -3 0
v -7 -3 0
v -8 -4 0
v -9 -4 0
v -9 -3 0
v -8 -3 0
v -9 -4 0
v -10 -4 0
v -10 -3 0
v -9 -3 0
v -10 -4 0
v -11 -4 0
v -11 -3 0
v -10 -3 0
v -11 -4 0
v -12 -4 0
v -12 -3 0
v -11 -3 0
v -12 -4 0
v -13 -4 0
v -13 -3 0
v -12 -3 0
v -13 -4 0
v -14 -4 0
v -14 -3 0
v -13 -3 0
v -14 -4 0
v -15 -4 0
v -15 -3 0
v -14 -3 0
v -15 -4 0
v -16 -4 0
v -16 -3 0
v -15 -3 0
v -6 -5 0
v -7 -5 0
v -7 -4 0
v -6 -4 0
v -7 -5 0
v -8 -5 0
v -8 -4 0
v -7 -4 0
v -8 -5 0
v -9 -5 0
v -9 -4 0
v -8 -4 0
v -9 -5 0
v -10 -5 0
v -10 -4 0
v -9 -4 0
v -10 -5 0
v -11 -5 0
v -11 -4 0
v -10 -4 0
v -11 -5 0
v -12 -5 0
v -12 -4 0
v -11 -4 0
v -12 -5 0
v -13 -5 0
v -13 -4 0
v -12 -4 0
v -13 -5 0
v -14 -5 0
v -14 -4 0
v -13 -4 0
v -14 -5 0
v -15 -5 0
v -15 -4 0
v -14 -4 0
v -15 -5 0
v -16 -5 0
v -16 -4 0
v -15 -4 0
v -6 -6 0
v -7 -6 0
v -7 -5 0
v -6 -5 0
v -7 -6 0
v -8 -6 0
v -8 -5 0
v -7 -5 0
v -8 -6 0
v -9 -6 0
v -9 -5 0
v -8 -5 0
v -9 -6 0
v -10 -6 0
v -10 -5 0
v -9 -5 0
v -10 -6 0
v -11 -6 0
v -11 -5 0
v -10 -5 0
v -11 -6 0
v -12 -6 0
v -12 -5 0
v -11 -5 0
v -12 -6 0
v -13 -6 0
v -13 -5 0
v -12 -5 0
v -13 -6 0
v -14 -6 0
v -14 -5 0
v -13 -5 0
v -14 -6 0
v -15 -6 0
v -15 -5 0
v -14 -5 0
v -15 -6 0
v -16 -6 0
v -16 -5 0
v -15 -5 0
v -6 -7 0
v -7 -7 0
v -7 -6 0
v -6 -6 0
v -7 -7 0
v -8 -7 0
v -8 -6 0
v -7 -6 0
v -8 -7 0
v -9 -7 0
v -9 -6 0
v -8 -6 0
v -9 -7 0
v -10 -7 0
v -10 -6 0
v -9 -6 0
v -10 -7 0
v -11 -7 0
v -11 -6 0
v -10 -6 0
v -11 -7 0
v -12 -7 0
v -12 -6 0
v -11 -6 0
v -12 -7 0
v -13 -7 0
v -13 -6 0
v -12 -6 0
v -13 -7 0
v -14 -7 0
v -14 -6 0
v -13 -6 0
v -14 -7 0
v -15 -7 0
v -15 -6 0
v -14 -6 0
v -15 -7 0
v -16 -7 0
v -16 -6 0
v -15 -6 0

# Texture cooridinates (Count = 18)
vt 0.8476563 0.1796875
vt 0.875 0.1796875
vt 0.875 0.2070313
vt 0.8476563 0.2070313
vt 0.9023438 0.1796875
vt 0.9023438 0.2070313
vt 0.9296875 0.1796875
vt 0.9296875 0.2070313
vt 0.8476563 0.1523438
vt 0.875 0.1523438
vt 0.9023438 0.1523438
vt 0.9296875 0.1523438
vt 0.8476563 0.125
vt 0.875 0.125
vt 0.9023438 0.125
vt 0.8476563 0.09765625
vt 0.875 0.09765625
vt 0.9023438 0.09765625

# Normal
vn 0 0 -1

# Mesh description
g escenaNorte_2_mesh_0164

# Faces
f 1/1/1 2/2/1 3/3/1 4/4/1
f 5/2/1 6/5/1 7/6/1 8/3/1
f 9/5/1 10/7/1 11/8/1 12/6/1
f 13/2/1 14/5/1 15/6/1 16/3/1
f 17/2/1 18/5/1 19/6/1 20/3/1
f 21/2/1 22/5/1 23/6/1 24/3/1
f 25/2/1 26/5/1 27/6/1 28/3/1
f 29/2/1 30/5/1 31/6/1 32/3/1
f 33/2/1 34/5/1 35/6/1 36/3/1
f 37/2/1 38/5/1 39/6/1 40/3/1
f 41/9/1 42/10/1 43/2/1 44/1/1
f 45/10/1 46/11/1 47/5/1 48/2/1
f 49/11/1 50/12/1 51/7/1 52/5/1
f 53/10/1 54/11/1 55/5/1 56/2/1
f 57/10/1 58/11/1 59/5/1 60/2/1
f 61/10/1 62/11/1 63/5/1 64/2/1
f 65/10/1 66/11/1 67/5/1 68/2/1
f 69/10/1 70/11/1 71/5/1 72/2/1
f 73/10/1 74/11/1 75/5/1 76/2/1
f 77/10/1 78/11/1 79/5/1 80/2/1
f 81/13/1 82/14/1 83/10/1 84/9/1
f 85/14/1 86/15/1 87/11/1 88/10/1
f 89/10/1 90/11/1 91/5/1 92/2/1
f 93/11/1 94/12/1 95/7/1 96/5/1
f 97/11/1 98/12/1 99/7/1 100/5/1
f 101/11/1 102/12/1 103/7/1 104/5/1
f 105/11/1 106/12/1 107/7/1 108/5/1
f 109/11/1 110/12/1 111/7/1 112/5/1
f 113/11/1 114/12/1 115/7/1 116/5/1
f 117/11/1 118/12/1 119/7/1 120/5/1
f 121/16/1 122/17/1 123/14/1 124/13/1
f 125/17/1 126/18/1 127/15/1 128/14/1
f 129/17/1 130/18/1 131/15/1 132/14/1
f 133/17/1 134/18/1 135/15/1 136/14/1
f 137/17/1 138/18/1 139/15/1 140/14/1
f 141/17/1 142/18/1 143/15/1 144/14/1
f 145/17/1 146/18/1 147/15/1 148/14/1
f 149/17/1 150/18/1 151/15/1 152/14/1
f 153/17/1 154/18/1 155/15/1 156/14/1
f 157/17/1 158/18/1 159/15/1 160/14/1

