# Tiled2Unity generated file. Do not modify by hand.
# Wavefront file for 'escenaNorte_2_mesh_0222.obj'

# Vertices (Count = 44)
v -1 -6 0
v -2 -6 0
v -2 -5 0
v -1 -5 0
v -2 -6 0
v -3 -6 0
v -3 -5 0
v -2 -5 0
v -1 -7 0
v -2 -7 0
v -2 -6 0
v -1 -6 0
v -2 -7 0
v -3 -7 0
v -3 -6 0
v -2 -6 0
v -3 -8 0
v -4 -8 0
v -4 -7 0
v -3 -7 0
v -11 -8 0
v -12 -8 0
v -12 -7 0
v -11 -7 0
v -3 -9 0
v -4 -9 0
v -4 -8 0
v -3 -8 0
v -11 -9 0
v -12 -9 0
v -12 -8 0
v -11 -8 0
v -3 -10 0
v -4 -10 0
v -4 -9 0
v -3 -9 0
v -11 -10 0
v -12 -10 0
v -12 -9 0
v -11 -9 0
v -11 -11 0
v -12 -11 0
v -12 -10 0
v -11 -10 0

# Texture cooridinates (Count = 13)
vt 0 0.6445313
vt 0.02734375 0.6445313
vt 0.02734375 0.671875
vt 0 0.671875
vt 0.0546875 0.6445313
vt 0.0546875 0.671875
vt 0 0.6171875
vt 0.02734375 0.6171875
vt 0.0546875 0.6171875
vt 0.65625 0.3710938
vt 0.6835938 0.3710938
vt 0.6835938 0.3984375
vt 0.65625 0.3984375

# Normal
vn 0 0 -1

# Mesh description
g escenaNorte_2_mesh_0222

# Faces
f 1/1/1 2/2/1 3/3/1 4/4/1
f 5/2/1 6/5/1 7/6/1 8/3/1
f 9/7/1 10/8/1 11/2/1 12/1/1
f 13/8/1 14/9/1 15/5/1 16/2/1
f 17/10/1 18/11/1 19/12/1 20/13/1
f 21/10/1 22/11/1 23/12/1 24/13/1
f 25/10/1 26/11/1 27/12/1 28/13/1
f 29/10/1 30/11/1 31/12/1 32/13/1
f 33/10/1 34/11/1 35/12/1 36/13/1
f 37/10/1 38/11/1 39/12/1 40/13/1
f 41/10/1 42/11/1 43/12/1 44/13/1

