# Tiled2Unity generated file. Do not modify by hand.
# Wavefront file for 'escenaNorte_2_mesh_0223.obj'

# Vertices (Count = 92)
v -3 -7 0
v -4 -7 0
v -4 -6 0
v -3 -6 0
v -10 -7 0
v -11 -7 0
v -11 -6 0
v -10 -6 0
v -11 -7 0
v -12 -7 0
v -12 -6 0
v -11 -6 0
v 0 -9 0
v -1 -9 0
v -1 -8 0
v 0 -8 0
v -1 -9 0
v -2 -9 0
v -2 -8 0
v -1 -8 0
v -2 -9 0
v -3 -9 0
v -3 -8 0
v -2 -8 0
v -5 -9 0
v -6 -9 0
v -6 -8 0
v -5 -8 0
v -6 -9 0
v -7 -9 0
v -7 -8 0
v -6 -8 0
v -9 -9 0
v -10 -9 0
v -10 -8 0
v -9 -8 0
v -10 -9 0
v -11 -9 0
v -11 -8 0
v -10 -8 0
v -12 -9 0
v -13 -9 0
v -13 -8 0
v -12 -8 0
v -13 -9 0
v -14 -9 0
v -14 -8 0
v -13 -8 0
v 0 -10 0
v -1 -10 0
v -1 -9 0
v 0 -9 0
v -1 -10 0
v -2 -10 0
v -2 -9 0
v -1 -9 0
v -2 -10 0
v -3 -10 0
v -3 -9 0
v -2 -9 0
v -5 -10 0
v -6 -10 0
v -6 -9 0
v -5 -9 0
v -6 -10 0
v -7 -10 0
v -7 -9 0
v -6 -9 0
v -7 -10 0
v -8 -10 0
v -8 -9 0
v -7 -9 0
v -9 -10 0
v -10 -10 0
v -10 -9 0
v -9 -9 0
v -10 -10 0
v -11 -10 0
v -11 -9 0
v -10 -9 0
v -12 -10 0
v -13 -10 0
v -13 -9 0
v -12 -9 0
v -13 -10 0
v -14 -10 0
v -14 -9 0
v -13 -9 0
v -7 -11 0
v -8 -11 0
v -8 -10 0
v -7 -10 0

# Texture cooridinates (Count = 25)
vt 0.5742188 0.7539063
vt 0.6015625 0.7539063
vt 0.6015625 0.78125
vt 0.5742188 0.78125
vt 0.6015625 0.5898438
vt 0.6289063 0.5898438
vt 0.6289063 0.6171875
vt 0.6015625 0.6171875
vt 0.5742188 0.5898438
vt 0.5742188 0.6171875
vt 0.5742188 0.6445313
vt 0.6015625 0.6445313
vt 0.6015625 0.671875
vt 0.5742188 0.671875
vt 0.6289063 0.6445313
vt 0.6289063 0.671875
vt 0.6015625 0.5625
vt 0.6289063 0.5625
vt 0.5742188 0.5625
vt 0.5195313 0.5351563
vt 0.546875 0.5351563
vt 0.546875 0.5625
vt 0.5195313 0.5625
vt 0.5195313 0.5078125
vt 0.546875 0.5078125

# Normal
vn 0 0 -1

# Mesh description
g escenaNorte_2_mesh_0223

# Faces
f 1/1/1 2/2/1 3/3/1 4/4/1
f 5/1/1 6/2/1 7/3/1 8/4/1
f 9/1/1 10/2/1 11/3/1 12/4/1
f 13/5/1 14/6/1 15/7/1 16/8/1
f 17/9/1 18/5/1 19/8/1 20/10/1
f 21/5/1 22/6/1 23/7/1 24/8/1
f 25/11/1 26/12/1 27/13/1 28/14/1
f 29/12/1 30/15/1 31/16/1 32/13/1
f 33/11/1 34/12/1 35/13/1 36/14/1
f 37/12/1 38/15/1 39/16/1 40/13/1
f 41/9/1 42/5/1 43/8/1 44/10/1
f 45/5/1 46/6/1 47/7/1 48/8/1
f 49/17/1 50/18/1 51/6/1 52/5/1
f 53/19/1 54/17/1 55/5/1 56/9/1
f 57/17/1 58/18/1 59/6/1 60/5/1
f 61/10/1 62/8/1 63/12/1 64/11/1
f 65/8/1 66/7/1 67/15/1 68/12/1
f 69/20/1 70/21/1 71/22/1 72/23/1
f 73/10/1 74/8/1 75/12/1 76/11/1
f 77/8/1 78/7/1 79/15/1 80/12/1
f 81/19/1 82/17/1 83/5/1 84/9/1
f 85/17/1 86/18/1 87/6/1 88/5/1
f 89/24/1 90/25/1 91/21/1 92/20/1

