# Tiled2Unity generated file. Do not modify by hand.
# Wavefront file for 'escenaNorte_2_mesh_0132.obj'

# Vertices (Count = 280)
v -13 -1 0
v -14 -1 0
v -14 0 0
v -13 0 0
v -14 -1 0
v -15 -1 0
v -15 0 0
v -14 0 0
v -15 -1 0
v -16 -1 0
v -16 0 0
v -15 0 0
v -13 -2 0
v -14 -2 0
v -14 -1 0
v -13 -1 0
v -14 -2 0
v -15 -2 0
v -15 -1 0
v -14 -1 0
v -15 -2 0
v -16 -2 0
v -16 -1 0
v -15 -1 0
v -2 -9 0
v -3 -9 0
v -3 -8 0
v -2 -8 0
v -3 -9 0
v -4 -9 0
v -4 -8 0
v -3 -8 0
v -4 -9 0
v -5 -9 0
v -5 -8 0
v -4 -8 0
v -5 -9 0
v -6 -9 0
v -6 -8 0
v -5 -8 0
v -6 -9 0
v -7 -9 0
v -7 -8 0
v -6 -8 0
v -7 -9 0
v -8 -9 0
v -8 -8 0
v -7 -8 0
v -8 -9 0
v -9 -9 0
v -9 -8 0
v -8 -8 0
v -9 -9 0
v -10 -9 0
v -10 -8 0
v -9 -8 0
v -2 -10 0
v -3 -10 0
v -3 -9 0
v -2 -9 0
v -3 -10 0
v -4 -10 0
v -4 -9 0
v -3 -9 0
v -4 -10 0
v -5 -10 0
v -5 -9 0
v -4 -9 0
v -5 -10 0
v -6 -10 0
v -6 -9 0
v -5 -9 0
v -6 -10 0
v -7 -10 0
v -7 -9 0
v -6 -9 0
v -7 -10 0
v -8 -10 0
v -8 -9 0
v -7 -9 0
v -8 -10 0
v -9 -10 0
v -9 -9 0
v -8 -9 0
v -9 -10 0
v -10 -10 0
v -10 -9 0
v -9 -9 0
v -2 -11 0
v -3 -11 0
v -3 -10 0
v -2 -10 0
v -3 -11 0
v -4 -11 0
v -4 -10 0
v -3 -10 0
v -4 -11 0
v -5 -11 0
v -5 -10 0
v -4 -10 0
v -5 -11 0
v -6 -11 0
v -6 -10 0
v -5 -10 0
v -6 -11 0
v -7 -11 0
v -7 -10 0
v -6 -10 0
v -7 -11 0
v -8 -11 0
v -8 -10 0
v -7 -10 0
v -8 -11 0
v -9 -11 0
v -9 -10 0
v -8 -10 0
v -9 -11 0
v -10 -11 0
v -10 -10 0
v -9 -10 0
v -2 -12 0
v -3 -12 0
v -3 -11 0
v -2 -11 0
v -3 -12 0
v -4 -12 0
v -4 -11 0
v -3 -11 0
v -4 -12 0
v -5 -12 0
v -5 -11 0
v -4 -11 0
v -5 -12 0
v -6 -12 0
v -6 -11 0
v -5 -11 0
v -6 -12 0
v -7 -12 0
v -7 -11 0
v -6 -11 0
v -7 -12 0
v -8 -12 0
v -8 -11 0
v -7 -11 0
v -8 -12 0
v -9 -12 0
v -9 -11 0
v -8 -11 0
v -9 -12 0
v -10 -12 0
v -10 -11 0
v -9 -11 0
v -2 -13 0
v -3 -13 0
v -3 -12 0
v -2 -12 0
v -3 -13 0
v -4 -13 0
v -4 -12 0
v -3 -12 0
v -4 -13 0
v -5 -13 0
v -5 -12 0
v -4 -12 0
v -5 -13 0
v -6 -13 0
v -6 -12 0
v -5 -12 0
v -6 -13 0
v -7 -13 0
v -7 -12 0
v -6 -12 0
v -7 -13 0
v -8 -13 0
v -8 -12 0
v -7 -12 0
v -8 -13 0
v -9 -13 0
v -9 -12 0
v -8 -12 0
v -9 -13 0
v -10 -13 0
v -10 -12 0
v -9 -12 0
v -2 -14 0
v -3 -14 0
v -3 -13 0
v -2 -13 0
v -3 -14 0
v -4 -14 0
v -4 -13 0
v -3 -13 0
v -4 -14 0
v -5 -14 0
v -5 -13 0
v -4 -13 0
v -5 -14 0
v -6 -14 0
v -6 -13 0
v -5 -13 0
v -6 -14 0
v -7 -14 0
v -7 -13 0
v -6 -13 0
v -7 -14 0
v -8 -14 0
v -8 -13 0
v -7 -13 0
v -8 -14 0
v -9 -14 0
v -9 -13 0
v -8 -13 0
v -9 -14 0
v -10 -14 0
v -10 -13 0
v -9 -13 0
v -2 -15 0
v -3 -15 0
v -3 -14 0
v -2 -14 0
v -3 -15 0
v -4 -15 0
v -4 -14 0
v -3 -14 0
v -4 -15 0
v -5 -15 0
v -5 -14 0
v -4 -14 0
v -5 -15 0
v -6 -15 0
v -6 -14 0
v -5 -14 0
v -6 -15 0
v -7 -15 0
v -7 -14 0
v -6 -14 0
v -7 -15 0
v -8 -15 0
v -8 -14 0
v -7 -14 0
v -8 -15 0
v -9 -15 0
v -9 -14 0
v -8 -14 0
v -9 -15 0
v -10 -15 0
v -10 -14 0
v -9 -14 0
v -2 -16 0
v -3 -16 0
v -3 -15 0
v -2 -15 0
v -3 -16 0
v -4 -16 0
v -4 -15 0
v -3 -15 0
v -4 -16 0
v -5 -16 0
v -5 -15 0
v -4 -15 0
v -5 -16 0
v -6 -16 0
v -6 -15 0
v -5 -15 0
v -6 -16 0
v -7 -16 0
v -7 -15 0
v -6 -15 0
v -7 -16 0
v -8 -16 0
v -8 -15 0
v -7 -15 0
v -8 -16 0
v -9 -16 0
v -9 -15 0
v -8 -15 0
v -9 -16 0
v -10 -16 0
v -10 -15 0
v -9 -15 0

# Texture cooridinates (Count = 55)
vt 0.8476563 0.125
vt 0.875 0.125
vt 0.875 0.1523438
vt 0.8476563 0.1523438
vt 0.9023438 0.125
vt 0.9023438 0.1523438
vt 0.9296875 0.125
vt 0.9296875 0.1523438
vt 0.8476563 0.09765625
vt 0.875 0.09765625
vt 0.9023438 0.09765625
vt 0.9296875 0.09765625
vt 0.546875 0.6992188
vt 0.5742188 0.6992188
vt 0.5742188 0.7265625
vt 0.546875 0.7265625
vt 0.6015625 0.6992188
vt 0.6015625 0.7265625
vt 0.6289063 0.6992188
vt 0.6289063 0.7265625
vt 0.875 0.1796875
vt 0.8476563 0.1796875
vt 0.9023438 0.1796875
vt 0.9296875 0.1796875
vt 0.9570313 0.1523438
vt 0.9570313 0.1796875
vt 0.9570313 0.125
vt 0.9570313 0.09765625
vt 0.546875 0.5898438
vt 0.5742188 0.5898438
vt 0.5742188 0.6171875
vt 0.546875 0.6171875
vt 0.6015625 0.5898438
vt 0.6015625 0.6171875
vt 0.546875 0.5625
vt 0.5742188 0.5625
vt 0.6015625 0.5625
vt 0.7109375 0.5078125
vt 0.7382813 0.5078125
vt 0.7382813 0.5351563
vt 0.7109375 0.5351563
vt 0.7109375 0.5898438
vt 0.7382813 0.5898438
vt 0.7382813 0.6171875
vt 0.7109375 0.6171875
vt 0.2734375 0.6992188
vt 0.3007813 0.6992188
vt 0.3007813 0.7265625
vt 0.2734375 0.7265625
vt 0.328125 0.6992188
vt 0.328125 0.7265625
vt 0.3554688 0.6992188
vt 0.3554688 0.7265625
vt 0.7109375 0.5625
vt 0.7382813 0.5625

# Normal
vn 0 0 -1

# Mesh description
g escenaNorte_2_mesh_0132

# Faces
f 1/1/1 2/2/1 3/3/1 4/4/1
f 5/2/1 6/5/1 7/6/1 8/3/1
f 9/5/1 10/7/1 11/8/1 12/6/1
f 13/9/1 14/10/1 15/2/1 16/1/1
f 17/10/1 18/11/1 19/5/1 20/2/1
f 21/11/1 22/12/1 23/7/1 24/5/1
f 25/13/1 26/14/1 27/15/1 28/16/1
f 29/14/1 30/17/1 31/18/1 32/15/1
f 33/17/1 34/19/1 35/20/1 36/18/1
f 37/4/1 38/3/1 39/21/1 40/22/1
f 41/3/1 42/6/1 43/23/1 44/21/1
f 45/3/1 46/6/1 47/23/1 48/21/1
f 49/6/1 50/8/1 51/24/1 52/23/1
f 53/8/1 54/25/1 55/26/1 56/24/1
f 57/13/1 58/14/1 59/15/1 60/16/1
f 61/14/1 62/17/1 63/18/1 64/15/1
f 65/17/1 66/19/1 67/20/1 68/18/1
f 69/1/1 70/2/1 71/3/1 72/4/1
f 73/2/1 74/5/1 75/6/1 76/3/1
f 77/2/1 78/5/1 79/6/1 80/3/1
f 81/5/1 82/7/1 83/8/1 84/6/1
f 85/7/1 86/27/1 87/25/1 88/8/1
f 89/13/1 90/14/1 91/15/1 92/16/1
f 93/14/1 94/17/1 95/18/1 96/15/1
f 97/17/1 98/19/1 99/20/1 100/18/1
f 101/9/1 102/10/1 103/2/1 104/1/1
f 105/10/1 106/11/1 107/5/1 108/2/1
f 109/11/1 110/12/1 111/7/1 112/5/1
f 113/11/1 114/12/1 115/7/1 116/5/1
f 117/12/1 118/28/1 119/27/1 120/7/1
f 121/29/1 122/30/1 123/31/1 124/32/1
f 125/30/1 126/33/1 127/34/1 128/31/1
f 129/29/1 130/30/1 131/31/1 132/32/1
f 133/30/1 134/33/1 135/34/1 136/31/1
f 137/29/1 138/30/1 139/31/1 140/32/1
f 141/30/1 142/33/1 143/34/1 144/31/1
f 145/29/1 146/30/1 147/31/1 148/32/1
f 149/30/1 150/33/1 151/34/1 152/31/1
f 153/35/1 154/36/1 155/30/1 156/29/1
f 157/36/1 158/37/1 159/33/1 160/30/1
f 161/35/1 162/36/1 163/30/1 164/29/1
f 165/36/1 166/37/1 167/33/1 168/30/1
f 169/35/1 170/36/1 171/30/1 172/29/1
f 173/36/1 174/37/1 175/33/1 176/30/1
f 177/35/1 178/36/1 179/30/1 180/29/1
f 181/36/1 182/37/1 183/33/1 184/30/1
f 185/38/1 186/39/1 187/40/1 188/41/1
f 189/38/1 190/39/1 191/40/1 192/41/1
f 193/38/1 194/39/1 195/40/1 196/41/1
f 197/38/1 198/39/1 199/40/1 200/41/1
f 201/38/1 202/39/1 203/40/1 204/41/1
f 205/38/1 206/39/1 207/40/1 208/41/1
f 209/38/1 210/39/1 211/40/1 212/41/1
f 213/38/1 214/39/1 215/40/1 216/41/1
f 217/38/1 218/39/1 219/40/1 220/41/1
f 221/38/1 222/39/1 223/40/1 224/41/1
f 225/38/1 226/39/1 227/40/1 228/41/1
f 229/38/1 230/39/1 231/40/1 232/41/1
f 233/42/1 234/43/1 235/44/1 236/45/1
f 237/38/1 238/39/1 239/40/1 240/41/1
f 241/38/1 242/39/1 243/40/1 244/41/1
f 245/38/1 246/39/1 247/40/1 248/41/1
f 249/46/1 250/47/1 251/48/1 252/49/1
f 253/47/1 254/50/1 255/51/1 256/48/1
f 257/50/1 258/52/1 259/53/1 260/51/1
f 261/38/1 262/39/1 263/40/1 264/41/1
f 265/54/1 266/55/1 267/43/1 268/42/1
f 269/46/1 270/47/1 271/48/1 272/49/1
f 273/47/1 274/50/1 275/51/1 276/48/1
f 277/50/1 278/52/1 279/53/1 280/51/1

