# Tiled2Unity generated file. Do not modify by hand.
# Wavefront file for 'escenaNorte_2_mesh_0084.obj'

# Vertices (Count = 128)
v 0 -15 0
v -1 -15 0
v -1 -14 0
v 0 -14 0
v -1 -15 0
v -2 -15 0
v -2 -14 0
v -1 -14 0
v -2 -15 0
v -3 -15 0
v -3 -14 0
v -2 -14 0
v -3 -15 0
v -4 -15 0
v -4 -14 0
v -3 -14 0
v -4 -15 0
v -5 -15 0
v -5 -14 0
v -4 -14 0
v -5 -15 0
v -6 -15 0
v -6 -14 0
v -5 -14 0
v -6 -15 0
v -7 -15 0
v -7 -14 0
v -6 -14 0
v -7 -15 0
v -8 -15 0
v -8 -14 0
v -7 -14 0
v -8 -15 0
v -9 -15 0
v -9 -14 0
v -8 -14 0
v -9 -15 0
v -10 -15 0
v -10 -14 0
v -9 -14 0
v -10 -15 0
v -11 -15 0
v -11 -14 0
v -10 -14 0
v -11 -15 0
v -12 -15 0
v -12 -14 0
v -11 -14 0
v -12 -15 0
v -13 -15 0
v -13 -14 0
v -12 -14 0
v -13 -15 0
v -14 -15 0
v -14 -14 0
v -13 -14 0
v -14 -15 0
v -15 -15 0
v -15 -14 0
v -14 -14 0
v -15 -15 0
v -16 -15 0
v -16 -14 0
v -15 -14 0
v 0 -16 0
v -1 -16 0
v -1 -15 0
v 0 -15 0
v -1 -16 0
v -2 -16 0
v -2 -15 0
v -1 -15 0
v -2 -16 0
v -3 -16 0
v -3 -15 0
v -2 -15 0
v -3 -16 0
v -4 -16 0
v -4 -15 0
v -3 -15 0
v -4 -16 0
v -5 -16 0
v -5 -15 0
v -4 -15 0
v -5 -16 0
v -6 -16 0
v -6 -15 0
v -5 -15 0
v -6 -16 0
v -7 -16 0
v -7 -15 0
v -6 -15 0
v -7 -16 0
v -8 -16 0
v -8 -15 0
v -7 -15 0
v -8 -16 0
v -9 -16 0
v -9 -15 0
v -8 -15 0
v -9 -16 0
v -10 -16 0
v -10 -15 0
v -9 -15 0
v -10 -16 0
v -11 -16 0
v -11 -15 0
v -10 -15 0
v -11 -16 0
v -12 -16 0
v -12 -15 0
v -11 -15 0
v -12 -16 0
v -13 -16 0
v -13 -15 0
v -12 -15 0
v -13 -16 0
v -14 -16 0
v -14 -15 0
v -13 -15 0
v -14 -16 0
v -15 -16 0
v -15 -15 0
v -14 -15 0
v -15 -16 0
v -16 -16 0
v -16 -15 0
v -15 -15 0

# Texture cooridinates (Count = 16)
vt 0.328125 0.015625
vt 0.65625 0.015625
vt 0.65625 0.34375
vt 0.328125 0.34375
vt 0.65625 0.671875
vt 0.984375 0.671875
vt 0.984375 1
vt 0.65625 1
vt 0 0.34375
vt 0.328125 0.671875
vt 0 0.671875
vt 0.328125 1
vt 0 1
vt 0.984375 0.34375
vt 0.984375 0.015625
vt 0 0.015625

# Normal
vn 0 0 -1

# Mesh description
g escenaNorte_2_mesh_0084

# Faces
f 1/1/1 2/2/1 3/3/1 4/4/1
f 5/5/1 6/6/1 7/7/1 8/8/1
f 9/1/1 10/2/1 11/3/1 12/4/1
f 13/9/1 14/4/1 15/10/1 16/11/1
f 17/1/1 18/2/1 19/3/1 20/4/1
f 21/11/1 22/10/1 23/12/1 24/13/1
f 25/3/1 26/14/1 27/6/1 28/5/1
f 29/9/1 30/4/1 31/10/1 32/11/1
f 33/3/1 34/14/1 35/6/1 36/5/1
f 37/10/1 38/5/1 39/8/1 40/12/1
f 41/11/1 42/10/1 43/12/1 44/13/1
f 45/3/1 46/14/1 47/6/1 48/5/1
f 49/1/1 50/2/1 51/3/1 52/4/1
f 53/10/1 54/5/1 55/8/1 56/12/1
f 57/2/1 58/15/1 59/14/1 60/3/1
f 61/10/1 62/5/1 63/8/1 64/12/1
f 65/16/1 66/1/1 67/4/1 68/9/1
f 69/3/1 70/14/1 71/6/1 72/5/1
f 73/10/1 74/5/1 75/8/1 76/12/1
f 77/1/1 78/2/1 79/3/1 80/4/1
f 81/2/1 82/15/1 83/14/1 84/3/1
f 85/10/1 86/5/1 87/8/1 88/12/1
f 89/16/1 90/1/1 91/4/1 92/9/1
f 93/1/1 94/2/1 95/3/1 96/4/1
f 97/3/1 98/14/1 99/6/1 100/5/1
f 101/2/1 102/15/1 103/14/1 104/3/1
f 105/16/1 106/1/1 107/4/1 108/9/1
f 109/16/1 110/1/1 111/4/1 112/9/1
f 113/3/1 114/14/1 115/6/1 116/5/1
f 117/16/1 118/1/1 119/4/1 120/9/1
f 121/16/1 122/1/1 123/4/1 124/9/1
f 125/5/1 126/6/1 127/7/1 128/8/1

