# Tiled2Unity generated file. Do not modify by hand.
# Wavefront file for 'escenaNorte_2_mesh_0233.obj'

# Vertices (Count = 100)
v 0 -3 0
v -1 -3 0
v -1 -2 0
v 0 -2 0
v -1 -3 0
v -2 -3 0
v -2 -2 0
v -1 -2 0
v -2 -3 0
v -3 -3 0
v -3 -2 0
v -2 -2 0
v -3 -3 0
v -4 -3 0
v -4 -2 0
v -3 -2 0
v -4 -3 0
v -5 -3 0
v -5 -2 0
v -4 -2 0
v -5 -3 0
v -6 -3 0
v -6 -2 0
v -5 -2 0
v -6 -3 0
v -7 -3 0
v -7 -2 0
v -6 -2 0
v -7 -3 0
v -8 -3 0
v -8 -2 0
v -7 -2 0
v -8 -3 0
v -9 -3 0
v -9 -2 0
v -8 -2 0
v -9 -3 0
v -10 -3 0
v -10 -2 0
v -9 -2 0
v -3 -4 0
v -4 -4 0
v -4 -3 0
v -3 -3 0
v -4 -4 0
v -5 -4 0
v -5 -3 0
v -4 -3 0
v -5 -4 0
v -6 -4 0
v -6 -3 0
v -5 -3 0
v -10 -4 0
v -11 -4 0
v -11 -3 0
v -10 -3 0
v -11 -4 0
v -12 -4 0
v -12 -3 0
v -11 -3 0
v -12 -4 0
v -13 -4 0
v -13 -3 0
v -12 -3 0
v -3 -5 0
v -4 -5 0
v -4 -4 0
v -3 -4 0
v -4 -5 0
v -5 -5 0
v -5 -4 0
v -4 -4 0
v -5 -5 0
v -6 -5 0
v -6 -4 0
v -5 -4 0
v -10 -5 0
v -11 -5 0
v -11 -4 0
v -10 -4 0
v -11 -5 0
v -12 -5 0
v -12 -4 0
v -11 -4 0
v -12 -5 0
v -13 -5 0
v -13 -4 0
v -12 -4 0
v -10 -6 0
v -11 -6 0
v -11 -5 0
v -10 -5 0
v -11 -6 0
v -12 -6 0
v -12 -5 0
v -11 -5 0
v -12 -6 0
v -13 -6 0
v -13 -5 0
v -12 -5 0

# Texture cooridinates (Count = 34)
vt 0.328125 0.6445313
vt 0.3554688 0.6445313
vt 0.3554688 0.671875
vt 0.328125 0.671875
vt 0.3828125 0.6445313
vt 0.3828125 0.671875
vt 0.109375 0.7265625
vt 0.1367188 0.7265625
vt 0.1367188 0.7539063
vt 0.109375 0.7539063
vt 0.1640625 0.7265625
vt 0.1640625 0.7539063
vt 0.1914063 0.7265625
vt 0.1914063 0.7539063
vt 0.7382813 0.1523438
vt 0.765625 0.1523438
vt 0.765625 0.1796875
vt 0.7382813 0.1796875
vt 0.7929688 0.1523438
vt 0.7929688 0.1796875
vt 0.8203125 0.1523438
vt 0.8203125 0.1796875
vt 0.109375 0.6992188
vt 0.1367188 0.6992188
vt 0.1640625 0.6992188
vt 0.1914063 0.6992188
vt 0.7382813 0.125
vt 0.765625 0.125
vt 0.7929688 0.125
vt 0.8203125 0.125
vt 0.7382813 0.09765625
vt 0.765625 0.09765625
vt 0.7929688 0.09765625
vt 0.8203125 0.09765625

# Normal
vn 0 0 -1

# Mesh description
g escenaNorte_2_mesh_0233

# Faces
f 1/1/1 2/2/1 3/3/1 4/4/1
f 5/2/1 6/5/1 7/6/1 8/3/1
f 9/1/1 10/2/1 11/3/1 12/4/1
f 13/2/1 14/5/1 15/6/1 16/3/1
f 17/1/1 18/2/1 19/3/1 20/4/1
f 21/2/1 22/5/1 23/6/1 24/3/1
f 25/1/1 26/2/1 27/3/1 28/4/1
f 29/2/1 30/5/1 31/6/1 32/3/1
f 33/1/1 34/2/1 35/3/1 36/4/1
f 37/2/1 38/5/1 39/6/1 40/3/1
f 41/7/1 42/8/1 43/9/1 44/10/1
f 45/8/1 46/11/1 47/12/1 48/9/1
f 49/11/1 50/13/1 51/14/1 52/12/1
f 53/15/1 54/16/1 55/17/1 56/18/1
f 57/16/1 58/19/1 59/20/1 60/17/1
f 61/19/1 62/21/1 63/22/1 64/20/1
f 65/23/1 66/24/1 67/8/1 68/7/1
f 69/24/1 70/25/1 71/11/1 72/8/1
f 73/25/1 74/26/1 75/13/1 76/11/1
f 77/27/1 78/28/1 79/16/1 80/15/1
f 81/28/1 82/29/1 83/19/1 84/16/1
f 85/29/1 86/30/1 87/21/1 88/19/1
f 89/31/1 90/32/1 91/28/1 92/27/1
f 93/32/1 94/33/1 95/29/1 96/28/1
f 97/33/1 98/34/1 99/30/1 100/29/1

